%TF.GenerationSoftware,KiCad,Pcbnew,7.0.1*%
%TF.CreationDate,2024-01-06T16:02:36-05:00*%
%TF.ProjectId,ModbusRTU-Test-Shield,4d6f6462-7573-4525-9455-2d546573742d,0.1.0*%
%TF.SameCoordinates,PX6486dd0PY8062360*%
%TF.FileFunction,Copper,L1,Top*%
%TF.FilePolarity,Positive*%
%FSLAX46Y46*%
G04 Gerber Fmt 4.6, Leading zero omitted, Abs format (unit mm)*
G04 Created by KiCad (PCBNEW 7.0.1) date 2024-01-06 16:02:36*
%MOMM*%
%LPD*%
G01*
G04 APERTURE LIST*
G04 Aperture macros list*
%AMRoundRect*
0 Rectangle with rounded corners*
0 $1 Rounding radius*
0 $2 $3 $4 $5 $6 $7 $8 $9 X,Y pos of 4 corners*
0 Add a 4 corners polygon primitive as box body*
4,1,4,$2,$3,$4,$5,$6,$7,$8,$9,$2,$3,0*
0 Add four circle primitives for the rounded corners*
1,1,$1+$1,$2,$3*
1,1,$1+$1,$4,$5*
1,1,$1+$1,$6,$7*
1,1,$1+$1,$8,$9*
0 Add four rect primitives between the rounded corners*
20,1,$1+$1,$2,$3,$4,$5,0*
20,1,$1+$1,$4,$5,$6,$7,0*
20,1,$1+$1,$6,$7,$8,$9,0*
20,1,$1+$1,$8,$9,$2,$3,0*%
G04 Aperture macros list end*
%TA.AperFunction,ComponentPad*%
%ADD10O,3.600000X1.800000*%
%TD*%
%TA.AperFunction,ComponentPad*%
%ADD11C,1.700000*%
%TD*%
%TA.AperFunction,ComponentPad*%
%ADD12RoundRect,0.300000X-0.300000X0.300000X-0.300000X-0.300000X0.300000X-0.300000X0.300000X0.300000X0*%
%TD*%
%TA.AperFunction,ComponentPad*%
%ADD13C,1.200000*%
%TD*%
%TA.AperFunction,ComponentPad*%
%ADD14RoundRect,0.300000X0.300000X-0.300000X0.300000X0.300000X-0.300000X0.300000X-0.300000X-0.300000X0*%
%TD*%
%TA.AperFunction,ComponentPad*%
%ADD15C,2.000000*%
%TD*%
%TA.AperFunction,ComponentPad*%
%ADD16C,1.800000*%
%TD*%
%TA.AperFunction,ComponentPad*%
%ADD17RoundRect,0.450000X-0.450000X-0.450000X0.450000X-0.450000X0.450000X0.450000X-0.450000X0.450000X0*%
%TD*%
%TA.AperFunction,ComponentPad*%
%ADD18C,1.400000*%
%TD*%
%TA.AperFunction,ComponentPad*%
%ADD19O,1.400000X1.400000*%
%TD*%
%TA.AperFunction,ComponentPad*%
%ADD20RoundRect,0.400000X0.400000X0.400000X-0.400000X0.400000X-0.400000X-0.400000X0.400000X-0.400000X0*%
%TD*%
%TA.AperFunction,ComponentPad*%
%ADD21O,1.600000X1.600000*%
%TD*%
%TA.AperFunction,ComponentPad*%
%ADD22RoundRect,0.400000X0.400000X-0.400000X0.400000X0.400000X-0.400000X0.400000X-0.400000X-0.400000X0*%
%TD*%
%TA.AperFunction,ComponentPad*%
%ADD23O,1.400000X1.900000*%
%TD*%
%TA.AperFunction,ComponentPad*%
%ADD24C,2.500000*%
%TD*%
%TA.AperFunction,ComponentPad*%
%ADD25C,2.340000*%
%TD*%
%TA.AperFunction,ComponentPad*%
%ADD26RoundRect,0.550000X-0.550000X0.550000X-0.550000X-0.550000X0.550000X-0.550000X0.550000X0.550000X0*%
%TD*%
%TA.AperFunction,ComponentPad*%
%ADD27O,2.200000X2.200000*%
%TD*%
%TA.AperFunction,ComponentPad*%
%ADD28C,1.520000*%
%TD*%
G04 APERTURE END LIST*
D10*
%TO.P,J5,1,Pin_1*%
%TO.N,/RS485_D+*%
X6000000Y25725000D03*
%TO.P,J5,2,Pin_2*%
%TO.N,/RS485_D-*%
X6000000Y22225000D03*
%TO.P,J5,3,Pin_3*%
%TO.N,GND*%
X6000000Y18725000D03*
%TD*%
D11*
%TO.P,J3,1,BOOT*%
%TO.N,unconnected-(J3-BOOT-Pad1)*%
X27940000Y2540000D03*
%TO.P,J3,2,IOREF*%
%TO.N,/IOREF*%
X30480000Y2540000D03*
%TO.P,J3,3,RESET*%
%TO.N,/RESET*%
X33020000Y2540000D03*
%TO.P,J3,4,3.3V*%
%TO.N,unconnected-(J3-3.3V-Pad4)*%
X35560000Y2540000D03*
%TO.P,J3,5,5V*%
%TO.N,+5V*%
X38100000Y2540000D03*
%TO.P,J3,6,GND*%
%TO.N,GND*%
X40640000Y2540000D03*
%TO.P,J3,7,GND*%
X43180000Y2540000D03*
%TO.P,J3,8,VIN*%
%TO.N,unconnected-(J3-VIN-Pad8)*%
X45720000Y2540000D03*
%TD*%
%TO.P,J4,1,A0*%
%TO.N,/POT1*%
X50800000Y2540000D03*
%TO.P,J4,2,A1*%
%TO.N,/POT2*%
X53340000Y2540000D03*
%TO.P,J4,3,A2*%
%TO.N,unconnected-(J4-A2-Pad3)*%
X55880000Y2540000D03*
%TO.P,J4,4,A3*%
%TO.N,unconnected-(J4-A3-Pad4)*%
X58420000Y2540000D03*
%TO.P,J4,5,A4*%
%TO.N,unconnected-(J4-A4-Pad5)*%
X60960000Y2540000D03*
%TO.P,J4,6,A5*%
%TO.N,unconnected-(J4-A5-Pad6)*%
X63500000Y2540000D03*
%TD*%
%TO.P,J2,1,8*%
%TO.N,/LED4*%
X41656000Y50800000D03*
%TO.P,J2,2,9*%
%TO.N,unconnected-(J2-9-Pad2)*%
X39116000Y50800000D03*
%TO.P,J2,3,10*%
%TO.N,/SOFT_RX*%
X36576000Y50800000D03*
%TO.P,J2,4,11*%
%TO.N,/SOFT_TX*%
X34036000Y50800000D03*
%TO.P,J2,5,12*%
%TO.N,unconnected-(J2-12-Pad5)*%
X31496000Y50800000D03*
%TO.P,J2,6,13*%
%TO.N,/DE*%
X28956000Y50800000D03*
%TO.P,J2,7,GND*%
%TO.N,GND*%
X26416000Y50800000D03*
%TO.P,J2,8,AREF*%
%TO.N,unconnected-(J2-AREF-Pad8)*%
X23876000Y50800000D03*
%TO.P,J2,9,SDA*%
%TO.N,unconnected-(J2-SDA-Pad9)*%
X21336000Y50800000D03*
%TO.P,J2,10,SCL*%
%TO.N,unconnected-(J2-SCL-Pad10)*%
X18796000Y50800000D03*
%TD*%
%TO.P,J1,1,RX\u21900*%
%TO.N,/HARD_RX*%
X63500000Y50800000D03*
%TO.P,J1,2,TX\u21921*%
%TO.N,/HARD_TX*%
X60960000Y50800000D03*
%TO.P,J1,3,2*%
%TO.N,/BUTTON1*%
X58420000Y50800000D03*
%TO.P,J1,4,3*%
%TO.N,/BUTTON2*%
X55880000Y50800000D03*
%TO.P,J1,5,4*%
%TO.N,unconnected-(J1-4-Pad5)*%
X53340000Y50800000D03*
%TO.P,J1,6,5*%
%TO.N,/LED1*%
X50800000Y50800000D03*
%TO.P,J1,7,6*%
%TO.N,/LED2*%
X48260000Y50800000D03*
%TO.P,J1,8,7*%
%TO.N,/LED3*%
X45720000Y50800000D03*
%TD*%
D12*
%TO.P,C2,1*%
%TO.N,+5V*%
X19050000Y7735000D03*
D13*
%TO.P,C2,2*%
%TO.N,GND*%
X19050000Y6235000D03*
%TD*%
D14*
%TO.P,C4,1*%
%TO.N,Net-(U2-C1+)*%
X30480000Y11950000D03*
D13*
%TO.P,C4,2*%
%TO.N,Net-(U2-C1-)*%
X30480000Y13450000D03*
%TD*%
D15*
%TO.P,SW1,1,1*%
%TO.N,/BUTTON1*%
X61885000Y11990000D03*
X61885000Y18490000D03*
%TO.P,SW1,2,2*%
%TO.N,GND*%
X66385000Y11990000D03*
X66385000Y18490000D03*
%TD*%
%TO.P,SW2,1,1*%
%TO.N,/BUTTON2*%
X61885000Y24690000D03*
X61885000Y31190000D03*
%TO.P,SW2,2,2*%
%TO.N,GND*%
X66385000Y24690000D03*
X66385000Y31190000D03*
%TD*%
D16*
%TO.P,D5,2,A*%
%TO.N,+5V*%
X50800000Y12065000D03*
D17*
%TO.P,D5,1,K*%
%TO.N,Net-(D5-K)*%
X48260000Y12065000D03*
%TD*%
D16*
%TO.P,D6,2,A*%
%TO.N,Net-(D6-A)*%
X50800000Y18415000D03*
D17*
%TO.P,D6,1,K*%
%TO.N,GND*%
X48260000Y18415000D03*
%TD*%
D18*
%TO.P,R2,1*%
%TO.N,/LED2*%
X55880000Y44450000D03*
D19*
%TO.P,R2,2*%
%TO.N,Net-(D2-A)*%
X55880000Y36830000D03*
%TD*%
D20*
%TO.P,U1,1,RO*%
%TO.N,Net-(D9-K)*%
X15240000Y6350000D03*
D21*
%TO.P,U1,2,~{RE}*%
%TO.N,/DE*%
X15240000Y8890000D03*
%TO.P,U1,3,DE*%
X15240000Y11430000D03*
%TO.P,U1,4,DI*%
%TO.N,/TX*%
X15240000Y13970000D03*
%TO.P,U1,5,GND*%
%TO.N,GND*%
X7620000Y13970000D03*
%TO.P,U1,6,A*%
%TO.N,/RS485_D+*%
X7620000Y11430000D03*
%TO.P,U1,7,B*%
%TO.N,/RS485_D-*%
X7620000Y8890000D03*
%TO.P,U1,8,VCC*%
%TO.N,+5V*%
X7620000Y6350000D03*
%TD*%
D22*
%TO.P,D10,1,K*%
%TO.N,Net-(D10-K)*%
X33020000Y36830000D03*
D21*
%TO.P,D10,2,A*%
%TO.N,/RX*%
X33020000Y44450000D03*
%TD*%
D18*
%TO.P,R3,1*%
%TO.N,/LED3*%
X53340000Y44450000D03*
D19*
%TO.P,R3,2*%
%TO.N,Net-(D3-A)*%
X53340000Y36830000D03*
%TD*%
D18*
%TO.P,R1,1*%
%TO.N,/LED1*%
X58420000Y44450000D03*
D19*
%TO.P,R1,2*%
%TO.N,Net-(D1-A)*%
X58420000Y36830000D03*
%TD*%
D16*
%TO.P,D3,2,A*%
%TO.N,Net-(D3-A)*%
X57150000Y24765000D03*
D17*
%TO.P,D3,1,K*%
%TO.N,GND*%
X54610000Y24765000D03*
%TD*%
D14*
%TO.P,C6,1*%
%TO.N,Net-(U2-C2+)*%
X30480000Y22110000D03*
D13*
%TO.P,C6,2*%
%TO.N,Net-(U2-C2-)*%
X30480000Y23610000D03*
%TD*%
D23*
%TO.P,SW4,1,A*%
%TO.N,/HARD_RX*%
X28035000Y39390000D03*
%TO.P,SW4,2,B*%
%TO.N,/RX*%
X26035000Y39390000D03*
%TO.P,SW4,3,C*%
%TO.N,/SOFT_RX*%
X24035000Y39390000D03*
%TO.P,SW4,4,A*%
%TO.N,/HARD_TX*%
X28035000Y41890000D03*
%TO.P,SW4,5,B*%
%TO.N,/TX*%
X26035000Y41890000D03*
%TO.P,SW4,6,C*%
%TO.N,/SOFT_TX*%
X24035000Y41890000D03*
D24*
%TO.P,SW4,MP,MountPin*%
%TO.N,GND*%
X30135000Y40640000D03*
X21935000Y40640000D03*
%TD*%
D22*
%TO.P,D9,1,K*%
%TO.N,Net-(D9-K)*%
X35560000Y36830000D03*
D21*
%TO.P,D9,2,A*%
%TO.N,/RX*%
X35560000Y44450000D03*
%TD*%
D25*
%TO.P,RV1,1,1*%
%TO.N,/IOREF*%
X44370000Y16470000D03*
%TO.P,RV1,2,2*%
%TO.N,/POT1*%
X34370000Y13970000D03*
%TO.P,RV1,3,3*%
%TO.N,GND*%
X44370000Y11470000D03*
%TD*%
D26*
%TO.P,D11,1,K*%
%TO.N,+5V*%
X18415000Y43180000D03*
D27*
%TO.P,D11,2,A*%
%TO.N,Net-(D11-A)*%
X18415000Y33020000D03*
%TD*%
D16*
%TO.P,D2,2,A*%
%TO.N,Net-(D2-A)*%
X57150000Y18415000D03*
D17*
%TO.P,D2,1,K*%
%TO.N,GND*%
X54610000Y18415000D03*
%TD*%
D28*
%TO.P,J6,6*%
%TO.N,GND*%
X12430000Y34920000D03*
%TO.P,J6,5*%
%TO.N,Net-(D11-A)*%
X14970000Y36190000D03*
%TO.P,J6,4*%
%TO.N,/RS232_TX*%
X12430000Y37460000D03*
%TO.P,J6,3*%
%TO.N,/RS232_RX*%
X14970000Y38730000D03*
%TO.P,J6,2*%
%TO.N,+5V*%
X12430000Y40000000D03*
%TO.P,J6,1*%
%TO.N,GND*%
X14970000Y41270000D03*
%TD*%
D18*
%TO.P,R4,1*%
%TO.N,/LED4*%
X50800000Y44450000D03*
D19*
%TO.P,R4,2*%
%TO.N,Net-(D4-A)*%
X50800000Y36830000D03*
%TD*%
D16*
%TO.P,D7,2,A*%
%TO.N,/IOREF*%
X50800000Y24765000D03*
D17*
%TO.P,D7,1,K*%
%TO.N,Net-(D7-K)*%
X48260000Y24765000D03*
%TD*%
D16*
%TO.P,D8,2,A*%
%TO.N,/IOREF*%
X50800000Y31115000D03*
D17*
%TO.P,D8,1,K*%
%TO.N,Net-(D8-K)*%
X48260000Y31115000D03*
%TD*%
D18*
%TO.P,R9,1*%
%TO.N,/IOREF*%
X38100000Y36830000D03*
D19*
%TO.P,R9,2*%
%TO.N,/RX*%
X38100000Y44450000D03*
%TD*%
D25*
%TO.P,RV2,3,3*%
%TO.N,GND*%
X44370000Y26710000D03*
%TO.P,RV2,2,2*%
%TO.N,/POT2*%
X34370000Y29210000D03*
%TO.P,RV2,1,1*%
%TO.N,/IOREF*%
X44370000Y31710000D03*
%TD*%
D16*
%TO.P,D4,2,A*%
%TO.N,Net-(D4-A)*%
X57150000Y31115000D03*
D17*
%TO.P,D4,1,K*%
%TO.N,GND*%
X54610000Y31115000D03*
%TD*%
D14*
%TO.P,C5,1*%
%TO.N,GND*%
X30480000Y27190000D03*
D13*
%TO.P,C5,2*%
%TO.N,Net-(U2-VS-)*%
X30480000Y28690000D03*
%TD*%
D18*
%TO.P,R6,1*%
%TO.N,/DE*%
X45720000Y44450000D03*
D19*
%TO.P,R6,2*%
%TO.N,Net-(D6-A)*%
X45720000Y36830000D03*
%TD*%
D18*
%TO.P,R7,1*%
%TO.N,Net-(D7-K)*%
X43180000Y36830000D03*
D19*
%TO.P,R7,2*%
%TO.N,/TX*%
X43180000Y44450000D03*
%TD*%
D14*
%TO.P,C3,1*%
%TO.N,Net-(U2-VS+)*%
X30480000Y17030000D03*
D13*
%TO.P,C3,2*%
%TO.N,GND*%
X30480000Y18530000D03*
%TD*%
D15*
%TO.P,SW3,1,1*%
%TO.N,/RESET*%
X9550000Y47050000D03*
X3050000Y47050000D03*
%TO.P,SW3,2,2*%
%TO.N,GND*%
X9550000Y51550000D03*
X3050000Y51550000D03*
%TD*%
D20*
%TO.P,U2,1,C1+*%
%TO.N,Net-(U2-C1+)*%
X26670000Y11430000D03*
D21*
%TO.P,U2,2,VS+*%
%TO.N,Net-(U2-VS+)*%
X26670000Y13970000D03*
%TO.P,U2,3,C1-*%
%TO.N,Net-(U2-C1-)*%
X26670000Y16510000D03*
%TO.P,U2,4,C2+*%
%TO.N,Net-(U2-C2+)*%
X26670000Y19050000D03*
%TO.P,U2,5,C2-*%
%TO.N,Net-(U2-C2-)*%
X26670000Y21590000D03*
%TO.P,U2,6,VS-*%
%TO.N,Net-(U2-VS-)*%
X26670000Y24130000D03*
%TO.P,U2,7,T2OUT*%
%TO.N,unconnected-(U2-T2OUT-Pad7)*%
X26670000Y26670000D03*
%TO.P,U2,8,R2IN*%
%TO.N,unconnected-(U2-R2IN-Pad8)*%
X26670000Y29210000D03*
%TO.P,U2,9,R2OUT*%
%TO.N,unconnected-(U2-R2OUT-Pad9)*%
X19050000Y29210000D03*
%TO.P,U2,10,T2IN*%
%TO.N,unconnected-(U2-T2IN-Pad10)*%
X19050000Y26670000D03*
%TO.P,U2,11,T1IN*%
%TO.N,/TX*%
X19050000Y24130000D03*
%TO.P,U2,12,R1OUT*%
%TO.N,Net-(D10-K)*%
X19050000Y21590000D03*
%TO.P,U2,13,R1IN*%
%TO.N,/RS232_RX*%
X19050000Y19050000D03*
%TO.P,U2,14,T1OUT*%
%TO.N,/RS232_TX*%
X19050000Y16510000D03*
%TO.P,U2,15,GND*%
%TO.N,GND*%
X19050000Y13970000D03*
%TO.P,U2,16,VCC*%
%TO.N,+5V*%
X19050000Y11430000D03*
%TD*%
D18*
%TO.P,R8,1*%
%TO.N,Net-(D8-K)*%
X40640000Y36830000D03*
D19*
%TO.P,R8,2*%
%TO.N,/RX*%
X40640000Y44450000D03*
%TD*%
D16*
%TO.P,D1,2,A*%
%TO.N,Net-(D1-A)*%
X57150000Y12065000D03*
D17*
%TO.P,D1,1,K*%
%TO.N,GND*%
X54610000Y12065000D03*
%TD*%
D18*
%TO.P,R5,1*%
%TO.N,Net-(D5-K)*%
X48260000Y36830000D03*
D19*
%TO.P,R5,2*%
%TO.N,GND*%
X48260000Y44450000D03*
%TD*%
D14*
%TO.P,C1,1*%
%TO.N,+5V*%
X3810000Y6235000D03*
D13*
%TO.P,C1,2*%
%TO.N,GND*%
X3810000Y7735000D03*
%TD*%
%TA.AperFunction,Conductor*%
%TO.N,GND*%
G36*
X2773693Y53249555D02*
G01*
X2818484Y53208321D01*
X2838251Y53150740D01*
X2828231Y53090690D01*
X2790837Y53042646D01*
X2735084Y53018191D01*
X2680507Y53009084D01*
X2445393Y52928369D01*
X2226764Y52810054D01*
X2179942Y52773612D01*
X2179942Y52773610D01*
X3050000Y51903553D01*
X3050001Y51903553D01*
X3920057Y52773610D01*
X3920056Y52773612D01*
X3873235Y52810053D01*
X3654606Y52928369D01*
X3419492Y53009084D01*
X3364916Y53018191D01*
X3309163Y53042646D01*
X3271769Y53090690D01*
X3261749Y53150740D01*
X3281516Y53208321D01*
X3326307Y53249555D01*
X3385325Y53264500D01*
X9214675Y53264500D01*
X9273693Y53249555D01*
X9318484Y53208321D01*
X9338251Y53150740D01*
X9328231Y53090690D01*
X9290837Y53042646D01*
X9235084Y53018191D01*
X9180507Y53009084D01*
X8945393Y52928369D01*
X8726764Y52810054D01*
X8679942Y52773612D01*
X8679942Y52773610D01*
X9550000Y51903553D01*
X9550001Y51903553D01*
X10420057Y52773610D01*
X10420056Y52773612D01*
X10373235Y52810053D01*
X10154606Y52928369D01*
X9919492Y53009084D01*
X9864916Y53018191D01*
X9809163Y53042646D01*
X9771769Y53090690D01*
X9761749Y53150740D01*
X9781516Y53208321D01*
X9826307Y53249555D01*
X9885325Y53264500D01*
X64433365Y53264500D01*
X64480818Y53255061D01*
X64521046Y53228181D01*
X65928181Y51821046D01*
X65955061Y51780818D01*
X65964500Y51733365D01*
X65964500Y40430985D01*
X65961962Y40411713D01*
X65964028Y40388104D01*
X65964500Y40377297D01*
X65964500Y40364884D01*
X65967075Y40353267D01*
X65967182Y40352044D01*
X65971651Y40342459D01*
X65978451Y40334356D01*
X65978452Y40334355D01*
X65979500Y40333750D01*
X66005185Y40314042D01*
X68468181Y37851046D01*
X68495061Y37810818D01*
X68504500Y37763365D01*
X68504500Y5162636D01*
X68495061Y5115183D01*
X68468181Y5074955D01*
X66018418Y2625194D01*
X66003001Y2613364D01*
X65987760Y2595201D01*
X65980463Y2587238D01*
X65971683Y2578458D01*
X65965290Y2568423D01*
X65964501Y2567484D01*
X65960880Y2557536D01*
X65959959Y2547004D01*
X65960275Y2545826D01*
X65964500Y2513732D01*
X65964500Y1005412D01*
X65964028Y994604D01*
X65951400Y850272D01*
X65947647Y828987D01*
X65911553Y694281D01*
X65904160Y673969D01*
X65845224Y547582D01*
X65834417Y528864D01*
X65754430Y414630D01*
X65740536Y398072D01*
X65641928Y299464D01*
X65625370Y285570D01*
X65511136Y205583D01*
X65492418Y194776D01*
X65366031Y135840D01*
X65345719Y128447D01*
X65211013Y92353D01*
X65189728Y88600D01*
X65059599Y77215D01*
X65045394Y75972D01*
X65034588Y75500D01*
X1005412Y75500D01*
X994605Y75972D01*
X978693Y77365D01*
X850271Y88600D01*
X828986Y92353D01*
X694280Y128447D01*
X673968Y135840D01*
X547581Y194776D01*
X528863Y205583D01*
X414629Y285570D01*
X398071Y299464D01*
X299463Y398072D01*
X285569Y414630D01*
X205582Y528864D01*
X194775Y547582D01*
X135839Y673969D01*
X128446Y694281D01*
X92352Y828987D01*
X88599Y850273D01*
X75972Y994605D01*
X75500Y1005412D01*
X75500Y2540001D01*
X26576843Y2540001D01*
X26595435Y2315637D01*
X26595435Y2315634D01*
X26595436Y2315632D01*
X26628150Y2186447D01*
X26650705Y2097382D01*
X26741138Y1891212D01*
X26741140Y1891209D01*
X26864278Y1702732D01*
X27016760Y1537094D01*
X27194424Y1398811D01*
X27392426Y1291658D01*
X27605365Y1218556D01*
X27827431Y1181500D01*
X28052569Y1181500D01*
X28274635Y1218556D01*
X28487574Y1291658D01*
X28685576Y1398811D01*
X28863240Y1537094D01*
X29015722Y1702732D01*
X29106190Y1841205D01*
X29150982Y1882439D01*
X29210000Y1897384D01*
X29269018Y1882439D01*
X29313809Y1841205D01*
X29404278Y1702732D01*
X29556760Y1537094D01*
X29734424Y1398811D01*
X29932426Y1291658D01*
X30145365Y1218556D01*
X30367431Y1181500D01*
X30592569Y1181500D01*
X30814635Y1218556D01*
X31027574Y1291658D01*
X31225576Y1398811D01*
X31403240Y1537094D01*
X31555722Y1702732D01*
X31646190Y1841205D01*
X31690982Y1882439D01*
X31750000Y1897384D01*
X31809018Y1882439D01*
X31853809Y1841205D01*
X31944278Y1702732D01*
X32096760Y1537094D01*
X32274424Y1398811D01*
X32472426Y1291658D01*
X32685365Y1218556D01*
X32907431Y1181500D01*
X33132569Y1181500D01*
X33354635Y1218556D01*
X33567574Y1291658D01*
X33765576Y1398811D01*
X33943240Y1537094D01*
X34095722Y1702732D01*
X34186190Y1841205D01*
X34230982Y1882439D01*
X34290000Y1897384D01*
X34349018Y1882439D01*
X34393809Y1841205D01*
X34484278Y1702732D01*
X34636760Y1537094D01*
X34814424Y1398811D01*
X35012426Y1291658D01*
X35225365Y1218556D01*
X35447431Y1181500D01*
X35672569Y1181500D01*
X35894635Y1218556D01*
X36107574Y1291658D01*
X36305576Y1398811D01*
X36483240Y1537094D01*
X36635722Y1702732D01*
X36726190Y1841205D01*
X36770982Y1882439D01*
X36830000Y1897384D01*
X36889018Y1882439D01*
X36933809Y1841205D01*
X37024278Y1702732D01*
X37176760Y1537094D01*
X37354424Y1398811D01*
X37552426Y1291658D01*
X37765365Y1218556D01*
X37987431Y1181500D01*
X38212569Y1181500D01*
X38434635Y1218556D01*
X38647574Y1291658D01*
X38845576Y1398811D01*
X38879320Y1425075D01*
X39878625Y1425075D01*
X39962420Y1366401D01*
X40176507Y1266570D01*
X40404681Y1205431D01*
X40640000Y1184843D01*
X40875318Y1205431D01*
X41103492Y1266570D01*
X41317576Y1366400D01*
X41401373Y1425075D01*
X42418625Y1425075D01*
X42502420Y1366401D01*
X42716507Y1266570D01*
X42944681Y1205431D01*
X43180000Y1184843D01*
X43415318Y1205431D01*
X43643492Y1266570D01*
X43857576Y1366400D01*
X43941373Y1425075D01*
X43180000Y2186447D01*
X42418625Y1425075D01*
X41401373Y1425075D01*
X40640000Y2186447D01*
X39878625Y1425075D01*
X38879320Y1425075D01*
X39023240Y1537094D01*
X39175722Y1702732D01*
X39269748Y1846651D01*
X39313664Y1887405D01*
X39371563Y1902812D01*
X39429927Y1889274D01*
X39475131Y1849951D01*
X39525072Y1778627D01*
X39525073Y1778627D01*
X40286447Y2539999D01*
X40993553Y2539999D01*
X41754925Y1778627D01*
X41808424Y1855031D01*
X41852742Y1893897D01*
X41909999Y1907908D01*
X41967256Y1893897D01*
X42011574Y1855031D01*
X42065072Y1778627D01*
X42065073Y1778627D01*
X42826447Y2539999D01*
X43533553Y2539999D01*
X44294925Y1778627D01*
X44344868Y1849952D01*
X44390072Y1889274D01*
X44448436Y1902812D01*
X44506335Y1887405D01*
X44550252Y1846649D01*
X44644276Y1702733D01*
X44726573Y1613337D01*
X44796760Y1537094D01*
X44974424Y1398811D01*
X45172426Y1291658D01*
X45385365Y1218556D01*
X45607431Y1181500D01*
X45832569Y1181500D01*
X46054635Y1218556D01*
X46267574Y1291658D01*
X46465576Y1398811D01*
X46643240Y1537094D01*
X46795722Y1702732D01*
X46918860Y1891209D01*
X47009296Y2097384D01*
X47064564Y2315632D01*
X47083156Y2540000D01*
X49436843Y2540000D01*
X49455435Y2315637D01*
X49455435Y2315634D01*
X49455436Y2315632D01*
X49488150Y2186447D01*
X49510705Y2097382D01*
X49601138Y1891212D01*
X49601140Y1891209D01*
X49724278Y1702732D01*
X49876760Y1537094D01*
X50054424Y1398811D01*
X50252426Y1291658D01*
X50465365Y1218556D01*
X50687431Y1181500D01*
X50912569Y1181500D01*
X51134635Y1218556D01*
X51347574Y1291658D01*
X51545576Y1398811D01*
X51723240Y1537094D01*
X51875722Y1702732D01*
X51966190Y1841205D01*
X52010982Y1882439D01*
X52070000Y1897384D01*
X52129018Y1882439D01*
X52173809Y1841205D01*
X52264278Y1702732D01*
X52416760Y1537094D01*
X52594424Y1398811D01*
X52792426Y1291658D01*
X53005365Y1218556D01*
X53227431Y1181500D01*
X53452569Y1181500D01*
X53674635Y1218556D01*
X53887574Y1291658D01*
X54085576Y1398811D01*
X54263240Y1537094D01*
X54415722Y1702732D01*
X54506190Y1841205D01*
X54550982Y1882439D01*
X54610000Y1897384D01*
X54669018Y1882439D01*
X54713809Y1841205D01*
X54804278Y1702732D01*
X54956760Y1537094D01*
X55134424Y1398811D01*
X55332426Y1291658D01*
X55545365Y1218556D01*
X55767431Y1181500D01*
X55992569Y1181500D01*
X56214635Y1218556D01*
X56427574Y1291658D01*
X56625576Y1398811D01*
X56803240Y1537094D01*
X56955722Y1702732D01*
X57046190Y1841205D01*
X57090982Y1882439D01*
X57150000Y1897384D01*
X57209018Y1882439D01*
X57253809Y1841205D01*
X57344278Y1702732D01*
X57496760Y1537094D01*
X57674424Y1398811D01*
X57872426Y1291658D01*
X58085365Y1218556D01*
X58307431Y1181500D01*
X58532569Y1181500D01*
X58754635Y1218556D01*
X58967574Y1291658D01*
X59165576Y1398811D01*
X59343240Y1537094D01*
X59495722Y1702732D01*
X59586190Y1841205D01*
X59630982Y1882439D01*
X59690000Y1897384D01*
X59749018Y1882439D01*
X59793809Y1841205D01*
X59884278Y1702732D01*
X60036760Y1537094D01*
X60214424Y1398811D01*
X60412426Y1291658D01*
X60625365Y1218556D01*
X60847431Y1181500D01*
X61072569Y1181500D01*
X61294635Y1218556D01*
X61507574Y1291658D01*
X61705576Y1398811D01*
X61883240Y1537094D01*
X62035722Y1702732D01*
X62126190Y1841205D01*
X62170982Y1882439D01*
X62230000Y1897384D01*
X62289018Y1882439D01*
X62333809Y1841205D01*
X62424278Y1702732D01*
X62576760Y1537094D01*
X62754424Y1398811D01*
X62952426Y1291658D01*
X63165365Y1218556D01*
X63387431Y1181500D01*
X63612569Y1181500D01*
X63834635Y1218556D01*
X64047574Y1291658D01*
X64245576Y1398811D01*
X64423240Y1537094D01*
X64575722Y1702732D01*
X64698860Y1891209D01*
X64789296Y2097384D01*
X64844564Y2315632D01*
X64863156Y2540000D01*
X64844564Y2764368D01*
X64789296Y2982616D01*
X64698860Y3188791D01*
X64575722Y3377268D01*
X64423240Y3542906D01*
X64245576Y3681189D01*
X64047574Y3788342D01*
X64047573Y3788343D01*
X64047572Y3788343D01*
X63834636Y3861444D01*
X63612569Y3898500D01*
X63387431Y3898500D01*
X63165363Y3861444D01*
X62952427Y3788343D01*
X62754424Y3681189D01*
X62576760Y3542906D01*
X62424279Y3377270D01*
X62333809Y3238795D01*
X62289017Y3197562D01*
X62230000Y3182617D01*
X62170983Y3197562D01*
X62126191Y3238795D01*
X62035723Y3377266D01*
X62035722Y3377268D01*
X61883240Y3542906D01*
X61705576Y3681189D01*
X61507574Y3788342D01*
X61507573Y3788343D01*
X61507572Y3788343D01*
X61294636Y3861444D01*
X61072569Y3898500D01*
X60847431Y3898500D01*
X60625363Y3861444D01*
X60412427Y3788343D01*
X60214424Y3681189D01*
X60036760Y3542906D01*
X59884279Y3377270D01*
X59793809Y3238795D01*
X59749017Y3197562D01*
X59690000Y3182617D01*
X59630983Y3197562D01*
X59586191Y3238795D01*
X59495723Y3377266D01*
X59495722Y3377268D01*
X59343240Y3542906D01*
X59165576Y3681189D01*
X58967574Y3788342D01*
X58967573Y3788343D01*
X58967572Y3788343D01*
X58754636Y3861444D01*
X58532569Y3898500D01*
X58307431Y3898500D01*
X58085363Y3861444D01*
X57872427Y3788343D01*
X57674424Y3681189D01*
X57496760Y3542906D01*
X57344279Y3377270D01*
X57253809Y3238795D01*
X57209017Y3197562D01*
X57150000Y3182617D01*
X57090983Y3197562D01*
X57046191Y3238795D01*
X56955723Y3377266D01*
X56955722Y3377268D01*
X56803240Y3542906D01*
X56625576Y3681189D01*
X56427574Y3788342D01*
X56427573Y3788343D01*
X56427572Y3788343D01*
X56214636Y3861444D01*
X55992569Y3898500D01*
X55767431Y3898500D01*
X55545363Y3861444D01*
X55332427Y3788343D01*
X55134424Y3681189D01*
X54956760Y3542906D01*
X54804279Y3377270D01*
X54713809Y3238795D01*
X54669017Y3197562D01*
X54610000Y3182617D01*
X54550983Y3197562D01*
X54506191Y3238795D01*
X54415723Y3377266D01*
X54415722Y3377268D01*
X54263240Y3542906D01*
X54085576Y3681189D01*
X53887574Y3788342D01*
X53887573Y3788343D01*
X53887572Y3788343D01*
X53674636Y3861444D01*
X53452569Y3898500D01*
X53227431Y3898500D01*
X53005363Y3861444D01*
X52792427Y3788343D01*
X52594424Y3681189D01*
X52416760Y3542906D01*
X52264279Y3377270D01*
X52173809Y3238795D01*
X52129017Y3197562D01*
X52070000Y3182617D01*
X52010983Y3197562D01*
X51966191Y3238795D01*
X51875723Y3377266D01*
X51875722Y3377268D01*
X51723240Y3542906D01*
X51545576Y3681189D01*
X51347574Y3788342D01*
X51347573Y3788343D01*
X51347572Y3788343D01*
X51134636Y3861444D01*
X50912569Y3898500D01*
X50687431Y3898500D01*
X50465363Y3861444D01*
X50252427Y3788343D01*
X50054424Y3681189D01*
X49876760Y3542906D01*
X49724279Y3377270D01*
X49601138Y3188789D01*
X49510705Y2982619D01*
X49455435Y2764364D01*
X49436843Y2540000D01*
X47083156Y2540000D01*
X47064564Y2764368D01*
X47009296Y2982616D01*
X46918860Y3188791D01*
X46795722Y3377268D01*
X46643240Y3542906D01*
X46465576Y3681189D01*
X46267574Y3788342D01*
X46267573Y3788343D01*
X46267572Y3788343D01*
X46054636Y3861444D01*
X45832569Y3898500D01*
X45607431Y3898500D01*
X45385363Y3861444D01*
X45172427Y3788343D01*
X44974424Y3681189D01*
X44796760Y3542906D01*
X44644275Y3377266D01*
X44550250Y3233351D01*
X44506333Y3192596D01*
X44448435Y3177189D01*
X44390070Y3190727D01*
X44344867Y3230050D01*
X44294925Y3301374D01*
X44294925Y3301375D01*
X43533553Y2540000D01*
X43533553Y2539999D01*
X42826447Y2539999D01*
X42826447Y2540000D01*
X42065072Y3301375D01*
X42065072Y3301374D01*
X42011574Y3224970D01*
X41967256Y3186104D01*
X41909999Y3172093D01*
X41852742Y3186104D01*
X41808424Y3224970D01*
X41754925Y3301374D01*
X41754925Y3301375D01*
X40993553Y2540000D01*
X40993553Y2539999D01*
X40286447Y2539999D01*
X40286447Y2540000D01*
X39525073Y3301374D01*
X39475133Y3230050D01*
X39429929Y3190727D01*
X39371565Y3177188D01*
X39313665Y3192595D01*
X39269748Y3233351D01*
X39175723Y3377268D01*
X39099481Y3460087D01*
X39023240Y3542906D01*
X38879316Y3654928D01*
X39878625Y3654928D01*
X40640000Y2893553D01*
X40640001Y2893553D01*
X41401373Y3654927D01*
X41401373Y3654928D01*
X42418625Y3654928D01*
X43180000Y2893553D01*
X43180001Y2893553D01*
X43941373Y3654927D01*
X43941373Y3654928D01*
X43857580Y3713600D01*
X43643492Y3813431D01*
X43415318Y3874570D01*
X43180000Y3895158D01*
X42944681Y3874570D01*
X42716507Y3813431D01*
X42502422Y3713601D01*
X42418625Y3654928D01*
X41401373Y3654928D01*
X41317580Y3713600D01*
X41103492Y3813431D01*
X40875318Y3874570D01*
X40640000Y3895158D01*
X40404681Y3874570D01*
X40176507Y3813431D01*
X39962422Y3713601D01*
X39878625Y3654928D01*
X38879316Y3654928D01*
X38845576Y3681189D01*
X38647574Y3788342D01*
X38647573Y3788343D01*
X38647572Y3788343D01*
X38434636Y3861444D01*
X38212569Y3898500D01*
X37987431Y3898500D01*
X37765363Y3861444D01*
X37552427Y3788343D01*
X37354424Y3681189D01*
X37176760Y3542906D01*
X37024279Y3377270D01*
X36933809Y3238795D01*
X36889017Y3197562D01*
X36830000Y3182617D01*
X36770983Y3197562D01*
X36726191Y3238795D01*
X36635723Y3377266D01*
X36635722Y3377268D01*
X36483240Y3542906D01*
X36305576Y3681189D01*
X36107574Y3788342D01*
X36107573Y3788343D01*
X36107572Y3788343D01*
X35894636Y3861444D01*
X35672569Y3898500D01*
X35447431Y3898500D01*
X35225363Y3861444D01*
X35012427Y3788343D01*
X34814424Y3681189D01*
X34636760Y3542906D01*
X34484279Y3377270D01*
X34393809Y3238795D01*
X34349017Y3197562D01*
X34290000Y3182617D01*
X34230983Y3197562D01*
X34186191Y3238795D01*
X34095723Y3377266D01*
X34095722Y3377268D01*
X33943240Y3542906D01*
X33765576Y3681189D01*
X33567574Y3788342D01*
X33567573Y3788343D01*
X33567572Y3788343D01*
X33354636Y3861444D01*
X33132569Y3898500D01*
X32907431Y3898500D01*
X32685363Y3861444D01*
X32472427Y3788343D01*
X32274424Y3681189D01*
X32096760Y3542906D01*
X31944279Y3377270D01*
X31853809Y3238795D01*
X31809017Y3197562D01*
X31750000Y3182617D01*
X31690983Y3197562D01*
X31646191Y3238795D01*
X31555723Y3377266D01*
X31555722Y3377268D01*
X31403240Y3542906D01*
X31225576Y3681189D01*
X31027574Y3788342D01*
X31027573Y3788343D01*
X31027572Y3788343D01*
X30814636Y3861444D01*
X30592569Y3898500D01*
X30367431Y3898500D01*
X30145363Y3861444D01*
X29932427Y3788343D01*
X29734424Y3681189D01*
X29556760Y3542906D01*
X29404279Y3377270D01*
X29313809Y3238795D01*
X29269017Y3197562D01*
X29210000Y3182617D01*
X29150983Y3197562D01*
X29106191Y3238795D01*
X29015723Y3377266D01*
X29015722Y3377268D01*
X28863240Y3542906D01*
X28685576Y3681189D01*
X28487574Y3788342D01*
X28487573Y3788343D01*
X28487572Y3788343D01*
X28274636Y3861444D01*
X28052569Y3898500D01*
X27827431Y3898500D01*
X27605363Y3861444D01*
X27392427Y3788343D01*
X27194424Y3681189D01*
X27016760Y3542906D01*
X26864279Y3377270D01*
X26741138Y3188789D01*
X26650705Y2982619D01*
X26595435Y2764364D01*
X26576843Y2540001D01*
X75500Y2540001D01*
X75500Y5889591D01*
X2701500Y5889591D01*
X2716782Y5753956D01*
X2716782Y5753954D01*
X2716783Y5753953D01*
X2776957Y5581985D01*
X2873889Y5427719D01*
X3002719Y5298889D01*
X3156985Y5201957D01*
X3328953Y5141783D01*
X3383209Y5135670D01*
X3464591Y5126500D01*
X3464594Y5126500D01*
X4155406Y5126500D01*
X4155409Y5126500D01*
X4230846Y5135000D01*
X4291047Y5141783D01*
X4463015Y5201957D01*
X4617281Y5298889D01*
X4746111Y5427719D01*
X4843043Y5581985D01*
X4903217Y5753953D01*
X4917582Y5881447D01*
X4918500Y5889591D01*
X4918500Y6350001D01*
X6306501Y6350001D01*
X6326456Y6121916D01*
X6385717Y5900754D01*
X6482474Y5693256D01*
X6482476Y5693254D01*
X6482477Y5693251D01*
X6613802Y5505700D01*
X6775700Y5343802D01*
X6963251Y5212477D01*
X7170757Y5115716D01*
X7391913Y5056457D01*
X7620000Y5036502D01*
X7848087Y5056457D01*
X8069243Y5115716D01*
X8276749Y5212477D01*
X8464300Y5343802D01*
X8626198Y5505700D01*
X8757523Y5693251D01*
X8854284Y5900757D01*
X8913543Y6121913D01*
X8933498Y6350000D01*
X8913543Y6578087D01*
X8854284Y6799243D01*
X8757523Y7006749D01*
X8626198Y7194300D01*
X8464300Y7356198D01*
X8276749Y7487523D01*
X8233653Y7507619D01*
X8181478Y7553377D01*
X8162059Y7620003D01*
X8181480Y7686628D01*
X8233654Y7732382D01*
X8276749Y7752477D01*
X8464300Y7883802D01*
X8626198Y8045700D01*
X8757523Y8233251D01*
X8854284Y8440757D01*
X8913543Y8661913D01*
X8933498Y8890000D01*
X8933498Y8890001D01*
X13926501Y8890001D01*
X13946456Y8661916D01*
X14005717Y8440754D01*
X14102474Y8233256D01*
X14102476Y8233254D01*
X14102477Y8233251D01*
X14233802Y8045700D01*
X14395700Y7883802D01*
X14508161Y7805056D01*
X14548957Y7756865D01*
X14560734Y7694832D01*
X14540438Y7635042D01*
X14493331Y7592997D01*
X14342469Y7516129D01*
X14194055Y7395945D01*
X14073871Y7247531D01*
X13987170Y7077371D01*
X13950441Y6940293D01*
X13937743Y6892904D01*
X13931931Y6819050D01*
X13931500Y6813578D01*
X13931500Y5886422D01*
X13937742Y5807098D01*
X13987170Y5622630D01*
X14073871Y5452470D01*
X14194055Y5304055D01*
X14342470Y5183871D01*
X14512629Y5097171D01*
X14697096Y5047743D01*
X14776419Y5041500D01*
X15703580Y5041501D01*
X15782904Y5047743D01*
X15967371Y5097171D01*
X16137530Y5183871D01*
X16281876Y5300760D01*
X18469310Y5300760D01*
X18557588Y5246101D01*
X18747679Y5172460D01*
X18948072Y5135000D01*
X19151928Y5135000D01*
X19352320Y5172460D01*
X19542411Y5246101D01*
X19630688Y5300760D01*
X19050001Y5881447D01*
X19050000Y5881447D01*
X18469310Y5300760D01*
X16281876Y5300760D01*
X16285945Y5304055D01*
X16406129Y5452470D01*
X16492829Y5622629D01*
X16542257Y5807096D01*
X16548500Y5886419D01*
X16548499Y6813580D01*
X16542257Y6892904D01*
X16492829Y7077371D01*
X16406129Y7247530D01*
X16291090Y7389591D01*
X17941500Y7389591D01*
X17956782Y7253956D01*
X17956782Y7253954D01*
X17956783Y7253953D01*
X18016957Y7081985D01*
X18105989Y6940291D01*
X18124843Y6880457D01*
X18111995Y6819050D01*
X18019885Y6634069D01*
X17964096Y6437993D01*
X17945287Y6235000D01*
X17964096Y6032008D01*
X18019885Y5835932D01*
X18110751Y5653448D01*
X18112532Y5651088D01*
X18962318Y6500873D01*
X19017905Y6532967D01*
X19082093Y6532967D01*
X19137680Y6500873D01*
X19987465Y5651088D01*
X19989247Y5653447D01*
X20080115Y5835934D01*
X20135903Y6032008D01*
X20154712Y6235000D01*
X20135903Y6437993D01*
X20080114Y6634069D01*
X19988005Y6819050D01*
X19975157Y6880457D01*
X19994010Y6940291D01*
X20083043Y7081985D01*
X20143217Y7253953D01*
X20152454Y7335934D01*
X20158500Y7389591D01*
X20158500Y8080409D01*
X20143217Y8216045D01*
X20143217Y8216047D01*
X20083043Y8388015D01*
X19986111Y8542281D01*
X19857281Y8671111D01*
X19703015Y8768043D01*
X19531047Y8828217D01*
X19531046Y8828218D01*
X19531044Y8828218D01*
X19395409Y8843500D01*
X19395406Y8843500D01*
X18704594Y8843500D01*
X18704591Y8843500D01*
X18568955Y8828218D01*
X18396984Y8768043D01*
X18242717Y8671110D01*
X18113890Y8542283D01*
X18016957Y8388016D01*
X17956782Y8216045D01*
X17941500Y8080409D01*
X17941500Y7389591D01*
X16291090Y7389591D01*
X16285945Y7395945D01*
X16137530Y7516129D01*
X16106366Y7532008D01*
X15986668Y7592997D01*
X15939561Y7635042D01*
X15919265Y7694832D01*
X15931042Y7756865D01*
X15971838Y7805056D01*
X16084300Y7883802D01*
X16246198Y8045700D01*
X16377523Y8233251D01*
X16474284Y8440757D01*
X16533543Y8661913D01*
X16553498Y8890000D01*
X16533543Y9118087D01*
X16474284Y9339243D01*
X16377523Y9546749D01*
X16246198Y9734300D01*
X16084300Y9896198D01*
X15896749Y10027523D01*
X15853655Y10047618D01*
X15801479Y10093375D01*
X15782059Y10160000D01*
X15801479Y10226625D01*
X15853655Y10272382D01*
X15856882Y10273888D01*
X15896749Y10292477D01*
X16084300Y10423802D01*
X16246198Y10585700D01*
X16377523Y10773251D01*
X16474284Y10980757D01*
X16533543Y11201913D01*
X16553498Y11430000D01*
X17736501Y11430000D01*
X17756456Y11201916D01*
X17771829Y11144543D01*
X17803811Y11025185D01*
X17815717Y10980754D01*
X17912474Y10773256D01*
X17912476Y10773254D01*
X17912477Y10773251D01*
X18043802Y10585700D01*
X18205700Y10423802D01*
X18393251Y10292477D01*
X18600757Y10195716D01*
X18821913Y10136457D01*
X19050000Y10116502D01*
X19278087Y10136457D01*
X19499243Y10195716D01*
X19706749Y10292477D01*
X19894300Y10423802D01*
X20056198Y10585700D01*
X20187523Y10773251D01*
X20284284Y10980757D01*
X20343543Y11201913D01*
X20363498Y11430000D01*
X20343543Y11658087D01*
X20284284Y11879243D01*
X20187523Y12086749D01*
X20056198Y12274300D01*
X19894300Y12436198D01*
X19706749Y12567523D01*
X19706748Y12567524D01*
X19706746Y12567525D01*
X19653598Y12592308D01*
X19601422Y12638066D01*
X19582003Y12704691D01*
X19601423Y12771317D01*
X19653600Y12817073D01*
X19702481Y12839867D01*
X19888819Y12970342D01*
X20049658Y13131181D01*
X20180134Y13317520D01*
X20276266Y13523674D01*
X20328872Y13720000D01*
X17771128Y13720000D01*
X17823733Y13523674D01*
X17919865Y13317520D01*
X18050341Y13131181D01*
X18211180Y12970342D01*
X18397516Y12839868D01*
X18446400Y12817073D01*
X18498576Y12771316D01*
X18517996Y12704691D01*
X18498577Y12638066D01*
X18446402Y12592309D01*
X18393256Y12567526D01*
X18393255Y12567525D01*
X18393251Y12567523D01*
X18242045Y12461647D01*
X18205696Y12436195D01*
X18043805Y12274304D01*
X18043802Y12274301D01*
X18043802Y12274300D01*
X18010481Y12226713D01*
X17912474Y12086745D01*
X17815717Y11879247D01*
X17756456Y11658085D01*
X17736501Y11430000D01*
X16553498Y11430000D01*
X16533543Y11658087D01*
X16474284Y11879243D01*
X16377523Y12086749D01*
X16246198Y12274300D01*
X16084300Y12436198D01*
X15896749Y12567523D01*
X15890165Y12570593D01*
X15853655Y12587618D01*
X15801479Y12633375D01*
X15782059Y12700000D01*
X15801479Y12766625D01*
X15853655Y12812382D01*
X15859593Y12815151D01*
X15896749Y12832477D01*
X16084300Y12963802D01*
X16246198Y13125700D01*
X16377523Y13313251D01*
X16474284Y13520757D01*
X16533543Y13741913D01*
X16553498Y13970000D01*
X16553498Y13970001D01*
X25356501Y13970001D01*
X25376456Y13741916D01*
X25382561Y13719133D01*
X25434934Y13523674D01*
X25435717Y13520754D01*
X25532474Y13313256D01*
X25532476Y13313254D01*
X25532477Y13313251D01*
X25663802Y13125700D01*
X25825700Y12963802D01*
X25938161Y12885056D01*
X25978957Y12836865D01*
X25990734Y12774832D01*
X25970438Y12715042D01*
X25923331Y12672997D01*
X25772469Y12596129D01*
X25624055Y12475945D01*
X25503871Y12327531D01*
X25417170Y12157371D01*
X25392420Y12065000D01*
X25367743Y11972904D01*
X25367013Y11963622D01*
X25361500Y11893578D01*
X25361500Y10966422D01*
X25367742Y10887098D01*
X25417170Y10702630D01*
X25494483Y10550895D01*
X25503871Y10532470D01*
X25624055Y10384055D01*
X25772470Y10263871D01*
X25942629Y10177171D01*
X26127096Y10127743D01*
X26206419Y10121500D01*
X27133580Y10121501D01*
X27176165Y10124852D01*
X43378402Y10124852D01*
X43532660Y10019682D01*
X43758167Y9911083D01*
X43997348Y9837305D01*
X44244851Y9800000D01*
X44495149Y9800000D01*
X44742651Y9837305D01*
X44981832Y9911083D01*
X45207337Y10019680D01*
X45361596Y10124852D01*
X44370000Y11116447D01*
X43378402Y10124852D01*
X27176165Y10124852D01*
X27212904Y10127743D01*
X27397371Y10177171D01*
X27567530Y10263871D01*
X27715945Y10384055D01*
X27836129Y10532470D01*
X27922829Y10702629D01*
X27972257Y10887096D01*
X27978500Y10966419D01*
X27978499Y11893580D01*
X27972257Y11972904D01*
X27922829Y12157371D01*
X27836129Y12327530D01*
X27715945Y12475945D01*
X27567530Y12596129D01*
X27554015Y12603015D01*
X27416668Y12672997D01*
X27369561Y12715042D01*
X27349265Y12774832D01*
X27361042Y12836865D01*
X27401838Y12885056D01*
X27514300Y12963802D01*
X27676198Y13125700D01*
X27807523Y13313251D01*
X27871290Y13450000D01*
X29366751Y13450000D01*
X29368134Y13435080D01*
X29385706Y13245440D01*
X29441924Y13047850D01*
X29536697Y12857522D01*
X29549545Y12796115D01*
X29530691Y12736279D01*
X29446958Y12603018D01*
X29386782Y12431045D01*
X29371500Y12295409D01*
X29371500Y11604591D01*
X29386782Y11468956D01*
X29386782Y11468954D01*
X29386783Y11468953D01*
X29446957Y11296985D01*
X29543889Y11142719D01*
X29672719Y11013889D01*
X29826985Y10916957D01*
X29998953Y10856783D01*
X30053209Y10850670D01*
X30134591Y10841500D01*
X30134594Y10841500D01*
X30825406Y10841500D01*
X30825409Y10841500D01*
X30893226Y10849142D01*
X30961047Y10856783D01*
X31133015Y10916957D01*
X31287281Y11013889D01*
X31416111Y11142719D01*
X31513043Y11296985D01*
X31573217Y11468953D01*
X31573335Y11470000D01*
X42695316Y11470000D01*
X42714021Y11220403D01*
X42769718Y10976379D01*
X42861163Y10743382D01*
X42986310Y10526620D01*
X43024800Y10478355D01*
X44016447Y11469999D01*
X44723553Y11469999D01*
X45715198Y10478354D01*
X45715199Y10478355D01*
X45753688Y10526618D01*
X45878836Y10743382D01*
X45970281Y10976379D01*
X46025978Y11220403D01*
X46044683Y11470000D01*
X46037983Y11559404D01*
X46851500Y11559404D01*
X46856668Y11501279D01*
X46861669Y11445030D01*
X46904029Y11296985D01*
X46915296Y11257611D01*
X47005552Y11084824D01*
X47128743Y10933743D01*
X47279824Y10810552D01*
X47452611Y10720296D01*
X47640030Y10666669D01*
X47754404Y10656500D01*
X48765593Y10656500D01*
X48765596Y10656500D01*
X48879970Y10666669D01*
X49067389Y10720296D01*
X49240176Y10810552D01*
X49391257Y10933743D01*
X49514448Y11084824D01*
X49531764Y11117976D01*
X49570594Y11162168D01*
X49625429Y11183492D01*
X49683920Y11177140D01*
X49732899Y11144543D01*
X49787875Y11084824D01*
X49842780Y11025182D01*
X50026983Y10881810D01*
X50232273Y10770713D01*
X50287466Y10751765D01*
X50453046Y10694920D01*
X50683288Y10656500D01*
X50916712Y10656500D01*
X51146953Y10694920D01*
X51257339Y10732817D01*
X51367727Y10770713D01*
X51573017Y10881810D01*
X51757220Y11025182D01*
X51915314Y11196917D01*
X52042984Y11392331D01*
X52136749Y11606093D01*
X52189651Y11815000D01*
X53210001Y11815000D01*
X53210001Y11559902D01*
X53220079Y11446537D01*
X53273230Y11260781D01*
X53362685Y11089527D01*
X53484784Y10939785D01*
X53634526Y10817686D01*
X53805780Y10728231D01*
X53991536Y10675080D01*
X54104902Y10665000D01*
X54360000Y10665000D01*
X54360000Y10665001D01*
X54860000Y10665001D01*
X55115098Y10665001D01*
X55228463Y10675080D01*
X55414219Y10728231D01*
X55585473Y10817686D01*
X55735215Y10939785D01*
X55857314Y11089526D01*
X55875642Y11124615D01*
X55914476Y11168814D01*
X55969310Y11190138D01*
X56027802Y11183786D01*
X56076781Y11151189D01*
X56137875Y11084824D01*
X56192780Y11025182D01*
X56376983Y10881810D01*
X56582273Y10770713D01*
X56637466Y10751765D01*
X56803046Y10694920D01*
X57033288Y10656500D01*
X57266712Y10656500D01*
X57496953Y10694920D01*
X57607339Y10732817D01*
X57717727Y10770713D01*
X57923017Y10881810D01*
X58107220Y11025182D01*
X58265314Y11196917D01*
X58392984Y11392331D01*
X58486749Y11606093D01*
X58544051Y11832374D01*
X58557112Y11990000D01*
X60371835Y11990000D01*
X60390465Y11753288D01*
X60445894Y11522407D01*
X60491327Y11412722D01*
X60536760Y11303037D01*
X60660824Y11100584D01*
X60815031Y10920031D01*
X60995584Y10765824D01*
X61198037Y10641760D01*
X61417406Y10550895D01*
X61648289Y10495465D01*
X61885000Y10476835D01*
X62121711Y10495465D01*
X62352594Y10550895D01*
X62571963Y10641760D01*
X62774416Y10765824D01*
X62775079Y10766390D01*
X65514942Y10766390D01*
X65561766Y10729945D01*
X65780393Y10611632D01*
X66015506Y10530917D01*
X66260707Y10490000D01*
X66509293Y10490000D01*
X66754493Y10530917D01*
X66989606Y10611632D01*
X67208233Y10729947D01*
X67255056Y10766391D01*
X66385000Y11636447D01*
X65514942Y10766391D01*
X65514942Y10766390D01*
X62775079Y10766390D01*
X62954969Y10920031D01*
X63109176Y11100584D01*
X63233240Y11303037D01*
X63324105Y11522406D01*
X63379535Y11753289D01*
X63398165Y11990000D01*
X63398165Y11990001D01*
X64879858Y11990001D01*
X64900386Y11742268D01*
X64961413Y11501279D01*
X65061268Y11273630D01*
X65161563Y11120118D01*
X65161564Y11120118D01*
X66031447Y11989999D01*
X66031447Y11990000D01*
X66738553Y11990000D01*
X67608434Y11120118D01*
X67708730Y11273631D01*
X67808586Y11501279D01*
X67869613Y11742268D01*
X67890141Y11990001D01*
X67869613Y12237733D01*
X67808586Y12478722D01*
X67708730Y12706370D01*
X67608434Y12859884D01*
X66738553Y11990000D01*
X66031447Y11990000D01*
X65161564Y12859884D01*
X65061266Y12706366D01*
X64961413Y12478722D01*
X64900386Y12237733D01*
X64879858Y11990001D01*
X63398165Y11990001D01*
X63379535Y12226711D01*
X63324105Y12457594D01*
X63233240Y12676963D01*
X63109176Y12879416D01*
X62954969Y13059969D01*
X62775079Y13213610D01*
X65514942Y13213610D01*
X66385000Y12343553D01*
X66385001Y12343553D01*
X67255057Y13213610D01*
X67255056Y13213612D01*
X67208235Y13250053D01*
X66989606Y13368369D01*
X66754493Y13449084D01*
X66509293Y13490000D01*
X66260707Y13490000D01*
X66015506Y13449084D01*
X65780393Y13368369D01*
X65561764Y13250054D01*
X65514942Y13213612D01*
X65514942Y13213610D01*
X62775079Y13213610D01*
X62774416Y13214176D01*
X62571963Y13338240D01*
X62462278Y13383673D01*
X62352593Y13429106D01*
X62121712Y13484535D01*
X61885000Y13503165D01*
X61648287Y13484535D01*
X61417406Y13429106D01*
X61198035Y13338239D01*
X60995585Y13214177D01*
X60815031Y13059969D01*
X60660823Y12879415D01*
X60536761Y12676965D01*
X60445894Y12457594D01*
X60390465Y12226713D01*
X60371835Y11990000D01*
X58557112Y11990000D01*
X58563327Y12065000D01*
X58544051Y12297626D01*
X58486749Y12523907D01*
X58392984Y12737669D01*
X58273653Y12920319D01*
X58265315Y12933082D01*
X58107219Y13104819D01*
X57997501Y13190216D01*
X57923017Y13248190D01*
X57717727Y13359287D01*
X57717726Y13359288D01*
X57717725Y13359288D01*
X57496953Y13435081D01*
X57266712Y13473500D01*
X57033288Y13473500D01*
X56803046Y13435081D01*
X56582274Y13359288D01*
X56376983Y13248190D01*
X56192779Y13104818D01*
X56076781Y12978812D01*
X56027802Y12946216D01*
X55969311Y12939864D01*
X55914477Y12961187D01*
X55875643Y13005385D01*
X55857314Y13040474D01*
X55735215Y13190216D01*
X55585473Y13312315D01*
X55414219Y13401770D01*
X55228463Y13454921D01*
X55115098Y13465000D01*
X54860000Y13465000D01*
X54860000Y10665001D01*
X54360000Y10665001D01*
X54360000Y11815000D01*
X53210001Y11815000D01*
X52189651Y11815000D01*
X52194051Y11832374D01*
X52213327Y12065000D01*
X52194051Y12297626D01*
X52189651Y12315000D01*
X53210000Y12315000D01*
X54360000Y12315000D01*
X54360000Y13464999D01*
X54104902Y13464999D01*
X53991536Y13454921D01*
X53805780Y13401770D01*
X53634526Y13312315D01*
X53484784Y13190216D01*
X53362685Y13040474D01*
X53273230Y12869220D01*
X53220079Y12683464D01*
X53210000Y12570098D01*
X53210000Y12315000D01*
X52189651Y12315000D01*
X52136749Y12523907D01*
X52042984Y12737669D01*
X51923653Y12920319D01*
X51915315Y12933082D01*
X51757219Y13104819D01*
X51647501Y13190216D01*
X51573017Y13248190D01*
X51367727Y13359287D01*
X51367726Y13359288D01*
X51367725Y13359288D01*
X51146953Y13435081D01*
X50916712Y13473500D01*
X50683288Y13473500D01*
X50453046Y13435081D01*
X50232274Y13359288D01*
X50026983Y13248190D01*
X49842780Y13104818D01*
X49732899Y12985457D01*
X49683920Y12952861D01*
X49625429Y12946509D01*
X49570595Y12967832D01*
X49531763Y13012028D01*
X49514448Y13045176D01*
X49391257Y13196257D01*
X49240176Y13319448D01*
X49067389Y13409704D01*
X49067388Y13409705D01*
X49067387Y13409705D01*
X48879970Y13463331D01*
X48861198Y13465000D01*
X48765596Y13473500D01*
X47754404Y13473500D01*
X47668623Y13465874D01*
X47640029Y13463331D01*
X47452612Y13409705D01*
X47373479Y13368369D01*
X47279824Y13319448D01*
X47128743Y13196257D01*
X47005552Y13045176D01*
X46963046Y12963802D01*
X46915295Y12872388D01*
X46861669Y12684971D01*
X46861669Y12684970D01*
X46851500Y12570596D01*
X46851500Y11559404D01*
X46037983Y11559404D01*
X46025978Y11719598D01*
X45970281Y11963622D01*
X45878836Y12196619D01*
X45753689Y12413381D01*
X45715198Y12461647D01*
X44723553Y11470000D01*
X44723553Y11469999D01*
X44016447Y11469999D01*
X44016447Y11470001D01*
X43024800Y12461647D01*
X43024799Y12461647D01*
X42986313Y12413385D01*
X42861163Y12196619D01*
X42769718Y11963622D01*
X42714021Y11719598D01*
X42695316Y11470000D01*
X31573335Y11470000D01*
X31583409Y11559407D01*
X31588500Y11604591D01*
X31588500Y12295409D01*
X31579330Y12376791D01*
X31573217Y12431047D01*
X31513043Y12603015D01*
X31493966Y12633375D01*
X31480997Y12654016D01*
X31429307Y12736280D01*
X31410453Y12796115D01*
X31423301Y12857522D01*
X31426499Y12863946D01*
X31426503Y12863950D01*
X31518074Y13047848D01*
X31574294Y13245441D01*
X31593249Y13450000D01*
X31574294Y13654559D01*
X31549439Y13741916D01*
X31518075Y13852151D01*
X31459392Y13970000D01*
X32686792Y13970000D01*
X32705592Y13719133D01*
X32759138Y13484535D01*
X32761573Y13473866D01*
X32853483Y13239684D01*
X32979269Y13021816D01*
X33136122Y12825128D01*
X33320538Y12654016D01*
X33528397Y12512300D01*
X33755055Y12403147D01*
X33995451Y12328995D01*
X34244213Y12291500D01*
X34244214Y12291500D01*
X34495786Y12291500D01*
X34495787Y12291500D01*
X34651698Y12315000D01*
X34744549Y12328995D01*
X34984945Y12403147D01*
X35211604Y12512300D01*
X35419462Y12654016D01*
X35593125Y12815151D01*
X43378402Y12815151D01*
X44370000Y11823553D01*
X44370001Y11823553D01*
X45361596Y12815150D01*
X45207340Y12920319D01*
X44981832Y13028918D01*
X44742651Y13102696D01*
X44495149Y13140000D01*
X44244851Y13140000D01*
X43997348Y13102696D01*
X43758167Y13028917D01*
X43532660Y12920320D01*
X43378402Y12815151D01*
X35593125Y12815151D01*
X35603878Y12825128D01*
X35760731Y13021816D01*
X35886517Y13239684D01*
X35978427Y13473866D01*
X36034407Y13719131D01*
X36053207Y13970000D01*
X36034407Y14220869D01*
X35978427Y14466134D01*
X35886517Y14700316D01*
X35760731Y14918184D01*
X35603878Y15114872D01*
X35430528Y15275716D01*
X35419459Y15285987D01*
X35211606Y15427699D01*
X35053576Y15503802D01*
X34984945Y15536853D01*
X34910792Y15559727D01*
X34744548Y15611006D01*
X34495787Y15648500D01*
X34495786Y15648500D01*
X34244214Y15648500D01*
X34244213Y15648500D01*
X33995451Y15611006D01*
X33755055Y15536853D01*
X33528399Y15427702D01*
X33320536Y15285983D01*
X33136122Y15114872D01*
X32979268Y14918183D01*
X32853483Y14700317D01*
X32761573Y14466135D01*
X32705592Y14220868D01*
X32686792Y13970000D01*
X31459392Y13970000D01*
X31426503Y14036050D01*
X31302700Y14199993D01*
X31150884Y14338391D01*
X30976216Y14446541D01*
X30784655Y14520751D01*
X30784654Y14520752D01*
X30582718Y14558500D01*
X30377282Y14558500D01*
X30242657Y14533335D01*
X30175344Y14520751D01*
X29983783Y14446541D01*
X29809115Y14338391D01*
X29657299Y14199993D01*
X29533496Y14036050D01*
X29441924Y13852151D01*
X29385706Y13654561D01*
X29368141Y13465000D01*
X29366751Y13450000D01*
X27871290Y13450000D01*
X27904284Y13520757D01*
X27963543Y13741913D01*
X27983498Y13970000D01*
X27963543Y14198087D01*
X27904284Y14419243D01*
X27807523Y14626749D01*
X27676198Y14814300D01*
X27514300Y14976198D01*
X27326749Y15107523D01*
X27293708Y15122930D01*
X27283655Y15127618D01*
X27231479Y15173375D01*
X27212059Y15240000D01*
X27231479Y15306625D01*
X27283655Y15352382D01*
X27286882Y15353888D01*
X27326749Y15372477D01*
X27514300Y15503802D01*
X27676198Y15665700D01*
X27807523Y15853251D01*
X27904284Y16060757D01*
X27963543Y16281913D01*
X27983498Y16510000D01*
X27968223Y16684591D01*
X29371500Y16684591D01*
X29386782Y16548956D01*
X29386782Y16548954D01*
X29386783Y16548953D01*
X29446957Y16376985D01*
X29543889Y16222719D01*
X29672719Y16093889D01*
X29826985Y15996957D01*
X29998953Y15936783D01*
X30053209Y15930670D01*
X30134591Y15921500D01*
X30134594Y15921500D01*
X30825406Y15921500D01*
X30825409Y15921500D01*
X30893226Y15929142D01*
X30961047Y15936783D01*
X31133015Y15996957D01*
X31287281Y16093889D01*
X31416111Y16222719D01*
X31513043Y16376985D01*
X31545590Y16470000D01*
X42686792Y16470000D01*
X42705592Y16219133D01*
X42741741Y16060757D01*
X42761573Y15973866D01*
X42853483Y15739684D01*
X42979269Y15521816D01*
X43136122Y15325128D01*
X43320538Y15154016D01*
X43528397Y15012300D01*
X43755055Y14903147D01*
X43995450Y14828996D01*
X43995451Y14828995D01*
X44244213Y14791500D01*
X44244214Y14791500D01*
X44495786Y14791500D01*
X44495787Y14791500D01*
X44647054Y14814300D01*
X44744549Y14828995D01*
X44984945Y14903147D01*
X45211604Y15012300D01*
X45419462Y15154016D01*
X45603878Y15325128D01*
X45760731Y15521816D01*
X45886517Y15739684D01*
X45978427Y15973866D01*
X46034407Y16219131D01*
X46053207Y16470000D01*
X46034407Y16720869D01*
X45978427Y16966134D01*
X45886517Y17200316D01*
X45760731Y17418184D01*
X45603878Y17614872D01*
X45432777Y17773630D01*
X45419459Y17785987D01*
X45211606Y17927699D01*
X45152645Y17956093D01*
X44984945Y18036853D01*
X44900039Y18063043D01*
X44744548Y18111006D01*
X44495787Y18148500D01*
X44495786Y18148500D01*
X44244214Y18148500D01*
X44244213Y18148500D01*
X43995451Y18111006D01*
X43755055Y18036853D01*
X43528399Y17927702D01*
X43320536Y17785983D01*
X43136122Y17614872D01*
X42979268Y17418183D01*
X42853483Y17200317D01*
X42761573Y16966135D01*
X42705592Y16720868D01*
X42686792Y16470000D01*
X31545590Y16470000D01*
X31573217Y16548953D01*
X31588500Y16684594D01*
X31588500Y17375406D01*
X31581275Y17439526D01*
X31573217Y17511045D01*
X31573217Y17511047D01*
X31513043Y17683015D01*
X31424010Y17824709D01*
X31405157Y17884545D01*
X31418005Y17945952D01*
X31510115Y18130934D01*
X31519808Y18165000D01*
X46860001Y18165000D01*
X46860001Y17909902D01*
X46870079Y17796537D01*
X46923230Y17610781D01*
X47012685Y17439527D01*
X47134784Y17289785D01*
X47284526Y17167686D01*
X47455780Y17078231D01*
X47641536Y17025080D01*
X47754902Y17015000D01*
X48010000Y17015000D01*
X48010000Y17015001D01*
X48510000Y17015001D01*
X48765098Y17015001D01*
X48878463Y17025080D01*
X49064219Y17078231D01*
X49235473Y17167686D01*
X49385215Y17289785D01*
X49507314Y17439526D01*
X49525642Y17474615D01*
X49564476Y17518814D01*
X49619310Y17540138D01*
X49677802Y17533786D01*
X49726781Y17501189D01*
X49819750Y17400199D01*
X49842780Y17375182D01*
X50026983Y17231810D01*
X50232273Y17120713D01*
X50258725Y17111632D01*
X50453046Y17044920D01*
X50683288Y17006500D01*
X50916712Y17006500D01*
X51146953Y17044920D01*
X51257338Y17082817D01*
X51367727Y17120713D01*
X51573017Y17231810D01*
X51757220Y17375182D01*
X51915314Y17546917D01*
X52042984Y17742331D01*
X52136749Y17956093D01*
X52189651Y18165000D01*
X53210001Y18165000D01*
X53210001Y17909902D01*
X53220079Y17796537D01*
X53273230Y17610781D01*
X53362685Y17439527D01*
X53484784Y17289785D01*
X53634526Y17167686D01*
X53805780Y17078231D01*
X53991536Y17025080D01*
X54104902Y17015000D01*
X54360000Y17015000D01*
X54360000Y17015001D01*
X54860000Y17015001D01*
X55115098Y17015001D01*
X55228463Y17025080D01*
X55414219Y17078231D01*
X55585473Y17167686D01*
X55735215Y17289785D01*
X55857314Y17439526D01*
X55875642Y17474615D01*
X55914476Y17518814D01*
X55969310Y17540138D01*
X56027802Y17533786D01*
X56076781Y17501189D01*
X56169750Y17400199D01*
X56192780Y17375182D01*
X56376983Y17231810D01*
X56582273Y17120713D01*
X56608725Y17111632D01*
X56803046Y17044920D01*
X57033288Y17006500D01*
X57266712Y17006500D01*
X57496953Y17044920D01*
X57607338Y17082817D01*
X57717727Y17120713D01*
X57923017Y17231810D01*
X58107220Y17375182D01*
X58265314Y17546917D01*
X58392984Y17742331D01*
X58486749Y17956093D01*
X58544051Y18182374D01*
X58563327Y18415000D01*
X58557112Y18490000D01*
X60371835Y18490000D01*
X60390465Y18253288D01*
X60445894Y18022407D01*
X60473363Y17956092D01*
X60536760Y17803037D01*
X60660824Y17600584D01*
X60815031Y17420031D01*
X60995584Y17265824D01*
X61198037Y17141760D01*
X61417406Y17050895D01*
X61648289Y16995465D01*
X61885000Y16976835D01*
X62121711Y16995465D01*
X62352594Y17050895D01*
X62571963Y17141760D01*
X62774416Y17265824D01*
X62775079Y17266390D01*
X65514942Y17266390D01*
X65561766Y17229945D01*
X65780393Y17111632D01*
X66015506Y17030917D01*
X66260707Y16990000D01*
X66509293Y16990000D01*
X66754493Y17030917D01*
X66989606Y17111632D01*
X67208233Y17229947D01*
X67255056Y17266391D01*
X66385000Y18136447D01*
X65514942Y17266391D01*
X65514942Y17266390D01*
X62775079Y17266390D01*
X62954969Y17420031D01*
X63109176Y17600584D01*
X63233240Y17803037D01*
X63324105Y18022406D01*
X63379535Y18253289D01*
X63398165Y18490000D01*
X63398165Y18490001D01*
X64879858Y18490001D01*
X64900386Y18242268D01*
X64961413Y18001279D01*
X65061268Y17773630D01*
X65161563Y17620118D01*
X65161564Y17620118D01*
X66031447Y18489999D01*
X66031447Y18490000D01*
X66738553Y18490000D01*
X67608434Y17620118D01*
X67708730Y17773631D01*
X67808586Y18001279D01*
X67869613Y18242268D01*
X67890141Y18490001D01*
X67869613Y18737733D01*
X67808586Y18978722D01*
X67708730Y19206370D01*
X67608434Y19359884D01*
X66738553Y18490000D01*
X66031447Y18490000D01*
X65161564Y19359884D01*
X65061266Y19206366D01*
X64961413Y18978722D01*
X64900386Y18737733D01*
X64879858Y18490001D01*
X63398165Y18490001D01*
X63379535Y18726711D01*
X63324105Y18957594D01*
X63233240Y19176963D01*
X63109176Y19379416D01*
X62954969Y19559969D01*
X62775079Y19713610D01*
X65514942Y19713610D01*
X66385000Y18843553D01*
X66385001Y18843553D01*
X67255057Y19713610D01*
X67255056Y19713612D01*
X67208235Y19750053D01*
X66989606Y19868369D01*
X66754493Y19949084D01*
X66509293Y19990000D01*
X66260707Y19990000D01*
X66015506Y19949084D01*
X65780393Y19868369D01*
X65561764Y19750054D01*
X65514942Y19713612D01*
X65514942Y19713610D01*
X62775079Y19713610D01*
X62774416Y19714176D01*
X62571963Y19838240D01*
X62462278Y19883673D01*
X62352593Y19929106D01*
X62121712Y19984535D01*
X61885000Y20003165D01*
X61648287Y19984535D01*
X61417406Y19929106D01*
X61198035Y19838239D01*
X60995585Y19714177D01*
X60815031Y19559969D01*
X60660823Y19379415D01*
X60536761Y19176965D01*
X60445894Y18957594D01*
X60390465Y18726713D01*
X60371835Y18490000D01*
X58557112Y18490000D01*
X58544051Y18647626D01*
X58486749Y18873907D01*
X58392984Y19087669D01*
X58307038Y19219220D01*
X58265315Y19283082D01*
X58107219Y19454819D01*
X57997501Y19540216D01*
X57923017Y19598190D01*
X57717727Y19709287D01*
X57717726Y19709288D01*
X57717725Y19709288D01*
X57496953Y19785081D01*
X57266712Y19823500D01*
X57033288Y19823500D01*
X56803046Y19785081D01*
X56582274Y19709288D01*
X56376983Y19598190D01*
X56192779Y19454818D01*
X56076781Y19328812D01*
X56027802Y19296216D01*
X55969311Y19289864D01*
X55914477Y19311187D01*
X55875643Y19355385D01*
X55857314Y19390474D01*
X55735215Y19540216D01*
X55585473Y19662315D01*
X55414219Y19751770D01*
X55228463Y19804921D01*
X55115098Y19815000D01*
X54860000Y19815000D01*
X54860000Y17015001D01*
X54360000Y17015001D01*
X54360000Y18165000D01*
X53210001Y18165000D01*
X52189651Y18165000D01*
X52194051Y18182374D01*
X52213327Y18415000D01*
X52194051Y18647626D01*
X52189651Y18665000D01*
X53210000Y18665000D01*
X54360000Y18665000D01*
X54360000Y19814999D01*
X54104902Y19814999D01*
X53991536Y19804921D01*
X53805780Y19751770D01*
X53634526Y19662315D01*
X53484784Y19540216D01*
X53362685Y19390474D01*
X53273230Y19219220D01*
X53220079Y19033464D01*
X53210000Y18920098D01*
X53210000Y18665000D01*
X52189651Y18665000D01*
X52136749Y18873907D01*
X52042984Y19087669D01*
X51957038Y19219220D01*
X51915315Y19283082D01*
X51757219Y19454819D01*
X51647501Y19540216D01*
X51573017Y19598190D01*
X51367727Y19709287D01*
X51367726Y19709288D01*
X51367725Y19709288D01*
X51146953Y19785081D01*
X50916712Y19823500D01*
X50683288Y19823500D01*
X50453046Y19785081D01*
X50232274Y19709288D01*
X50026983Y19598190D01*
X49842779Y19454818D01*
X49726781Y19328812D01*
X49677802Y19296216D01*
X49619311Y19289864D01*
X49564477Y19311187D01*
X49525643Y19355385D01*
X49507314Y19390474D01*
X49385215Y19540216D01*
X49235473Y19662315D01*
X49064219Y19751770D01*
X48878463Y19804921D01*
X48765098Y19815000D01*
X48510000Y19815000D01*
X48510000Y17015001D01*
X48010000Y17015001D01*
X48010000Y18165000D01*
X46860001Y18165000D01*
X31519808Y18165000D01*
X31565903Y18327008D01*
X31584712Y18530000D01*
X31572203Y18665000D01*
X46860000Y18665000D01*
X48010000Y18665000D01*
X48010000Y19814999D01*
X47754902Y19814999D01*
X47641536Y19804921D01*
X47455780Y19751770D01*
X47284526Y19662315D01*
X47134784Y19540216D01*
X47012685Y19390474D01*
X46923230Y19219220D01*
X46870079Y19033464D01*
X46860000Y18920098D01*
X46860000Y18665000D01*
X31572203Y18665000D01*
X31565903Y18732993D01*
X31510114Y18929069D01*
X31419248Y19111552D01*
X31417465Y19113914D01*
X31417465Y19113915D01*
X30567680Y18264129D01*
X30512093Y18232035D01*
X30447905Y18232035D01*
X30392318Y18264129D01*
X29542533Y19113915D01*
X29540753Y19111556D01*
X29449884Y18929067D01*
X29394096Y18732993D01*
X29375287Y18530000D01*
X29394096Y18327008D01*
X29449885Y18130932D01*
X29541994Y17945951D01*
X29554842Y17884545D01*
X29535988Y17824708D01*
X29446957Y17683016D01*
X29386782Y17511045D01*
X29371500Y17375409D01*
X29371500Y16684591D01*
X27968223Y16684591D01*
X27963543Y16738087D01*
X27904284Y16959243D01*
X27828990Y17120713D01*
X27807525Y17166745D01*
X27807524Y17166746D01*
X27807523Y17166749D01*
X27676198Y17354300D01*
X27514300Y17516198D01*
X27326749Y17647523D01*
X27283655Y17667618D01*
X27231479Y17713375D01*
X27212059Y17780000D01*
X27231479Y17846625D01*
X27283655Y17892382D01*
X27286882Y17893888D01*
X27326749Y17912477D01*
X27514300Y18043802D01*
X27676198Y18205700D01*
X27807523Y18393251D01*
X27904284Y18600757D01*
X27963543Y18821913D01*
X27983498Y19050000D01*
X27963543Y19278087D01*
X27913663Y19464242D01*
X29899310Y19464242D01*
X30480000Y18883553D01*
X30480001Y18883553D01*
X31060688Y19464242D01*
X31060687Y19464243D01*
X30972414Y19518899D01*
X30782320Y19592541D01*
X30581928Y19630000D01*
X30378072Y19630000D01*
X30177679Y19592541D01*
X29987589Y19518900D01*
X29899310Y19464242D01*
X27913663Y19464242D01*
X27904284Y19499243D01*
X27807523Y19706749D01*
X27676198Y19894300D01*
X27514300Y20056198D01*
X27326749Y20187523D01*
X27283655Y20207618D01*
X27231479Y20253375D01*
X27212059Y20320000D01*
X27231479Y20386625D01*
X27283655Y20432382D01*
X27286882Y20433888D01*
X27326749Y20452477D01*
X27514300Y20583802D01*
X27676198Y20745700D01*
X27807523Y20933251D01*
X27904284Y21140757D01*
X27963543Y21361913D01*
X27983498Y21590000D01*
X27963543Y21818087D01*
X27904284Y22039243D01*
X27807523Y22246749D01*
X27676198Y22434300D01*
X27514300Y22596198D01*
X27326749Y22727523D01*
X27283655Y22747618D01*
X27231479Y22793375D01*
X27212059Y22860000D01*
X27231479Y22926625D01*
X27283655Y22972382D01*
X27286882Y22973888D01*
X27326749Y22992477D01*
X27514300Y23123802D01*
X27676198Y23285700D01*
X27807523Y23473251D01*
X27871290Y23610001D01*
X29366751Y23610001D01*
X29385706Y23405440D01*
X29441924Y23207850D01*
X29536697Y23017522D01*
X29549545Y22956115D01*
X29530691Y22896279D01*
X29446958Y22763018D01*
X29386782Y22591045D01*
X29371500Y22455409D01*
X29371500Y21764591D01*
X29386782Y21628956D01*
X29386782Y21628954D01*
X29386783Y21628953D01*
X29446957Y21456985D01*
X29543889Y21302719D01*
X29672719Y21173889D01*
X29826985Y21076957D01*
X29998953Y21016783D01*
X30053209Y21010670D01*
X30134591Y21001500D01*
X30134594Y21001500D01*
X30825406Y21001500D01*
X30825409Y21001500D01*
X30893226Y21009142D01*
X30961047Y21016783D01*
X31133015Y21076957D01*
X31287281Y21173889D01*
X31416111Y21302719D01*
X31513043Y21456985D01*
X31573217Y21628953D01*
X31588500Y21764594D01*
X31588500Y22455406D01*
X31573217Y22591047D01*
X31513043Y22763015D01*
X31493966Y22793375D01*
X31452103Y22860000D01*
X31429307Y22896280D01*
X31410453Y22956115D01*
X31423301Y23017522D01*
X31426499Y23023946D01*
X31426503Y23023950D01*
X31518074Y23207848D01*
X31574294Y23405441D01*
X31593249Y23610000D01*
X31574294Y23814559D01*
X31549439Y23901916D01*
X31518075Y24012151D01*
X31426503Y24196050D01*
X31378661Y24259404D01*
X46851500Y24259404D01*
X46856668Y24201279D01*
X46861669Y24145030D01*
X46903012Y24000539D01*
X46915296Y23957611D01*
X47005552Y23784824D01*
X47128743Y23633743D01*
X47279824Y23510552D01*
X47452611Y23420296D01*
X47640030Y23366669D01*
X47754404Y23356500D01*
X48765593Y23356500D01*
X48765596Y23356500D01*
X48879970Y23366669D01*
X49067389Y23420296D01*
X49240176Y23510552D01*
X49391257Y23633743D01*
X49514448Y23784824D01*
X49531764Y23817976D01*
X49570594Y23862168D01*
X49625429Y23883492D01*
X49683920Y23877140D01*
X49732899Y23844543D01*
X49787875Y23784824D01*
X49842780Y23725182D01*
X50026983Y23581810D01*
X50232273Y23470713D01*
X50266141Y23459086D01*
X50453046Y23394920D01*
X50683288Y23356500D01*
X50916712Y23356500D01*
X51146953Y23394920D01*
X51257339Y23432817D01*
X51367727Y23470713D01*
X51573017Y23581810D01*
X51757220Y23725182D01*
X51915314Y23896917D01*
X52042984Y24092331D01*
X52136749Y24306093D01*
X52189651Y24515000D01*
X53210001Y24515000D01*
X53210001Y24259902D01*
X53220079Y24146537D01*
X53273230Y23960781D01*
X53362685Y23789527D01*
X53484784Y23639785D01*
X53634526Y23517686D01*
X53805780Y23428231D01*
X53991536Y23375080D01*
X54104902Y23365000D01*
X54360000Y23365000D01*
X54360000Y23365001D01*
X54860000Y23365001D01*
X55115098Y23365001D01*
X55228463Y23375080D01*
X55414219Y23428231D01*
X55585473Y23517686D01*
X55735215Y23639785D01*
X55857314Y23789526D01*
X55875642Y23824615D01*
X55914476Y23868814D01*
X55969310Y23890138D01*
X56027802Y23883786D01*
X56076781Y23851189D01*
X56137875Y23784824D01*
X56192780Y23725182D01*
X56376983Y23581810D01*
X56582273Y23470713D01*
X56616141Y23459086D01*
X56803046Y23394920D01*
X57033288Y23356500D01*
X57266712Y23356500D01*
X57496953Y23394920D01*
X57607339Y23432817D01*
X57717727Y23470713D01*
X57923017Y23581810D01*
X58107220Y23725182D01*
X58265314Y23896917D01*
X58392984Y24092331D01*
X58486749Y24306093D01*
X58544051Y24532374D01*
X58557112Y24690000D01*
X60371835Y24690000D01*
X60390465Y24453288D01*
X60445894Y24222407D01*
X60491327Y24112722D01*
X60536760Y24003037D01*
X60660824Y23800584D01*
X60815031Y23620031D01*
X60995584Y23465824D01*
X61198037Y23341760D01*
X61417406Y23250895D01*
X61648289Y23195465D01*
X61885000Y23176835D01*
X62121711Y23195465D01*
X62352594Y23250895D01*
X62571963Y23341760D01*
X62774416Y23465824D01*
X62775079Y23466390D01*
X65514942Y23466390D01*
X65561766Y23429945D01*
X65780393Y23311632D01*
X66015506Y23230917D01*
X66260707Y23190000D01*
X66509293Y23190000D01*
X66754493Y23230917D01*
X66989606Y23311632D01*
X67208233Y23429947D01*
X67255056Y23466391D01*
X66385000Y24336447D01*
X65514942Y23466391D01*
X65514942Y23466390D01*
X62775079Y23466390D01*
X62954969Y23620031D01*
X63109176Y23800584D01*
X63233240Y24003037D01*
X63324105Y24222406D01*
X63379535Y24453289D01*
X63398165Y24690000D01*
X63398165Y24690001D01*
X64879858Y24690001D01*
X64900386Y24442268D01*
X64961413Y24201279D01*
X65061268Y23973630D01*
X65161563Y23820118D01*
X65161564Y23820118D01*
X66031447Y24689999D01*
X66031447Y24690000D01*
X66738553Y24690000D01*
X67608434Y23820118D01*
X67708730Y23973631D01*
X67808586Y24201279D01*
X67869613Y24442268D01*
X67890141Y24690001D01*
X67869613Y24937733D01*
X67808586Y25178722D01*
X67708730Y25406370D01*
X67608434Y25559884D01*
X66738553Y24690000D01*
X66031447Y24690000D01*
X65161564Y25559884D01*
X65061266Y25406366D01*
X64961413Y25178722D01*
X64900386Y24937733D01*
X64879858Y24690001D01*
X63398165Y24690001D01*
X63379535Y24926711D01*
X63324105Y25157594D01*
X63233240Y25376963D01*
X63109176Y25579416D01*
X62954969Y25759969D01*
X62775079Y25913610D01*
X65514942Y25913610D01*
X66385000Y25043553D01*
X66385001Y25043553D01*
X67255057Y25913610D01*
X67255056Y25913612D01*
X67208235Y25950053D01*
X66989606Y26068369D01*
X66754493Y26149084D01*
X66509293Y26190000D01*
X66260707Y26190000D01*
X66015506Y26149084D01*
X65780393Y26068369D01*
X65561764Y25950054D01*
X65514942Y25913612D01*
X65514942Y25913610D01*
X62775079Y25913610D01*
X62774416Y25914176D01*
X62571963Y26038240D01*
X62462278Y26083673D01*
X62352593Y26129106D01*
X62121712Y26184535D01*
X61885000Y26203165D01*
X61648287Y26184535D01*
X61417406Y26129106D01*
X61198035Y26038239D01*
X60995585Y25914177D01*
X60815031Y25759969D01*
X60660823Y25579415D01*
X60540744Y25383464D01*
X60536760Y25376963D01*
X60531508Y25364284D01*
X60445894Y25157594D01*
X60390465Y24926713D01*
X60371835Y24690000D01*
X58557112Y24690000D01*
X58563327Y24765000D01*
X58544051Y24997626D01*
X58486749Y25223907D01*
X58392984Y25437669D01*
X58265314Y25633083D01*
X58252954Y25646509D01*
X58107219Y25804819D01*
X57997501Y25890216D01*
X57923017Y25948190D01*
X57717727Y26059287D01*
X57717726Y26059288D01*
X57717725Y26059288D01*
X57496953Y26135081D01*
X57266712Y26173500D01*
X57033288Y26173500D01*
X56803046Y26135081D01*
X56582274Y26059288D01*
X56376983Y25948190D01*
X56192779Y25804818D01*
X56076781Y25678812D01*
X56027802Y25646216D01*
X55969311Y25639864D01*
X55914477Y25661187D01*
X55875643Y25705385D01*
X55857314Y25740474D01*
X55735215Y25890216D01*
X55585473Y26012315D01*
X55414219Y26101770D01*
X55228463Y26154921D01*
X55115098Y26165000D01*
X54860000Y26165000D01*
X54860000Y23365001D01*
X54360000Y23365001D01*
X54360000Y24515000D01*
X53210001Y24515000D01*
X52189651Y24515000D01*
X52194051Y24532374D01*
X52213327Y24765000D01*
X52194051Y24997626D01*
X52189651Y25015000D01*
X53210000Y25015000D01*
X54360000Y25015000D01*
X54360000Y26164999D01*
X54104902Y26164999D01*
X53991536Y26154921D01*
X53805780Y26101770D01*
X53634526Y26012315D01*
X53484784Y25890216D01*
X53362685Y25740474D01*
X53273230Y25569220D01*
X53220079Y25383464D01*
X53210000Y25270098D01*
X53210000Y25015000D01*
X52189651Y25015000D01*
X52136749Y25223907D01*
X52042984Y25437669D01*
X51915314Y25633083D01*
X51902954Y25646509D01*
X51757219Y25804819D01*
X51647501Y25890216D01*
X51573017Y25948190D01*
X51367727Y26059287D01*
X51367726Y26059288D01*
X51367725Y26059288D01*
X51146953Y26135081D01*
X50916712Y26173500D01*
X50683288Y26173500D01*
X50453046Y26135081D01*
X50232274Y26059288D01*
X50026983Y25948190D01*
X49842780Y25804818D01*
X49732899Y25685457D01*
X49683920Y25652861D01*
X49625429Y25646509D01*
X49570595Y25667832D01*
X49531763Y25712028D01*
X49514448Y25745176D01*
X49391257Y25896257D01*
X49240176Y26019448D01*
X49067389Y26109704D01*
X49067388Y26109705D01*
X49067387Y26109705D01*
X48879970Y26163331D01*
X48861198Y26165000D01*
X48765596Y26173500D01*
X47754404Y26173500D01*
X47668623Y26165874D01*
X47640029Y26163331D01*
X47452612Y26109705D01*
X47414889Y26090000D01*
X47279824Y26019448D01*
X47128743Y25896257D01*
X47005552Y25745176D01*
X46965151Y25667832D01*
X46915295Y25572388D01*
X46861669Y25384971D01*
X46861669Y25384970D01*
X46851500Y25270596D01*
X46851500Y24259404D01*
X31378661Y24259404D01*
X31302700Y24359993D01*
X31150884Y24498391D01*
X30976216Y24606541D01*
X30784655Y24680751D01*
X30735183Y24689999D01*
X30582718Y24718500D01*
X30377282Y24718500D01*
X30242657Y24693335D01*
X30175344Y24680751D01*
X29983783Y24606541D01*
X29809115Y24498391D01*
X29657299Y24359993D01*
X29533496Y24196050D01*
X29441924Y24012151D01*
X29385706Y23814561D01*
X29366751Y23610001D01*
X27871290Y23610001D01*
X27904284Y23680757D01*
X27963543Y23901913D01*
X27983498Y24130000D01*
X27963543Y24358087D01*
X27904284Y24579243D01*
X27807523Y24786749D01*
X27676198Y24974300D01*
X27514300Y25136198D01*
X27326749Y25267523D01*
X27320165Y25270593D01*
X27283655Y25287618D01*
X27231479Y25333375D01*
X27222304Y25364852D01*
X43378402Y25364852D01*
X43532660Y25259682D01*
X43758167Y25151083D01*
X43997348Y25077305D01*
X44244851Y25040000D01*
X44495149Y25040000D01*
X44742651Y25077305D01*
X44981832Y25151083D01*
X45207337Y25259680D01*
X45361596Y25364852D01*
X44370000Y26356447D01*
X43378402Y25364852D01*
X27222304Y25364852D01*
X27212059Y25400000D01*
X27231479Y25466625D01*
X27283655Y25512382D01*
X27286882Y25513888D01*
X27326749Y25532477D01*
X27514300Y25663802D01*
X27676198Y25825700D01*
X27807523Y26013251D01*
X27904284Y26220757D01*
X27963543Y26441913D01*
X27983498Y26670000D01*
X27963543Y26898087D01*
X27952312Y26940000D01*
X29380000Y26940000D01*
X29380000Y26845071D01*
X29395122Y26710860D01*
X29454664Y26540697D01*
X29550578Y26388050D01*
X29678049Y26260579D01*
X29830696Y26164665D01*
X30000859Y26105123D01*
X30135071Y26090000D01*
X30230000Y26090000D01*
X30230000Y26940000D01*
X30730000Y26940000D01*
X30730000Y26090000D01*
X30824929Y26090000D01*
X30959140Y26105123D01*
X31129303Y26164665D01*
X31281950Y26260579D01*
X31409421Y26388050D01*
X31505335Y26540697D01*
X31564576Y26710001D01*
X42695316Y26710001D01*
X42714021Y26460403D01*
X42769718Y26216379D01*
X42861163Y25983382D01*
X42986310Y25766620D01*
X43024800Y25718355D01*
X44016447Y26709999D01*
X44723553Y26709999D01*
X45715198Y25718354D01*
X45715199Y25718355D01*
X45753688Y25766618D01*
X45878836Y25983382D01*
X45970281Y26216379D01*
X46025978Y26460403D01*
X46044683Y26710001D01*
X46025978Y26959598D01*
X45970281Y27203622D01*
X45878836Y27436619D01*
X45753689Y27653381D01*
X45715198Y27701647D01*
X44723553Y26710000D01*
X44723553Y26709999D01*
X44016447Y26709999D01*
X44016447Y26710001D01*
X43024800Y27701647D01*
X43024799Y27701647D01*
X42986313Y27653385D01*
X42861163Y27436619D01*
X42769718Y27203622D01*
X42714021Y26959598D01*
X42695316Y26710001D01*
X31564576Y26710001D01*
X31564877Y26710860D01*
X31580000Y26845071D01*
X31580000Y26940000D01*
X30730000Y26940000D01*
X30230000Y26940000D01*
X29380000Y26940000D01*
X27952312Y26940000D01*
X27904284Y27119243D01*
X27807523Y27326749D01*
X27676198Y27514300D01*
X27514300Y27676198D01*
X27326749Y27807523D01*
X27283655Y27827618D01*
X27231479Y27873375D01*
X27212059Y27940000D01*
X27231479Y28006625D01*
X27283655Y28052382D01*
X27289593Y28055151D01*
X27326749Y28072477D01*
X27514300Y28203802D01*
X27676198Y28365700D01*
X27807523Y28553251D01*
X27871290Y28690000D01*
X29366751Y28690000D01*
X29385706Y28485440D01*
X29441924Y28287850D01*
X29538618Y28093665D01*
X29537315Y28093017D01*
X29551048Y28064255D01*
X29553173Y28014717D01*
X29535720Y27968306D01*
X29454665Y27839307D01*
X29395122Y27669141D01*
X29380000Y27534929D01*
X29380000Y27440000D01*
X31580000Y27440000D01*
X31580000Y27534929D01*
X31564877Y27669141D01*
X31505335Y27839304D01*
X31424278Y27968306D01*
X31406823Y28014728D01*
X31408956Y28064277D01*
X31422685Y28093016D01*
X31421381Y28093665D01*
X31426501Y28103948D01*
X31426503Y28103950D01*
X31518074Y28287848D01*
X31574294Y28485441D01*
X31593249Y28690000D01*
X31574294Y28894559D01*
X31549439Y28981916D01*
X31518075Y29092151D01*
X31459392Y29210000D01*
X32686792Y29210000D01*
X32705592Y28959133D01*
X32720331Y28894559D01*
X32761573Y28713866D01*
X32853483Y28479684D01*
X32979269Y28261816D01*
X33136122Y28065128D01*
X33320538Y27894016D01*
X33528397Y27752300D01*
X33755055Y27643147D01*
X33954911Y27581500D01*
X33995451Y27568995D01*
X34244213Y27531500D01*
X34244214Y27531500D01*
X34495786Y27531500D01*
X34495787Y27531500D01*
X34620167Y27550248D01*
X34744549Y27568995D01*
X34984945Y27643147D01*
X35211604Y27752300D01*
X35419462Y27894016D01*
X35593125Y28055151D01*
X43378402Y28055151D01*
X44370000Y27063553D01*
X44370001Y27063553D01*
X45361596Y28055150D01*
X45207340Y28160319D01*
X44981832Y28268918D01*
X44742651Y28342696D01*
X44495149Y28380000D01*
X44244851Y28380000D01*
X43997348Y28342696D01*
X43758167Y28268917D01*
X43532660Y28160320D01*
X43378402Y28055151D01*
X35593125Y28055151D01*
X35603878Y28065128D01*
X35760731Y28261816D01*
X35886517Y28479684D01*
X35978427Y28713866D01*
X36034407Y28959131D01*
X36053207Y29210000D01*
X36034407Y29460869D01*
X35978427Y29706134D01*
X35886517Y29940316D01*
X35760731Y30158184D01*
X35603878Y30354872D01*
X35443647Y30503544D01*
X35419459Y30525987D01*
X35211606Y30667699D01*
X35141876Y30701279D01*
X34984945Y30776853D01*
X34910792Y30799727D01*
X34744548Y30851006D01*
X34495787Y30888500D01*
X34495786Y30888500D01*
X34244214Y30888500D01*
X34244213Y30888500D01*
X33995451Y30851006D01*
X33755055Y30776853D01*
X33528399Y30667702D01*
X33320536Y30525983D01*
X33136122Y30354872D01*
X32979268Y30158183D01*
X32853483Y29940317D01*
X32761573Y29706135D01*
X32705592Y29460868D01*
X32686792Y29210000D01*
X31459392Y29210000D01*
X31426503Y29276050D01*
X31302700Y29439993D01*
X31150884Y29578391D01*
X30976216Y29686541D01*
X30784655Y29760751D01*
X30733594Y29770296D01*
X30582718Y29798500D01*
X30377282Y29798500D01*
X30268854Y29778231D01*
X30175344Y29760751D01*
X29983783Y29686541D01*
X29809115Y29578391D01*
X29657299Y29439993D01*
X29533496Y29276050D01*
X29441924Y29092151D01*
X29385706Y28894561D01*
X29366751Y28690000D01*
X27871290Y28690000D01*
X27904284Y28760757D01*
X27963543Y28981913D01*
X27983498Y29210000D01*
X27963543Y29438087D01*
X27904284Y29659243D01*
X27828990Y29820713D01*
X27807525Y29866745D01*
X27807524Y29866746D01*
X27807523Y29866749D01*
X27676198Y30054300D01*
X27514300Y30216198D01*
X27326749Y30347523D01*
X27326746Y30347524D01*
X27326744Y30347526D01*
X27119246Y30444283D01*
X27119243Y30444284D01*
X26924234Y30496537D01*
X26898084Y30503544D01*
X26670000Y30523499D01*
X26441915Y30503544D01*
X26220753Y30444283D01*
X26013255Y30347526D01*
X26013250Y30347523D01*
X26013251Y30347523D01*
X25850399Y30233492D01*
X25825696Y30216195D01*
X25663805Y30054304D01*
X25532474Y29866745D01*
X25435717Y29659247D01*
X25376456Y29438085D01*
X25356501Y29210000D01*
X25376456Y28981916D01*
X25435717Y28760754D01*
X25532474Y28553256D01*
X25532476Y28553254D01*
X25532477Y28553251D01*
X25663802Y28365700D01*
X25825700Y28203802D01*
X26013251Y28072477D01*
X26050407Y28055151D01*
X26056345Y28052382D01*
X26108521Y28006625D01*
X26127940Y27940000D01*
X26108521Y27873375D01*
X26056344Y27827618D01*
X26013251Y27807523D01*
X25862045Y27701647D01*
X25825696Y27676195D01*
X25663805Y27514304D01*
X25532474Y27326745D01*
X25435717Y27119247D01*
X25376456Y26898085D01*
X25356501Y26670000D01*
X25376456Y26441916D01*
X25376457Y26441913D01*
X25427326Y26252067D01*
X25435717Y26220754D01*
X25532474Y26013256D01*
X25532476Y26013254D01*
X25532477Y26013251D01*
X25663802Y25825700D01*
X25825700Y25663802D01*
X26013251Y25532477D01*
X26053334Y25513786D01*
X26056345Y25512382D01*
X26108521Y25466625D01*
X26127940Y25400000D01*
X26108521Y25333375D01*
X26056344Y25287618D01*
X26013251Y25267523D01*
X25856257Y25157594D01*
X25825696Y25136195D01*
X25663805Y24974304D01*
X25663802Y24974301D01*
X25663802Y24974300D01*
X25630481Y24926713D01*
X25532474Y24786745D01*
X25435717Y24579247D01*
X25376456Y24358085D01*
X25356501Y24130000D01*
X25376456Y23901916D01*
X25391829Y23844543D01*
X25423811Y23725185D01*
X25435717Y23680754D01*
X25532474Y23473256D01*
X25532476Y23473254D01*
X25532477Y23473251D01*
X25663802Y23285700D01*
X25825700Y23123802D01*
X26013251Y22992477D01*
X26053334Y22973786D01*
X26056345Y22972382D01*
X26108521Y22926625D01*
X26127940Y22860000D01*
X26108521Y22793375D01*
X26056344Y22747618D01*
X26013251Y22727523D01*
X25825700Y22596198D01*
X25825696Y22596195D01*
X25663805Y22434304D01*
X25663802Y22434301D01*
X25663802Y22434300D01*
X25642970Y22404549D01*
X25532474Y22246745D01*
X25435717Y22039247D01*
X25376456Y21818085D01*
X25356501Y21590000D01*
X25376456Y21361916D01*
X25435717Y21140754D01*
X25532474Y20933256D01*
X25532476Y20933254D01*
X25532477Y20933251D01*
X25663802Y20745700D01*
X25825700Y20583802D01*
X26013251Y20452477D01*
X26053334Y20433786D01*
X26056345Y20432382D01*
X26108521Y20386625D01*
X26127940Y20320000D01*
X26108521Y20253375D01*
X26056344Y20207618D01*
X26013251Y20187523D01*
X25902326Y20109852D01*
X25825696Y20056195D01*
X25663805Y19894304D01*
X25532474Y19706745D01*
X25435717Y19499247D01*
X25376456Y19278085D01*
X25356501Y19050000D01*
X25376456Y18821916D01*
X25376457Y18821913D01*
X25423158Y18647622D01*
X25435717Y18600754D01*
X25532474Y18393256D01*
X25532476Y18393254D01*
X25532477Y18393251D01*
X25663802Y18205700D01*
X25825700Y18043802D01*
X26013251Y17912477D01*
X26056345Y17892382D01*
X26108520Y17846628D01*
X26127940Y17780003D01*
X26108522Y17713378D01*
X26056347Y17667620D01*
X26013254Y17647525D01*
X26013251Y17647524D01*
X26013251Y17647523D01*
X25889533Y17560894D01*
X25825696Y17516195D01*
X25663805Y17354304D01*
X25663802Y17354301D01*
X25663802Y17354300D01*
X25643286Y17325000D01*
X25532474Y17166745D01*
X25435717Y16959247D01*
X25376456Y16738085D01*
X25356501Y16510001D01*
X25376456Y16281916D01*
X25435717Y16060754D01*
X25532474Y15853256D01*
X25532476Y15853254D01*
X25532477Y15853251D01*
X25663802Y15665700D01*
X25825700Y15503802D01*
X26013251Y15372477D01*
X26053334Y15353786D01*
X26056345Y15352382D01*
X26108521Y15306625D01*
X26127940Y15240000D01*
X26108521Y15173375D01*
X26056345Y15127618D01*
X26029011Y15114872D01*
X26013251Y15107523D01*
X25825700Y14976198D01*
X25825696Y14976195D01*
X25663805Y14814304D01*
X25532474Y14626745D01*
X25435717Y14419247D01*
X25376456Y14198085D01*
X25356501Y13970001D01*
X16553498Y13970001D01*
X16533543Y14198087D01*
X16474284Y14419243D01*
X16377523Y14626749D01*
X16246198Y14814300D01*
X16084300Y14976198D01*
X15896749Y15107523D01*
X15896745Y15107525D01*
X15896744Y15107526D01*
X15689246Y15204283D01*
X15689243Y15204284D01*
X15522840Y15248872D01*
X15468084Y15263544D01*
X15240000Y15283499D01*
X15011915Y15263544D01*
X14790753Y15204283D01*
X14583255Y15107526D01*
X14583250Y15107523D01*
X14583251Y15107523D01*
X14447258Y15012299D01*
X14395696Y14976195D01*
X14233805Y14814304D01*
X14102474Y14626745D01*
X14005717Y14419247D01*
X13946456Y14198085D01*
X13926501Y13970001D01*
X13946456Y13741916D01*
X13952561Y13719133D01*
X14004934Y13523674D01*
X14005717Y13520754D01*
X14102474Y13313256D01*
X14102476Y13313254D01*
X14102477Y13313251D01*
X14233802Y13125700D01*
X14395700Y12963802D01*
X14583251Y12832477D01*
X14620407Y12815151D01*
X14626345Y12812382D01*
X14678521Y12766625D01*
X14697940Y12700000D01*
X14678521Y12633375D01*
X14626344Y12587618D01*
X14583251Y12567523D01*
X14432045Y12461647D01*
X14395696Y12436195D01*
X14233805Y12274304D01*
X14233802Y12274301D01*
X14233802Y12274300D01*
X14200481Y12226713D01*
X14102474Y12086745D01*
X14005717Y11879247D01*
X13946456Y11658085D01*
X13926501Y11430000D01*
X13946456Y11201916D01*
X13961829Y11144543D01*
X13993811Y11025185D01*
X14005717Y10980754D01*
X14102474Y10773256D01*
X14102476Y10773254D01*
X14102477Y10773251D01*
X14233802Y10585700D01*
X14395700Y10423802D01*
X14583251Y10292477D01*
X14623334Y10273786D01*
X14626345Y10272382D01*
X14678521Y10226625D01*
X14697940Y10160000D01*
X14678521Y10093375D01*
X14626344Y10047618D01*
X14583251Y10027523D01*
X14416958Y9911083D01*
X14395696Y9896195D01*
X14233805Y9734304D01*
X14102474Y9546745D01*
X14005717Y9339247D01*
X13946456Y9118085D01*
X13926501Y8890001D01*
X8933498Y8890001D01*
X8913543Y9118087D01*
X8854284Y9339243D01*
X8757523Y9546749D01*
X8626198Y9734300D01*
X8464300Y9896198D01*
X8276749Y10027523D01*
X8233655Y10047618D01*
X8181479Y10093375D01*
X8162059Y10160000D01*
X8181479Y10226625D01*
X8233655Y10272382D01*
X8236882Y10273888D01*
X8276749Y10292477D01*
X8464300Y10423802D01*
X8626198Y10585700D01*
X8757523Y10773251D01*
X8854284Y10980757D01*
X8913543Y11201913D01*
X8933498Y11430000D01*
X8913543Y11658087D01*
X8854284Y11879243D01*
X8757523Y12086749D01*
X8626198Y12274300D01*
X8464300Y12436198D01*
X8276749Y12567523D01*
X8276748Y12567524D01*
X8276746Y12567525D01*
X8223598Y12592308D01*
X8171422Y12638066D01*
X8152003Y12704691D01*
X8171423Y12771317D01*
X8223600Y12817073D01*
X8272481Y12839867D01*
X8458819Y12970342D01*
X8619658Y13131181D01*
X8750134Y13317520D01*
X8846266Y13523674D01*
X8898872Y13720000D01*
X6341128Y13720000D01*
X6393733Y13523674D01*
X6489865Y13317520D01*
X6620341Y13131181D01*
X6781180Y12970342D01*
X6967516Y12839868D01*
X7016400Y12817073D01*
X7068576Y12771316D01*
X7087996Y12704691D01*
X7068577Y12638066D01*
X7016402Y12592309D01*
X6963256Y12567526D01*
X6963255Y12567525D01*
X6963251Y12567523D01*
X6812045Y12461647D01*
X6775696Y12436195D01*
X6613805Y12274304D01*
X6613802Y12274301D01*
X6613802Y12274300D01*
X6580481Y12226713D01*
X6482474Y12086745D01*
X6385717Y11879247D01*
X6326456Y11658085D01*
X6306501Y11430000D01*
X6326456Y11201916D01*
X6341829Y11144543D01*
X6373811Y11025185D01*
X6385717Y10980754D01*
X6482474Y10773256D01*
X6482476Y10773254D01*
X6482477Y10773251D01*
X6613802Y10585700D01*
X6775700Y10423802D01*
X6963251Y10292477D01*
X7003334Y10273786D01*
X7006345Y10272382D01*
X7058521Y10226625D01*
X7077940Y10160000D01*
X7058521Y10093375D01*
X7006344Y10047618D01*
X6963251Y10027523D01*
X6796958Y9911083D01*
X6775696Y9896195D01*
X6613805Y9734304D01*
X6482474Y9546745D01*
X6385717Y9339247D01*
X6326456Y9118085D01*
X6306501Y8890001D01*
X6326456Y8661916D01*
X6385717Y8440754D01*
X6482474Y8233256D01*
X6482476Y8233254D01*
X6482477Y8233251D01*
X6613802Y8045700D01*
X6775700Y7883802D01*
X6963251Y7752477D01*
X7006345Y7732382D01*
X7058520Y7686628D01*
X7077940Y7620003D01*
X7058522Y7553378D01*
X7006347Y7507620D01*
X6963254Y7487525D01*
X6963251Y7487524D01*
X6963251Y7487523D01*
X6823395Y7389594D01*
X6775696Y7356195D01*
X6613805Y7194304D01*
X6482474Y7006745D01*
X6385717Y6799247D01*
X6326456Y6578085D01*
X6306501Y6350001D01*
X4918500Y6350001D01*
X4918500Y6580409D01*
X4909330Y6661791D01*
X4903217Y6716047D01*
X4843043Y6888015D01*
X4754010Y7029709D01*
X4735157Y7089545D01*
X4748005Y7150952D01*
X4840115Y7335934D01*
X4895903Y7532008D01*
X4914712Y7735001D01*
X4895903Y7937993D01*
X4840114Y8134069D01*
X4749248Y8316552D01*
X4747465Y8318914D01*
X4747465Y8318915D01*
X3897680Y7469129D01*
X3842093Y7437035D01*
X3777905Y7437035D01*
X3722318Y7469129D01*
X2872533Y8318915D01*
X2870753Y8316556D01*
X2779884Y8134067D01*
X2724096Y7937993D01*
X2705287Y7735001D01*
X2724096Y7532008D01*
X2779885Y7335932D01*
X2871994Y7150951D01*
X2884842Y7089545D01*
X2865988Y7029708D01*
X2776957Y6888016D01*
X2716782Y6716045D01*
X2701500Y6580409D01*
X2701500Y5889591D01*
X75500Y5889591D01*
X75500Y8669242D01*
X3229310Y8669242D01*
X3810000Y8088553D01*
X3810001Y8088553D01*
X4390688Y8669242D01*
X4390687Y8669243D01*
X4302414Y8723899D01*
X4112320Y8797541D01*
X3911928Y8835000D01*
X3708072Y8835000D01*
X3507679Y8797541D01*
X3317589Y8723900D01*
X3229310Y8669242D01*
X75500Y8669242D01*
X75500Y14220000D01*
X6341128Y14220000D01*
X7370000Y14220000D01*
X7370000Y15248872D01*
X7870000Y15248872D01*
X7870000Y14220000D01*
X8898872Y14220000D01*
X8898871Y14220001D01*
X8846266Y14416327D01*
X8750134Y14622481D01*
X8619658Y14808820D01*
X8458819Y14969659D01*
X8272480Y15100135D01*
X8066326Y15196267D01*
X7870000Y15248872D01*
X7370000Y15248872D01*
X7369999Y15248872D01*
X7173673Y15196267D01*
X6967519Y15100135D01*
X6781180Y14969659D01*
X6620341Y14808820D01*
X6489865Y14622481D01*
X6393733Y14416327D01*
X6341128Y14220001D01*
X6341128Y14220000D01*
X75500Y14220000D01*
X75500Y16510001D01*
X17736501Y16510001D01*
X17756456Y16281916D01*
X17815717Y16060754D01*
X17912474Y15853256D01*
X17912476Y15853254D01*
X17912477Y15853251D01*
X18043802Y15665700D01*
X18205700Y15503802D01*
X18393251Y15372477D01*
X18446401Y15347693D01*
X18498576Y15301939D01*
X18517996Y15235314D01*
X18498578Y15168689D01*
X18446403Y15122931D01*
X18397520Y15100136D01*
X18211180Y14969659D01*
X18050341Y14808820D01*
X17919865Y14622481D01*
X17823733Y14416327D01*
X17771128Y14220001D01*
X17771128Y14220000D01*
X20328872Y14220000D01*
X20328871Y14220001D01*
X20276266Y14416327D01*
X20180134Y14622481D01*
X20049658Y14808820D01*
X19888819Y14969659D01*
X19702482Y15100134D01*
X19653597Y15122930D01*
X19601422Y15168688D01*
X19582003Y15235314D01*
X19601424Y15301939D01*
X19653596Y15347692D01*
X19706749Y15372477D01*
X19894300Y15503802D01*
X20056198Y15665700D01*
X20187523Y15853251D01*
X20284284Y16060757D01*
X20343543Y16281913D01*
X20363498Y16510000D01*
X20343543Y16738087D01*
X20284284Y16959243D01*
X20208990Y17120713D01*
X20187525Y17166745D01*
X20187524Y17166746D01*
X20187523Y17166749D01*
X20056198Y17354300D01*
X19894300Y17516198D01*
X19706749Y17647523D01*
X19663655Y17667618D01*
X19611479Y17713375D01*
X19592059Y17780000D01*
X19611479Y17846625D01*
X19663655Y17892382D01*
X19666882Y17893888D01*
X19706749Y17912477D01*
X19894300Y18043802D01*
X20056198Y18205700D01*
X20187523Y18393251D01*
X20284284Y18600757D01*
X20343543Y18821913D01*
X20363498Y19050000D01*
X20343543Y19278087D01*
X20284284Y19499243D01*
X20187523Y19706749D01*
X20056198Y19894300D01*
X19894300Y20056198D01*
X19706749Y20187523D01*
X19663655Y20207618D01*
X19611479Y20253375D01*
X19592059Y20320000D01*
X19611479Y20386625D01*
X19663655Y20432382D01*
X19666882Y20433888D01*
X19706749Y20452477D01*
X19894300Y20583802D01*
X20056198Y20745700D01*
X20187523Y20933251D01*
X20284284Y21140757D01*
X20343543Y21361913D01*
X20363498Y21590000D01*
X20343543Y21818087D01*
X20284284Y22039243D01*
X20187523Y22246749D01*
X20056198Y22434300D01*
X19894300Y22596198D01*
X19706749Y22727523D01*
X19663655Y22747618D01*
X19611479Y22793375D01*
X19592059Y22860000D01*
X19611479Y22926625D01*
X19663655Y22972382D01*
X19666882Y22973888D01*
X19706749Y22992477D01*
X19894300Y23123802D01*
X20056198Y23285700D01*
X20187523Y23473251D01*
X20284284Y23680757D01*
X20343543Y23901913D01*
X20363498Y24130000D01*
X20343543Y24358087D01*
X20284284Y24579243D01*
X20187523Y24786749D01*
X20056198Y24974300D01*
X19894300Y25136198D01*
X19706749Y25267523D01*
X19700165Y25270593D01*
X19663655Y25287618D01*
X19611479Y25333375D01*
X19592059Y25400000D01*
X19611479Y25466625D01*
X19663655Y25512382D01*
X19666882Y25513888D01*
X19706749Y25532477D01*
X19894300Y25663802D01*
X20056198Y25825700D01*
X20187523Y26013251D01*
X20284284Y26220757D01*
X20343543Y26441913D01*
X20363498Y26670000D01*
X20343543Y26898087D01*
X20284284Y27119243D01*
X20187523Y27326749D01*
X20056198Y27514300D01*
X19894300Y27676198D01*
X19706749Y27807523D01*
X19663655Y27827618D01*
X19611479Y27873375D01*
X19592059Y27940000D01*
X19611479Y28006625D01*
X19663655Y28052382D01*
X19669593Y28055151D01*
X19706749Y28072477D01*
X19894300Y28203802D01*
X20056198Y28365700D01*
X20187523Y28553251D01*
X20284284Y28760757D01*
X20343543Y28981913D01*
X20363498Y29210000D01*
X20343543Y29438087D01*
X20284284Y29659243D01*
X20208990Y29820713D01*
X20187525Y29866745D01*
X20187524Y29866746D01*
X20187523Y29866749D01*
X20056198Y30054300D01*
X19894300Y30216198D01*
X19706749Y30347523D01*
X19706746Y30347524D01*
X19706744Y30347526D01*
X19499246Y30444283D01*
X19499243Y30444284D01*
X19304234Y30496537D01*
X19278084Y30503544D01*
X19050000Y30523499D01*
X18821915Y30503544D01*
X18600753Y30444283D01*
X18393255Y30347526D01*
X18393250Y30347523D01*
X18393251Y30347523D01*
X18230399Y30233492D01*
X18205696Y30216195D01*
X18043805Y30054304D01*
X17912474Y29866745D01*
X17815717Y29659247D01*
X17756456Y29438085D01*
X17736501Y29210000D01*
X17756456Y28981916D01*
X17815717Y28760754D01*
X17912474Y28553256D01*
X17912476Y28553254D01*
X17912477Y28553251D01*
X18043802Y28365700D01*
X18205700Y28203802D01*
X18393251Y28072477D01*
X18430407Y28055151D01*
X18436345Y28052382D01*
X18488521Y28006625D01*
X18507940Y27940000D01*
X18488521Y27873375D01*
X18436344Y27827618D01*
X18393251Y27807523D01*
X18242045Y27701647D01*
X18205696Y27676195D01*
X18043805Y27514304D01*
X17912474Y27326745D01*
X17815717Y27119247D01*
X17756456Y26898085D01*
X17736501Y26670000D01*
X17756456Y26441916D01*
X17756457Y26441913D01*
X17807326Y26252067D01*
X17815717Y26220754D01*
X17912474Y26013256D01*
X17912476Y26013254D01*
X17912477Y26013251D01*
X18043802Y25825700D01*
X18205700Y25663802D01*
X18393251Y25532477D01*
X18433334Y25513786D01*
X18436345Y25512382D01*
X18488521Y25466625D01*
X18507940Y25400000D01*
X18488521Y25333375D01*
X18436344Y25287618D01*
X18393251Y25267523D01*
X18236257Y25157594D01*
X18205696Y25136195D01*
X18043805Y24974304D01*
X18043802Y24974301D01*
X18043802Y24974300D01*
X18010481Y24926713D01*
X17912474Y24786745D01*
X17815717Y24579247D01*
X17756456Y24358085D01*
X17736501Y24130000D01*
X17756456Y23901916D01*
X17771829Y23844543D01*
X17803811Y23725185D01*
X17815717Y23680754D01*
X17912474Y23473256D01*
X17912476Y23473254D01*
X17912477Y23473251D01*
X18043802Y23285700D01*
X18205700Y23123802D01*
X18393251Y22992477D01*
X18433334Y22973786D01*
X18436345Y22972382D01*
X18488521Y22926625D01*
X18507940Y22860000D01*
X18488521Y22793375D01*
X18436344Y22747618D01*
X18393251Y22727523D01*
X18205700Y22596198D01*
X18205696Y22596195D01*
X18043805Y22434304D01*
X18043802Y22434301D01*
X18043802Y22434300D01*
X18022970Y22404549D01*
X17912474Y22246745D01*
X17815717Y22039247D01*
X17756456Y21818085D01*
X17736501Y21590000D01*
X17756456Y21361916D01*
X17815717Y21140754D01*
X17912474Y20933256D01*
X17912476Y20933254D01*
X17912477Y20933251D01*
X18043802Y20745700D01*
X18205700Y20583802D01*
X18393251Y20452477D01*
X18433334Y20433786D01*
X18436345Y20432382D01*
X18488521Y20386625D01*
X18507940Y20320000D01*
X18488521Y20253375D01*
X18436344Y20207618D01*
X18393251Y20187523D01*
X18282326Y20109852D01*
X18205696Y20056195D01*
X18043805Y19894304D01*
X17912474Y19706745D01*
X17815717Y19499247D01*
X17756456Y19278085D01*
X17736501Y19050000D01*
X17756456Y18821916D01*
X17756457Y18821913D01*
X17803158Y18647622D01*
X17815717Y18600754D01*
X17912474Y18393256D01*
X17912476Y18393254D01*
X17912477Y18393251D01*
X18043802Y18205700D01*
X18205700Y18043802D01*
X18393251Y17912477D01*
X18436345Y17892382D01*
X18488520Y17846628D01*
X18507940Y17780003D01*
X18488522Y17713378D01*
X18436347Y17667620D01*
X18393254Y17647525D01*
X18393251Y17647524D01*
X18393251Y17647523D01*
X18269533Y17560894D01*
X18205696Y17516195D01*
X18043805Y17354304D01*
X18043802Y17354301D01*
X18043802Y17354300D01*
X18023286Y17325000D01*
X17912474Y17166745D01*
X17815717Y16959247D01*
X17756456Y16738085D01*
X17736501Y16510001D01*
X75500Y16510001D01*
X75500Y18475000D01*
X3721734Y18475000D01*
X3756526Y18313566D01*
X3845383Y18092438D01*
X3970335Y17889503D01*
X4127784Y17710606D01*
X4313199Y17560894D01*
X4521250Y17444668D01*
X4745957Y17365274D01*
X4980840Y17325000D01*
X5750000Y17325000D01*
X5750000Y18475000D01*
X6250000Y18475000D01*
X6250000Y17325000D01*
X6959477Y17325000D01*
X7137455Y17340149D01*
X7368083Y17400199D01*
X7585241Y17498361D01*
X7782687Y17631812D01*
X7954741Y17796712D01*
X8096450Y17988316D01*
X8203741Y18201114D01*
X8273525Y18428983D01*
X8279418Y18475000D01*
X6250000Y18475000D01*
X5750000Y18475000D01*
X3721734Y18475000D01*
X75500Y18475000D01*
X75500Y18975000D01*
X3720582Y18975000D01*
X5750000Y18975000D01*
X5750000Y20125000D01*
X6250000Y20125000D01*
X6250000Y18975000D01*
X8278266Y18975000D01*
X8278265Y18975001D01*
X8243473Y19136435D01*
X8154616Y19357563D01*
X8029664Y19560498D01*
X7872215Y19739395D01*
X7686800Y19889107D01*
X7478749Y20005333D01*
X7254042Y20084727D01*
X7019160Y20125000D01*
X6250000Y20125000D01*
X5750000Y20125000D01*
X5040523Y20125000D01*
X4862544Y20109852D01*
X4631916Y20049802D01*
X4414758Y19951640D01*
X4217312Y19818189D01*
X4045258Y19653289D01*
X3903549Y19461685D01*
X3796258Y19248887D01*
X3726474Y19021018D01*
X3720582Y18975000D01*
X75500Y18975000D01*
X75500Y22284992D01*
X3687682Y22284992D01*
X3697856Y22045452D01*
X3748370Y21811067D01*
X3837765Y21588600D01*
X3837767Y21588596D01*
X3963476Y21384431D01*
X4035392Y21302719D01*
X4121880Y21204450D01*
X4308423Y21053825D01*
X4517738Y20936896D01*
X4517740Y20936895D01*
X4743806Y20857020D01*
X4743808Y20857020D01*
X4743810Y20857019D01*
X4980117Y20816500D01*
X4980119Y20816500D01*
X6959827Y20816500D01*
X6959830Y20816500D01*
X7067269Y20825645D01*
X7138898Y20831741D01*
X7293582Y20872018D01*
X7370925Y20892156D01*
X7480162Y20941535D01*
X7589402Y20990914D01*
X7788047Y21125175D01*
X7961144Y21291075D01*
X8103715Y21483843D01*
X8211657Y21697933D01*
X8281864Y21927185D01*
X8312318Y22165005D01*
X8302143Y22404551D01*
X8251630Y22638932D01*
X8162233Y22861404D01*
X8036524Y23065569D01*
X7878119Y23245551D01*
X7871501Y23250895D01*
X7691576Y23396176D01*
X7482261Y23513105D01*
X7256189Y23592982D01*
X7019883Y23633500D01*
X7019881Y23633500D01*
X5040173Y23633500D01*
X5040170Y23633500D01*
X4861103Y23618260D01*
X4629074Y23557845D01*
X4410598Y23459087D01*
X4211953Y23324826D01*
X4038855Y23158925D01*
X3896285Y22966158D01*
X3788343Y22752068D01*
X3739031Y22591047D01*
X3718136Y22522815D01*
X3702992Y22404549D01*
X3687682Y22284992D01*
X75500Y22284992D01*
X75500Y25784992D01*
X3687682Y25784992D01*
X3697856Y25545452D01*
X3748370Y25311067D01*
X3818640Y25136195D01*
X3837767Y25088596D01*
X3963476Y24884431D01*
X4121881Y24704449D01*
X4139776Y24690000D01*
X4308423Y24553825D01*
X4488393Y24453289D01*
X4517740Y24436895D01*
X4743806Y24357020D01*
X4743808Y24357020D01*
X4743810Y24357019D01*
X4980117Y24316500D01*
X4980119Y24316500D01*
X6959827Y24316500D01*
X6959830Y24316500D01*
X7067269Y24325645D01*
X7138898Y24331741D01*
X7293582Y24372018D01*
X7370925Y24392156D01*
X7481785Y24442268D01*
X7589402Y24490914D01*
X7788047Y24625175D01*
X7961144Y24791075D01*
X8103715Y24983843D01*
X8211657Y25197933D01*
X8281864Y25427185D01*
X8312318Y25665005D01*
X8302143Y25904551D01*
X8251630Y26138932D01*
X8162233Y26361404D01*
X8036524Y26565569D01*
X7878119Y26745551D01*
X7779941Y26824825D01*
X7691576Y26896176D01*
X7482261Y27013105D01*
X7256189Y27092982D01*
X7019883Y27133500D01*
X7019881Y27133500D01*
X5040173Y27133500D01*
X5040170Y27133500D01*
X4861103Y27118260D01*
X4629074Y27057845D01*
X4410598Y26959087D01*
X4211953Y26824826D01*
X4038855Y26658925D01*
X3896285Y26466158D01*
X3788343Y26252068D01*
X3722859Y26038239D01*
X3718136Y26022815D01*
X3690221Y25804818D01*
X3687682Y25784992D01*
X75500Y25784992D01*
X75500Y33020000D01*
X16801526Y33020000D01*
X16821391Y32767596D01*
X16880494Y32521410D01*
X16914084Y32440317D01*
X16977384Y32287498D01*
X17109672Y32071624D01*
X17274102Y31879102D01*
X17466624Y31714672D01*
X17682498Y31582384D01*
X17916409Y31485495D01*
X18162597Y31426391D01*
X18415000Y31406526D01*
X18667403Y31426391D01*
X18913591Y31485495D01*
X19147502Y31582384D01*
X19355752Y31710000D01*
X42686792Y31710000D01*
X42705592Y31459133D01*
X42731043Y31347626D01*
X42761573Y31213866D01*
X42853483Y30979684D01*
X42979269Y30761816D01*
X43136122Y30565128D01*
X43320538Y30394016D01*
X43528397Y30252300D01*
X43755055Y30143147D01*
X43975393Y30075182D01*
X43995451Y30068995D01*
X44244213Y30031500D01*
X44244214Y30031500D01*
X44495786Y30031500D01*
X44495787Y30031500D01*
X44647054Y30054300D01*
X44744549Y30068995D01*
X44984945Y30143147D01*
X45211604Y30252300D01*
X45419462Y30394016D01*
X45603878Y30565128D01*
X45639187Y30609404D01*
X46851500Y30609404D01*
X46855437Y30565128D01*
X46861669Y30495030D01*
X46903875Y30347523D01*
X46915296Y30307611D01*
X47005552Y30134824D01*
X47128743Y29983743D01*
X47279824Y29860552D01*
X47452611Y29770296D01*
X47640030Y29716669D01*
X47754404Y29706500D01*
X48765593Y29706500D01*
X48765596Y29706500D01*
X48879970Y29716669D01*
X49067389Y29770296D01*
X49240176Y29860552D01*
X49391257Y29983743D01*
X49514448Y30134824D01*
X49531764Y30167976D01*
X49570594Y30212168D01*
X49625429Y30233492D01*
X49683920Y30227140D01*
X49732899Y30194543D01*
X49787875Y30134824D01*
X49842780Y30075182D01*
X50026983Y29931810D01*
X50232273Y29820713D01*
X50258725Y29811632D01*
X50453046Y29744920D01*
X50683288Y29706500D01*
X50916712Y29706500D01*
X51146953Y29744920D01*
X51257338Y29782817D01*
X51367727Y29820713D01*
X51573017Y29931810D01*
X51757220Y30075182D01*
X51915314Y30246917D01*
X52042984Y30442331D01*
X52136749Y30656093D01*
X52189651Y30865000D01*
X53210001Y30865000D01*
X53210001Y30609902D01*
X53220079Y30496537D01*
X53273230Y30310781D01*
X53362685Y30139527D01*
X53484784Y29989785D01*
X53634526Y29867686D01*
X53805780Y29778231D01*
X53991536Y29725080D01*
X54104902Y29715000D01*
X54360000Y29715000D01*
X54360000Y29715001D01*
X54860000Y29715001D01*
X55115098Y29715001D01*
X55228463Y29725080D01*
X55414219Y29778231D01*
X55585473Y29867686D01*
X55735215Y29989785D01*
X55857314Y30139526D01*
X55875642Y30174615D01*
X55914476Y30218814D01*
X55969310Y30240138D01*
X56027802Y30233786D01*
X56076781Y30201189D01*
X56137875Y30134824D01*
X56192780Y30075182D01*
X56376983Y29931810D01*
X56582273Y29820713D01*
X56608725Y29811632D01*
X56803046Y29744920D01*
X57033288Y29706500D01*
X57266712Y29706500D01*
X57496953Y29744920D01*
X57607338Y29782817D01*
X57717727Y29820713D01*
X57923017Y29931810D01*
X58107220Y30075182D01*
X58265314Y30246917D01*
X58392984Y30442331D01*
X58486749Y30656093D01*
X58544051Y30882374D01*
X58563327Y31115000D01*
X58557112Y31190001D01*
X60371835Y31190001D01*
X60390465Y30953288D01*
X60445894Y30722407D01*
X60473363Y30656092D01*
X60536760Y30503037D01*
X60660824Y30300584D01*
X60815031Y30120031D01*
X60995584Y29965824D01*
X61198037Y29841760D01*
X61417406Y29750895D01*
X61648289Y29695465D01*
X61885000Y29676835D01*
X62121711Y29695465D01*
X62352594Y29750895D01*
X62571963Y29841760D01*
X62774416Y29965824D01*
X62775079Y29966390D01*
X65514942Y29966390D01*
X65561766Y29929945D01*
X65780393Y29811632D01*
X66015506Y29730917D01*
X66260707Y29690000D01*
X66509293Y29690000D01*
X66754493Y29730917D01*
X66989606Y29811632D01*
X67208233Y29929947D01*
X67255056Y29966391D01*
X66385000Y30836447D01*
X65514942Y29966391D01*
X65514942Y29966390D01*
X62775079Y29966390D01*
X62954969Y30120031D01*
X63109176Y30300584D01*
X63233240Y30503037D01*
X63324105Y30722406D01*
X63379535Y30953289D01*
X63398165Y31190000D01*
X64879858Y31190000D01*
X64900386Y30942268D01*
X64961413Y30701279D01*
X65061268Y30473630D01*
X65161563Y30320118D01*
X65161564Y30320118D01*
X66031447Y31189999D01*
X66031447Y31190000D01*
X66738553Y31190000D01*
X67608434Y30320118D01*
X67708730Y30473631D01*
X67808586Y30701279D01*
X67869613Y30942268D01*
X67890141Y31190000D01*
X67869613Y31437733D01*
X67808586Y31678722D01*
X67708730Y31906370D01*
X67608434Y32059884D01*
X66738553Y31190000D01*
X66031447Y31190000D01*
X65161564Y32059884D01*
X65061266Y31906366D01*
X64961413Y31678722D01*
X64900386Y31437733D01*
X64879858Y31190000D01*
X63398165Y31190000D01*
X63379535Y31426711D01*
X63324105Y31657594D01*
X63233240Y31876963D01*
X63109176Y32079416D01*
X62954969Y32259969D01*
X62775079Y32413610D01*
X65514942Y32413610D01*
X66385000Y31543553D01*
X66385001Y31543553D01*
X67255057Y32413610D01*
X67255056Y32413612D01*
X67208235Y32450053D01*
X66989606Y32568369D01*
X66754493Y32649084D01*
X66509293Y32690000D01*
X66260707Y32690000D01*
X66015506Y32649084D01*
X65780393Y32568369D01*
X65561764Y32450054D01*
X65514942Y32413612D01*
X65514942Y32413610D01*
X62775079Y32413610D01*
X62774416Y32414176D01*
X62571963Y32538240D01*
X62462278Y32583673D01*
X62352593Y32629106D01*
X62121712Y32684535D01*
X61885000Y32703165D01*
X61648287Y32684535D01*
X61417406Y32629106D01*
X61198035Y32538239D01*
X60995585Y32414177D01*
X60815031Y32259969D01*
X60660823Y32079415D01*
X60536761Y31876965D01*
X60445894Y31657594D01*
X60390465Y31426713D01*
X60371835Y31190001D01*
X58557112Y31190001D01*
X58544051Y31347626D01*
X58486749Y31573907D01*
X58392984Y31787669D01*
X58265314Y31983083D01*
X58252954Y31996509D01*
X58107219Y32154819D01*
X57997501Y32240216D01*
X57923017Y32298190D01*
X57717727Y32409287D01*
X57717726Y32409288D01*
X57717725Y32409288D01*
X57496953Y32485081D01*
X57266712Y32523500D01*
X57033288Y32523500D01*
X56803046Y32485081D01*
X56582274Y32409288D01*
X56376983Y32298190D01*
X56192779Y32154818D01*
X56076781Y32028812D01*
X56027802Y31996216D01*
X55969311Y31989864D01*
X55914477Y32011187D01*
X55875643Y32055385D01*
X55857314Y32090474D01*
X55735215Y32240216D01*
X55585473Y32362315D01*
X55414219Y32451770D01*
X55228463Y32504921D01*
X55115098Y32515000D01*
X54860000Y32515000D01*
X54860000Y29715001D01*
X54360000Y29715001D01*
X54360000Y30865000D01*
X53210001Y30865000D01*
X52189651Y30865000D01*
X52194051Y30882374D01*
X52213327Y31115000D01*
X52194051Y31347626D01*
X52189651Y31365000D01*
X53210000Y31365000D01*
X54360000Y31365000D01*
X54360000Y32514999D01*
X54104902Y32514999D01*
X53991536Y32504921D01*
X53805780Y32451770D01*
X53634526Y32362315D01*
X53484784Y32240216D01*
X53362685Y32090474D01*
X53273230Y31919220D01*
X53220079Y31733464D01*
X53210000Y31620098D01*
X53210000Y31365000D01*
X52189651Y31365000D01*
X52136749Y31573907D01*
X52042984Y31787669D01*
X51915314Y31983083D01*
X51902954Y31996509D01*
X51757219Y32154819D01*
X51647501Y32240216D01*
X51573017Y32298190D01*
X51367727Y32409287D01*
X51367726Y32409288D01*
X51367725Y32409288D01*
X51146953Y32485081D01*
X50916712Y32523500D01*
X50683288Y32523500D01*
X50453046Y32485081D01*
X50232274Y32409288D01*
X50026983Y32298190D01*
X49842780Y32154818D01*
X49732899Y32035457D01*
X49683920Y32002861D01*
X49625429Y31996509D01*
X49570595Y32017832D01*
X49531763Y32062028D01*
X49514448Y32095176D01*
X49391257Y32246257D01*
X49240176Y32369448D01*
X49067389Y32459704D01*
X49067388Y32459705D01*
X49067387Y32459705D01*
X48879970Y32513331D01*
X48861198Y32515000D01*
X48765596Y32523500D01*
X47754404Y32523500D01*
X47668623Y32515874D01*
X47640029Y32513331D01*
X47452612Y32459705D01*
X47415496Y32440317D01*
X47279824Y32369448D01*
X47128743Y32246257D01*
X47005552Y32095176D01*
X46965151Y32017832D01*
X46915295Y31922388D01*
X46876748Y31787670D01*
X46861669Y31734970D01*
X46851500Y31620596D01*
X46851500Y30609404D01*
X45639187Y30609404D01*
X45760731Y30761816D01*
X45886517Y30979684D01*
X45978427Y31213866D01*
X46034407Y31459131D01*
X46053207Y31710000D01*
X46034407Y31960869D01*
X45978427Y32206134D01*
X45886517Y32440316D01*
X45760731Y32658184D01*
X45603878Y32854872D01*
X45419462Y33025984D01*
X45419459Y33025987D01*
X45211606Y33167699D01*
X45211600Y33167702D01*
X44984945Y33276853D01*
X44910792Y33299727D01*
X44744548Y33351006D01*
X44495787Y33388500D01*
X44495786Y33388500D01*
X44244214Y33388500D01*
X44244213Y33388500D01*
X43995451Y33351006D01*
X43755055Y33276853D01*
X43528399Y33167702D01*
X43320536Y33025983D01*
X43136122Y32854872D01*
X42979268Y32658183D01*
X42853483Y32440317D01*
X42761573Y32206135D01*
X42705592Y31960868D01*
X42686792Y31710000D01*
X19355752Y31710000D01*
X19363376Y31714672D01*
X19555898Y31879102D01*
X19720328Y32071624D01*
X19852616Y32287498D01*
X19949505Y32521409D01*
X20008609Y32767597D01*
X20028474Y33020000D01*
X20008609Y33272403D01*
X19949505Y33518591D01*
X19852616Y33752502D01*
X19720328Y33968376D01*
X19555898Y34160898D01*
X19363376Y34325328D01*
X19147502Y34457616D01*
X19030546Y34506061D01*
X18913590Y34554506D01*
X18667404Y34613609D01*
X18415000Y34633474D01*
X18162595Y34613609D01*
X17916409Y34554506D01*
X17682496Y34457615D01*
X17466625Y34325329D01*
X17274102Y34160898D01*
X17109671Y33968375D01*
X16977385Y33752504D01*
X16880494Y33518591D01*
X16821391Y33272405D01*
X16801526Y33020000D01*
X75500Y33020000D01*
X75500Y33869696D01*
X11733247Y33869696D01*
X11797595Y33824640D01*
X11997406Y33731466D01*
X12210370Y33674402D01*
X12430000Y33655187D01*
X12649629Y33674402D01*
X12862593Y33731466D01*
X13062404Y33824640D01*
X13126751Y33869696D01*
X12430001Y34566447D01*
X12430000Y34566447D01*
X11733247Y33869696D01*
X75500Y33869696D01*
X75500Y34920001D01*
X11165186Y34920001D01*
X11184401Y34700371D01*
X11241465Y34487407D01*
X11334640Y34287592D01*
X11379694Y34223249D01*
X12076446Y34919999D01*
X12783553Y34919999D01*
X13480304Y34223250D01*
X13525360Y34287596D01*
X13618534Y34487407D01*
X13675598Y34700371D01*
X13694813Y34920001D01*
X13675598Y35139630D01*
X13618534Y35352594D01*
X13525359Y35552408D01*
X13480304Y35616752D01*
X13480304Y35616753D01*
X12783553Y34920000D01*
X12783553Y34919999D01*
X12076446Y34919999D01*
X12076446Y34920000D01*
X11379694Y35616752D01*
X11334639Y35552406D01*
X11241465Y35352594D01*
X11184401Y35139630D01*
X11165186Y34920001D01*
X75500Y34920001D01*
X75500Y37460000D01*
X11156654Y37460000D01*
X11175999Y37238889D01*
X11229115Y37040655D01*
X11233447Y37024490D01*
X11327251Y36823327D01*
X11454561Y36641510D01*
X11611510Y36484561D01*
X11793327Y36357251D01*
X11921050Y36297693D01*
X11973226Y36251936D01*
X11992645Y36185311D01*
X11973226Y36118686D01*
X11921050Y36072929D01*
X11797594Y36015361D01*
X11733248Y35970306D01*
X12430000Y35273554D01*
X12430001Y35273554D01*
X13126751Y35970306D01*
X13126751Y35970307D01*
X13062408Y36015360D01*
X12938949Y36072929D01*
X12886773Y36118686D01*
X12867354Y36185311D01*
X12868721Y36190000D01*
X13696654Y36190000D01*
X13715999Y35968889D01*
X13734270Y35900699D01*
X13773447Y35754490D01*
X13867251Y35553327D01*
X13994561Y35371510D01*
X14151510Y35214561D01*
X14333327Y35087251D01*
X14534490Y34993447D01*
X14748886Y34936000D01*
X14970000Y34916655D01*
X15191114Y34936000D01*
X15405510Y34993447D01*
X15606673Y35087251D01*
X15788490Y35214561D01*
X15945439Y35371510D01*
X16072749Y35553327D01*
X16166553Y35754490D01*
X16224000Y35968886D01*
X16243345Y36190000D01*
X16227910Y36366422D01*
X31711500Y36366422D01*
X31717742Y36287098D01*
X31767170Y36102630D01*
X31825728Y35987703D01*
X31853871Y35932470D01*
X31974055Y35784055D01*
X32122470Y35663871D01*
X32292629Y35577171D01*
X32477096Y35527743D01*
X32556419Y35521500D01*
X33483580Y35521501D01*
X33562904Y35527743D01*
X33747371Y35577171D01*
X33917530Y35663871D01*
X34065945Y35784055D01*
X34186129Y35932470D01*
X34186130Y35932474D01*
X34193634Y35941739D01*
X34236617Y35975624D01*
X34290000Y35987703D01*
X34343383Y35975624D01*
X34386366Y35941739D01*
X34393869Y35932473D01*
X34393871Y35932470D01*
X34514055Y35784055D01*
X34662470Y35663871D01*
X34832629Y35577171D01*
X35017096Y35527743D01*
X35096419Y35521500D01*
X36023580Y35521501D01*
X36102904Y35527743D01*
X36287371Y35577171D01*
X36457530Y35663871D01*
X36605945Y35784055D01*
X36726129Y35932470D01*
X36812829Y36102629D01*
X36832894Y36177513D01*
X36868894Y36236840D01*
X36931135Y36267534D01*
X37000121Y36259979D01*
X37054243Y36216541D01*
X37170699Y36050224D01*
X37320224Y35900699D01*
X37493442Y35779411D01*
X37685090Y35690044D01*
X37889345Y35635314D01*
X38100000Y35616884D01*
X38310655Y35635314D01*
X38514910Y35690044D01*
X38706558Y35779411D01*
X38879776Y35900699D01*
X39029301Y36050224D01*
X39150589Y36223442D01*
X39239956Y36415090D01*
X39250225Y36453416D01*
X39282319Y36509002D01*
X39337906Y36541096D01*
X39402094Y36541096D01*
X39457681Y36509002D01*
X39489775Y36453415D01*
X39500044Y36415089D01*
X39576124Y36251936D01*
X39589411Y36223442D01*
X39710699Y36050224D01*
X39860224Y35900699D01*
X40033442Y35779411D01*
X40225090Y35690044D01*
X40429345Y35635314D01*
X40640000Y35616884D01*
X40850655Y35635314D01*
X41054910Y35690044D01*
X41246558Y35779411D01*
X41419776Y35900699D01*
X41569301Y36050224D01*
X41690589Y36223442D01*
X41779956Y36415090D01*
X41790225Y36453416D01*
X41822319Y36509002D01*
X41877906Y36541096D01*
X41942094Y36541096D01*
X41997681Y36509002D01*
X42029775Y36453415D01*
X42040044Y36415089D01*
X42116124Y36251936D01*
X42129411Y36223442D01*
X42250699Y36050224D01*
X42400224Y35900699D01*
X42573442Y35779411D01*
X42765090Y35690044D01*
X42969345Y35635314D01*
X43180000Y35616884D01*
X43390655Y35635314D01*
X43594910Y35690044D01*
X43786558Y35779411D01*
X43959776Y35900699D01*
X44109301Y36050224D01*
X44230589Y36223442D01*
X44319956Y36415090D01*
X44330225Y36453416D01*
X44362319Y36509002D01*
X44417906Y36541096D01*
X44482094Y36541096D01*
X44537681Y36509002D01*
X44569775Y36453415D01*
X44580044Y36415089D01*
X44656124Y36251936D01*
X44669411Y36223442D01*
X44790699Y36050224D01*
X44940224Y35900699D01*
X45113442Y35779411D01*
X45305090Y35690044D01*
X45509345Y35635314D01*
X45720000Y35616884D01*
X45930655Y35635314D01*
X46134910Y35690044D01*
X46326558Y35779411D01*
X46499776Y35900699D01*
X46649301Y36050224D01*
X46770589Y36223442D01*
X46859956Y36415090D01*
X46870225Y36453416D01*
X46902319Y36509002D01*
X46957906Y36541096D01*
X47022094Y36541096D01*
X47077681Y36509002D01*
X47109775Y36453415D01*
X47120044Y36415089D01*
X47196124Y36251936D01*
X47209411Y36223442D01*
X47330699Y36050224D01*
X47480224Y35900699D01*
X47653442Y35779411D01*
X47845090Y35690044D01*
X48049345Y35635314D01*
X48260000Y35616884D01*
X48470655Y35635314D01*
X48674910Y35690044D01*
X48866558Y35779411D01*
X49039776Y35900699D01*
X49189301Y36050224D01*
X49310589Y36223442D01*
X49399956Y36415090D01*
X49410225Y36453416D01*
X49442319Y36509002D01*
X49497906Y36541096D01*
X49562094Y36541096D01*
X49617681Y36509002D01*
X49649775Y36453415D01*
X49660044Y36415089D01*
X49736124Y36251936D01*
X49749411Y36223442D01*
X49870699Y36050224D01*
X50020224Y35900699D01*
X50193442Y35779411D01*
X50385090Y35690044D01*
X50589345Y35635314D01*
X50800000Y35616884D01*
X51010655Y35635314D01*
X51214910Y35690044D01*
X51406558Y35779411D01*
X51579776Y35900699D01*
X51729301Y36050224D01*
X51850589Y36223442D01*
X51939956Y36415090D01*
X51950225Y36453416D01*
X51982319Y36509002D01*
X52037906Y36541096D01*
X52102094Y36541096D01*
X52157681Y36509002D01*
X52189775Y36453415D01*
X52200044Y36415089D01*
X52276124Y36251936D01*
X52289411Y36223442D01*
X52410699Y36050224D01*
X52560224Y35900699D01*
X52733442Y35779411D01*
X52925090Y35690044D01*
X53129345Y35635314D01*
X53340000Y35616884D01*
X53550655Y35635314D01*
X53754910Y35690044D01*
X53946558Y35779411D01*
X54119776Y35900699D01*
X54269301Y36050224D01*
X54390589Y36223442D01*
X54479956Y36415090D01*
X54490225Y36453416D01*
X54522319Y36509002D01*
X54577906Y36541096D01*
X54642094Y36541096D01*
X54697681Y36509002D01*
X54729775Y36453415D01*
X54740044Y36415089D01*
X54816124Y36251936D01*
X54829411Y36223442D01*
X54950699Y36050224D01*
X55100224Y35900699D01*
X55273442Y35779411D01*
X55465090Y35690044D01*
X55669345Y35635314D01*
X55880000Y35616884D01*
X56090655Y35635314D01*
X56294910Y35690044D01*
X56486558Y35779411D01*
X56659776Y35900699D01*
X56809301Y36050224D01*
X56930589Y36223442D01*
X57019956Y36415090D01*
X57030225Y36453416D01*
X57062319Y36509002D01*
X57117906Y36541096D01*
X57182094Y36541096D01*
X57237681Y36509002D01*
X57269775Y36453415D01*
X57280044Y36415089D01*
X57356124Y36251936D01*
X57369411Y36223442D01*
X57490699Y36050224D01*
X57640224Y35900699D01*
X57813442Y35779411D01*
X58005090Y35690044D01*
X58209345Y35635314D01*
X58420000Y35616884D01*
X58630655Y35635314D01*
X58834910Y35690044D01*
X59026558Y35779411D01*
X59199776Y35900699D01*
X59349301Y36050224D01*
X59470589Y36223442D01*
X59559956Y36415090D01*
X59614686Y36619345D01*
X59633116Y36830000D01*
X59614686Y37040655D01*
X59559956Y37244910D01*
X59470589Y37436558D01*
X59349301Y37609776D01*
X59199776Y37759301D01*
X59026558Y37880589D01*
X58994556Y37895512D01*
X58834911Y37969956D01*
X58630652Y38024687D01*
X58420000Y38043117D01*
X58209347Y38024687D01*
X58005088Y37969956D01*
X57813441Y37880589D01*
X57640223Y37759301D01*
X57490699Y37609777D01*
X57369411Y37436559D01*
X57280044Y37244912D01*
X57269775Y37206586D01*
X57237681Y37150998D01*
X57182093Y37118905D01*
X57117907Y37118905D01*
X57062319Y37150998D01*
X57030225Y37206586D01*
X57019955Y37244912D01*
X56960271Y37372904D01*
X56930589Y37436558D01*
X56809301Y37609776D01*
X56659776Y37759301D01*
X56486558Y37880589D01*
X56454556Y37895512D01*
X56294911Y37969956D01*
X56090652Y38024687D01*
X55880000Y38043117D01*
X55669347Y38024687D01*
X55465088Y37969956D01*
X55273441Y37880589D01*
X55100223Y37759301D01*
X54950699Y37609777D01*
X54829411Y37436559D01*
X54740044Y37244912D01*
X54729775Y37206586D01*
X54697681Y37150998D01*
X54642093Y37118905D01*
X54577907Y37118905D01*
X54522319Y37150998D01*
X54490225Y37206586D01*
X54479955Y37244912D01*
X54420271Y37372904D01*
X54390589Y37436558D01*
X54269301Y37609776D01*
X54119776Y37759301D01*
X53946558Y37880589D01*
X53914556Y37895512D01*
X53754911Y37969956D01*
X53550652Y38024687D01*
X53340000Y38043117D01*
X53129347Y38024687D01*
X52925088Y37969956D01*
X52733441Y37880589D01*
X52560223Y37759301D01*
X52410699Y37609777D01*
X52289411Y37436559D01*
X52200044Y37244912D01*
X52189775Y37206586D01*
X52157681Y37150998D01*
X52102093Y37118905D01*
X52037907Y37118905D01*
X51982319Y37150998D01*
X51950225Y37206586D01*
X51939955Y37244912D01*
X51880271Y37372904D01*
X51850589Y37436558D01*
X51729301Y37609776D01*
X51579776Y37759301D01*
X51406558Y37880589D01*
X51374556Y37895512D01*
X51214911Y37969956D01*
X51010652Y38024687D01*
X50800000Y38043117D01*
X50589347Y38024687D01*
X50385088Y37969956D01*
X50193441Y37880589D01*
X50020223Y37759301D01*
X49870699Y37609777D01*
X49749411Y37436559D01*
X49660044Y37244912D01*
X49649775Y37206586D01*
X49617681Y37150998D01*
X49562093Y37118905D01*
X49497907Y37118905D01*
X49442319Y37150998D01*
X49410225Y37206586D01*
X49399955Y37244912D01*
X49340271Y37372904D01*
X49310589Y37436558D01*
X49189301Y37609776D01*
X49039776Y37759301D01*
X48866558Y37880589D01*
X48834556Y37895512D01*
X48674911Y37969956D01*
X48470652Y38024687D01*
X48260000Y38043117D01*
X48049347Y38024687D01*
X47845088Y37969956D01*
X47653441Y37880589D01*
X47480223Y37759301D01*
X47330699Y37609777D01*
X47209411Y37436559D01*
X47120044Y37244912D01*
X47109775Y37206586D01*
X47077681Y37150998D01*
X47022093Y37118905D01*
X46957907Y37118905D01*
X46902319Y37150998D01*
X46870225Y37206586D01*
X46859955Y37244912D01*
X46800271Y37372904D01*
X46770589Y37436558D01*
X46649301Y37609776D01*
X46499776Y37759301D01*
X46326558Y37880589D01*
X46294556Y37895512D01*
X46134911Y37969956D01*
X45930652Y38024687D01*
X45720000Y38043117D01*
X45509347Y38024687D01*
X45305088Y37969956D01*
X45113441Y37880589D01*
X44940223Y37759301D01*
X44790699Y37609777D01*
X44669411Y37436559D01*
X44580044Y37244912D01*
X44569775Y37206586D01*
X44537681Y37150998D01*
X44482093Y37118905D01*
X44417907Y37118905D01*
X44362319Y37150998D01*
X44330225Y37206586D01*
X44319955Y37244912D01*
X44260271Y37372904D01*
X44230589Y37436558D01*
X44109301Y37609776D01*
X43959776Y37759301D01*
X43786558Y37880589D01*
X43754556Y37895512D01*
X43594911Y37969956D01*
X43390652Y38024687D01*
X43180000Y38043117D01*
X42969347Y38024687D01*
X42765088Y37969956D01*
X42573441Y37880589D01*
X42400223Y37759301D01*
X42250699Y37609777D01*
X42129411Y37436559D01*
X42040044Y37244912D01*
X42029775Y37206586D01*
X41997681Y37150998D01*
X41942093Y37118905D01*
X41877907Y37118905D01*
X41822319Y37150998D01*
X41790225Y37206586D01*
X41779955Y37244912D01*
X41720271Y37372904D01*
X41690589Y37436558D01*
X41569301Y37609776D01*
X41419776Y37759301D01*
X41246558Y37880589D01*
X41214556Y37895512D01*
X41054911Y37969956D01*
X40850652Y38024687D01*
X40640000Y38043117D01*
X40429347Y38024687D01*
X40225088Y37969956D01*
X40033441Y37880589D01*
X39860223Y37759301D01*
X39710699Y37609777D01*
X39589411Y37436559D01*
X39500044Y37244912D01*
X39489775Y37206586D01*
X39457681Y37150998D01*
X39402093Y37118905D01*
X39337907Y37118905D01*
X39282319Y37150998D01*
X39250225Y37206586D01*
X39239955Y37244912D01*
X39180271Y37372904D01*
X39150589Y37436558D01*
X39029301Y37609776D01*
X38879776Y37759301D01*
X38706558Y37880589D01*
X38674556Y37895512D01*
X38514911Y37969956D01*
X38310652Y38024687D01*
X38100000Y38043117D01*
X37889347Y38024687D01*
X37685088Y37969956D01*
X37493441Y37880589D01*
X37320223Y37759301D01*
X37170702Y37609780D01*
X37054243Y37443459D01*
X37000120Y37400022D01*
X36931135Y37392467D01*
X36868894Y37423161D01*
X36832893Y37482490D01*
X36829999Y37493289D01*
X36812829Y37557371D01*
X36726129Y37727530D01*
X36605945Y37875945D01*
X36457530Y37996129D01*
X36401482Y38024687D01*
X36287370Y38082830D01*
X36152330Y38119014D01*
X36102904Y38132257D01*
X36023581Y38138500D01*
X36023577Y38138500D01*
X35096421Y38138500D01*
X35017097Y38132258D01*
X34832629Y38082830D01*
X34662469Y37996129D01*
X34578136Y37927837D01*
X34514055Y37875945D01*
X34415764Y37754565D01*
X34386366Y37718262D01*
X34343383Y37684377D01*
X34290000Y37672298D01*
X34236617Y37684377D01*
X34193634Y37718262D01*
X34186128Y37727531D01*
X34065945Y37875945D01*
X33917530Y37996129D01*
X33861482Y38024687D01*
X33747370Y38082830D01*
X33612330Y38119014D01*
X33562904Y38132257D01*
X33483581Y38138500D01*
X33483577Y38138500D01*
X32556421Y38138500D01*
X32477097Y38132258D01*
X32292629Y38082830D01*
X32122469Y37996129D01*
X31974055Y37875945D01*
X31853871Y37727531D01*
X31767170Y37557371D01*
X31717743Y37372904D01*
X31711500Y37293578D01*
X31711500Y36366422D01*
X16227910Y36366422D01*
X16224000Y36411114D01*
X16166553Y36625510D01*
X16072749Y36826672D01*
X15945439Y37008490D01*
X15788490Y37165439D01*
X15606673Y37292749D01*
X15489003Y37347620D01*
X15436830Y37393375D01*
X15417410Y37460000D01*
X15436830Y37526625D01*
X15489003Y37572381D01*
X15606673Y37627251D01*
X15788490Y37754561D01*
X15945439Y37911510D01*
X16072749Y38093327D01*
X16166553Y38294490D01*
X16224000Y38508886D01*
X16243345Y38730000D01*
X16224000Y38951114D01*
X16166553Y39165510D01*
X16133086Y39237280D01*
X20885831Y39237280D01*
X21057546Y39120207D01*
X21293860Y39006404D01*
X21544496Y38929092D01*
X21803856Y38890000D01*
X22066144Y38890000D01*
X22325503Y38929092D01*
X22576139Y39006404D01*
X22661683Y39047599D01*
X22719657Y39059809D01*
X22776679Y39043728D01*
X22819731Y39003027D01*
X22838986Y38946997D01*
X22841115Y38923340D01*
X22898987Y38713647D01*
X22993370Y38517657D01*
X23059389Y38426790D01*
X23121234Y38341667D01*
X23278467Y38191337D01*
X23460015Y38071499D01*
X23660043Y37986002D01*
X23872123Y37937596D01*
X24070756Y37928676D01*
X24089436Y37927837D01*
X24089436Y37927838D01*
X24089438Y37927837D01*
X24305004Y37957037D01*
X24511891Y38024259D01*
X24703450Y38127341D01*
X24873525Y38262972D01*
X24938397Y38337225D01*
X24993460Y38373571D01*
X25059371Y38376531D01*
X25117470Y38345266D01*
X25121233Y38341668D01*
X25121234Y38341667D01*
X25278467Y38191337D01*
X25460015Y38071499D01*
X25660043Y37986002D01*
X25872123Y37937596D01*
X26070756Y37928676D01*
X26089436Y37927837D01*
X26089436Y37927838D01*
X26089438Y37927837D01*
X26305004Y37957037D01*
X26511891Y38024259D01*
X26703450Y38127341D01*
X26873525Y38262972D01*
X26938397Y38337225D01*
X26993460Y38373571D01*
X27059371Y38376531D01*
X27117470Y38345266D01*
X27121233Y38341668D01*
X27121234Y38341667D01*
X27278467Y38191337D01*
X27460015Y38071499D01*
X27660043Y37986002D01*
X27872123Y37937596D01*
X28070756Y37928676D01*
X28089436Y37927837D01*
X28089436Y37927838D01*
X28089438Y37927837D01*
X28305004Y37957037D01*
X28511891Y38024259D01*
X28703450Y38127341D01*
X28873525Y38262972D01*
X29016649Y38426790D01*
X29128222Y38613532D01*
X29204658Y38817195D01*
X29230398Y38959036D01*
X29252911Y39010901D01*
X29296110Y39047380D01*
X29351014Y39060887D01*
X29406207Y39048615D01*
X29493860Y39006404D01*
X29744496Y38929092D01*
X30003856Y38890000D01*
X30266144Y38890000D01*
X30525503Y38929092D01*
X30776139Y39006404D01*
X31012456Y39120208D01*
X31184167Y39237280D01*
X29869128Y40552319D01*
X29837034Y40607906D01*
X29837034Y40639999D01*
X30488553Y40639999D01*
X31537124Y39591429D01*
X31584972Y39651428D01*
X31716117Y39878577D01*
X31811940Y40122730D01*
X31870306Y40378448D01*
X31889907Y40640001D01*
X31870306Y40901553D01*
X31811940Y41157271D01*
X31716117Y41401425D01*
X31584972Y41628574D01*
X31537125Y41688573D01*
X30488553Y40640000D01*
X30488553Y40639999D01*
X29837034Y40639999D01*
X29837034Y40672094D01*
X29869128Y40727681D01*
X30135000Y40993553D01*
X31184167Y42042722D01*
X31012451Y42159795D01*
X30776139Y42273597D01*
X30525503Y42350909D01*
X30266144Y42390000D01*
X30003856Y42390000D01*
X29744496Y42350909D01*
X29493860Y42273597D01*
X29408316Y42232401D01*
X29350341Y42220191D01*
X29293319Y42236273D01*
X29250267Y42276976D01*
X29231014Y42333003D01*
X29228885Y42356658D01*
X29171013Y42566353D01*
X29076629Y42762344D01*
X28948766Y42938333D01*
X28791533Y43088663D01*
X28791530Y43088665D01*
X28791529Y43088666D01*
X28609985Y43208501D01*
X28409956Y43293999D01*
X28197877Y43342404D01*
X27980563Y43352164D01*
X27764996Y43322964D01*
X27620299Y43275948D01*
X27558109Y43255741D01*
X27366550Y43152659D01*
X27366548Y43152658D01*
X27366549Y43152658D01*
X27196473Y43017027D01*
X27131601Y42942776D01*
X27076538Y42906430D01*
X27010628Y42903470D01*
X26952529Y42934734D01*
X26948768Y42938330D01*
X26948766Y42938333D01*
X26791533Y43088663D01*
X26791530Y43088665D01*
X26791529Y43088666D01*
X26609985Y43208501D01*
X26409956Y43293999D01*
X26197877Y43342404D01*
X25980563Y43352164D01*
X25764996Y43322964D01*
X25620299Y43275948D01*
X25558109Y43255741D01*
X25366550Y43152659D01*
X25366548Y43152658D01*
X25366549Y43152658D01*
X25196473Y43017027D01*
X25131601Y42942776D01*
X25076538Y42906430D01*
X25010628Y42903470D01*
X24952529Y42934734D01*
X24948768Y42938330D01*
X24948766Y42938333D01*
X24791533Y43088663D01*
X24791530Y43088665D01*
X24791529Y43088666D01*
X24609985Y43208501D01*
X24409956Y43293999D01*
X24197877Y43342404D01*
X23980563Y43352164D01*
X23764996Y43322964D01*
X23620299Y43275948D01*
X23558109Y43255741D01*
X23366550Y43152659D01*
X23366548Y43152658D01*
X23366549Y43152658D01*
X23196476Y43017030D01*
X23053349Y42853208D01*
X22941777Y42666469D01*
X22865340Y42462804D01*
X22839601Y42320965D01*
X22817088Y42269100D01*
X22773889Y42232621D01*
X22718985Y42219114D01*
X22663793Y42231386D01*
X22576142Y42273596D01*
X22325503Y42350909D01*
X22066144Y42390000D01*
X21803856Y42390000D01*
X21544496Y42350909D01*
X21293860Y42273597D01*
X21057545Y42159794D01*
X20885831Y42042722D01*
X22200871Y40727682D01*
X22232965Y40672095D01*
X22232965Y40607907D01*
X22200871Y40552320D01*
X20885831Y39237280D01*
X16133086Y39237280D01*
X16072749Y39366672D01*
X15945439Y39548490D01*
X15788490Y39705439D01*
X15606673Y39832749D01*
X15478949Y39892308D01*
X15426773Y39938065D01*
X15407354Y40004691D01*
X15426774Y40071316D01*
X15478950Y40117073D01*
X15602407Y40174642D01*
X15666751Y40219696D01*
X14970001Y40916447D01*
X14970000Y40916447D01*
X14273247Y40219696D01*
X14337595Y40174640D01*
X14461049Y40117072D01*
X14513224Y40071316D01*
X14532644Y40004691D01*
X14513225Y39938066D01*
X14461050Y39892308D01*
X14333325Y39832748D01*
X14151509Y39705439D01*
X13994561Y39548491D01*
X13867251Y39366673D01*
X13773447Y39165512D01*
X13715999Y38951112D01*
X13696654Y38730001D01*
X13715999Y38508889D01*
X13773447Y38294489D01*
X13821548Y38191338D01*
X13867251Y38093327D01*
X13994561Y37911510D01*
X14151510Y37754561D01*
X14333327Y37627251D01*
X14450994Y37572382D01*
X14503169Y37526627D01*
X14522589Y37460002D01*
X14503170Y37393377D01*
X14450995Y37347619D01*
X14333325Y37292748D01*
X14151509Y37165439D01*
X13994561Y37008491D01*
X13867251Y36826673D01*
X13773447Y36625512D01*
X13715999Y36411112D01*
X13696654Y36190000D01*
X12868721Y36190000D01*
X12886774Y36251936D01*
X12938949Y36297693D01*
X13066673Y36357251D01*
X13248490Y36484561D01*
X13405439Y36641510D01*
X13532749Y36823327D01*
X13626553Y37024490D01*
X13684000Y37238886D01*
X13703345Y37460000D01*
X13684000Y37681114D01*
X13626553Y37895510D01*
X13532749Y38096672D01*
X13405439Y38278490D01*
X13248490Y38435439D01*
X13066673Y38562749D01*
X12949003Y38617620D01*
X12896830Y38663375D01*
X12877410Y38730000D01*
X12896830Y38796625D01*
X12949003Y38842381D01*
X13066673Y38897251D01*
X13248490Y39024561D01*
X13405439Y39181510D01*
X13532749Y39363327D01*
X13626553Y39564490D01*
X13684000Y39778886D01*
X13703345Y40000000D01*
X13684000Y40221114D01*
X13626553Y40435510D01*
X13532749Y40636672D01*
X13405439Y40818490D01*
X13248490Y40975439D01*
X13066673Y41102749D01*
X12973923Y41145999D01*
X12865511Y41196553D01*
X12651111Y41254001D01*
X12468244Y41270000D01*
X13705186Y41270000D01*
X13724401Y41050371D01*
X13781465Y40837407D01*
X13874640Y40637592D01*
X13919694Y40573249D01*
X14616446Y41269999D01*
X15323553Y41269999D01*
X16020304Y40573250D01*
X16065360Y40637596D01*
X16066481Y40640001D01*
X20180092Y40640001D01*
X20199693Y40378448D01*
X20258059Y40122730D01*
X20353882Y39878576D01*
X20485027Y39651427D01*
X20532873Y39591429D01*
X20532874Y39591429D01*
X21581446Y40639999D01*
X21581446Y40640000D01*
X20532873Y41688573D01*
X20485028Y41628576D01*
X20353882Y41401424D01*
X20258059Y41157271D01*
X20199693Y40901553D01*
X20180092Y40640001D01*
X16066481Y40640001D01*
X16158534Y40837407D01*
X16215598Y41050371D01*
X16234813Y41270000D01*
X16215598Y41489630D01*
X16158534Y41702594D01*
X16065359Y41902408D01*
X16020304Y41966752D01*
X16020304Y41966753D01*
X15323553Y41270000D01*
X15323553Y41269999D01*
X14616446Y41269999D01*
X14616446Y41270000D01*
X13919694Y41966752D01*
X13874639Y41902406D01*
X13781465Y41702594D01*
X13724401Y41489630D01*
X13705186Y41270000D01*
X12468244Y41270000D01*
X12430000Y41273346D01*
X12208888Y41254001D01*
X11994488Y41196553D01*
X11793327Y41102749D01*
X11611509Y40975439D01*
X11454561Y40818491D01*
X11327251Y40636673D01*
X11233447Y40435512D01*
X11175999Y40221112D01*
X11156654Y40000001D01*
X11175999Y39778889D01*
X11226228Y39591429D01*
X11233447Y39564490D01*
X11327251Y39363327D01*
X11454561Y39181510D01*
X11611510Y39024561D01*
X11793327Y38897251D01*
X11910994Y38842382D01*
X11963169Y38796627D01*
X11982589Y38730002D01*
X11963170Y38663377D01*
X11910995Y38617619D01*
X11793325Y38562748D01*
X11611509Y38435439D01*
X11454561Y38278491D01*
X11327251Y38096673D01*
X11233447Y37895512D01*
X11175999Y37681112D01*
X11156654Y37460000D01*
X75500Y37460000D01*
X75500Y42320306D01*
X14273248Y42320306D01*
X14970000Y41623554D01*
X14970001Y41623554D01*
X15666751Y42320306D01*
X15666751Y42320307D01*
X15602408Y42365360D01*
X15402593Y42458535D01*
X15189629Y42515599D01*
X14970000Y42534814D01*
X14750370Y42515599D01*
X14537406Y42458535D01*
X14337594Y42365361D01*
X14273248Y42320306D01*
X75500Y42320306D01*
X75500Y42577997D01*
X16806500Y42577997D01*
X16821814Y42422500D01*
X16821815Y42422498D01*
X16878305Y42236273D01*
X16882342Y42222967D01*
X16916109Y42159794D01*
X16980631Y42039083D01*
X17112906Y41877906D01*
X17274083Y41745631D01*
X17457969Y41647341D01*
X17657498Y41586815D01*
X17812995Y41571500D01*
X19017004Y41571501D01*
X19172502Y41586815D01*
X19372031Y41647341D01*
X19555917Y41745631D01*
X19717094Y41877906D01*
X19849369Y42039083D01*
X19947659Y42222969D01*
X20008185Y42422498D01*
X20023500Y42577995D01*
X20023499Y43782004D01*
X20008185Y43937502D01*
X19947659Y44137031D01*
X19849369Y44320917D01*
X19743432Y44450001D01*
X31706501Y44450001D01*
X31726456Y44221916D01*
X31746706Y44146344D01*
X31776516Y44035090D01*
X31785717Y44000754D01*
X31882474Y43793256D01*
X31882475Y43793255D01*
X31882477Y43793251D01*
X32013802Y43605700D01*
X32175700Y43443802D01*
X32363251Y43312477D01*
X32363254Y43312476D01*
X32363255Y43312475D01*
X32409598Y43290865D01*
X32570757Y43215716D01*
X32791913Y43156457D01*
X33020000Y43136502D01*
X33248087Y43156457D01*
X33469243Y43215716D01*
X33676749Y43312477D01*
X33864300Y43443802D01*
X34026198Y43605700D01*
X34157523Y43793251D01*
X34177617Y43836345D01*
X34223375Y43888521D01*
X34290000Y43907941D01*
X34356625Y43888521D01*
X34402382Y43836345D01*
X34422477Y43793251D01*
X34553802Y43605700D01*
X34715700Y43443802D01*
X34903251Y43312477D01*
X34903254Y43312476D01*
X34903255Y43312475D01*
X34949598Y43290865D01*
X35110757Y43215716D01*
X35331913Y43156457D01*
X35560000Y43136502D01*
X35788087Y43156457D01*
X36009243Y43215716D01*
X36216749Y43312477D01*
X36404300Y43443802D01*
X36566198Y43605700D01*
X36697523Y43793251D01*
X36772789Y43954661D01*
X36818542Y44006832D01*
X36885167Y44026252D01*
X36951792Y44006833D01*
X36997550Y43954657D01*
X37028390Y43888521D01*
X37049411Y43843442D01*
X37170699Y43670224D01*
X37320224Y43520699D01*
X37493442Y43399411D01*
X37685090Y43310044D01*
X37889345Y43255314D01*
X38029781Y43243028D01*
X38099999Y43236884D01*
X38099999Y43236885D01*
X38100000Y43236884D01*
X38310655Y43255314D01*
X38514910Y43310044D01*
X38706558Y43399411D01*
X38879776Y43520699D01*
X39029301Y43670224D01*
X39150589Y43843442D01*
X39239956Y44035090D01*
X39250225Y44073416D01*
X39282319Y44129002D01*
X39337906Y44161096D01*
X39402094Y44161096D01*
X39457681Y44129002D01*
X39489775Y44073415D01*
X39500044Y44035089D01*
X39568390Y43888521D01*
X39589411Y43843442D01*
X39710699Y43670224D01*
X39860224Y43520699D01*
X40033442Y43399411D01*
X40225090Y43310044D01*
X40429345Y43255314D01*
X40569781Y43243028D01*
X40639999Y43236884D01*
X40639999Y43236885D01*
X40640000Y43236884D01*
X40850655Y43255314D01*
X41054910Y43310044D01*
X41246558Y43399411D01*
X41419776Y43520699D01*
X41569301Y43670224D01*
X41690589Y43843442D01*
X41779956Y44035090D01*
X41790225Y44073416D01*
X41822319Y44129002D01*
X41877906Y44161096D01*
X41942094Y44161096D01*
X41997681Y44129002D01*
X42029775Y44073415D01*
X42040044Y44035089D01*
X42108390Y43888521D01*
X42129411Y43843442D01*
X42250699Y43670224D01*
X42400224Y43520699D01*
X42573442Y43399411D01*
X42765090Y43310044D01*
X42969345Y43255314D01*
X43109781Y43243028D01*
X43179999Y43236884D01*
X43179999Y43236885D01*
X43180000Y43236884D01*
X43390655Y43255314D01*
X43594910Y43310044D01*
X43786558Y43399411D01*
X43959776Y43520699D01*
X44109301Y43670224D01*
X44230589Y43843442D01*
X44319956Y44035090D01*
X44330225Y44073416D01*
X44362319Y44129002D01*
X44417906Y44161096D01*
X44482094Y44161096D01*
X44537681Y44129002D01*
X44569775Y44073415D01*
X44580044Y44035089D01*
X44648390Y43888521D01*
X44669411Y43843442D01*
X44790699Y43670224D01*
X44940224Y43520699D01*
X45113442Y43399411D01*
X45305090Y43310044D01*
X45509345Y43255314D01*
X45649781Y43243028D01*
X45719999Y43236884D01*
X45719999Y43236885D01*
X45720000Y43236884D01*
X45930655Y43255314D01*
X46134910Y43310044D01*
X46326558Y43399411D01*
X46499776Y43520699D01*
X46649301Y43670224D01*
X46770589Y43843442D01*
X46859956Y44035090D01*
X46874945Y44091028D01*
X46906768Y44146344D01*
X46961888Y44178508D01*
X47025705Y44178999D01*
X47081314Y44147688D01*
X47113986Y44092867D01*
X47136241Y44014648D01*
X47235365Y43815578D01*
X47369390Y43638101D01*
X47533737Y43488279D01*
X47722821Y43371203D01*
X47930199Y43290865D01*
X48010000Y43275948D01*
X48510000Y43275948D01*
X48589800Y43290865D01*
X48797178Y43371203D01*
X48986262Y43488279D01*
X49150609Y43638101D01*
X49284634Y43815578D01*
X49383759Y44014649D01*
X49406013Y44092866D01*
X49438684Y44147687D01*
X49494293Y44178999D01*
X49558109Y44178508D01*
X49613230Y44146345D01*
X49645054Y44091028D01*
X49660042Y44035093D01*
X49728390Y43888521D01*
X49749411Y43843442D01*
X49870699Y43670224D01*
X50020224Y43520699D01*
X50193442Y43399411D01*
X50385090Y43310044D01*
X50589345Y43255314D01*
X50729781Y43243028D01*
X50799999Y43236884D01*
X50799999Y43236885D01*
X50800000Y43236884D01*
X51010655Y43255314D01*
X51214910Y43310044D01*
X51406558Y43399411D01*
X51579776Y43520699D01*
X51729301Y43670224D01*
X51850589Y43843442D01*
X51939956Y44035090D01*
X51950225Y44073416D01*
X51982319Y44129002D01*
X52037906Y44161096D01*
X52102094Y44161096D01*
X52157681Y44129002D01*
X52189775Y44073415D01*
X52200044Y44035089D01*
X52268390Y43888521D01*
X52289411Y43843442D01*
X52410699Y43670224D01*
X52560224Y43520699D01*
X52733442Y43399411D01*
X52925090Y43310044D01*
X53129345Y43255314D01*
X53269781Y43243028D01*
X53339999Y43236884D01*
X53339999Y43236885D01*
X53340000Y43236884D01*
X53550655Y43255314D01*
X53754910Y43310044D01*
X53946558Y43399411D01*
X54119776Y43520699D01*
X54269301Y43670224D01*
X54390589Y43843442D01*
X54479956Y44035090D01*
X54490225Y44073416D01*
X54522319Y44129002D01*
X54577906Y44161096D01*
X54642094Y44161096D01*
X54697681Y44129002D01*
X54729775Y44073415D01*
X54740044Y44035089D01*
X54808390Y43888521D01*
X54829411Y43843442D01*
X54950699Y43670224D01*
X55100224Y43520699D01*
X55273442Y43399411D01*
X55465090Y43310044D01*
X55669345Y43255314D01*
X55809781Y43243028D01*
X55879999Y43236884D01*
X55879999Y43236885D01*
X55880000Y43236884D01*
X56090655Y43255314D01*
X56294910Y43310044D01*
X56486558Y43399411D01*
X56659776Y43520699D01*
X56809301Y43670224D01*
X56930589Y43843442D01*
X57019956Y44035090D01*
X57030225Y44073416D01*
X57062319Y44129002D01*
X57117906Y44161096D01*
X57182094Y44161096D01*
X57237681Y44129002D01*
X57269775Y44073415D01*
X57280044Y44035089D01*
X57348390Y43888521D01*
X57369411Y43843442D01*
X57490699Y43670224D01*
X57640224Y43520699D01*
X57813442Y43399411D01*
X58005090Y43310044D01*
X58209345Y43255314D01*
X58349781Y43243028D01*
X58419999Y43236884D01*
X58419999Y43236885D01*
X58420000Y43236884D01*
X58630655Y43255314D01*
X58834910Y43310044D01*
X59026558Y43399411D01*
X59199776Y43520699D01*
X59349301Y43670224D01*
X59470589Y43843442D01*
X59559956Y44035090D01*
X59614686Y44239345D01*
X59633116Y44450000D01*
X59614686Y44660655D01*
X59559956Y44864910D01*
X59470589Y45056558D01*
X59349301Y45229776D01*
X59199776Y45379301D01*
X59026558Y45500589D01*
X58966064Y45528798D01*
X58834911Y45589956D01*
X58630652Y45644687D01*
X58420000Y45663117D01*
X58209347Y45644687D01*
X58005088Y45589956D01*
X57813441Y45500589D01*
X57640223Y45379301D01*
X57490699Y45229777D01*
X57369411Y45056559D01*
X57280044Y44864912D01*
X57269775Y44826586D01*
X57237681Y44770998D01*
X57182093Y44738905D01*
X57117907Y44738905D01*
X57062319Y44770998D01*
X57030225Y44826586D01*
X57019955Y44864912D01*
X57015834Y44873749D01*
X56930589Y45056558D01*
X56809301Y45229776D01*
X56659776Y45379301D01*
X56486558Y45500589D01*
X56426064Y45528798D01*
X56294911Y45589956D01*
X56090652Y45644687D01*
X55880000Y45663117D01*
X55669347Y45644687D01*
X55465088Y45589956D01*
X55273441Y45500589D01*
X55100223Y45379301D01*
X54950699Y45229777D01*
X54829411Y45056559D01*
X54740044Y44864912D01*
X54729775Y44826586D01*
X54697681Y44770998D01*
X54642093Y44738905D01*
X54577907Y44738905D01*
X54522319Y44770998D01*
X54490225Y44826586D01*
X54479955Y44864912D01*
X54475834Y44873749D01*
X54390589Y45056558D01*
X54269301Y45229776D01*
X54119776Y45379301D01*
X53946558Y45500589D01*
X53886064Y45528798D01*
X53754911Y45589956D01*
X53550652Y45644687D01*
X53340000Y45663117D01*
X53129347Y45644687D01*
X52925088Y45589956D01*
X52733441Y45500589D01*
X52560223Y45379301D01*
X52410699Y45229777D01*
X52289411Y45056559D01*
X52200044Y44864912D01*
X52189775Y44826586D01*
X52157681Y44770998D01*
X52102093Y44738905D01*
X52037907Y44738905D01*
X51982319Y44770998D01*
X51950225Y44826586D01*
X51939955Y44864912D01*
X51935834Y44873749D01*
X51850589Y45056558D01*
X51729301Y45229776D01*
X51579776Y45379301D01*
X51406558Y45500589D01*
X51346064Y45528798D01*
X51214911Y45589956D01*
X51010652Y45644687D01*
X50800000Y45663117D01*
X50589347Y45644687D01*
X50385088Y45589956D01*
X50193441Y45500589D01*
X50020223Y45379301D01*
X49870699Y45229777D01*
X49749411Y45056559D01*
X49660043Y44864909D01*
X49645054Y44808972D01*
X49613230Y44753656D01*
X49558109Y44721493D01*
X49494293Y44721002D01*
X49438685Y44752314D01*
X49406013Y44807135D01*
X49383759Y44885352D01*
X49284634Y45084423D01*
X49150609Y45261900D01*
X48986262Y45411722D01*
X48797178Y45528798D01*
X48589800Y45609136D01*
X48510000Y45624052D01*
X48510000Y43275948D01*
X48010000Y43275948D01*
X48010000Y45624052D01*
X47930199Y45609136D01*
X47722821Y45528798D01*
X47533737Y45411722D01*
X47369390Y45261900D01*
X47235365Y45084423D01*
X47136238Y44885348D01*
X47113985Y44807134D01*
X47081313Y44752313D01*
X47025705Y44721002D01*
X46961888Y44721493D01*
X46906768Y44753657D01*
X46874944Y44808974D01*
X46859955Y44864912D01*
X46855834Y44873749D01*
X46770589Y45056558D01*
X46649301Y45229776D01*
X46499776Y45379301D01*
X46326558Y45500589D01*
X46266064Y45528798D01*
X46134911Y45589956D01*
X45930652Y45644687D01*
X45720000Y45663117D01*
X45509347Y45644687D01*
X45305088Y45589956D01*
X45113441Y45500589D01*
X44940223Y45379301D01*
X44790699Y45229777D01*
X44669411Y45056559D01*
X44580044Y44864912D01*
X44569775Y44826586D01*
X44537681Y44770998D01*
X44482093Y44738905D01*
X44417907Y44738905D01*
X44362319Y44770998D01*
X44330225Y44826586D01*
X44319955Y44864912D01*
X44315834Y44873749D01*
X44230589Y45056558D01*
X44109301Y45229776D01*
X43959776Y45379301D01*
X43786558Y45500589D01*
X43726064Y45528798D01*
X43594911Y45589956D01*
X43390652Y45644687D01*
X43180000Y45663117D01*
X42969347Y45644687D01*
X42765088Y45589956D01*
X42573441Y45500589D01*
X42400223Y45379301D01*
X42250699Y45229777D01*
X42129411Y45056559D01*
X42040044Y44864912D01*
X42029775Y44826586D01*
X41997681Y44770998D01*
X41942093Y44738905D01*
X41877907Y44738905D01*
X41822319Y44770998D01*
X41790225Y44826586D01*
X41779955Y44864912D01*
X41775834Y44873749D01*
X41690589Y45056558D01*
X41569301Y45229776D01*
X41419776Y45379301D01*
X41246558Y45500589D01*
X41186064Y45528798D01*
X41054911Y45589956D01*
X40850652Y45644687D01*
X40640000Y45663117D01*
X40429347Y45644687D01*
X40225088Y45589956D01*
X40033441Y45500589D01*
X39860223Y45379301D01*
X39710699Y45229777D01*
X39589411Y45056559D01*
X39500044Y44864912D01*
X39489775Y44826586D01*
X39457681Y44770998D01*
X39402093Y44738905D01*
X39337907Y44738905D01*
X39282319Y44770998D01*
X39250225Y44826586D01*
X39239955Y44864912D01*
X39235834Y44873749D01*
X39150589Y45056558D01*
X39029301Y45229776D01*
X38879776Y45379301D01*
X38706558Y45500589D01*
X38646064Y45528798D01*
X38514911Y45589956D01*
X38310652Y45644687D01*
X38100000Y45663117D01*
X37889347Y45644687D01*
X37685088Y45589956D01*
X37493441Y45500589D01*
X37320223Y45379301D01*
X37170699Y45229777D01*
X37049412Y45056561D01*
X36997550Y44945343D01*
X36951792Y44893168D01*
X36885167Y44873749D01*
X36818542Y44893169D01*
X36772786Y44945345D01*
X36741947Y45011479D01*
X36697523Y45106749D01*
X36566198Y45294300D01*
X36404300Y45456198D01*
X36216749Y45587523D01*
X36216746Y45587524D01*
X36216744Y45587526D01*
X36009246Y45684283D01*
X36009243Y45684284D01*
X35898665Y45713914D01*
X35788084Y45743544D01*
X35560000Y45763499D01*
X35331915Y45743544D01*
X35110753Y45684283D01*
X34903255Y45587526D01*
X34715696Y45456195D01*
X34553805Y45294304D01*
X34553802Y45294301D01*
X34553802Y45294300D01*
X34508623Y45229777D01*
X34422476Y45106747D01*
X34402382Y45063655D01*
X34356625Y45011479D01*
X34290000Y44992060D01*
X34223375Y45011479D01*
X34177618Y45063655D01*
X34176214Y45066666D01*
X34157523Y45106749D01*
X34026198Y45294300D01*
X33864300Y45456198D01*
X33676749Y45587523D01*
X33676746Y45587524D01*
X33676744Y45587526D01*
X33469246Y45684283D01*
X33469243Y45684284D01*
X33358665Y45713914D01*
X33248084Y45743544D01*
X33020000Y45763499D01*
X32791915Y45743544D01*
X32570753Y45684283D01*
X32363255Y45587526D01*
X32175696Y45456195D01*
X32013805Y45294304D01*
X31882474Y45106745D01*
X31785717Y44899247D01*
X31726456Y44678085D01*
X31706501Y44450001D01*
X19743432Y44450001D01*
X19717094Y44482094D01*
X19555917Y44614369D01*
X19372031Y44712659D01*
X19272266Y44742922D01*
X19172500Y44773186D01*
X19033992Y44786827D01*
X19017004Y44788500D01*
X17812996Y44788500D01*
X17657499Y44773186D01*
X17457966Y44712658D01*
X17274084Y44614370D01*
X17112906Y44482094D01*
X16980630Y44320916D01*
X16882342Y44137034D01*
X16882341Y44137032D01*
X16882341Y44137031D01*
X16875419Y44114214D01*
X16821814Y43937501D01*
X16806500Y43782005D01*
X16806500Y42577997D01*
X75500Y42577997D01*
X75500Y47050001D01*
X1536835Y47050001D01*
X1555465Y46813288D01*
X1610894Y46582407D01*
X1656327Y46472722D01*
X1701760Y46363037D01*
X1825824Y46160584D01*
X1980031Y45980031D01*
X2160584Y45825824D01*
X2363037Y45701760D01*
X2582406Y45610895D01*
X2813289Y45555465D01*
X3050000Y45536835D01*
X3286711Y45555465D01*
X3517594Y45610895D01*
X3736963Y45701760D01*
X3939416Y45825824D01*
X4119969Y45980031D01*
X4274176Y46160584D01*
X4398240Y46363037D01*
X4489105Y46582406D01*
X4544535Y46813289D01*
X4563165Y47050000D01*
X4563165Y47050001D01*
X8036835Y47050001D01*
X8055465Y46813288D01*
X8110894Y46582407D01*
X8156327Y46472722D01*
X8201760Y46363037D01*
X8325824Y46160584D01*
X8480031Y45980031D01*
X8660584Y45825824D01*
X8863037Y45701760D01*
X9082406Y45610895D01*
X9313289Y45555465D01*
X9550000Y45536835D01*
X9786711Y45555465D01*
X10017594Y45610895D01*
X10236963Y45701760D01*
X10439416Y45825824D01*
X10619969Y45980031D01*
X10774176Y46160584D01*
X10898240Y46363037D01*
X10989105Y46582406D01*
X11044535Y46813289D01*
X11063165Y47050000D01*
X11044535Y47286711D01*
X10989105Y47517594D01*
X10898240Y47736963D01*
X10774176Y47939416D01*
X10619969Y48119969D01*
X10439416Y48274176D01*
X10236963Y48398240D01*
X10127278Y48443673D01*
X10017593Y48489106D01*
X9786712Y48544535D01*
X9550000Y48563165D01*
X9313287Y48544535D01*
X9082406Y48489106D01*
X8863035Y48398239D01*
X8660585Y48274177D01*
X8480031Y48119969D01*
X8325823Y47939415D01*
X8201761Y47736965D01*
X8110894Y47517594D01*
X8055465Y47286713D01*
X8036835Y47050001D01*
X4563165Y47050001D01*
X4544535Y47286711D01*
X4489105Y47517594D01*
X4398240Y47736963D01*
X4274176Y47939416D01*
X4119969Y48119969D01*
X3939416Y48274176D01*
X3736963Y48398240D01*
X3627278Y48443673D01*
X3517593Y48489106D01*
X3286712Y48544535D01*
X3050000Y48563165D01*
X2813287Y48544535D01*
X2582406Y48489106D01*
X2363035Y48398239D01*
X2160585Y48274177D01*
X1980031Y48119969D01*
X1825823Y47939415D01*
X1701761Y47736965D01*
X1610894Y47517594D01*
X1555465Y47286713D01*
X1536835Y47050001D01*
X75500Y47050001D01*
X75500Y50326390D01*
X2179942Y50326390D01*
X2226766Y50289945D01*
X2445393Y50171632D01*
X2680506Y50090917D01*
X2925707Y50050000D01*
X3174293Y50050000D01*
X3419493Y50090917D01*
X3654606Y50171632D01*
X3873233Y50289947D01*
X3920055Y50326390D01*
X8679942Y50326390D01*
X8726766Y50289945D01*
X8945393Y50171632D01*
X9180506Y50090917D01*
X9425707Y50050000D01*
X9674293Y50050000D01*
X9919493Y50090917D01*
X10154606Y50171632D01*
X10373233Y50289947D01*
X10420056Y50326391D01*
X9550000Y51196447D01*
X8679942Y50326391D01*
X8679942Y50326390D01*
X3920055Y50326390D01*
X3920056Y50326391D01*
X3050000Y51196447D01*
X2179942Y50326391D01*
X2179942Y50326390D01*
X75500Y50326390D01*
X75500Y51550000D01*
X1544858Y51550000D01*
X1565386Y51302268D01*
X1626413Y51061279D01*
X1726268Y50833630D01*
X1826563Y50680118D01*
X1826564Y50680118D01*
X2696447Y51549999D01*
X3403553Y51549999D01*
X4273434Y50680118D01*
X4373730Y50833631D01*
X4473586Y51061279D01*
X4534613Y51302268D01*
X4555141Y51550000D01*
X8044858Y51550000D01*
X8065386Y51302268D01*
X8126413Y51061279D01*
X8226268Y50833630D01*
X8326563Y50680118D01*
X8326564Y50680118D01*
X9196447Y51549999D01*
X9903553Y51549999D01*
X10773434Y50680118D01*
X10851758Y50800000D01*
X17432843Y50800000D01*
X17451435Y50575637D01*
X17451435Y50575634D01*
X17451436Y50575632D01*
X17484150Y50446447D01*
X17506705Y50357382D01*
X17597138Y50151212D01*
X17597140Y50151209D01*
X17720278Y49962732D01*
X17872760Y49797094D01*
X18050424Y49658811D01*
X18248426Y49551658D01*
X18461365Y49478556D01*
X18683431Y49441500D01*
X18908569Y49441500D01*
X19130635Y49478556D01*
X19343574Y49551658D01*
X19541576Y49658811D01*
X19719240Y49797094D01*
X19871722Y49962732D01*
X19962190Y50101205D01*
X20006982Y50142439D01*
X20066000Y50157384D01*
X20125018Y50142439D01*
X20169809Y50101205D01*
X20176530Y50090917D01*
X20260278Y49962732D01*
X20412760Y49797094D01*
X20590424Y49658811D01*
X20788426Y49551658D01*
X21001365Y49478556D01*
X21223431Y49441500D01*
X21448569Y49441500D01*
X21670635Y49478556D01*
X21883574Y49551658D01*
X22081576Y49658811D01*
X22259240Y49797094D01*
X22411722Y49962732D01*
X22502190Y50101205D01*
X22546982Y50142439D01*
X22606000Y50157384D01*
X22665018Y50142439D01*
X22709809Y50101205D01*
X22716530Y50090917D01*
X22800278Y49962732D01*
X22952760Y49797094D01*
X23130424Y49658811D01*
X23328426Y49551658D01*
X23541365Y49478556D01*
X23763431Y49441500D01*
X23988569Y49441500D01*
X24210635Y49478556D01*
X24423574Y49551658D01*
X24621576Y49658811D01*
X24655320Y49685075D01*
X25654625Y49685075D01*
X25738420Y49626401D01*
X25952507Y49526570D01*
X26180681Y49465431D01*
X26416000Y49444843D01*
X26651318Y49465431D01*
X26879492Y49526570D01*
X27093576Y49626400D01*
X27177373Y49685075D01*
X26416000Y50446447D01*
X25654625Y49685075D01*
X24655320Y49685075D01*
X24799240Y49797094D01*
X24951722Y49962732D01*
X25045748Y50106651D01*
X25089664Y50147405D01*
X25147563Y50162812D01*
X25205927Y50149274D01*
X25251131Y50109951D01*
X25301072Y50038627D01*
X25301073Y50038627D01*
X26062447Y50799999D01*
X26769553Y50799999D01*
X27530925Y50038627D01*
X27580868Y50109952D01*
X27626072Y50149274D01*
X27684436Y50162812D01*
X27742335Y50147405D01*
X27786252Y50106649D01*
X27880276Y49962733D01*
X27962573Y49873336D01*
X28032760Y49797094D01*
X28210424Y49658811D01*
X28408426Y49551658D01*
X28621365Y49478556D01*
X28843431Y49441500D01*
X29068569Y49441500D01*
X29290635Y49478556D01*
X29503574Y49551658D01*
X29701576Y49658811D01*
X29879240Y49797094D01*
X30031722Y49962732D01*
X30122190Y50101205D01*
X30166982Y50142439D01*
X30226000Y50157384D01*
X30285018Y50142439D01*
X30329809Y50101205D01*
X30336530Y50090917D01*
X30420278Y49962732D01*
X30572760Y49797094D01*
X30750424Y49658811D01*
X30948426Y49551658D01*
X31161365Y49478556D01*
X31383431Y49441500D01*
X31608569Y49441500D01*
X31830635Y49478556D01*
X32043574Y49551658D01*
X32241576Y49658811D01*
X32419240Y49797094D01*
X32571722Y49962732D01*
X32662190Y50101205D01*
X32706982Y50142439D01*
X32766000Y50157384D01*
X32825018Y50142439D01*
X32869809Y50101205D01*
X32876530Y50090917D01*
X32960278Y49962732D01*
X33112760Y49797094D01*
X33290424Y49658811D01*
X33488426Y49551658D01*
X33701365Y49478556D01*
X33923431Y49441500D01*
X34148569Y49441500D01*
X34370635Y49478556D01*
X34583574Y49551658D01*
X34781576Y49658811D01*
X34959240Y49797094D01*
X35111722Y49962732D01*
X35202190Y50101205D01*
X35246982Y50142439D01*
X35306000Y50157384D01*
X35365018Y50142439D01*
X35409809Y50101205D01*
X35416530Y50090917D01*
X35500278Y49962732D01*
X35652760Y49797094D01*
X35830424Y49658811D01*
X36028426Y49551658D01*
X36241365Y49478556D01*
X36463431Y49441500D01*
X36688569Y49441500D01*
X36910635Y49478556D01*
X37123574Y49551658D01*
X37321576Y49658811D01*
X37499240Y49797094D01*
X37651722Y49962732D01*
X37742190Y50101205D01*
X37786982Y50142439D01*
X37846000Y50157384D01*
X37905018Y50142439D01*
X37949809Y50101205D01*
X37956530Y50090917D01*
X38040278Y49962732D01*
X38192760Y49797094D01*
X38370424Y49658811D01*
X38568426Y49551658D01*
X38781365Y49478556D01*
X39003431Y49441500D01*
X39228569Y49441500D01*
X39450635Y49478556D01*
X39663574Y49551658D01*
X39861576Y49658811D01*
X40039240Y49797094D01*
X40191722Y49962732D01*
X40282190Y50101205D01*
X40326982Y50142439D01*
X40386000Y50157384D01*
X40445018Y50142439D01*
X40489809Y50101205D01*
X40496530Y50090917D01*
X40580278Y49962732D01*
X40732760Y49797094D01*
X40910424Y49658811D01*
X41108426Y49551658D01*
X41321365Y49478556D01*
X41543431Y49441500D01*
X41768569Y49441500D01*
X41990635Y49478556D01*
X42203574Y49551658D01*
X42401576Y49658811D01*
X42579240Y49797094D01*
X42731722Y49962732D01*
X42854860Y50151209D01*
X42945296Y50357384D01*
X43000564Y50575632D01*
X43019156Y50800000D01*
X43019156Y50800001D01*
X44356843Y50800001D01*
X44375435Y50575637D01*
X44375435Y50575634D01*
X44375436Y50575632D01*
X44408150Y50446447D01*
X44430705Y50357382D01*
X44521138Y50151212D01*
X44521140Y50151209D01*
X44644278Y49962732D01*
X44796760Y49797094D01*
X44974424Y49658811D01*
X45172426Y49551658D01*
X45385365Y49478556D01*
X45607431Y49441500D01*
X45832569Y49441500D01*
X46054635Y49478556D01*
X46267574Y49551658D01*
X46465576Y49658811D01*
X46643240Y49797094D01*
X46795722Y49962732D01*
X46886190Y50101205D01*
X46930982Y50142439D01*
X46990000Y50157384D01*
X47049018Y50142439D01*
X47093809Y50101205D01*
X47100530Y50090917D01*
X47184278Y49962732D01*
X47336760Y49797094D01*
X47514424Y49658811D01*
X47712426Y49551658D01*
X47925365Y49478556D01*
X48147431Y49441500D01*
X48372569Y49441500D01*
X48594635Y49478556D01*
X48807574Y49551658D01*
X49005576Y49658811D01*
X49183240Y49797094D01*
X49335722Y49962732D01*
X49426190Y50101205D01*
X49470982Y50142439D01*
X49530000Y50157384D01*
X49589018Y50142439D01*
X49633809Y50101205D01*
X49640530Y50090917D01*
X49724278Y49962732D01*
X49876760Y49797094D01*
X50054424Y49658811D01*
X50252426Y49551658D01*
X50465365Y49478556D01*
X50687431Y49441500D01*
X50912569Y49441500D01*
X51134635Y49478556D01*
X51347574Y49551658D01*
X51545576Y49658811D01*
X51723240Y49797094D01*
X51875722Y49962732D01*
X51966190Y50101205D01*
X52010982Y50142439D01*
X52070000Y50157384D01*
X52129018Y50142439D01*
X52173809Y50101205D01*
X52180530Y50090917D01*
X52264278Y49962732D01*
X52416760Y49797094D01*
X52594424Y49658811D01*
X52792426Y49551658D01*
X53005365Y49478556D01*
X53227431Y49441500D01*
X53452569Y49441500D01*
X53674635Y49478556D01*
X53887574Y49551658D01*
X54085576Y49658811D01*
X54263240Y49797094D01*
X54415722Y49962732D01*
X54506190Y50101205D01*
X54550982Y50142439D01*
X54610000Y50157384D01*
X54669018Y50142439D01*
X54713809Y50101205D01*
X54720530Y50090917D01*
X54804278Y49962732D01*
X54956760Y49797094D01*
X55134424Y49658811D01*
X55332426Y49551658D01*
X55545365Y49478556D01*
X55767431Y49441500D01*
X55992569Y49441500D01*
X56214635Y49478556D01*
X56427574Y49551658D01*
X56625576Y49658811D01*
X56803240Y49797094D01*
X56955722Y49962732D01*
X57046190Y50101205D01*
X57090982Y50142439D01*
X57150000Y50157384D01*
X57209018Y50142439D01*
X57253809Y50101205D01*
X57260530Y50090917D01*
X57344278Y49962732D01*
X57496760Y49797094D01*
X57674424Y49658811D01*
X57872426Y49551658D01*
X58085365Y49478556D01*
X58307431Y49441500D01*
X58532569Y49441500D01*
X58754635Y49478556D01*
X58967574Y49551658D01*
X59165576Y49658811D01*
X59343240Y49797094D01*
X59495722Y49962732D01*
X59586190Y50101205D01*
X59630982Y50142439D01*
X59690000Y50157384D01*
X59749018Y50142439D01*
X59793809Y50101205D01*
X59800530Y50090917D01*
X59884278Y49962732D01*
X60036760Y49797094D01*
X60214424Y49658811D01*
X60412426Y49551658D01*
X60625365Y49478556D01*
X60847431Y49441500D01*
X61072569Y49441500D01*
X61294635Y49478556D01*
X61507574Y49551658D01*
X61705576Y49658811D01*
X61883240Y49797094D01*
X62035722Y49962732D01*
X62126190Y50101205D01*
X62170982Y50142439D01*
X62230000Y50157384D01*
X62289018Y50142439D01*
X62333809Y50101205D01*
X62340530Y50090917D01*
X62424278Y49962732D01*
X62576760Y49797094D01*
X62754424Y49658811D01*
X62952426Y49551658D01*
X63165365Y49478556D01*
X63387431Y49441500D01*
X63612569Y49441500D01*
X63834635Y49478556D01*
X64047574Y49551658D01*
X64245576Y49658811D01*
X64423240Y49797094D01*
X64575722Y49962732D01*
X64698860Y50151209D01*
X64789296Y50357384D01*
X64844564Y50575632D01*
X64863156Y50800000D01*
X64844564Y51024368D01*
X64789296Y51242616D01*
X64698860Y51448791D01*
X64575722Y51637268D01*
X64423240Y51802906D01*
X64245576Y51941189D01*
X64047574Y52048342D01*
X64047573Y52048343D01*
X64047572Y52048343D01*
X63834636Y52121444D01*
X63612569Y52158500D01*
X63387431Y52158500D01*
X63165363Y52121444D01*
X62952427Y52048343D01*
X62754424Y51941189D01*
X62576760Y51802906D01*
X62424279Y51637270D01*
X62333809Y51498795D01*
X62289017Y51457562D01*
X62230000Y51442617D01*
X62170983Y51457562D01*
X62126191Y51498795D01*
X62106043Y51529633D01*
X62035722Y51637268D01*
X61883240Y51802906D01*
X61705576Y51941189D01*
X61507574Y52048342D01*
X61507573Y52048343D01*
X61507572Y52048343D01*
X61294636Y52121444D01*
X61072569Y52158500D01*
X60847431Y52158500D01*
X60625363Y52121444D01*
X60412427Y52048343D01*
X60214424Y51941189D01*
X60036760Y51802906D01*
X59884279Y51637270D01*
X59793809Y51498795D01*
X59749017Y51457562D01*
X59690000Y51442617D01*
X59630983Y51457562D01*
X59586191Y51498795D01*
X59566043Y51529633D01*
X59495722Y51637268D01*
X59343240Y51802906D01*
X59165576Y51941189D01*
X58967574Y52048342D01*
X58967573Y52048343D01*
X58967572Y52048343D01*
X58754636Y52121444D01*
X58532569Y52158500D01*
X58307431Y52158500D01*
X58085363Y52121444D01*
X57872427Y52048343D01*
X57674424Y51941189D01*
X57496760Y51802906D01*
X57344279Y51637270D01*
X57253809Y51498795D01*
X57209017Y51457562D01*
X57150000Y51442617D01*
X57090983Y51457562D01*
X57046191Y51498795D01*
X57026043Y51529633D01*
X56955722Y51637268D01*
X56803240Y51802906D01*
X56625576Y51941189D01*
X56427574Y52048342D01*
X56427573Y52048343D01*
X56427572Y52048343D01*
X56214636Y52121444D01*
X55992569Y52158500D01*
X55767431Y52158500D01*
X55545363Y52121444D01*
X55332427Y52048343D01*
X55134424Y51941189D01*
X54956760Y51802906D01*
X54804279Y51637270D01*
X54713809Y51498795D01*
X54669017Y51457562D01*
X54610000Y51442617D01*
X54550983Y51457562D01*
X54506191Y51498795D01*
X54486043Y51529633D01*
X54415722Y51637268D01*
X54263240Y51802906D01*
X54085576Y51941189D01*
X53887574Y52048342D01*
X53887573Y52048343D01*
X53887572Y52048343D01*
X53674636Y52121444D01*
X53452569Y52158500D01*
X53227431Y52158500D01*
X53005363Y52121444D01*
X52792427Y52048343D01*
X52594424Y51941189D01*
X52416760Y51802906D01*
X52264279Y51637270D01*
X52173809Y51498795D01*
X52129017Y51457562D01*
X52070000Y51442617D01*
X52010983Y51457562D01*
X51966191Y51498795D01*
X51946043Y51529633D01*
X51875722Y51637268D01*
X51723240Y51802906D01*
X51545576Y51941189D01*
X51347574Y52048342D01*
X51347573Y52048343D01*
X51347572Y52048343D01*
X51134636Y52121444D01*
X50912569Y52158500D01*
X50687431Y52158500D01*
X50465363Y52121444D01*
X50252427Y52048343D01*
X50054424Y51941189D01*
X49876760Y51802906D01*
X49724279Y51637270D01*
X49633809Y51498795D01*
X49589017Y51457562D01*
X49530000Y51442617D01*
X49470983Y51457562D01*
X49426191Y51498795D01*
X49406043Y51529633D01*
X49335722Y51637268D01*
X49183240Y51802906D01*
X49005576Y51941189D01*
X48807574Y52048342D01*
X48807573Y52048343D01*
X48807572Y52048343D01*
X48594636Y52121444D01*
X48372569Y52158500D01*
X48147431Y52158500D01*
X47925363Y52121444D01*
X47712427Y52048343D01*
X47514424Y51941189D01*
X47336760Y51802906D01*
X47184279Y51637270D01*
X47093809Y51498795D01*
X47049017Y51457562D01*
X46990000Y51442617D01*
X46930983Y51457562D01*
X46886191Y51498795D01*
X46866043Y51529633D01*
X46795722Y51637268D01*
X46643240Y51802906D01*
X46465576Y51941189D01*
X46267574Y52048342D01*
X46267573Y52048343D01*
X46267572Y52048343D01*
X46054636Y52121444D01*
X45832569Y52158500D01*
X45607431Y52158500D01*
X45385363Y52121444D01*
X45172427Y52048343D01*
X44974424Y51941189D01*
X44796760Y51802906D01*
X44644279Y51637270D01*
X44521138Y51448789D01*
X44450000Y51286607D01*
X44430704Y51242616D01*
X44408150Y51153553D01*
X44375435Y51024364D01*
X44356843Y50800001D01*
X43019156Y50800001D01*
X43000564Y51024368D01*
X42945296Y51242616D01*
X42854860Y51448791D01*
X42731722Y51637268D01*
X42579240Y51802906D01*
X42401576Y51941189D01*
X42203574Y52048342D01*
X42203573Y52048343D01*
X42203572Y52048343D01*
X41990636Y52121444D01*
X41768569Y52158500D01*
X41543431Y52158500D01*
X41321363Y52121444D01*
X41108427Y52048343D01*
X40910424Y51941189D01*
X40732760Y51802906D01*
X40580279Y51637270D01*
X40489809Y51498795D01*
X40445017Y51457562D01*
X40386000Y51442617D01*
X40326983Y51457562D01*
X40282191Y51498795D01*
X40262043Y51529633D01*
X40191722Y51637268D01*
X40039240Y51802906D01*
X39861576Y51941189D01*
X39663574Y52048342D01*
X39663573Y52048343D01*
X39663572Y52048343D01*
X39450636Y52121444D01*
X39228569Y52158500D01*
X39003431Y52158500D01*
X38781363Y52121444D01*
X38568427Y52048343D01*
X38370424Y51941189D01*
X38192760Y51802906D01*
X38040279Y51637270D01*
X37949809Y51498795D01*
X37905017Y51457562D01*
X37846000Y51442617D01*
X37786983Y51457562D01*
X37742191Y51498795D01*
X37722043Y51529633D01*
X37651722Y51637268D01*
X37499240Y51802906D01*
X37321576Y51941189D01*
X37123574Y52048342D01*
X37123573Y52048343D01*
X37123572Y52048343D01*
X36910636Y52121444D01*
X36688569Y52158500D01*
X36463431Y52158500D01*
X36241363Y52121444D01*
X36028427Y52048343D01*
X35830424Y51941189D01*
X35652760Y51802906D01*
X35500279Y51637270D01*
X35409809Y51498795D01*
X35365017Y51457562D01*
X35306000Y51442617D01*
X35246983Y51457562D01*
X35202191Y51498795D01*
X35182043Y51529633D01*
X35111722Y51637268D01*
X34959240Y51802906D01*
X34781576Y51941189D01*
X34583574Y52048342D01*
X34583573Y52048343D01*
X34583572Y52048343D01*
X34370636Y52121444D01*
X34148569Y52158500D01*
X33923431Y52158500D01*
X33701363Y52121444D01*
X33488427Y52048343D01*
X33290424Y51941189D01*
X33112760Y51802906D01*
X32960279Y51637270D01*
X32869809Y51498795D01*
X32825017Y51457562D01*
X32766000Y51442617D01*
X32706983Y51457562D01*
X32662191Y51498795D01*
X32642043Y51529633D01*
X32571722Y51637268D01*
X32419240Y51802906D01*
X32241576Y51941189D01*
X32043574Y52048342D01*
X32043573Y52048343D01*
X32043572Y52048343D01*
X31830636Y52121444D01*
X31608569Y52158500D01*
X31383431Y52158500D01*
X31161363Y52121444D01*
X30948427Y52048343D01*
X30750424Y51941189D01*
X30572760Y51802906D01*
X30420279Y51637270D01*
X30329809Y51498795D01*
X30285017Y51457562D01*
X30226000Y51442617D01*
X30166983Y51457562D01*
X30122191Y51498795D01*
X30102043Y51529633D01*
X30031722Y51637268D01*
X29879240Y51802906D01*
X29701576Y51941189D01*
X29503574Y52048342D01*
X29503573Y52048343D01*
X29503572Y52048343D01*
X29290636Y52121444D01*
X29068569Y52158500D01*
X28843431Y52158500D01*
X28621363Y52121444D01*
X28408427Y52048343D01*
X28210424Y51941189D01*
X28032760Y51802906D01*
X27880275Y51637266D01*
X27786250Y51493351D01*
X27742333Y51452596D01*
X27684435Y51437189D01*
X27626070Y51450727D01*
X27580867Y51490050D01*
X27530925Y51561374D01*
X27530925Y51561375D01*
X26769553Y50800000D01*
X26769553Y50799999D01*
X26062447Y50799999D01*
X26062447Y50800000D01*
X25301073Y51561374D01*
X25251133Y51490050D01*
X25205929Y51450727D01*
X25147565Y51437188D01*
X25089665Y51452595D01*
X25045748Y51493351D01*
X24951723Y51637268D01*
X24875480Y51720088D01*
X24799240Y51802906D01*
X24655316Y51914928D01*
X25654625Y51914928D01*
X26416000Y51153553D01*
X26416001Y51153553D01*
X27177373Y51914927D01*
X27177373Y51914928D01*
X27093580Y51973600D01*
X26879492Y52073431D01*
X26651318Y52134570D01*
X26415999Y52155158D01*
X26180681Y52134570D01*
X25952507Y52073431D01*
X25738422Y51973601D01*
X25654625Y51914928D01*
X24655316Y51914928D01*
X24621576Y51941189D01*
X24423574Y52048342D01*
X24423573Y52048343D01*
X24423572Y52048343D01*
X24210636Y52121444D01*
X23988569Y52158500D01*
X23763431Y52158500D01*
X23541363Y52121444D01*
X23328427Y52048343D01*
X23130424Y51941189D01*
X22952760Y51802906D01*
X22800279Y51637270D01*
X22709809Y51498795D01*
X22665017Y51457562D01*
X22606000Y51442617D01*
X22546983Y51457562D01*
X22502191Y51498795D01*
X22482043Y51529633D01*
X22411722Y51637268D01*
X22259240Y51802906D01*
X22081576Y51941189D01*
X21883574Y52048342D01*
X21883573Y52048343D01*
X21883572Y52048343D01*
X21670636Y52121444D01*
X21448569Y52158500D01*
X21223431Y52158500D01*
X21001363Y52121444D01*
X20788427Y52048343D01*
X20590424Y51941189D01*
X20412760Y51802906D01*
X20260279Y51637270D01*
X20169809Y51498795D01*
X20125017Y51457562D01*
X20066000Y51442617D01*
X20006983Y51457562D01*
X19962191Y51498795D01*
X19942043Y51529633D01*
X19871722Y51637268D01*
X19719240Y51802906D01*
X19541576Y51941189D01*
X19343574Y52048342D01*
X19343573Y52048343D01*
X19343572Y52048343D01*
X19130636Y52121444D01*
X18908569Y52158500D01*
X18683431Y52158500D01*
X18461363Y52121444D01*
X18248427Y52048343D01*
X18050424Y51941189D01*
X17872760Y51802906D01*
X17720279Y51637270D01*
X17597138Y51448789D01*
X17526000Y51286607D01*
X17506704Y51242616D01*
X17484150Y51153553D01*
X17451435Y51024364D01*
X17432843Y50800000D01*
X10851758Y50800000D01*
X10873730Y50833631D01*
X10973586Y51061279D01*
X11034613Y51302268D01*
X11055141Y51550000D01*
X11034613Y51797733D01*
X10973586Y52038722D01*
X10873730Y52266370D01*
X10773434Y52419884D01*
X9903553Y51550000D01*
X9903553Y51549999D01*
X9196447Y51549999D01*
X9196447Y51550000D01*
X8326564Y52419884D01*
X8226266Y52266366D01*
X8126413Y52038722D01*
X8065386Y51797733D01*
X8044858Y51550000D01*
X4555141Y51550000D01*
X4534613Y51797733D01*
X4473586Y52038722D01*
X4373730Y52266370D01*
X4273434Y52419884D01*
X3403553Y51550000D01*
X3403553Y51549999D01*
X2696447Y51549999D01*
X2696447Y51550000D01*
X1826564Y52419884D01*
X1726266Y52266366D01*
X1626413Y52038722D01*
X1565386Y51797733D01*
X1544858Y51550000D01*
X75500Y51550000D01*
X75500Y52334588D01*
X75972Y52345395D01*
X88599Y52489728D01*
X92352Y52511014D01*
X128446Y52645720D01*
X135836Y52666025D01*
X194778Y52792426D01*
X205578Y52811132D01*
X285574Y52925379D01*
X299457Y52941923D01*
X398077Y53040543D01*
X414621Y53054426D01*
X528868Y53134422D01*
X547574Y53145222D01*
X673975Y53204164D01*
X694275Y53211553D01*
X828986Y53247649D01*
X850269Y53251401D01*
X994604Y53264028D01*
X1005412Y53264500D01*
X1024531Y53264500D01*
X2714675Y53264500D01*
X2773693Y53249555D01*
G37*
%TD.AperFunction*%
%TD*%
M02*
