%TF.GenerationSoftware,KiCad,Pcbnew,7.0.9*%
%TF.CreationDate,2023-12-26T23:28:09-05:00*%
%TF.ProjectId,ModbusRTU-Test-Shield,4d6f6462-7573-4525-9455-2d546573742d,0.0.1*%
%TF.SameCoordinates,PX6486dd0PY8062360*%
%TF.FileFunction,Legend,Top*%
%TF.FilePolarity,Positive*%
%FSLAX46Y46*%
G04 Gerber Fmt 4.6, Leading zero omitted, Abs format (unit mm)*
G04 Created by KiCad (PCBNEW 7.0.9) date 2023-12-26 23:28:09*
%MOMM*%
%LPD*%
G01*
G04 APERTURE LIST*
G04 Aperture macros list*
%AMRoundRect*
0 Rectangle with rounded corners*
0 $1 Rounding radius*
0 $2 $3 $4 $5 $6 $7 $8 $9 X,Y pos of 4 corners*
0 Add a 4 corners polygon primitive as box body*
4,1,4,$2,$3,$4,$5,$6,$7,$8,$9,$2,$3,0*
0 Add four circle primitives for the rounded corners*
1,1,$1+$1,$2,$3*
1,1,$1+$1,$4,$5*
1,1,$1+$1,$6,$7*
1,1,$1+$1,$8,$9*
0 Add four rect primitives between the rounded corners*
20,1,$1+$1,$2,$3,$4,$5,0*
20,1,$1+$1,$4,$5,$6,$7,0*
20,1,$1+$1,$6,$7,$8,$9,0*
20,1,$1+$1,$8,$9,$2,$3,0*%
G04 Aperture macros list end*
%ADD10C,0.150000*%
%ADD11C,0.120000*%
%ADD12C,0.100000*%
%ADD13C,1.700000*%
%ADD14RoundRect,0.300000X-0.300000X0.300000X-0.300000X-0.300000X0.300000X-0.300000X0.300000X0.300000X0*%
%ADD15C,1.200000*%
%ADD16RoundRect,0.300000X0.300000X-0.300000X0.300000X0.300000X-0.300000X0.300000X-0.300000X-0.300000X0*%
%ADD17C,2.000000*%
%ADD18RoundRect,0.450000X-0.450000X-0.450000X0.450000X-0.450000X0.450000X0.450000X-0.450000X0.450000X0*%
%ADD19C,1.800000*%
%ADD20C,1.400000*%
%ADD21O,1.400000X1.400000*%
%ADD22RoundRect,0.400000X0.400000X0.400000X-0.400000X0.400000X-0.400000X-0.400000X0.400000X-0.400000X0*%
%ADD23O,1.600000X1.600000*%
%ADD24RoundRect,0.400000X0.400000X-0.400000X0.400000X0.400000X-0.400000X0.400000X-0.400000X-0.400000X0*%
%ADD25O,3.600000X1.800000*%
%ADD26O,1.400000X1.900000*%
%ADD27C,2.500000*%
%ADD28C,3.200000*%
%ADD29C,2.340000*%
%ADD30RoundRect,0.550000X-0.550000X0.550000X-0.550000X-0.550000X0.550000X-0.550000X0.550000X0.550000X0*%
%ADD31O,2.200000X2.200000*%
%ADD32C,3.250000*%
%ADD33C,1.520000*%
G04 APERTURE END LIST*
D10*
X11430000Y27305000D02*
X15240000Y27305000D01*
X15240000Y17145000D01*
X11430000Y17145000D01*
X11430000Y27305000D01*
X25082500Y37147500D02*
X25082500Y31432500D01*
X26987500Y37147500D02*
X26987500Y31432500D01*
X23177500Y31432500D02*
X28892500Y31432500D01*
X11430000Y24130000D02*
X13335000Y24130000D01*
X13335000Y17145000D02*
X13335000Y27305000D01*
X23177500Y37147500D02*
X23177500Y31432500D01*
X28892500Y31432500D02*
X28892500Y37147500D01*
X12837319Y25122262D02*
X12361128Y24788929D01*
X12837319Y24550834D02*
X11837319Y24550834D01*
X11837319Y24550834D02*
X11837319Y24931786D01*
X11837319Y24931786D02*
X11884938Y25027024D01*
X11884938Y25027024D02*
X11932557Y25074643D01*
X11932557Y25074643D02*
X12027795Y25122262D01*
X12027795Y25122262D02*
X12170652Y25122262D01*
X12170652Y25122262D02*
X12265890Y25074643D01*
X12265890Y25074643D02*
X12313509Y25027024D01*
X12313509Y25027024D02*
X12361128Y24931786D01*
X12361128Y24931786D02*
X12361128Y24550834D01*
X11837319Y25407977D02*
X11837319Y25979405D01*
X12837319Y25693691D02*
X11837319Y25693691D01*
X11837319Y26312739D02*
X12646842Y26312739D01*
X12646842Y26312739D02*
X12742080Y26360358D01*
X12742080Y26360358D02*
X12789700Y26407977D01*
X12789700Y26407977D02*
X12837319Y26503215D01*
X12837319Y26503215D02*
X12837319Y26693691D01*
X12837319Y26693691D02*
X12789700Y26788929D01*
X12789700Y26788929D02*
X12742080Y26836548D01*
X12742080Y26836548D02*
X12646842Y26884167D01*
X12646842Y26884167D02*
X11837319Y26884167D01*
X13742319Y17653572D02*
X13742319Y18225000D01*
X14742319Y17939286D02*
X13742319Y17939286D01*
X14218509Y18558334D02*
X14218509Y18891667D01*
X14742319Y19034524D02*
X14742319Y18558334D01*
X14742319Y18558334D02*
X13742319Y18558334D01*
X13742319Y18558334D02*
X13742319Y19034524D01*
X14694700Y19415477D02*
X14742319Y19558334D01*
X14742319Y19558334D02*
X14742319Y19796429D01*
X14742319Y19796429D02*
X14694700Y19891667D01*
X14694700Y19891667D02*
X14647080Y19939286D01*
X14647080Y19939286D02*
X14551842Y19986905D01*
X14551842Y19986905D02*
X14456604Y19986905D01*
X14456604Y19986905D02*
X14361366Y19939286D01*
X14361366Y19939286D02*
X14313747Y19891667D01*
X14313747Y19891667D02*
X14266128Y19796429D01*
X14266128Y19796429D02*
X14218509Y19605953D01*
X14218509Y19605953D02*
X14170890Y19510715D01*
X14170890Y19510715D02*
X14123271Y19463096D01*
X14123271Y19463096D02*
X14028033Y19415477D01*
X14028033Y19415477D02*
X13932795Y19415477D01*
X13932795Y19415477D02*
X13837557Y19463096D01*
X13837557Y19463096D02*
X13789938Y19510715D01*
X13789938Y19510715D02*
X13742319Y19605953D01*
X13742319Y19605953D02*
X13742319Y19844048D01*
X13742319Y19844048D02*
X13789938Y19986905D01*
X13742319Y20272620D02*
X13742319Y20844048D01*
X14742319Y20558334D02*
X13742319Y20558334D01*
X14694700Y21891668D02*
X14742319Y22034525D01*
X14742319Y22034525D02*
X14742319Y22272620D01*
X14742319Y22272620D02*
X14694700Y22367858D01*
X14694700Y22367858D02*
X14647080Y22415477D01*
X14647080Y22415477D02*
X14551842Y22463096D01*
X14551842Y22463096D02*
X14456604Y22463096D01*
X14456604Y22463096D02*
X14361366Y22415477D01*
X14361366Y22415477D02*
X14313747Y22367858D01*
X14313747Y22367858D02*
X14266128Y22272620D01*
X14266128Y22272620D02*
X14218509Y22082144D01*
X14218509Y22082144D02*
X14170890Y21986906D01*
X14170890Y21986906D02*
X14123271Y21939287D01*
X14123271Y21939287D02*
X14028033Y21891668D01*
X14028033Y21891668D02*
X13932795Y21891668D01*
X13932795Y21891668D02*
X13837557Y21939287D01*
X13837557Y21939287D02*
X13789938Y21986906D01*
X13789938Y21986906D02*
X13742319Y22082144D01*
X13742319Y22082144D02*
X13742319Y22320239D01*
X13742319Y22320239D02*
X13789938Y22463096D01*
X14742319Y22891668D02*
X13742319Y22891668D01*
X14218509Y22891668D02*
X14218509Y23463096D01*
X14742319Y23463096D02*
X13742319Y23463096D01*
X14742319Y23939287D02*
X13742319Y23939287D01*
X14218509Y24415477D02*
X14218509Y24748810D01*
X14742319Y24891667D02*
X14742319Y24415477D01*
X14742319Y24415477D02*
X13742319Y24415477D01*
X13742319Y24415477D02*
X13742319Y24891667D01*
X14742319Y25796429D02*
X14742319Y25320239D01*
X14742319Y25320239D02*
X13742319Y25320239D01*
X14742319Y26129763D02*
X13742319Y26129763D01*
X13742319Y26129763D02*
X13742319Y26367858D01*
X13742319Y26367858D02*
X13789938Y26510715D01*
X13789938Y26510715D02*
X13885176Y26605953D01*
X13885176Y26605953D02*
X13980414Y26653572D01*
X13980414Y26653572D02*
X14170890Y26701191D01*
X14170890Y26701191D02*
X14313747Y26701191D01*
X14313747Y26701191D02*
X14504223Y26653572D01*
X14504223Y26653572D02*
X14599461Y26605953D01*
X14599461Y26605953D02*
X14694700Y26510715D01*
X14694700Y26510715D02*
X14742319Y26367858D01*
X14742319Y26367858D02*
X14742319Y26129763D01*
X16964819Y19129763D02*
X16488628Y18796430D01*
X16964819Y18558335D02*
X15964819Y18558335D01*
X15964819Y18558335D02*
X15964819Y18939287D01*
X15964819Y18939287D02*
X16012438Y19034525D01*
X16012438Y19034525D02*
X16060057Y19082144D01*
X16060057Y19082144D02*
X16155295Y19129763D01*
X16155295Y19129763D02*
X16298152Y19129763D01*
X16298152Y19129763D02*
X16393390Y19082144D01*
X16393390Y19082144D02*
X16441009Y19034525D01*
X16441009Y19034525D02*
X16488628Y18939287D01*
X16488628Y18939287D02*
X16488628Y18558335D01*
X16441009Y19558335D02*
X16441009Y19891668D01*
X16964819Y20034525D02*
X16964819Y19558335D01*
X16964819Y19558335D02*
X15964819Y19558335D01*
X15964819Y19558335D02*
X15964819Y20034525D01*
X15964819Y20320240D02*
X16964819Y20653573D01*
X16964819Y20653573D02*
X15964819Y20986906D01*
X16869580Y21320240D02*
X16917200Y21367859D01*
X16917200Y21367859D02*
X16964819Y21320240D01*
X16964819Y21320240D02*
X16917200Y21272621D01*
X16917200Y21272621D02*
X16869580Y21320240D01*
X16869580Y21320240D02*
X16964819Y21320240D01*
X16345771Y21320240D02*
X16393390Y21367859D01*
X16393390Y21367859D02*
X16441009Y21320240D01*
X16441009Y21320240D02*
X16393390Y21272621D01*
X16393390Y21272621D02*
X16345771Y21320240D01*
X16345771Y21320240D02*
X16441009Y21320240D01*
X15964819Y22748811D02*
X15964819Y22844049D01*
X15964819Y22844049D02*
X16012438Y22939287D01*
X16012438Y22939287D02*
X16060057Y22986906D01*
X16060057Y22986906D02*
X16155295Y23034525D01*
X16155295Y23034525D02*
X16345771Y23082144D01*
X16345771Y23082144D02*
X16583866Y23082144D01*
X16583866Y23082144D02*
X16774342Y23034525D01*
X16774342Y23034525D02*
X16869580Y22986906D01*
X16869580Y22986906D02*
X16917200Y22939287D01*
X16917200Y22939287D02*
X16964819Y22844049D01*
X16964819Y22844049D02*
X16964819Y22748811D01*
X16964819Y22748811D02*
X16917200Y22653573D01*
X16917200Y22653573D02*
X16869580Y22605954D01*
X16869580Y22605954D02*
X16774342Y22558335D01*
X16774342Y22558335D02*
X16583866Y22510716D01*
X16583866Y22510716D02*
X16345771Y22510716D01*
X16345771Y22510716D02*
X16155295Y22558335D01*
X16155295Y22558335D02*
X16060057Y22605954D01*
X16060057Y22605954D02*
X16012438Y22653573D01*
X16012438Y22653573D02*
X15964819Y22748811D01*
X16869580Y23510716D02*
X16917200Y23558335D01*
X16917200Y23558335D02*
X16964819Y23510716D01*
X16964819Y23510716D02*
X16917200Y23463097D01*
X16917200Y23463097D02*
X16869580Y23510716D01*
X16869580Y23510716D02*
X16964819Y23510716D01*
X15964819Y24177382D02*
X15964819Y24272620D01*
X15964819Y24272620D02*
X16012438Y24367858D01*
X16012438Y24367858D02*
X16060057Y24415477D01*
X16060057Y24415477D02*
X16155295Y24463096D01*
X16155295Y24463096D02*
X16345771Y24510715D01*
X16345771Y24510715D02*
X16583866Y24510715D01*
X16583866Y24510715D02*
X16774342Y24463096D01*
X16774342Y24463096D02*
X16869580Y24415477D01*
X16869580Y24415477D02*
X16917200Y24367858D01*
X16917200Y24367858D02*
X16964819Y24272620D01*
X16964819Y24272620D02*
X16964819Y24177382D01*
X16964819Y24177382D02*
X16917200Y24082144D01*
X16917200Y24082144D02*
X16869580Y24034525D01*
X16869580Y24034525D02*
X16774342Y23986906D01*
X16774342Y23986906D02*
X16583866Y23939287D01*
X16583866Y23939287D02*
X16345771Y23939287D01*
X16345771Y23939287D02*
X16155295Y23986906D01*
X16155295Y23986906D02*
X16060057Y24034525D01*
X16060057Y24034525D02*
X16012438Y24082144D01*
X16012438Y24082144D02*
X15964819Y24177382D01*
X16869580Y24939287D02*
X16917200Y24986906D01*
X16917200Y24986906D02*
X16964819Y24939287D01*
X16964819Y24939287D02*
X16917200Y24891668D01*
X16917200Y24891668D02*
X16869580Y24939287D01*
X16869580Y24939287D02*
X16964819Y24939287D01*
X16964819Y25939286D02*
X16964819Y25367858D01*
X16964819Y25653572D02*
X15964819Y25653572D01*
X15964819Y25653572D02*
X16107676Y25558334D01*
X16107676Y25558334D02*
X16202914Y25463096D01*
X16202914Y25463096D02*
X16250533Y25367858D01*
G36*
X12656117Y19426921D02*
G01*
X12728061Y19354978D01*
X12762319Y19286462D01*
X12762319Y19131396D01*
X12728061Y19062881D01*
X12656117Y18990938D01*
X12494751Y18950596D01*
X12179886Y18950596D01*
X12018519Y18990938D01*
X11946577Y19062880D01*
X11912319Y19131396D01*
X11912319Y19286462D01*
X11946577Y19354978D01*
X12018519Y19426921D01*
X12179886Y19467262D01*
X12494751Y19467262D01*
X12656117Y19426921D01*
G37*
G36*
X12573047Y20423879D02*
G01*
X12650034Y20385385D01*
X12724148Y20311272D01*
X12762319Y20196759D01*
X12762319Y20045834D01*
X11912319Y20045834D01*
X11912319Y20196759D01*
X11950490Y20311273D01*
X12024603Y20385385D01*
X12101590Y20423879D01*
X12275124Y20467262D01*
X12399513Y20467262D01*
X12573047Y20423879D01*
G37*
G36*
X12173844Y21385385D02*
G01*
X12204251Y21354978D01*
X12238509Y21286462D01*
X12238509Y21045834D01*
X11912319Y21045834D01*
X11912319Y21286462D01*
X11946577Y21354978D01*
X11976984Y21385385D01*
X12045500Y21419643D01*
X12105328Y21419643D01*
X12173844Y21385385D01*
G37*
G36*
X12697653Y21433004D02*
G01*
X12728061Y21402597D01*
X12762319Y21334081D01*
X12762319Y21045834D01*
X12388509Y21045834D01*
X12388509Y21291997D01*
X12426680Y21406511D01*
X12453174Y21433004D01*
X12521690Y21467262D01*
X12629137Y21467262D01*
X12697653Y21433004D01*
G37*
G36*
X13055176Y17562501D02*
G01*
X11619462Y17562501D01*
X11619462Y18440509D01*
X11762602Y18440509D01*
X11769522Y18425658D01*
X11772367Y18409524D01*
X11780039Y18403086D01*
X11784270Y18394007D01*
X11805603Y18379060D01*
X12374250Y18113691D01*
X11805603Y17848322D01*
X11798522Y17841237D01*
X11789110Y17837811D01*
X11780917Y17823622D01*
X11769337Y17812034D01*
X11768466Y17802058D01*
X11763458Y17793382D01*
X11766303Y17777247D01*
X11764880Y17760925D01*
X11770627Y17752722D01*
X11772367Y17742858D01*
X11784917Y17732327D01*
X11794319Y17718909D01*
X11803993Y17716320D01*
X11811667Y17709881D01*
X11837319Y17705358D01*
X12837319Y17705358D01*
X12885528Y17722905D01*
X12911180Y17767334D01*
X12902271Y17817858D01*
X12862971Y17850835D01*
X12837319Y17855358D01*
X12175387Y17855358D01*
X12583321Y18045727D01*
X12597079Y18059494D01*
X12613028Y18070654D01*
X12614787Y18077214D01*
X12619586Y18082015D01*
X12621277Y18101404D01*
X12626321Y18120205D01*
X12623453Y18126359D01*
X12624044Y18133124D01*
X12612872Y18149068D01*
X12604653Y18166708D01*
X12596518Y18172408D01*
X12594604Y18175140D01*
X12591392Y18176000D01*
X12583321Y18181655D01*
X12175387Y18372024D01*
X12837319Y18372024D01*
X12885528Y18389571D01*
X12911180Y18434000D01*
X12902271Y18484524D01*
X12862971Y18517501D01*
X12837319Y18522024D01*
X11837319Y18522024D01*
X11827906Y18518599D01*
X11817929Y18519474D01*
X11804504Y18510081D01*
X11789110Y18504477D01*
X11784102Y18495805D01*
X11775895Y18490061D01*
X11771649Y18474236D01*
X11763458Y18460048D01*
X11765197Y18450184D01*
X11762602Y18440509D01*
X11619462Y18440509D01*
X11619462Y19113691D01*
X11762319Y19113691D01*
X11763852Y19109478D01*
X11762811Y19105117D01*
X11770237Y19080150D01*
X11817856Y18984912D01*
X11819045Y18983787D01*
X11831905Y18965420D01*
X11927143Y18870182D01*
X11933850Y18867055D01*
X11938197Y18861064D01*
X11961986Y18850454D01*
X12152462Y18802835D01*
X12155910Y18803196D01*
X12170652Y18800596D01*
X12503985Y18800596D01*
X12507242Y18801782D01*
X12522175Y18802835D01*
X12712651Y18850454D01*
X12718783Y18854597D01*
X12726157Y18855241D01*
X12747494Y18870182D01*
X12842733Y18965420D01*
X12843424Y18966903D01*
X12856782Y18984912D01*
X12904401Y19080150D01*
X12904913Y19084604D01*
X12907796Y19088039D01*
X12912319Y19113691D01*
X12912319Y19304167D01*
X12910785Y19308381D01*
X12911827Y19312742D01*
X12904401Y19337708D01*
X12856782Y19432946D01*
X12855595Y19434070D01*
X12842733Y19452438D01*
X12747494Y19547676D01*
X12740786Y19550804D01*
X12736440Y19556794D01*
X12712651Y19567404D01*
X12522175Y19615023D01*
X12518726Y19614663D01*
X12503985Y19617262D01*
X12170652Y19617262D01*
X12167394Y19616077D01*
X12152462Y19615023D01*
X11961986Y19567404D01*
X11955853Y19563263D01*
X11948480Y19562617D01*
X11927143Y19547676D01*
X11831905Y19452438D01*
X11831214Y19450957D01*
X11817856Y19432946D01*
X11770237Y19337708D01*
X11769724Y19333255D01*
X11766842Y19329819D01*
X11762319Y19304167D01*
X11762319Y19113691D01*
X11619462Y19113691D01*
X11619462Y19970834D01*
X11762319Y19970834D01*
X11768982Y19952526D01*
X11772367Y19933334D01*
X11777551Y19928984D01*
X11779866Y19922625D01*
X11796739Y19912883D01*
X11811667Y19900357D01*
X11821409Y19898640D01*
X11824295Y19896973D01*
X11827577Y19897552D01*
X11837319Y19895834D01*
X12837319Y19895834D01*
X12855627Y19902498D01*
X12874819Y19905882D01*
X12879169Y19911067D01*
X12885528Y19913381D01*
X12895270Y19930255D01*
X12907796Y19945182D01*
X12909513Y19954925D01*
X12911180Y19957810D01*
X12910601Y19961093D01*
X12912319Y19970834D01*
X12912319Y20208929D01*
X12911759Y20210467D01*
X12908470Y20232647D01*
X12860851Y20375503D01*
X12858064Y20379014D01*
X12857674Y20383482D01*
X12842733Y20404819D01*
X12747494Y20500057D01*
X12746012Y20500748D01*
X12728002Y20514106D01*
X12632764Y20561725D01*
X12629235Y20562132D01*
X12617413Y20567404D01*
X12426937Y20615023D01*
X12423488Y20614663D01*
X12408747Y20617262D01*
X12265890Y20617262D01*
X12262632Y20616077D01*
X12247700Y20615023D01*
X12057224Y20567404D01*
X12054279Y20565416D01*
X12041873Y20561725D01*
X11946635Y20514106D01*
X11945511Y20512920D01*
X11927143Y20500057D01*
X11831905Y20404819D01*
X11830010Y20400756D01*
X11826189Y20398408D01*
X11813787Y20375503D01*
X11766168Y20232646D01*
X11766212Y20231012D01*
X11762319Y20208929D01*
X11762319Y19970834D01*
X11619462Y19970834D01*
X11619462Y20970834D01*
X11762319Y20970834D01*
X11768982Y20952526D01*
X11772367Y20933334D01*
X11777551Y20928984D01*
X11779866Y20922625D01*
X11796739Y20912883D01*
X11811667Y20900357D01*
X11821409Y20898640D01*
X11824295Y20896973D01*
X11827577Y20897552D01*
X11837319Y20895834D01*
X12837319Y20895834D01*
X12855627Y20902498D01*
X12874819Y20905882D01*
X12879169Y20911067D01*
X12885528Y20913381D01*
X12895270Y20930255D01*
X12907796Y20945182D01*
X12909513Y20954925D01*
X12911180Y20957810D01*
X12910601Y20961093D01*
X12912319Y20970834D01*
X12912319Y21351786D01*
X12910785Y21356000D01*
X12911827Y21360361D01*
X12904401Y21385327D01*
X12856782Y21480565D01*
X12855594Y21481690D01*
X12842732Y21500058D01*
X12795112Y21547677D01*
X12793629Y21548369D01*
X12775621Y21561725D01*
X12680383Y21609344D01*
X12675929Y21609857D01*
X12672494Y21612739D01*
X12646842Y21617262D01*
X12503985Y21617262D01*
X12499771Y21615729D01*
X12495410Y21616770D01*
X12470444Y21609344D01*
X12375206Y21561725D01*
X12374080Y21560536D01*
X12355714Y21547676D01*
X12308095Y21500057D01*
X12306200Y21495994D01*
X12302379Y21493646D01*
X12293715Y21477646D01*
X12271304Y21500057D01*
X12269822Y21500748D01*
X12251812Y21514106D01*
X12156574Y21561725D01*
X12152120Y21562238D01*
X12148685Y21565120D01*
X12123033Y21569643D01*
X12027795Y21569643D01*
X12023581Y21568110D01*
X12019220Y21569151D01*
X11994254Y21561725D01*
X11899016Y21514106D01*
X11897890Y21512917D01*
X11879524Y21500057D01*
X11831905Y21452438D01*
X11831214Y21450957D01*
X11817856Y21432946D01*
X11770237Y21337708D01*
X11769724Y21333255D01*
X11766842Y21329819D01*
X11762319Y21304167D01*
X11762319Y20970834D01*
X11619462Y20970834D01*
X11619462Y21983858D01*
X11763458Y21983858D01*
X11772367Y21933334D01*
X11811667Y21900357D01*
X11837319Y21895834D01*
X12646842Y21895834D01*
X12651055Y21897368D01*
X12655416Y21896326D01*
X12680383Y21903752D01*
X12775621Y21951371D01*
X12776746Y21952560D01*
X12795112Y21965419D01*
X12842732Y22013038D01*
X12843422Y22014520D01*
X12856782Y22032531D01*
X12904401Y22127769D01*
X12904913Y22132223D01*
X12907796Y22135658D01*
X12912319Y22161310D01*
X12912319Y22351786D01*
X12910785Y22356000D01*
X12911827Y22360361D01*
X12904401Y22385327D01*
X12856782Y22480565D01*
X12855594Y22481690D01*
X12842732Y22500058D01*
X12795112Y22547677D01*
X12793629Y22548369D01*
X12775621Y22561725D01*
X12680383Y22609344D01*
X12675929Y22609857D01*
X12672494Y22612739D01*
X12646842Y22617262D01*
X11837319Y22617262D01*
X11789110Y22599715D01*
X11763458Y22555286D01*
X11772367Y22504762D01*
X11811667Y22471785D01*
X11837319Y22467262D01*
X12629137Y22467262D01*
X12697653Y22433004D01*
X12728061Y22402597D01*
X12762319Y22334081D01*
X12762319Y22179015D01*
X12728061Y22110500D01*
X12697653Y22080093D01*
X12629137Y22045834D01*
X11837319Y22045834D01*
X11789110Y22028287D01*
X11763458Y21983858D01*
X11619462Y21983858D01*
X11619462Y23161310D01*
X11762319Y23161310D01*
X11763852Y23157097D01*
X11762811Y23152736D01*
X11770237Y23127769D01*
X11817856Y23032531D01*
X11819045Y23031406D01*
X11831905Y23013039D01*
X11879524Y22965420D01*
X11881005Y22964729D01*
X11899016Y22951371D01*
X11994254Y22903752D01*
X11998707Y22903240D01*
X12002143Y22900357D01*
X12027795Y22895834D01*
X12123033Y22895834D01*
X12127246Y22897368D01*
X12131607Y22896326D01*
X12156574Y22903752D01*
X12251812Y22951371D01*
X12252937Y22952561D01*
X12271304Y22965420D01*
X12318923Y23013039D01*
X12319614Y23014521D01*
X12332972Y23032531D01*
X12380591Y23127769D01*
X12380997Y23131298D01*
X12386270Y23143120D01*
X12431892Y23325610D01*
X12470386Y23402597D01*
X12500793Y23433004D01*
X12569309Y23467262D01*
X12629137Y23467262D01*
X12697653Y23433004D01*
X12728061Y23402597D01*
X12762319Y23334081D01*
X12762319Y23125861D01*
X12718549Y22994551D01*
X12719950Y22943267D01*
X12753987Y22904882D01*
X12804736Y22897357D01*
X12848448Y22924212D01*
X12860851Y22947117D01*
X12908470Y23089973D01*
X12908425Y23091609D01*
X12912319Y23113691D01*
X12912319Y23351786D01*
X12910785Y23356000D01*
X12911827Y23360361D01*
X12904401Y23385327D01*
X12856782Y23480565D01*
X12855594Y23481690D01*
X12842732Y23500058D01*
X12795112Y23547677D01*
X12793629Y23548369D01*
X12775621Y23561725D01*
X12680383Y23609344D01*
X12675929Y23609857D01*
X12672494Y23612739D01*
X12646842Y23617262D01*
X12551604Y23617262D01*
X12547390Y23615729D01*
X12543029Y23616770D01*
X12518063Y23609344D01*
X12422825Y23561725D01*
X12421699Y23560536D01*
X12403333Y23547676D01*
X12355714Y23500057D01*
X12355023Y23498576D01*
X12341665Y23480565D01*
X12294046Y23385327D01*
X12293639Y23381799D01*
X12288367Y23369976D01*
X12242744Y23187486D01*
X12204251Y23110499D01*
X12173844Y23080092D01*
X12105328Y23045834D01*
X12045500Y23045834D01*
X11976984Y23080092D01*
X11946577Y23110499D01*
X11912319Y23179015D01*
X11912319Y23387235D01*
X11956089Y23518544D01*
X11954688Y23569828D01*
X11920650Y23608214D01*
X11869902Y23615739D01*
X11826189Y23588884D01*
X11813787Y23565979D01*
X11766168Y23423122D01*
X11766212Y23421488D01*
X11762319Y23399405D01*
X11762319Y23161310D01*
X11619462Y23161310D01*
X11619462Y23760119D01*
X13055176Y23760119D01*
X13055176Y17562501D01*
G37*
X45174819Y4638923D02*
X46174819Y4972256D01*
X46174819Y4972256D02*
X45174819Y5305589D01*
X46174819Y5638923D02*
X45174819Y5638923D01*
X46174819Y6115113D02*
X45174819Y6115113D01*
X45174819Y6115113D02*
X46174819Y6686541D01*
X46174819Y6686541D02*
X45174819Y6686541D01*
X35014819Y4686542D02*
X35014819Y5305589D01*
X35014819Y5305589D02*
X35395771Y4972256D01*
X35395771Y4972256D02*
X35395771Y5115113D01*
X35395771Y5115113D02*
X35443390Y5210351D01*
X35443390Y5210351D02*
X35491009Y5257970D01*
X35491009Y5257970D02*
X35586247Y5305589D01*
X35586247Y5305589D02*
X35824342Y5305589D01*
X35824342Y5305589D02*
X35919580Y5257970D01*
X35919580Y5257970D02*
X35967200Y5210351D01*
X35967200Y5210351D02*
X36014819Y5115113D01*
X36014819Y5115113D02*
X36014819Y4829399D01*
X36014819Y4829399D02*
X35967200Y4734161D01*
X35967200Y4734161D02*
X35919580Y4686542D01*
X35919580Y5734161D02*
X35967200Y5781780D01*
X35967200Y5781780D02*
X36014819Y5734161D01*
X36014819Y5734161D02*
X35967200Y5686542D01*
X35967200Y5686542D02*
X35919580Y5734161D01*
X35919580Y5734161D02*
X36014819Y5734161D01*
X35014819Y6115113D02*
X35014819Y6734160D01*
X35014819Y6734160D02*
X35395771Y6400827D01*
X35395771Y6400827D02*
X35395771Y6543684D01*
X35395771Y6543684D02*
X35443390Y6638922D01*
X35443390Y6638922D02*
X35491009Y6686541D01*
X35491009Y6686541D02*
X35586247Y6734160D01*
X35586247Y6734160D02*
X35824342Y6734160D01*
X35824342Y6734160D02*
X35919580Y6686541D01*
X35919580Y6686541D02*
X35967200Y6638922D01*
X35967200Y6638922D02*
X36014819Y6543684D01*
X36014819Y6543684D02*
X36014819Y6257970D01*
X36014819Y6257970D02*
X35967200Y6162732D01*
X35967200Y6162732D02*
X35919580Y6115113D01*
X35014819Y7019875D02*
X36014819Y7353208D01*
X36014819Y7353208D02*
X35014819Y7686541D01*
X33474819Y5353208D02*
X32998628Y5019875D01*
X33474819Y4781780D02*
X32474819Y4781780D01*
X32474819Y4781780D02*
X32474819Y5162732D01*
X32474819Y5162732D02*
X32522438Y5257970D01*
X32522438Y5257970D02*
X32570057Y5305589D01*
X32570057Y5305589D02*
X32665295Y5353208D01*
X32665295Y5353208D02*
X32808152Y5353208D01*
X32808152Y5353208D02*
X32903390Y5305589D01*
X32903390Y5305589D02*
X32951009Y5257970D01*
X32951009Y5257970D02*
X32998628Y5162732D01*
X32998628Y5162732D02*
X32998628Y4781780D01*
X32951009Y5781780D02*
X32951009Y6115113D01*
X33474819Y6257970D02*
X33474819Y5781780D01*
X33474819Y5781780D02*
X32474819Y5781780D01*
X32474819Y5781780D02*
X32474819Y6257970D01*
X33427200Y6638923D02*
X33474819Y6781780D01*
X33474819Y6781780D02*
X33474819Y7019875D01*
X33474819Y7019875D02*
X33427200Y7115113D01*
X33427200Y7115113D02*
X33379580Y7162732D01*
X33379580Y7162732D02*
X33284342Y7210351D01*
X33284342Y7210351D02*
X33189104Y7210351D01*
X33189104Y7210351D02*
X33093866Y7162732D01*
X33093866Y7162732D02*
X33046247Y7115113D01*
X33046247Y7115113D02*
X32998628Y7019875D01*
X32998628Y7019875D02*
X32951009Y6829399D01*
X32951009Y6829399D02*
X32903390Y6734161D01*
X32903390Y6734161D02*
X32855771Y6686542D01*
X32855771Y6686542D02*
X32760533Y6638923D01*
X32760533Y6638923D02*
X32665295Y6638923D01*
X32665295Y6638923D02*
X32570057Y6686542D01*
X32570057Y6686542D02*
X32522438Y6734161D01*
X32522438Y6734161D02*
X32474819Y6829399D01*
X32474819Y6829399D02*
X32474819Y7067494D01*
X32474819Y7067494D02*
X32522438Y7210351D01*
X32951009Y7638923D02*
X32951009Y7972256D01*
X33474819Y8115113D02*
X33474819Y7638923D01*
X33474819Y7638923D02*
X32474819Y7638923D01*
X32474819Y7638923D02*
X32474819Y8115113D01*
X32474819Y8400828D02*
X32474819Y8972256D01*
X33474819Y8686542D02*
X32474819Y8686542D01*
X27871009Y5115113D02*
X27918628Y5257970D01*
X27918628Y5257970D02*
X27966247Y5305589D01*
X27966247Y5305589D02*
X28061485Y5353208D01*
X28061485Y5353208D02*
X28204342Y5353208D01*
X28204342Y5353208D02*
X28299580Y5305589D01*
X28299580Y5305589D02*
X28347200Y5257970D01*
X28347200Y5257970D02*
X28394819Y5162732D01*
X28394819Y5162732D02*
X28394819Y4781780D01*
X28394819Y4781780D02*
X27394819Y4781780D01*
X27394819Y4781780D02*
X27394819Y5115113D01*
X27394819Y5115113D02*
X27442438Y5210351D01*
X27442438Y5210351D02*
X27490057Y5257970D01*
X27490057Y5257970D02*
X27585295Y5305589D01*
X27585295Y5305589D02*
X27680533Y5305589D01*
X27680533Y5305589D02*
X27775771Y5257970D01*
X27775771Y5257970D02*
X27823390Y5210351D01*
X27823390Y5210351D02*
X27871009Y5115113D01*
X27871009Y5115113D02*
X27871009Y4781780D01*
X27394819Y5972256D02*
X27394819Y6162732D01*
X27394819Y6162732D02*
X27442438Y6257970D01*
X27442438Y6257970D02*
X27537676Y6353208D01*
X27537676Y6353208D02*
X27728152Y6400827D01*
X27728152Y6400827D02*
X28061485Y6400827D01*
X28061485Y6400827D02*
X28251961Y6353208D01*
X28251961Y6353208D02*
X28347200Y6257970D01*
X28347200Y6257970D02*
X28394819Y6162732D01*
X28394819Y6162732D02*
X28394819Y5972256D01*
X28394819Y5972256D02*
X28347200Y5877018D01*
X28347200Y5877018D02*
X28251961Y5781780D01*
X28251961Y5781780D02*
X28061485Y5734161D01*
X28061485Y5734161D02*
X27728152Y5734161D01*
X27728152Y5734161D02*
X27537676Y5781780D01*
X27537676Y5781780D02*
X27442438Y5877018D01*
X27442438Y5877018D02*
X27394819Y5972256D01*
X27394819Y7019875D02*
X27394819Y7210351D01*
X27394819Y7210351D02*
X27442438Y7305589D01*
X27442438Y7305589D02*
X27537676Y7400827D01*
X27537676Y7400827D02*
X27728152Y7448446D01*
X27728152Y7448446D02*
X28061485Y7448446D01*
X28061485Y7448446D02*
X28251961Y7400827D01*
X28251961Y7400827D02*
X28347200Y7305589D01*
X28347200Y7305589D02*
X28394819Y7210351D01*
X28394819Y7210351D02*
X28394819Y7019875D01*
X28394819Y7019875D02*
X28347200Y6924637D01*
X28347200Y6924637D02*
X28251961Y6829399D01*
X28251961Y6829399D02*
X28061485Y6781780D01*
X28061485Y6781780D02*
X27728152Y6781780D01*
X27728152Y6781780D02*
X27537676Y6829399D01*
X27537676Y6829399D02*
X27442438Y6924637D01*
X27442438Y6924637D02*
X27394819Y7019875D01*
X27394819Y7734161D02*
X27394819Y8305589D01*
X28394819Y8019875D02*
X27394819Y8019875D01*
X30934819Y4781780D02*
X29934819Y4781780D01*
X29934819Y5448446D02*
X29934819Y5638922D01*
X29934819Y5638922D02*
X29982438Y5734160D01*
X29982438Y5734160D02*
X30077676Y5829398D01*
X30077676Y5829398D02*
X30268152Y5877017D01*
X30268152Y5877017D02*
X30601485Y5877017D01*
X30601485Y5877017D02*
X30791961Y5829398D01*
X30791961Y5829398D02*
X30887200Y5734160D01*
X30887200Y5734160D02*
X30934819Y5638922D01*
X30934819Y5638922D02*
X30934819Y5448446D01*
X30934819Y5448446D02*
X30887200Y5353208D01*
X30887200Y5353208D02*
X30791961Y5257970D01*
X30791961Y5257970D02*
X30601485Y5210351D01*
X30601485Y5210351D02*
X30268152Y5210351D01*
X30268152Y5210351D02*
X30077676Y5257970D01*
X30077676Y5257970D02*
X29982438Y5353208D01*
X29982438Y5353208D02*
X29934819Y5448446D01*
X30934819Y6877017D02*
X30458628Y6543684D01*
X30934819Y6305589D02*
X29934819Y6305589D01*
X29934819Y6305589D02*
X29934819Y6686541D01*
X29934819Y6686541D02*
X29982438Y6781779D01*
X29982438Y6781779D02*
X30030057Y6829398D01*
X30030057Y6829398D02*
X30125295Y6877017D01*
X30125295Y6877017D02*
X30268152Y6877017D01*
X30268152Y6877017D02*
X30363390Y6829398D01*
X30363390Y6829398D02*
X30411009Y6781779D01*
X30411009Y6781779D02*
X30458628Y6686541D01*
X30458628Y6686541D02*
X30458628Y6305589D01*
X30411009Y7305589D02*
X30411009Y7638922D01*
X30934819Y7781779D02*
X30934819Y7305589D01*
X30934819Y7305589D02*
X29934819Y7305589D01*
X29934819Y7305589D02*
X29934819Y7781779D01*
X30411009Y8543684D02*
X30411009Y8210351D01*
X30934819Y8210351D02*
X29934819Y8210351D01*
X29934819Y8210351D02*
X29934819Y8686541D01*
X37554819Y5257970D02*
X37554819Y4781780D01*
X37554819Y4781780D02*
X38031009Y4734161D01*
X38031009Y4734161D02*
X37983390Y4781780D01*
X37983390Y4781780D02*
X37935771Y4877018D01*
X37935771Y4877018D02*
X37935771Y5115113D01*
X37935771Y5115113D02*
X37983390Y5210351D01*
X37983390Y5210351D02*
X38031009Y5257970D01*
X38031009Y5257970D02*
X38126247Y5305589D01*
X38126247Y5305589D02*
X38364342Y5305589D01*
X38364342Y5305589D02*
X38459580Y5257970D01*
X38459580Y5257970D02*
X38507200Y5210351D01*
X38507200Y5210351D02*
X38554819Y5115113D01*
X38554819Y5115113D02*
X38554819Y4877018D01*
X38554819Y4877018D02*
X38507200Y4781780D01*
X38507200Y4781780D02*
X38459580Y4734161D01*
X37554819Y5591304D02*
X38554819Y5924637D01*
X38554819Y5924637D02*
X37554819Y6257970D01*
G36*
X43012343Y5462010D02*
G01*
X43086456Y5387897D01*
X43124949Y5310910D01*
X43168333Y5137376D01*
X43168333Y5012987D01*
X43124949Y4839453D01*
X43086455Y4762466D01*
X43012343Y4688353D01*
X42897830Y4650181D01*
X42746905Y4650181D01*
X42746905Y5500181D01*
X42897830Y5500181D01*
X43012343Y5462010D01*
G37*
G36*
X43461190Y4357324D02*
G01*
X40358810Y4357324D01*
X40358810Y5003753D01*
X40501667Y5003753D01*
X40502852Y5000496D01*
X40503906Y4985563D01*
X40551525Y4795087D01*
X40553513Y4792143D01*
X40557204Y4779736D01*
X40604823Y4684498D01*
X40606009Y4683375D01*
X40618872Y4665006D01*
X40714110Y4569767D01*
X40718174Y4567872D01*
X40720521Y4564052D01*
X40743426Y4551649D01*
X40886282Y4504030D01*
X40887917Y4504075D01*
X40910000Y4500181D01*
X41005238Y4500181D01*
X41006776Y4500742D01*
X41028955Y4504030D01*
X41171812Y4551649D01*
X41175323Y4554437D01*
X41179792Y4554827D01*
X41201129Y4569768D01*
X41206542Y4575181D01*
X41549286Y4575181D01*
X41566833Y4526972D01*
X41611262Y4501320D01*
X41661786Y4510229D01*
X41694763Y4549529D01*
X41699286Y4575181D01*
X41699286Y5292765D01*
X42130596Y4537970D01*
X42135889Y4533489D01*
X42138261Y4526972D01*
X42154998Y4517309D01*
X42169749Y4504819D01*
X42176683Y4504789D01*
X42182690Y4501320D01*
X42201723Y4504677D01*
X42221051Y4504590D01*
X42226384Y4509025D01*
X42233214Y4510229D01*
X42245638Y4525036D01*
X42260498Y4537392D01*
X42261732Y4544216D01*
X42266191Y4549529D01*
X42270714Y4575181D01*
X42596905Y4575181D01*
X42603568Y4556873D01*
X42606953Y4537681D01*
X42612137Y4533331D01*
X42614452Y4526972D01*
X42631325Y4517230D01*
X42646253Y4504704D01*
X42655995Y4502987D01*
X42658881Y4501320D01*
X42662163Y4501899D01*
X42671905Y4500181D01*
X42910000Y4500181D01*
X42911538Y4500742D01*
X42933717Y4504030D01*
X43076574Y4551649D01*
X43080086Y4554437D01*
X43084553Y4554827D01*
X43105890Y4569767D01*
X43201129Y4665007D01*
X43201820Y4666490D01*
X43215177Y4684498D01*
X43262796Y4779736D01*
X43263202Y4783265D01*
X43268475Y4795087D01*
X43316094Y4985563D01*
X43315733Y4989012D01*
X43318333Y5003753D01*
X43318333Y5146610D01*
X43317147Y5149868D01*
X43316094Y5164800D01*
X43268475Y5355276D01*
X43266486Y5358221D01*
X43262796Y5370627D01*
X43215177Y5465865D01*
X43213990Y5466989D01*
X43201128Y5485357D01*
X43105890Y5580595D01*
X43101826Y5582490D01*
X43099479Y5586311D01*
X43076574Y5598713D01*
X42933717Y5646332D01*
X42932082Y5646288D01*
X42910000Y5650181D01*
X42671905Y5650181D01*
X42653596Y5643518D01*
X42634405Y5640133D01*
X42630054Y5634949D01*
X42623696Y5632634D01*
X42613953Y5615761D01*
X42601428Y5600833D01*
X42599710Y5591091D01*
X42598044Y5588205D01*
X42598622Y5584923D01*
X42596905Y5575181D01*
X42596905Y4575181D01*
X42270714Y4575181D01*
X42270714Y5575181D01*
X42253167Y5623390D01*
X42208738Y5649042D01*
X42158214Y5640133D01*
X42125237Y5600833D01*
X42120714Y5575181D01*
X42120714Y4857598D01*
X41689404Y5612391D01*
X41684111Y5616873D01*
X41681739Y5623390D01*
X41664999Y5633055D01*
X41650251Y5645543D01*
X41643316Y5645574D01*
X41637310Y5649042D01*
X41618276Y5645686D01*
X41598949Y5645772D01*
X41593615Y5641338D01*
X41586786Y5640133D01*
X41574361Y5625327D01*
X41559502Y5612970D01*
X41558267Y5606147D01*
X41553809Y5600833D01*
X41549286Y5575181D01*
X41549286Y4575181D01*
X41206542Y4575181D01*
X41248747Y4617387D01*
X41255665Y4632225D01*
X41266191Y4644768D01*
X41269034Y4660896D01*
X41270428Y4663884D01*
X41269905Y4665835D01*
X41270714Y4670420D01*
X41270714Y5003753D01*
X41264050Y5022062D01*
X41260666Y5041253D01*
X41255481Y5045604D01*
X41253167Y5051962D01*
X41236293Y5061705D01*
X41221366Y5074230D01*
X41211623Y5075948D01*
X41208738Y5077614D01*
X41205455Y5077036D01*
X41195714Y5078753D01*
X41005238Y5078753D01*
X40957029Y5061206D01*
X40931377Y5016777D01*
X40940286Y4966253D01*
X40979586Y4933276D01*
X41005238Y4928753D01*
X41120714Y4928753D01*
X41120714Y4701486D01*
X41107581Y4688353D01*
X40993068Y4650181D01*
X40922170Y4650181D01*
X40807657Y4688352D01*
X40733544Y4762466D01*
X40695050Y4839453D01*
X40651667Y5012987D01*
X40651667Y5137376D01*
X40695050Y5310910D01*
X40733544Y5387897D01*
X40807657Y5462010D01*
X40922170Y5500181D01*
X41035152Y5500181D01*
X41114554Y5460480D01*
X41165520Y5454615D01*
X41208333Y5482881D01*
X41222960Y5532056D01*
X41202557Y5579127D01*
X41181636Y5594644D01*
X41086398Y5642263D01*
X41081944Y5642776D01*
X41078509Y5645658D01*
X41052857Y5650181D01*
X40910000Y5650181D01*
X40908462Y5649622D01*
X40886282Y5646332D01*
X40743426Y5598713D01*
X40739915Y5595927D01*
X40735447Y5595536D01*
X40714110Y5580595D01*
X40618872Y5485357D01*
X40618181Y5483876D01*
X40604823Y5465865D01*
X40557204Y5370627D01*
X40556797Y5367099D01*
X40551525Y5355276D01*
X40503906Y5164800D01*
X40504266Y5161352D01*
X40501667Y5146610D01*
X40501667Y5003753D01*
X40358810Y5003753D01*
X40358810Y5793038D01*
X43461190Y5793038D01*
X43461190Y4357324D01*
G37*
X53509104Y4734161D02*
X53509104Y5210351D01*
X53794819Y4638923D02*
X52794819Y4972256D01*
X52794819Y4972256D02*
X53794819Y5305589D01*
X53794819Y6162732D02*
X53794819Y5591304D01*
X53794819Y5877018D02*
X52794819Y5877018D01*
X52794819Y5877018D02*
X52937676Y5781780D01*
X52937676Y5781780D02*
X53032914Y5686542D01*
X53032914Y5686542D02*
X53080533Y5591304D01*
X63669104Y4734161D02*
X63669104Y5210351D01*
X63954819Y4638923D02*
X62954819Y4972256D01*
X62954819Y4972256D02*
X63954819Y5305589D01*
X62954819Y6115113D02*
X62954819Y5638923D01*
X62954819Y5638923D02*
X63431009Y5591304D01*
X63431009Y5591304D02*
X63383390Y5638923D01*
X63383390Y5638923D02*
X63335771Y5734161D01*
X63335771Y5734161D02*
X63335771Y5972256D01*
X63335771Y5972256D02*
X63383390Y6067494D01*
X63383390Y6067494D02*
X63431009Y6115113D01*
X63431009Y6115113D02*
X63526247Y6162732D01*
X63526247Y6162732D02*
X63764342Y6162732D01*
X63764342Y6162732D02*
X63859580Y6115113D01*
X63859580Y6115113D02*
X63907200Y6067494D01*
X63907200Y6067494D02*
X63954819Y5972256D01*
X63954819Y5972256D02*
X63954819Y5734161D01*
X63954819Y5734161D02*
X63907200Y5638923D01*
X63907200Y5638923D02*
X63859580Y5591304D01*
X58589104Y4734161D02*
X58589104Y5210351D01*
X58874819Y4638923D02*
X57874819Y4972256D01*
X57874819Y4972256D02*
X58874819Y5305589D01*
X57874819Y5543685D02*
X57874819Y6162732D01*
X57874819Y6162732D02*
X58255771Y5829399D01*
X58255771Y5829399D02*
X58255771Y5972256D01*
X58255771Y5972256D02*
X58303390Y6067494D01*
X58303390Y6067494D02*
X58351009Y6115113D01*
X58351009Y6115113D02*
X58446247Y6162732D01*
X58446247Y6162732D02*
X58684342Y6162732D01*
X58684342Y6162732D02*
X58779580Y6115113D01*
X58779580Y6115113D02*
X58827200Y6067494D01*
X58827200Y6067494D02*
X58874819Y5972256D01*
X58874819Y5972256D02*
X58874819Y5686542D01*
X58874819Y5686542D02*
X58827200Y5591304D01*
X58827200Y5591304D02*
X58779580Y5543685D01*
X56049104Y4734161D02*
X56049104Y5210351D01*
X56334819Y4638923D02*
X55334819Y4972256D01*
X55334819Y4972256D02*
X56334819Y5305589D01*
X55430057Y5591304D02*
X55382438Y5638923D01*
X55382438Y5638923D02*
X55334819Y5734161D01*
X55334819Y5734161D02*
X55334819Y5972256D01*
X55334819Y5972256D02*
X55382438Y6067494D01*
X55382438Y6067494D02*
X55430057Y6115113D01*
X55430057Y6115113D02*
X55525295Y6162732D01*
X55525295Y6162732D02*
X55620533Y6162732D01*
X55620533Y6162732D02*
X55763390Y6115113D01*
X55763390Y6115113D02*
X56334819Y5543685D01*
X56334819Y5543685D02*
X56334819Y6162732D01*
X61129104Y4734161D02*
X61129104Y5210351D01*
X61414819Y4638923D02*
X60414819Y4972256D01*
X60414819Y4972256D02*
X61414819Y5305589D01*
X60748152Y6067494D02*
X61414819Y6067494D01*
X60367200Y5829399D02*
X61081485Y5591304D01*
X61081485Y5591304D02*
X61081485Y6210351D01*
X50969104Y4734161D02*
X50969104Y5210351D01*
X51254819Y4638923D02*
X50254819Y4972256D01*
X50254819Y4972256D02*
X51254819Y5305589D01*
X50254819Y5829399D02*
X50254819Y5924637D01*
X50254819Y5924637D02*
X50302438Y6019875D01*
X50302438Y6019875D02*
X50350057Y6067494D01*
X50350057Y6067494D02*
X50445295Y6115113D01*
X50445295Y6115113D02*
X50635771Y6162732D01*
X50635771Y6162732D02*
X50873866Y6162732D01*
X50873866Y6162732D02*
X51064342Y6115113D01*
X51064342Y6115113D02*
X51159580Y6067494D01*
X51159580Y6067494D02*
X51207200Y6019875D01*
X51207200Y6019875D02*
X51254819Y5924637D01*
X51254819Y5924637D02*
X51254819Y5829399D01*
X51254819Y5829399D02*
X51207200Y5734161D01*
X51207200Y5734161D02*
X51159580Y5686542D01*
X51159580Y5686542D02*
X51064342Y5638923D01*
X51064342Y5638923D02*
X50873866Y5591304D01*
X50873866Y5591304D02*
X50635771Y5591304D01*
X50635771Y5591304D02*
X50445295Y5638923D01*
X50445295Y5638923D02*
X50350057Y5686542D01*
X50350057Y5686542D02*
X50302438Y5734161D01*
X50302438Y5734161D02*
X50254819Y5829399D01*
X21743200Y46177269D02*
X21790819Y46320126D01*
X21790819Y46320126D02*
X21790819Y46558221D01*
X21790819Y46558221D02*
X21743200Y46653459D01*
X21743200Y46653459D02*
X21695580Y46701078D01*
X21695580Y46701078D02*
X21600342Y46748697D01*
X21600342Y46748697D02*
X21505104Y46748697D01*
X21505104Y46748697D02*
X21409866Y46701078D01*
X21409866Y46701078D02*
X21362247Y46653459D01*
X21362247Y46653459D02*
X21314628Y46558221D01*
X21314628Y46558221D02*
X21267009Y46367745D01*
X21267009Y46367745D02*
X21219390Y46272507D01*
X21219390Y46272507D02*
X21171771Y46224888D01*
X21171771Y46224888D02*
X21076533Y46177269D01*
X21076533Y46177269D02*
X20981295Y46177269D01*
X20981295Y46177269D02*
X20886057Y46224888D01*
X20886057Y46224888D02*
X20838438Y46272507D01*
X20838438Y46272507D02*
X20790819Y46367745D01*
X20790819Y46367745D02*
X20790819Y46605840D01*
X20790819Y46605840D02*
X20838438Y46748697D01*
X21790819Y47177269D02*
X20790819Y47177269D01*
X20790819Y47177269D02*
X20790819Y47415364D01*
X20790819Y47415364D02*
X20838438Y47558221D01*
X20838438Y47558221D02*
X20933676Y47653459D01*
X20933676Y47653459D02*
X21028914Y47701078D01*
X21028914Y47701078D02*
X21219390Y47748697D01*
X21219390Y47748697D02*
X21362247Y47748697D01*
X21362247Y47748697D02*
X21552723Y47701078D01*
X21552723Y47701078D02*
X21647961Y47653459D01*
X21647961Y47653459D02*
X21743200Y47558221D01*
X21743200Y47558221D02*
X21790819Y47415364D01*
X21790819Y47415364D02*
X21790819Y47177269D01*
X21505104Y48129650D02*
X21505104Y48605840D01*
X21790819Y48034412D02*
X20790819Y48367745D01*
X20790819Y48367745D02*
X21790819Y48701078D01*
G36*
X26606547Y48487457D02*
G01*
X26683534Y48448963D01*
X26757648Y48374850D01*
X26795819Y48260337D01*
X26795819Y48109412D01*
X25945819Y48109412D01*
X25945819Y48260337D01*
X25983990Y48374851D01*
X26058103Y48448963D01*
X26135090Y48487457D01*
X26308624Y48530840D01*
X26433013Y48530840D01*
X26606547Y48487457D01*
G37*
G36*
X27088676Y45721317D02*
G01*
X25652962Y45721317D01*
X25652962Y46272507D01*
X25795819Y46272507D01*
X25796379Y46270969D01*
X25799668Y46248790D01*
X25847287Y46105933D01*
X25850074Y46102421D01*
X25850465Y46097954D01*
X25865405Y46076617D01*
X25960643Y45981379D01*
X25962124Y45980689D01*
X25980135Y45967330D01*
X26075373Y45919711D01*
X26078901Y45919305D01*
X26090724Y45914032D01*
X26281200Y45866413D01*
X26284648Y45866774D01*
X26299390Y45864174D01*
X26442247Y45864174D01*
X26445504Y45865360D01*
X26460437Y45866413D01*
X26650913Y45914032D01*
X26653857Y45916021D01*
X26666264Y45919711D01*
X26761502Y45967330D01*
X26762625Y45968517D01*
X26780994Y45981379D01*
X26876233Y46076617D01*
X26878128Y46080682D01*
X26881948Y46083028D01*
X26894351Y46105933D01*
X26941970Y46248789D01*
X26941925Y46250425D01*
X26945819Y46272507D01*
X26945819Y46367745D01*
X26945259Y46369283D01*
X26941970Y46391463D01*
X26894351Y46534319D01*
X26891563Y46537831D01*
X26891173Y46542299D01*
X26876232Y46563636D01*
X26828612Y46611255D01*
X26813774Y46618174D01*
X26801232Y46628698D01*
X26785104Y46631542D01*
X26782116Y46632935D01*
X26780165Y46632413D01*
X26775580Y46633221D01*
X26442247Y46633221D01*
X26423938Y46626558D01*
X26404747Y46623173D01*
X26400396Y46617989D01*
X26394038Y46615674D01*
X26384295Y46598801D01*
X26371770Y46583873D01*
X26370052Y46574131D01*
X26368386Y46571245D01*
X26368964Y46567963D01*
X26367247Y46558221D01*
X26367247Y46367745D01*
X26384794Y46319536D01*
X26429223Y46293884D01*
X26479747Y46302793D01*
X26512724Y46342093D01*
X26517247Y46367745D01*
X26517247Y46483221D01*
X26744514Y46483221D01*
X26757648Y46470088D01*
X26795819Y46355575D01*
X26795819Y46284677D01*
X26757648Y46170165D01*
X26683534Y46096052D01*
X26606547Y46057558D01*
X26433013Y46014174D01*
X26308624Y46014174D01*
X26135090Y46057558D01*
X26058103Y46096051D01*
X25983990Y46170164D01*
X25945819Y46284678D01*
X25945819Y46397659D01*
X25985520Y46477061D01*
X25991385Y46528027D01*
X25963119Y46570840D01*
X25913944Y46585467D01*
X25866873Y46565064D01*
X25851356Y46544143D01*
X25803737Y46448905D01*
X25803224Y46444452D01*
X25800342Y46441016D01*
X25795819Y46415364D01*
X25795819Y46272507D01*
X25652962Y46272507D01*
X25652962Y46999817D01*
X25796958Y46999817D01*
X25800314Y46980784D01*
X25800228Y46961456D01*
X25804662Y46956123D01*
X25805867Y46949293D01*
X25820673Y46936869D01*
X25833030Y46922009D01*
X25839853Y46920775D01*
X25845167Y46916316D01*
X25870819Y46911793D01*
X26870819Y46911793D01*
X26919028Y46929340D01*
X26944680Y46973769D01*
X26935771Y47024293D01*
X26896471Y47057270D01*
X26870819Y47061793D01*
X26153236Y47061793D01*
X26908030Y47493103D01*
X26912511Y47498397D01*
X26919028Y47500768D01*
X26928691Y47517506D01*
X26941181Y47532256D01*
X26941211Y47539191D01*
X26944680Y47545197D01*
X26941323Y47564231D01*
X26941410Y47583558D01*
X26936975Y47588892D01*
X26935771Y47595721D01*
X26920964Y47608146D01*
X26908608Y47623005D01*
X26901784Y47624240D01*
X26896471Y47628698D01*
X26870819Y47633221D01*
X25870819Y47633221D01*
X25822610Y47615674D01*
X25796958Y47571245D01*
X25805867Y47520721D01*
X25845167Y47487744D01*
X25870819Y47483221D01*
X26588402Y47483221D01*
X25833609Y47051911D01*
X25829127Y47046619D01*
X25822610Y47044246D01*
X25812945Y47027507D01*
X25800457Y47012758D01*
X25800426Y47005824D01*
X25796958Y46999817D01*
X25652962Y46999817D01*
X25652962Y48034412D01*
X25795819Y48034412D01*
X25802482Y48016104D01*
X25805867Y47996912D01*
X25811051Y47992562D01*
X25813366Y47986203D01*
X25830239Y47976461D01*
X25845167Y47963935D01*
X25854909Y47962218D01*
X25857795Y47960551D01*
X25861077Y47961130D01*
X25870819Y47959412D01*
X26870819Y47959412D01*
X26889127Y47966076D01*
X26908319Y47969460D01*
X26912669Y47974645D01*
X26919028Y47976959D01*
X26928770Y47993833D01*
X26941296Y48008760D01*
X26943013Y48018503D01*
X26944680Y48021388D01*
X26944101Y48024671D01*
X26945819Y48034412D01*
X26945819Y48272507D01*
X26945259Y48274045D01*
X26941970Y48296225D01*
X26894351Y48439081D01*
X26891564Y48442592D01*
X26891174Y48447060D01*
X26876233Y48468397D01*
X26780994Y48563635D01*
X26779512Y48564326D01*
X26761502Y48577684D01*
X26666264Y48625303D01*
X26662735Y48625710D01*
X26650913Y48630982D01*
X26460437Y48678601D01*
X26456988Y48678241D01*
X26442247Y48680840D01*
X26299390Y48680840D01*
X26296132Y48679655D01*
X26281200Y48678601D01*
X26090724Y48630982D01*
X26087779Y48628994D01*
X26075373Y48625303D01*
X25980135Y48577684D01*
X25979011Y48576498D01*
X25960643Y48563635D01*
X25865405Y48468397D01*
X25863510Y48464334D01*
X25859689Y48461986D01*
X25847287Y48439081D01*
X25799668Y48296224D01*
X25799712Y48294590D01*
X25795819Y48272507D01*
X25795819Y48034412D01*
X25652962Y48034412D01*
X25652962Y48823697D01*
X27088676Y48823697D01*
X27088676Y45721317D01*
G37*
X34490819Y47653459D02*
X34490819Y47082031D01*
X34490819Y47367745D02*
X33490819Y47367745D01*
X33490819Y47367745D02*
X33633676Y47272507D01*
X33633676Y47272507D02*
X33728914Y47177269D01*
X33728914Y47177269D02*
X33776533Y47082031D01*
X34490819Y48605840D02*
X34490819Y48034412D01*
X34490819Y48320126D02*
X33490819Y48320126D01*
X33490819Y48320126D02*
X33633676Y48224888D01*
X33633676Y48224888D02*
X33728914Y48129650D01*
X33728914Y48129650D02*
X33776533Y48034412D01*
X39570819Y48129650D02*
X39570819Y48320126D01*
X39570819Y48320126D02*
X39523200Y48415364D01*
X39523200Y48415364D02*
X39475580Y48462983D01*
X39475580Y48462983D02*
X39332723Y48558221D01*
X39332723Y48558221D02*
X39142247Y48605840D01*
X39142247Y48605840D02*
X38761295Y48605840D01*
X38761295Y48605840D02*
X38666057Y48558221D01*
X38666057Y48558221D02*
X38618438Y48510602D01*
X38618438Y48510602D02*
X38570819Y48415364D01*
X38570819Y48415364D02*
X38570819Y48224888D01*
X38570819Y48224888D02*
X38618438Y48129650D01*
X38618438Y48129650D02*
X38666057Y48082031D01*
X38666057Y48082031D02*
X38761295Y48034412D01*
X38761295Y48034412D02*
X38999390Y48034412D01*
X38999390Y48034412D02*
X39094628Y48082031D01*
X39094628Y48082031D02*
X39142247Y48129650D01*
X39142247Y48129650D02*
X39189866Y48224888D01*
X39189866Y48224888D02*
X39189866Y48415364D01*
X39189866Y48415364D02*
X39142247Y48510602D01*
X39142247Y48510602D02*
X39094628Y48558221D01*
X39094628Y48558221D02*
X38999390Y48605840D01*
X37030819Y47653459D02*
X37030819Y47082031D01*
X37030819Y47367745D02*
X36030819Y47367745D01*
X36030819Y47367745D02*
X36173676Y47272507D01*
X36173676Y47272507D02*
X36268914Y47177269D01*
X36268914Y47177269D02*
X36316533Y47082031D01*
X36030819Y48272507D02*
X36030819Y48367745D01*
X36030819Y48367745D02*
X36078438Y48462983D01*
X36078438Y48462983D02*
X36126057Y48510602D01*
X36126057Y48510602D02*
X36221295Y48558221D01*
X36221295Y48558221D02*
X36411771Y48605840D01*
X36411771Y48605840D02*
X36649866Y48605840D01*
X36649866Y48605840D02*
X36840342Y48558221D01*
X36840342Y48558221D02*
X36935580Y48510602D01*
X36935580Y48510602D02*
X36983200Y48462983D01*
X36983200Y48462983D02*
X37030819Y48367745D01*
X37030819Y48367745D02*
X37030819Y48272507D01*
X37030819Y48272507D02*
X36983200Y48177269D01*
X36983200Y48177269D02*
X36935580Y48129650D01*
X36935580Y48129650D02*
X36840342Y48082031D01*
X36840342Y48082031D02*
X36649866Y48034412D01*
X36649866Y48034412D02*
X36411771Y48034412D01*
X36411771Y48034412D02*
X36221295Y48082031D01*
X36221295Y48082031D02*
X36126057Y48129650D01*
X36126057Y48129650D02*
X36078438Y48177269D01*
X36078438Y48177269D02*
X36030819Y48272507D01*
X19203200Y46224888D02*
X19250819Y46367745D01*
X19250819Y46367745D02*
X19250819Y46605840D01*
X19250819Y46605840D02*
X19203200Y46701078D01*
X19203200Y46701078D02*
X19155580Y46748697D01*
X19155580Y46748697D02*
X19060342Y46796316D01*
X19060342Y46796316D02*
X18965104Y46796316D01*
X18965104Y46796316D02*
X18869866Y46748697D01*
X18869866Y46748697D02*
X18822247Y46701078D01*
X18822247Y46701078D02*
X18774628Y46605840D01*
X18774628Y46605840D02*
X18727009Y46415364D01*
X18727009Y46415364D02*
X18679390Y46320126D01*
X18679390Y46320126D02*
X18631771Y46272507D01*
X18631771Y46272507D02*
X18536533Y46224888D01*
X18536533Y46224888D02*
X18441295Y46224888D01*
X18441295Y46224888D02*
X18346057Y46272507D01*
X18346057Y46272507D02*
X18298438Y46320126D01*
X18298438Y46320126D02*
X18250819Y46415364D01*
X18250819Y46415364D02*
X18250819Y46653459D01*
X18250819Y46653459D02*
X18298438Y46796316D01*
X19155580Y47796316D02*
X19203200Y47748697D01*
X19203200Y47748697D02*
X19250819Y47605840D01*
X19250819Y47605840D02*
X19250819Y47510602D01*
X19250819Y47510602D02*
X19203200Y47367745D01*
X19203200Y47367745D02*
X19107961Y47272507D01*
X19107961Y47272507D02*
X19012723Y47224888D01*
X19012723Y47224888D02*
X18822247Y47177269D01*
X18822247Y47177269D02*
X18679390Y47177269D01*
X18679390Y47177269D02*
X18488914Y47224888D01*
X18488914Y47224888D02*
X18393676Y47272507D01*
X18393676Y47272507D02*
X18298438Y47367745D01*
X18298438Y47367745D02*
X18250819Y47510602D01*
X18250819Y47510602D02*
X18250819Y47605840D01*
X18250819Y47605840D02*
X18298438Y47748697D01*
X18298438Y47748697D02*
X18346057Y47796316D01*
X19250819Y48701078D02*
X19250819Y48224888D01*
X19250819Y48224888D02*
X18250819Y48224888D01*
X24045104Y45367745D02*
X24045104Y45843935D01*
X24330819Y45272507D02*
X23330819Y45605840D01*
X23330819Y45605840D02*
X24330819Y45939173D01*
X24330819Y46843935D02*
X23854628Y46510602D01*
X24330819Y46272507D02*
X23330819Y46272507D01*
X23330819Y46272507D02*
X23330819Y46653459D01*
X23330819Y46653459D02*
X23378438Y46748697D01*
X23378438Y46748697D02*
X23426057Y46796316D01*
X23426057Y46796316D02*
X23521295Y46843935D01*
X23521295Y46843935D02*
X23664152Y46843935D01*
X23664152Y46843935D02*
X23759390Y46796316D01*
X23759390Y46796316D02*
X23807009Y46748697D01*
X23807009Y46748697D02*
X23854628Y46653459D01*
X23854628Y46653459D02*
X23854628Y46272507D01*
X23807009Y47272507D02*
X23807009Y47605840D01*
X24330819Y47748697D02*
X24330819Y47272507D01*
X24330819Y47272507D02*
X23330819Y47272507D01*
X23330819Y47272507D02*
X23330819Y47748697D01*
X23807009Y48510602D02*
X23807009Y48177269D01*
X24330819Y48177269D02*
X23330819Y48177269D01*
X23330819Y48177269D02*
X23330819Y48653459D01*
X41539390Y48224888D02*
X41491771Y48129650D01*
X41491771Y48129650D02*
X41444152Y48082031D01*
X41444152Y48082031D02*
X41348914Y48034412D01*
X41348914Y48034412D02*
X41301295Y48034412D01*
X41301295Y48034412D02*
X41206057Y48082031D01*
X41206057Y48082031D02*
X41158438Y48129650D01*
X41158438Y48129650D02*
X41110819Y48224888D01*
X41110819Y48224888D02*
X41110819Y48415364D01*
X41110819Y48415364D02*
X41158438Y48510602D01*
X41158438Y48510602D02*
X41206057Y48558221D01*
X41206057Y48558221D02*
X41301295Y48605840D01*
X41301295Y48605840D02*
X41348914Y48605840D01*
X41348914Y48605840D02*
X41444152Y48558221D01*
X41444152Y48558221D02*
X41491771Y48510602D01*
X41491771Y48510602D02*
X41539390Y48415364D01*
X41539390Y48415364D02*
X41539390Y48224888D01*
X41539390Y48224888D02*
X41587009Y48129650D01*
X41587009Y48129650D02*
X41634628Y48082031D01*
X41634628Y48082031D02*
X41729866Y48034412D01*
X41729866Y48034412D02*
X41920342Y48034412D01*
X41920342Y48034412D02*
X42015580Y48082031D01*
X42015580Y48082031D02*
X42063200Y48129650D01*
X42063200Y48129650D02*
X42110819Y48224888D01*
X42110819Y48224888D02*
X42110819Y48415364D01*
X42110819Y48415364D02*
X42063200Y48510602D01*
X42063200Y48510602D02*
X42015580Y48558221D01*
X42015580Y48558221D02*
X41920342Y48605840D01*
X41920342Y48605840D02*
X41729866Y48605840D01*
X41729866Y48605840D02*
X41634628Y48558221D01*
X41634628Y48558221D02*
X41587009Y48510602D01*
X41587009Y48510602D02*
X41539390Y48415364D01*
X29410819Y47653459D02*
X29410819Y47082031D01*
X29410819Y47367745D02*
X28410819Y47367745D01*
X28410819Y47367745D02*
X28553676Y47272507D01*
X28553676Y47272507D02*
X28648914Y47177269D01*
X28648914Y47177269D02*
X28696533Y47082031D01*
X28410819Y47986793D02*
X28410819Y48605840D01*
X28410819Y48605840D02*
X28791771Y48272507D01*
X28791771Y48272507D02*
X28791771Y48415364D01*
X28791771Y48415364D02*
X28839390Y48510602D01*
X28839390Y48510602D02*
X28887009Y48558221D01*
X28887009Y48558221D02*
X28982247Y48605840D01*
X28982247Y48605840D02*
X29220342Y48605840D01*
X29220342Y48605840D02*
X29315580Y48558221D01*
X29315580Y48558221D02*
X29363200Y48510602D01*
X29363200Y48510602D02*
X29410819Y48415364D01*
X29410819Y48415364D02*
X29410819Y48129650D01*
X29410819Y48129650D02*
X29363200Y48034412D01*
X29363200Y48034412D02*
X29315580Y47986793D01*
X31950819Y47653459D02*
X31950819Y47082031D01*
X31950819Y47367745D02*
X30950819Y47367745D01*
X30950819Y47367745D02*
X31093676Y47272507D01*
X31093676Y47272507D02*
X31188914Y47177269D01*
X31188914Y47177269D02*
X31236533Y47082031D01*
X31046057Y48034412D02*
X30998438Y48082031D01*
X30998438Y48082031D02*
X30950819Y48177269D01*
X30950819Y48177269D02*
X30950819Y48415364D01*
X30950819Y48415364D02*
X30998438Y48510602D01*
X30998438Y48510602D02*
X31046057Y48558221D01*
X31046057Y48558221D02*
X31141295Y48605840D01*
X31141295Y48605840D02*
X31236533Y48605840D01*
X31236533Y48605840D02*
X31379390Y48558221D01*
X31379390Y48558221D02*
X31950819Y47986793D01*
X31950819Y47986793D02*
X31950819Y48605840D01*
X57970057Y48034412D02*
X57922438Y48082031D01*
X57922438Y48082031D02*
X57874819Y48177269D01*
X57874819Y48177269D02*
X57874819Y48415364D01*
X57874819Y48415364D02*
X57922438Y48510602D01*
X57922438Y48510602D02*
X57970057Y48558221D01*
X57970057Y48558221D02*
X58065295Y48605840D01*
X58065295Y48605840D02*
X58160533Y48605840D01*
X58160533Y48605840D02*
X58303390Y48558221D01*
X58303390Y48558221D02*
X58874819Y47986793D01*
X58874819Y47986793D02*
X58874819Y48605840D01*
X55334819Y47986793D02*
X55334819Y48605840D01*
X55334819Y48605840D02*
X55715771Y48272507D01*
X55715771Y48272507D02*
X55715771Y48415364D01*
X55715771Y48415364D02*
X55763390Y48510602D01*
X55763390Y48510602D02*
X55811009Y48558221D01*
X55811009Y48558221D02*
X55906247Y48605840D01*
X55906247Y48605840D02*
X56144342Y48605840D01*
X56144342Y48605840D02*
X56239580Y48558221D01*
X56239580Y48558221D02*
X56287200Y48510602D01*
X56287200Y48510602D02*
X56334819Y48415364D01*
X56334819Y48415364D02*
X56334819Y48129650D01*
X56334819Y48129650D02*
X56287200Y48034412D01*
X56287200Y48034412D02*
X56239580Y47986793D01*
X50254819Y48558221D02*
X50254819Y48082031D01*
X50254819Y48082031D02*
X50731009Y48034412D01*
X50731009Y48034412D02*
X50683390Y48082031D01*
X50683390Y48082031D02*
X50635771Y48177269D01*
X50635771Y48177269D02*
X50635771Y48415364D01*
X50635771Y48415364D02*
X50683390Y48510602D01*
X50683390Y48510602D02*
X50731009Y48558221D01*
X50731009Y48558221D02*
X50826247Y48605840D01*
X50826247Y48605840D02*
X51064342Y48605840D01*
X51064342Y48605840D02*
X51159580Y48558221D01*
X51159580Y48558221D02*
X51207200Y48510602D01*
X51207200Y48510602D02*
X51254819Y48415364D01*
X51254819Y48415364D02*
X51254819Y48177269D01*
X51254819Y48177269D02*
X51207200Y48082031D01*
X51207200Y48082031D02*
X51159580Y48034412D01*
X47714819Y48510602D02*
X47714819Y48320126D01*
X47714819Y48320126D02*
X47762438Y48224888D01*
X47762438Y48224888D02*
X47810057Y48177269D01*
X47810057Y48177269D02*
X47952914Y48082031D01*
X47952914Y48082031D02*
X48143390Y48034412D01*
X48143390Y48034412D02*
X48524342Y48034412D01*
X48524342Y48034412D02*
X48619580Y48082031D01*
X48619580Y48082031D02*
X48667200Y48129650D01*
X48667200Y48129650D02*
X48714819Y48224888D01*
X48714819Y48224888D02*
X48714819Y48415364D01*
X48714819Y48415364D02*
X48667200Y48510602D01*
X48667200Y48510602D02*
X48619580Y48558221D01*
X48619580Y48558221D02*
X48524342Y48605840D01*
X48524342Y48605840D02*
X48286247Y48605840D01*
X48286247Y48605840D02*
X48191009Y48558221D01*
X48191009Y48558221D02*
X48143390Y48510602D01*
X48143390Y48510602D02*
X48095771Y48415364D01*
X48095771Y48415364D02*
X48095771Y48224888D01*
X48095771Y48224888D02*
X48143390Y48129650D01*
X48143390Y48129650D02*
X48191009Y48082031D01*
X48191009Y48082031D02*
X48286247Y48034412D01*
X53128152Y48510602D02*
X53794819Y48510602D01*
X52747200Y48272507D02*
X53461485Y48034412D01*
X53461485Y48034412D02*
X53461485Y48653459D01*
X63954819Y45462983D02*
X63478628Y45129650D01*
X63954819Y44891555D02*
X62954819Y44891555D01*
X62954819Y44891555D02*
X62954819Y45272507D01*
X62954819Y45272507D02*
X63002438Y45367745D01*
X63002438Y45367745D02*
X63050057Y45415364D01*
X63050057Y45415364D02*
X63145295Y45462983D01*
X63145295Y45462983D02*
X63288152Y45462983D01*
X63288152Y45462983D02*
X63383390Y45415364D01*
X63383390Y45415364D02*
X63431009Y45367745D01*
X63431009Y45367745D02*
X63478628Y45272507D01*
X63478628Y45272507D02*
X63478628Y44891555D01*
X62954819Y45796317D02*
X63954819Y46462983D01*
X62954819Y46462983D02*
X63954819Y45796317D01*
X63573866Y47605840D02*
X63573866Y46843936D01*
X63764342Y47034412D02*
X63573866Y46843936D01*
X63573866Y46843936D02*
X63383390Y47034412D01*
X62954819Y48272507D02*
X62954819Y48367745D01*
X62954819Y48367745D02*
X63002438Y48462983D01*
X63002438Y48462983D02*
X63050057Y48510602D01*
X63050057Y48510602D02*
X63145295Y48558221D01*
X63145295Y48558221D02*
X63335771Y48605840D01*
X63335771Y48605840D02*
X63573866Y48605840D01*
X63573866Y48605840D02*
X63764342Y48558221D01*
X63764342Y48558221D02*
X63859580Y48510602D01*
X63859580Y48510602D02*
X63907200Y48462983D01*
X63907200Y48462983D02*
X63954819Y48367745D01*
X63954819Y48367745D02*
X63954819Y48272507D01*
X63954819Y48272507D02*
X63907200Y48177269D01*
X63907200Y48177269D02*
X63859580Y48129650D01*
X63859580Y48129650D02*
X63764342Y48082031D01*
X63764342Y48082031D02*
X63573866Y48034412D01*
X63573866Y48034412D02*
X63335771Y48034412D01*
X63335771Y48034412D02*
X63145295Y48082031D01*
X63145295Y48082031D02*
X63050057Y48129650D01*
X63050057Y48129650D02*
X63002438Y48177269D01*
X63002438Y48177269D02*
X62954819Y48272507D01*
X60414819Y44986793D02*
X60414819Y45558221D01*
X61414819Y45272507D02*
X60414819Y45272507D01*
X60414819Y45796317D02*
X61414819Y46462983D01*
X60414819Y46462983D02*
X61414819Y45796317D01*
X61033866Y46843936D02*
X61033866Y47605840D01*
X61224342Y47415364D02*
X61033866Y47605840D01*
X61033866Y47605840D02*
X60843390Y47415364D01*
X61414819Y48605840D02*
X61414819Y48034412D01*
X61414819Y48320126D02*
X60414819Y48320126D01*
X60414819Y48320126D02*
X60557676Y48224888D01*
X60557676Y48224888D02*
X60652914Y48129650D01*
X60652914Y48129650D02*
X60700533Y48034412D01*
X45174819Y47986793D02*
X45174819Y48653459D01*
X45174819Y48653459D02*
X46174819Y48224888D01*
X59671009Y13930477D02*
X59718628Y14073334D01*
X59718628Y14073334D02*
X59766247Y14120953D01*
X59766247Y14120953D02*
X59861485Y14168572D01*
X59861485Y14168572D02*
X60004342Y14168572D01*
X60004342Y14168572D02*
X60099580Y14120953D01*
X60099580Y14120953D02*
X60147200Y14073334D01*
X60147200Y14073334D02*
X60194819Y13978096D01*
X60194819Y13978096D02*
X60194819Y13597144D01*
X60194819Y13597144D02*
X59194819Y13597144D01*
X59194819Y13597144D02*
X59194819Y13930477D01*
X59194819Y13930477D02*
X59242438Y14025715D01*
X59242438Y14025715D02*
X59290057Y14073334D01*
X59290057Y14073334D02*
X59385295Y14120953D01*
X59385295Y14120953D02*
X59480533Y14120953D01*
X59480533Y14120953D02*
X59575771Y14073334D01*
X59575771Y14073334D02*
X59623390Y14025715D01*
X59623390Y14025715D02*
X59671009Y13930477D01*
X59671009Y13930477D02*
X59671009Y13597144D01*
X59194819Y14454287D02*
X59194819Y15025715D01*
X60194819Y14740001D02*
X59194819Y14740001D01*
X60194819Y15359049D02*
X59194819Y15359049D01*
X59194819Y15359049D02*
X60194819Y15930477D01*
X60194819Y15930477D02*
X59194819Y15930477D01*
X60194819Y16930477D02*
X60194819Y16359049D01*
X60194819Y16644763D02*
X59194819Y16644763D01*
X59194819Y16644763D02*
X59337676Y16549525D01*
X59337676Y16549525D02*
X59432914Y16454287D01*
X59432914Y16454287D02*
X59480533Y16359049D01*
X59671009Y26630477D02*
X59718628Y26773334D01*
X59718628Y26773334D02*
X59766247Y26820953D01*
X59766247Y26820953D02*
X59861485Y26868572D01*
X59861485Y26868572D02*
X60004342Y26868572D01*
X60004342Y26868572D02*
X60099580Y26820953D01*
X60099580Y26820953D02*
X60147200Y26773334D01*
X60147200Y26773334D02*
X60194819Y26678096D01*
X60194819Y26678096D02*
X60194819Y26297144D01*
X60194819Y26297144D02*
X59194819Y26297144D01*
X59194819Y26297144D02*
X59194819Y26630477D01*
X59194819Y26630477D02*
X59242438Y26725715D01*
X59242438Y26725715D02*
X59290057Y26773334D01*
X59290057Y26773334D02*
X59385295Y26820953D01*
X59385295Y26820953D02*
X59480533Y26820953D01*
X59480533Y26820953D02*
X59575771Y26773334D01*
X59575771Y26773334D02*
X59623390Y26725715D01*
X59623390Y26725715D02*
X59671009Y26630477D01*
X59671009Y26630477D02*
X59671009Y26297144D01*
X59194819Y27154287D02*
X59194819Y27725715D01*
X60194819Y27440001D02*
X59194819Y27440001D01*
X60194819Y28059049D02*
X59194819Y28059049D01*
X59194819Y28059049D02*
X60194819Y28630477D01*
X60194819Y28630477D02*
X59194819Y28630477D01*
X59290057Y29059049D02*
X59242438Y29106668D01*
X59242438Y29106668D02*
X59194819Y29201906D01*
X59194819Y29201906D02*
X59194819Y29440001D01*
X59194819Y29440001D02*
X59242438Y29535239D01*
X59242438Y29535239D02*
X59290057Y29582858D01*
X59290057Y29582858D02*
X59385295Y29630477D01*
X59385295Y29630477D02*
X59480533Y29630477D01*
X59480533Y29630477D02*
X59623390Y29582858D01*
X59623390Y29582858D02*
X60194819Y29011430D01*
X60194819Y29011430D02*
X60194819Y29630477D01*
X33159819Y13862256D02*
X33159819Y14052732D01*
X33159819Y14052732D02*
X33207438Y14147970D01*
X33207438Y14147970D02*
X33302676Y14243208D01*
X33302676Y14243208D02*
X33493152Y14290827D01*
X33493152Y14290827D02*
X33826485Y14290827D01*
X33826485Y14290827D02*
X34016961Y14243208D01*
X34016961Y14243208D02*
X34112200Y14147970D01*
X34112200Y14147970D02*
X34159819Y14052732D01*
X34159819Y14052732D02*
X34159819Y13862256D01*
X34159819Y13862256D02*
X34112200Y13767018D01*
X34112200Y13767018D02*
X34016961Y13671780D01*
X34016961Y13671780D02*
X33826485Y13624161D01*
X33826485Y13624161D02*
X33493152Y13624161D01*
X33493152Y13624161D02*
X33302676Y13671780D01*
X33302676Y13671780D02*
X33207438Y13767018D01*
X33207438Y13767018D02*
X33159819Y13862256D01*
X34159819Y14719399D02*
X33159819Y14719399D01*
X33159819Y14719399D02*
X34159819Y15290827D01*
X34159819Y15290827D02*
X33159819Y15290827D01*
X34159819Y20021780D02*
X33159819Y20021780D01*
X33159819Y20021780D02*
X33159819Y20259875D01*
X33159819Y20259875D02*
X33207438Y20402732D01*
X33207438Y20402732D02*
X33302676Y20497970D01*
X33302676Y20497970D02*
X33397914Y20545589D01*
X33397914Y20545589D02*
X33588390Y20593208D01*
X33588390Y20593208D02*
X33731247Y20593208D01*
X33731247Y20593208D02*
X33921723Y20545589D01*
X33921723Y20545589D02*
X34016961Y20497970D01*
X34016961Y20497970D02*
X34112200Y20402732D01*
X34112200Y20402732D02*
X34159819Y20259875D01*
X34159819Y20259875D02*
X34159819Y20021780D01*
X33636009Y21021780D02*
X33636009Y21355113D01*
X34159819Y21497970D02*
X34159819Y21021780D01*
X34159819Y21021780D02*
X33159819Y21021780D01*
X33159819Y21021780D02*
X33159819Y21497970D01*
X55442295Y39611429D02*
X55442295Y40106667D01*
X55442295Y40106667D02*
X55747057Y39840001D01*
X55747057Y39840001D02*
X55747057Y39954286D01*
X55747057Y39954286D02*
X55785152Y40030477D01*
X55785152Y40030477D02*
X55823247Y40068572D01*
X55823247Y40068572D02*
X55899438Y40106667D01*
X55899438Y40106667D02*
X56089914Y40106667D01*
X56089914Y40106667D02*
X56166104Y40068572D01*
X56166104Y40068572D02*
X56204200Y40030477D01*
X56204200Y40030477D02*
X56242295Y39954286D01*
X56242295Y39954286D02*
X56242295Y39725715D01*
X56242295Y39725715D02*
X56204200Y39649524D01*
X56204200Y39649524D02*
X56166104Y39611429D01*
X55442295Y40373334D02*
X55442295Y40868572D01*
X55442295Y40868572D02*
X55747057Y40601906D01*
X55747057Y40601906D02*
X55747057Y40716191D01*
X55747057Y40716191D02*
X55785152Y40792382D01*
X55785152Y40792382D02*
X55823247Y40830477D01*
X55823247Y40830477D02*
X55899438Y40868572D01*
X55899438Y40868572D02*
X56089914Y40868572D01*
X56089914Y40868572D02*
X56166104Y40830477D01*
X56166104Y40830477D02*
X56204200Y40792382D01*
X56204200Y40792382D02*
X56242295Y40716191D01*
X56242295Y40716191D02*
X56242295Y40487620D01*
X56242295Y40487620D02*
X56204200Y40411429D01*
X56204200Y40411429D02*
X56166104Y40373334D01*
X55442295Y41363811D02*
X55442295Y41440001D01*
X55442295Y41440001D02*
X55480390Y41516192D01*
X55480390Y41516192D02*
X55518485Y41554287D01*
X55518485Y41554287D02*
X55594676Y41592382D01*
X55594676Y41592382D02*
X55747057Y41630477D01*
X55747057Y41630477D02*
X55937533Y41630477D01*
X55937533Y41630477D02*
X56089914Y41592382D01*
X56089914Y41592382D02*
X56166104Y41554287D01*
X56166104Y41554287D02*
X56204200Y41516192D01*
X56204200Y41516192D02*
X56242295Y41440001D01*
X56242295Y41440001D02*
X56242295Y41363811D01*
X56242295Y41363811D02*
X56204200Y41287620D01*
X56204200Y41287620D02*
X56166104Y41249525D01*
X56166104Y41249525D02*
X56089914Y41211430D01*
X56089914Y41211430D02*
X55937533Y41173334D01*
X55937533Y41173334D02*
X55747057Y41173334D01*
X55747057Y41173334D02*
X55594676Y41211430D01*
X55594676Y41211430D02*
X55518485Y41249525D01*
X55518485Y41249525D02*
X55480390Y41287620D01*
X55480390Y41287620D02*
X55442295Y41363811D01*
X11837319Y8398096D02*
X12837319Y9064762D01*
X11837319Y9064762D02*
X12837319Y8398096D01*
X12742080Y10017143D02*
X12789700Y9969524D01*
X12789700Y9969524D02*
X12837319Y9826667D01*
X12837319Y9826667D02*
X12837319Y9731429D01*
X12837319Y9731429D02*
X12789700Y9588572D01*
X12789700Y9588572D02*
X12694461Y9493334D01*
X12694461Y9493334D02*
X12599223Y9445715D01*
X12599223Y9445715D02*
X12408747Y9398096D01*
X12408747Y9398096D02*
X12265890Y9398096D01*
X12265890Y9398096D02*
X12075414Y9445715D01*
X12075414Y9445715D02*
X11980176Y9493334D01*
X11980176Y9493334D02*
X11884938Y9588572D01*
X11884938Y9588572D02*
X11837319Y9731429D01*
X11837319Y9731429D02*
X11837319Y9826667D01*
X11837319Y9826667D02*
X11884938Y9969524D01*
X11884938Y9969524D02*
X11932557Y10017143D01*
X11837319Y10302858D02*
X12837319Y10636191D01*
X12837319Y10636191D02*
X11837319Y10969524D01*
X12837319Y11874286D02*
X12361128Y11540953D01*
X12837319Y11302858D02*
X11837319Y11302858D01*
X11837319Y11302858D02*
X11837319Y11683810D01*
X11837319Y11683810D02*
X11884938Y11779048D01*
X11884938Y11779048D02*
X11932557Y11826667D01*
X11932557Y11826667D02*
X12027795Y11874286D01*
X12027795Y11874286D02*
X12170652Y11874286D01*
X12170652Y11874286D02*
X12265890Y11826667D01*
X12265890Y11826667D02*
X12313509Y11779048D01*
X12313509Y11779048D02*
X12361128Y11683810D01*
X12361128Y11683810D02*
X12361128Y11302858D01*
X10932319Y7945715D02*
X10456128Y7612382D01*
X10932319Y7374287D02*
X9932319Y7374287D01*
X9932319Y7374287D02*
X9932319Y7755239D01*
X9932319Y7755239D02*
X9979938Y7850477D01*
X9979938Y7850477D02*
X10027557Y7898096D01*
X10027557Y7898096D02*
X10122795Y7945715D01*
X10122795Y7945715D02*
X10265652Y7945715D01*
X10265652Y7945715D02*
X10360890Y7898096D01*
X10360890Y7898096D02*
X10408509Y7850477D01*
X10408509Y7850477D02*
X10456128Y7755239D01*
X10456128Y7755239D02*
X10456128Y7374287D01*
X10884700Y8326668D02*
X10932319Y8469525D01*
X10932319Y8469525D02*
X10932319Y8707620D01*
X10932319Y8707620D02*
X10884700Y8802858D01*
X10884700Y8802858D02*
X10837080Y8850477D01*
X10837080Y8850477D02*
X10741842Y8898096D01*
X10741842Y8898096D02*
X10646604Y8898096D01*
X10646604Y8898096D02*
X10551366Y8850477D01*
X10551366Y8850477D02*
X10503747Y8802858D01*
X10503747Y8802858D02*
X10456128Y8707620D01*
X10456128Y8707620D02*
X10408509Y8517144D01*
X10408509Y8517144D02*
X10360890Y8421906D01*
X10360890Y8421906D02*
X10313271Y8374287D01*
X10313271Y8374287D02*
X10218033Y8326668D01*
X10218033Y8326668D02*
X10122795Y8326668D01*
X10122795Y8326668D02*
X10027557Y8374287D01*
X10027557Y8374287D02*
X9979938Y8421906D01*
X9979938Y8421906D02*
X9932319Y8517144D01*
X9932319Y8517144D02*
X9932319Y8755239D01*
X9932319Y8755239D02*
X9979938Y8898096D01*
X10551366Y9326668D02*
X10551366Y10088572D01*
X10265652Y10993334D02*
X10932319Y10993334D01*
X9884700Y10755239D02*
X10598985Y10517144D01*
X10598985Y10517144D02*
X10598985Y11136191D01*
X10360890Y11660001D02*
X10313271Y11564763D01*
X10313271Y11564763D02*
X10265652Y11517144D01*
X10265652Y11517144D02*
X10170414Y11469525D01*
X10170414Y11469525D02*
X10122795Y11469525D01*
X10122795Y11469525D02*
X10027557Y11517144D01*
X10027557Y11517144D02*
X9979938Y11564763D01*
X9979938Y11564763D02*
X9932319Y11660001D01*
X9932319Y11660001D02*
X9932319Y11850477D01*
X9932319Y11850477D02*
X9979938Y11945715D01*
X9979938Y11945715D02*
X10027557Y11993334D01*
X10027557Y11993334D02*
X10122795Y12040953D01*
X10122795Y12040953D02*
X10170414Y12040953D01*
X10170414Y12040953D02*
X10265652Y11993334D01*
X10265652Y11993334D02*
X10313271Y11945715D01*
X10313271Y11945715D02*
X10360890Y11850477D01*
X10360890Y11850477D02*
X10360890Y11660001D01*
X10360890Y11660001D02*
X10408509Y11564763D01*
X10408509Y11564763D02*
X10456128Y11517144D01*
X10456128Y11517144D02*
X10551366Y11469525D01*
X10551366Y11469525D02*
X10741842Y11469525D01*
X10741842Y11469525D02*
X10837080Y11517144D01*
X10837080Y11517144D02*
X10884700Y11564763D01*
X10884700Y11564763D02*
X10932319Y11660001D01*
X10932319Y11660001D02*
X10932319Y11850477D01*
X10932319Y11850477D02*
X10884700Y11945715D01*
X10884700Y11945715D02*
X10837080Y11993334D01*
X10837080Y11993334D02*
X10741842Y12040953D01*
X10741842Y12040953D02*
X10551366Y12040953D01*
X10551366Y12040953D02*
X10456128Y11993334D01*
X10456128Y11993334D02*
X10408509Y11945715D01*
X10408509Y11945715D02*
X10360890Y11850477D01*
X9932319Y12945715D02*
X9932319Y12469525D01*
X9932319Y12469525D02*
X10408509Y12421906D01*
X10408509Y12421906D02*
X10360890Y12469525D01*
X10360890Y12469525D02*
X10313271Y12564763D01*
X10313271Y12564763D02*
X10313271Y12802858D01*
X10313271Y12802858D02*
X10360890Y12898096D01*
X10360890Y12898096D02*
X10408509Y12945715D01*
X10408509Y12945715D02*
X10503747Y12993334D01*
X10503747Y12993334D02*
X10741842Y12993334D01*
X10741842Y12993334D02*
X10837080Y12945715D01*
X10837080Y12945715D02*
X10884700Y12898096D01*
X10884700Y12898096D02*
X10932319Y12802858D01*
X10932319Y12802858D02*
X10932319Y12564763D01*
X10932319Y12564763D02*
X10884700Y12469525D01*
X10884700Y12469525D02*
X10837080Y12421906D01*
X9158866Y25344049D02*
X9158866Y26105953D01*
X9539819Y25725001D02*
X8777914Y25725001D01*
G36*
X9275547Y19939951D02*
G01*
X9352534Y19901457D01*
X9426648Y19827344D01*
X9464819Y19712831D01*
X9464819Y19561906D01*
X8614819Y19561906D01*
X8614819Y19712831D01*
X8652990Y19827345D01*
X8727103Y19901457D01*
X8804090Y19939951D01*
X8977624Y19983334D01*
X9102013Y19983334D01*
X9275547Y19939951D01*
G37*
G36*
X9757676Y17173811D02*
G01*
X8321962Y17173811D01*
X8321962Y17725001D01*
X8464819Y17725001D01*
X8465379Y17723463D01*
X8468668Y17701284D01*
X8516287Y17558427D01*
X8519074Y17554915D01*
X8519465Y17550448D01*
X8534405Y17529111D01*
X8629643Y17433873D01*
X8631124Y17433183D01*
X8649135Y17419824D01*
X8744373Y17372205D01*
X8747901Y17371799D01*
X8759724Y17366526D01*
X8950200Y17318907D01*
X8953648Y17319268D01*
X8968390Y17316668D01*
X9111247Y17316668D01*
X9114504Y17317854D01*
X9129437Y17318907D01*
X9319913Y17366526D01*
X9322857Y17368515D01*
X9335264Y17372205D01*
X9430502Y17419824D01*
X9431625Y17421011D01*
X9449994Y17433873D01*
X9545233Y17529111D01*
X9547128Y17533176D01*
X9550948Y17535522D01*
X9563351Y17558427D01*
X9610970Y17701283D01*
X9610925Y17702919D01*
X9614819Y17725001D01*
X9614819Y17820239D01*
X9614259Y17821777D01*
X9610970Y17843957D01*
X9563351Y17986813D01*
X9560563Y17990325D01*
X9560173Y17994793D01*
X9545232Y18016130D01*
X9497612Y18063749D01*
X9482774Y18070668D01*
X9470232Y18081192D01*
X9454104Y18084036D01*
X9451116Y18085429D01*
X9449165Y18084907D01*
X9444580Y18085715D01*
X9111247Y18085715D01*
X9092938Y18079052D01*
X9073747Y18075667D01*
X9069396Y18070483D01*
X9063038Y18068168D01*
X9053295Y18051295D01*
X9040770Y18036367D01*
X9039052Y18026625D01*
X9037386Y18023739D01*
X9037964Y18020457D01*
X9036247Y18010715D01*
X9036247Y17820239D01*
X9053794Y17772030D01*
X9098223Y17746378D01*
X9148747Y17755287D01*
X9181724Y17794587D01*
X9186247Y17820239D01*
X9186247Y17935715D01*
X9413514Y17935715D01*
X9426648Y17922582D01*
X9464819Y17808069D01*
X9464819Y17737171D01*
X9426648Y17622659D01*
X9352534Y17548546D01*
X9275547Y17510052D01*
X9102013Y17466668D01*
X8977624Y17466668D01*
X8804090Y17510052D01*
X8727103Y17548545D01*
X8652990Y17622658D01*
X8614819Y17737172D01*
X8614819Y17850153D01*
X8654520Y17929555D01*
X8660385Y17980521D01*
X8632119Y18023334D01*
X8582944Y18037961D01*
X8535873Y18017558D01*
X8520356Y17996637D01*
X8472737Y17901399D01*
X8472224Y17896946D01*
X8469342Y17893510D01*
X8464819Y17867858D01*
X8464819Y17725001D01*
X8321962Y17725001D01*
X8321962Y18452311D01*
X8465958Y18452311D01*
X8469314Y18433278D01*
X8469228Y18413950D01*
X8473662Y18408617D01*
X8474867Y18401787D01*
X8489673Y18389363D01*
X8502030Y18374503D01*
X8508853Y18373269D01*
X8514167Y18368810D01*
X8539819Y18364287D01*
X9539819Y18364287D01*
X9588028Y18381834D01*
X9613680Y18426263D01*
X9604771Y18476787D01*
X9565471Y18509764D01*
X9539819Y18514287D01*
X8822236Y18514287D01*
X9577030Y18945597D01*
X9581511Y18950891D01*
X9588028Y18953262D01*
X9597691Y18970000D01*
X9610181Y18984750D01*
X9610211Y18991685D01*
X9613680Y18997691D01*
X9610323Y19016725D01*
X9610410Y19036052D01*
X9605975Y19041386D01*
X9604771Y19048215D01*
X9589964Y19060640D01*
X9577608Y19075499D01*
X9570784Y19076734D01*
X9565471Y19081192D01*
X9539819Y19085715D01*
X8539819Y19085715D01*
X8491610Y19068168D01*
X8465958Y19023739D01*
X8474867Y18973215D01*
X8514167Y18940238D01*
X8539819Y18935715D01*
X9257402Y18935715D01*
X8502609Y18504405D01*
X8498127Y18499113D01*
X8491610Y18496740D01*
X8481945Y18480001D01*
X8469457Y18465252D01*
X8469426Y18458318D01*
X8465958Y18452311D01*
X8321962Y18452311D01*
X8321962Y19486906D01*
X8464819Y19486906D01*
X8471482Y19468598D01*
X8474867Y19449406D01*
X8480051Y19445056D01*
X8482366Y19438697D01*
X8499239Y19428955D01*
X8514167Y19416429D01*
X8523909Y19414712D01*
X8526795Y19413045D01*
X8530077Y19413624D01*
X8539819Y19411906D01*
X9539819Y19411906D01*
X9558127Y19418570D01*
X9577319Y19421954D01*
X9581669Y19427139D01*
X9588028Y19429453D01*
X9597770Y19446327D01*
X9610296Y19461254D01*
X9612013Y19470997D01*
X9613680Y19473882D01*
X9613101Y19477165D01*
X9614819Y19486906D01*
X9614819Y19725001D01*
X9614259Y19726539D01*
X9610970Y19748719D01*
X9563351Y19891575D01*
X9560564Y19895086D01*
X9560174Y19899554D01*
X9545233Y19920891D01*
X9449994Y20016129D01*
X9448512Y20016820D01*
X9430502Y20030178D01*
X9335264Y20077797D01*
X9331735Y20078204D01*
X9319913Y20083476D01*
X9129437Y20131095D01*
X9125988Y20130735D01*
X9111247Y20133334D01*
X8968390Y20133334D01*
X8965132Y20132149D01*
X8950200Y20131095D01*
X8759724Y20083476D01*
X8756779Y20081488D01*
X8744373Y20077797D01*
X8649135Y20030178D01*
X8648011Y20028992D01*
X8629643Y20016129D01*
X8534405Y19920891D01*
X8532510Y19916828D01*
X8528689Y19914480D01*
X8516287Y19891575D01*
X8468668Y19748718D01*
X8468712Y19747084D01*
X8464819Y19725001D01*
X8464819Y19486906D01*
X8321962Y19486906D01*
X8321962Y20276191D01*
X9757676Y20276191D01*
X9757676Y17173811D01*
G37*
X9158866Y21844049D02*
X9158866Y22605953D01*
X52902295Y39611429D02*
X52902295Y40106667D01*
X52902295Y40106667D02*
X53207057Y39840001D01*
X53207057Y39840001D02*
X53207057Y39954286D01*
X53207057Y39954286D02*
X53245152Y40030477D01*
X53245152Y40030477D02*
X53283247Y40068572D01*
X53283247Y40068572D02*
X53359438Y40106667D01*
X53359438Y40106667D02*
X53549914Y40106667D01*
X53549914Y40106667D02*
X53626104Y40068572D01*
X53626104Y40068572D02*
X53664200Y40030477D01*
X53664200Y40030477D02*
X53702295Y39954286D01*
X53702295Y39954286D02*
X53702295Y39725715D01*
X53702295Y39725715D02*
X53664200Y39649524D01*
X53664200Y39649524D02*
X53626104Y39611429D01*
X52902295Y40373334D02*
X52902295Y40868572D01*
X52902295Y40868572D02*
X53207057Y40601906D01*
X53207057Y40601906D02*
X53207057Y40716191D01*
X53207057Y40716191D02*
X53245152Y40792382D01*
X53245152Y40792382D02*
X53283247Y40830477D01*
X53283247Y40830477D02*
X53359438Y40868572D01*
X53359438Y40868572D02*
X53549914Y40868572D01*
X53549914Y40868572D02*
X53626104Y40830477D01*
X53626104Y40830477D02*
X53664200Y40792382D01*
X53664200Y40792382D02*
X53702295Y40716191D01*
X53702295Y40716191D02*
X53702295Y40487620D01*
X53702295Y40487620D02*
X53664200Y40411429D01*
X53664200Y40411429D02*
X53626104Y40373334D01*
X52902295Y41363811D02*
X52902295Y41440001D01*
X52902295Y41440001D02*
X52940390Y41516192D01*
X52940390Y41516192D02*
X52978485Y41554287D01*
X52978485Y41554287D02*
X53054676Y41592382D01*
X53054676Y41592382D02*
X53207057Y41630477D01*
X53207057Y41630477D02*
X53397533Y41630477D01*
X53397533Y41630477D02*
X53549914Y41592382D01*
X53549914Y41592382D02*
X53626104Y41554287D01*
X53626104Y41554287D02*
X53664200Y41516192D01*
X53664200Y41516192D02*
X53702295Y41440001D01*
X53702295Y41440001D02*
X53702295Y41363811D01*
X53702295Y41363811D02*
X53664200Y41287620D01*
X53664200Y41287620D02*
X53626104Y41249525D01*
X53626104Y41249525D02*
X53549914Y41211430D01*
X53549914Y41211430D02*
X53397533Y41173334D01*
X53397533Y41173334D02*
X53207057Y41173334D01*
X53207057Y41173334D02*
X53054676Y41211430D01*
X53054676Y41211430D02*
X52978485Y41249525D01*
X52978485Y41249525D02*
X52940390Y41287620D01*
X52940390Y41287620D02*
X52902295Y41363811D01*
X57982295Y39611429D02*
X57982295Y40106667D01*
X57982295Y40106667D02*
X58287057Y39840001D01*
X58287057Y39840001D02*
X58287057Y39954286D01*
X58287057Y39954286D02*
X58325152Y40030477D01*
X58325152Y40030477D02*
X58363247Y40068572D01*
X58363247Y40068572D02*
X58439438Y40106667D01*
X58439438Y40106667D02*
X58629914Y40106667D01*
X58629914Y40106667D02*
X58706104Y40068572D01*
X58706104Y40068572D02*
X58744200Y40030477D01*
X58744200Y40030477D02*
X58782295Y39954286D01*
X58782295Y39954286D02*
X58782295Y39725715D01*
X58782295Y39725715D02*
X58744200Y39649524D01*
X58744200Y39649524D02*
X58706104Y39611429D01*
X57982295Y40373334D02*
X57982295Y40868572D01*
X57982295Y40868572D02*
X58287057Y40601906D01*
X58287057Y40601906D02*
X58287057Y40716191D01*
X58287057Y40716191D02*
X58325152Y40792382D01*
X58325152Y40792382D02*
X58363247Y40830477D01*
X58363247Y40830477D02*
X58439438Y40868572D01*
X58439438Y40868572D02*
X58629914Y40868572D01*
X58629914Y40868572D02*
X58706104Y40830477D01*
X58706104Y40830477D02*
X58744200Y40792382D01*
X58744200Y40792382D02*
X58782295Y40716191D01*
X58782295Y40716191D02*
X58782295Y40487620D01*
X58782295Y40487620D02*
X58744200Y40411429D01*
X58744200Y40411429D02*
X58706104Y40373334D01*
X57982295Y41363811D02*
X57982295Y41440001D01*
X57982295Y41440001D02*
X58020390Y41516192D01*
X58020390Y41516192D02*
X58058485Y41554287D01*
X58058485Y41554287D02*
X58134676Y41592382D01*
X58134676Y41592382D02*
X58287057Y41630477D01*
X58287057Y41630477D02*
X58477533Y41630477D01*
X58477533Y41630477D02*
X58629914Y41592382D01*
X58629914Y41592382D02*
X58706104Y41554287D01*
X58706104Y41554287D02*
X58744200Y41516192D01*
X58744200Y41516192D02*
X58782295Y41440001D01*
X58782295Y41440001D02*
X58782295Y41363811D01*
X58782295Y41363811D02*
X58744200Y41287620D01*
X58744200Y41287620D02*
X58706104Y41249525D01*
X58706104Y41249525D02*
X58629914Y41211430D01*
X58629914Y41211430D02*
X58477533Y41173334D01*
X58477533Y41173334D02*
X58287057Y41173334D01*
X58287057Y41173334D02*
X58134676Y41211430D01*
X58134676Y41211430D02*
X58058485Y41249525D01*
X58058485Y41249525D02*
X58020390Y41287620D01*
X58020390Y41287620D02*
X57982295Y41363811D01*
X40509819Y26847970D02*
X40509819Y26371780D01*
X40509819Y26371780D02*
X39509819Y26371780D01*
X39509819Y27086066D02*
X39509819Y27705113D01*
X39509819Y27705113D02*
X39890771Y27371780D01*
X39890771Y27371780D02*
X39890771Y27514637D01*
X39890771Y27514637D02*
X39938390Y27609875D01*
X39938390Y27609875D02*
X39986009Y27657494D01*
X39986009Y27657494D02*
X40081247Y27705113D01*
X40081247Y27705113D02*
X40319342Y27705113D01*
X40319342Y27705113D02*
X40414580Y27657494D01*
X40414580Y27657494D02*
X40462200Y27609875D01*
X40462200Y27609875D02*
X40509819Y27514637D01*
X40509819Y27514637D02*
X40509819Y27228923D01*
X40509819Y27228923D02*
X40462200Y27133685D01*
X40462200Y27133685D02*
X40414580Y27086066D01*
X28394819Y32575715D02*
X27394819Y32575715D01*
X27871009Y32575715D02*
X27871009Y33147143D01*
X28394819Y33147143D02*
X27394819Y33147143D01*
X28109104Y33575715D02*
X28109104Y34051905D01*
X28394819Y33480477D02*
X27394819Y33813810D01*
X27394819Y33813810D02*
X28394819Y34147143D01*
X28394819Y35051905D02*
X27918628Y34718572D01*
X28394819Y34480477D02*
X27394819Y34480477D01*
X27394819Y34480477D02*
X27394819Y34861429D01*
X27394819Y34861429D02*
X27442438Y34956667D01*
X27442438Y34956667D02*
X27490057Y35004286D01*
X27490057Y35004286D02*
X27585295Y35051905D01*
X27585295Y35051905D02*
X27728152Y35051905D01*
X27728152Y35051905D02*
X27823390Y35004286D01*
X27823390Y35004286D02*
X27871009Y34956667D01*
X27871009Y34956667D02*
X27918628Y34861429D01*
X27918628Y34861429D02*
X27918628Y34480477D01*
X28394819Y35480477D02*
X27394819Y35480477D01*
X27394819Y35480477D02*
X27394819Y35718572D01*
X27394819Y35718572D02*
X27442438Y35861429D01*
X27442438Y35861429D02*
X27537676Y35956667D01*
X27537676Y35956667D02*
X27632914Y36004286D01*
X27632914Y36004286D02*
X27823390Y36051905D01*
X27823390Y36051905D02*
X27966247Y36051905D01*
X27966247Y36051905D02*
X28156723Y36004286D01*
X28156723Y36004286D02*
X28251961Y35956667D01*
X28251961Y35956667D02*
X28347200Y35861429D01*
X28347200Y35861429D02*
X28394819Y35718572D01*
X28394819Y35718572D02*
X28394819Y35480477D01*
G36*
X25873963Y34347409D02*
G01*
X25904370Y34317002D01*
X25938628Y34248486D01*
X25938628Y33960239D01*
X25564819Y33960239D01*
X25564819Y34248486D01*
X25599077Y34317002D01*
X25629484Y34347409D01*
X25698000Y34381667D01*
X25805447Y34381667D01*
X25873963Y34347409D01*
G37*
G36*
X26129104Y35417867D02*
G01*
X25726989Y35551905D01*
X26129104Y35685944D01*
X26129104Y35417867D01*
G37*
G36*
X26707676Y31762620D02*
G01*
X25271962Y31762620D01*
X25271962Y32170953D01*
X25414819Y32170953D01*
X25416352Y32166740D01*
X25415311Y32162379D01*
X25422737Y32137412D01*
X25470356Y32042174D01*
X25471545Y32041049D01*
X25484405Y32022682D01*
X25532024Y31975063D01*
X25533505Y31974372D01*
X25551516Y31961014D01*
X25646754Y31913395D01*
X25651207Y31912883D01*
X25654643Y31910000D01*
X25680295Y31905477D01*
X25775533Y31905477D01*
X25779746Y31907011D01*
X25784107Y31905969D01*
X25809074Y31913395D01*
X25904312Y31961014D01*
X25905437Y31962204D01*
X25923804Y31975063D01*
X25971423Y32022682D01*
X25972114Y32024164D01*
X25985472Y32042174D01*
X26033091Y32137412D01*
X26033497Y32140941D01*
X26038770Y32152763D01*
X26084392Y32335253D01*
X26122886Y32412240D01*
X26153293Y32442647D01*
X26221809Y32476905D01*
X26281637Y32476905D01*
X26350153Y32442647D01*
X26380561Y32412240D01*
X26414819Y32343724D01*
X26414819Y32135504D01*
X26371049Y32004194D01*
X26372450Y31952910D01*
X26406487Y31914525D01*
X26457236Y31907000D01*
X26500948Y31933855D01*
X26513351Y31956760D01*
X26560970Y32099616D01*
X26560925Y32101252D01*
X26564819Y32123334D01*
X26564819Y32361429D01*
X26563285Y32365643D01*
X26564327Y32370004D01*
X26556901Y32394970D01*
X26509282Y32490208D01*
X26508094Y32491333D01*
X26495232Y32509701D01*
X26447612Y32557320D01*
X26446129Y32558012D01*
X26428121Y32571368D01*
X26332883Y32618987D01*
X26328429Y32619500D01*
X26324994Y32622382D01*
X26299342Y32626905D01*
X26204104Y32626905D01*
X26199890Y32625372D01*
X26195529Y32626413D01*
X26170563Y32618987D01*
X26075325Y32571368D01*
X26074199Y32570179D01*
X26055833Y32557319D01*
X26008214Y32509700D01*
X26007523Y32508219D01*
X25994165Y32490208D01*
X25946546Y32394970D01*
X25946139Y32391442D01*
X25940867Y32379619D01*
X25895244Y32197129D01*
X25856751Y32120142D01*
X25826344Y32089735D01*
X25757828Y32055477D01*
X25698000Y32055477D01*
X25629484Y32089735D01*
X25599077Y32120142D01*
X25564819Y32188658D01*
X25564819Y32396878D01*
X25608589Y32528187D01*
X25607188Y32579471D01*
X25573150Y32617857D01*
X25522402Y32625382D01*
X25478689Y32598527D01*
X25466287Y32575622D01*
X25418668Y32432765D01*
X25418712Y32431131D01*
X25414819Y32409048D01*
X25414819Y32170953D01*
X25271962Y32170953D01*
X25271962Y32980477D01*
X25414819Y32980477D01*
X25421482Y32962169D01*
X25424867Y32942977D01*
X25430051Y32938627D01*
X25432366Y32932268D01*
X25449239Y32922526D01*
X25464167Y32910000D01*
X25473909Y32908283D01*
X25476795Y32906616D01*
X25480077Y32907195D01*
X25489819Y32905477D01*
X26489819Y32905477D01*
X26508127Y32912141D01*
X26527319Y32915525D01*
X26531669Y32920710D01*
X26538028Y32923024D01*
X26547770Y32939898D01*
X26560296Y32954825D01*
X26562013Y32964568D01*
X26563680Y32967453D01*
X26563101Y32970736D01*
X26564819Y32980477D01*
X26564819Y33456667D01*
X26547272Y33504876D01*
X26502843Y33530528D01*
X26452319Y33521619D01*
X26419342Y33482319D01*
X26414819Y33456667D01*
X26414819Y33055477D01*
X26041009Y33055477D01*
X26041009Y33313810D01*
X26023462Y33362019D01*
X25979033Y33387671D01*
X25928509Y33378762D01*
X25895532Y33339462D01*
X25891009Y33313810D01*
X25891009Y33055477D01*
X25564819Y33055477D01*
X25564819Y33456667D01*
X25547272Y33504876D01*
X25502843Y33530528D01*
X25452319Y33521619D01*
X25419342Y33482319D01*
X25414819Y33456667D01*
X25414819Y32980477D01*
X25271962Y32980477D01*
X25271962Y33885239D01*
X25414819Y33885239D01*
X25421482Y33866931D01*
X25424867Y33847739D01*
X25430051Y33843389D01*
X25432366Y33837030D01*
X25449239Y33827288D01*
X25464167Y33814762D01*
X25473909Y33813045D01*
X25476795Y33811378D01*
X25480077Y33811957D01*
X25489819Y33810239D01*
X26489819Y33810239D01*
X26538028Y33827786D01*
X26563680Y33872215D01*
X26554771Y33922739D01*
X26515471Y33955716D01*
X26489819Y33960239D01*
X26088628Y33960239D01*
X26088628Y34084285D01*
X26532829Y34395225D01*
X26562261Y34437246D01*
X26557797Y34488354D01*
X26521525Y34524636D01*
X26470418Y34529115D01*
X26446810Y34518110D01*
X26088282Y34267141D01*
X26087094Y34270405D01*
X26088136Y34274766D01*
X26080710Y34299732D01*
X26033091Y34394970D01*
X26031901Y34396096D01*
X26019042Y34414462D01*
X25971423Y34462081D01*
X25969941Y34462772D01*
X25951931Y34476130D01*
X25856693Y34523749D01*
X25852239Y34524262D01*
X25848804Y34527144D01*
X25823152Y34531667D01*
X25680295Y34531667D01*
X25676081Y34530134D01*
X25671720Y34531175D01*
X25646754Y34523749D01*
X25551516Y34476130D01*
X25550390Y34474941D01*
X25532024Y34462081D01*
X25484405Y34414462D01*
X25483714Y34412981D01*
X25470356Y34394970D01*
X25422737Y34299732D01*
X25422224Y34295279D01*
X25419342Y34291843D01*
X25414819Y34266191D01*
X25414819Y33885239D01*
X25271962Y33885239D01*
X25271962Y34898263D01*
X25415958Y34898263D01*
X25424867Y34847739D01*
X25464167Y34814762D01*
X25489819Y34810239D01*
X26489819Y34810239D01*
X26538028Y34827786D01*
X26563680Y34872215D01*
X26554771Y34922739D01*
X26515471Y34955716D01*
X26489819Y34960239D01*
X25489819Y34960239D01*
X25441610Y34942692D01*
X25415958Y34898263D01*
X25271962Y34898263D01*
X25271962Y35540904D01*
X25415630Y35540904D01*
X25416658Y35539005D01*
X25416342Y35536869D01*
X25428760Y35516656D01*
X25440059Y35495790D01*
X25442066Y35494997D01*
X25443197Y35493157D01*
X25466102Y35480754D01*
X26466102Y35147421D01*
X26517385Y35148822D01*
X26555771Y35182860D01*
X26563296Y35233608D01*
X26536441Y35277321D01*
X26513536Y35289723D01*
X26279104Y35367867D01*
X26279104Y35735944D01*
X26513536Y35814087D01*
X26553722Y35845978D01*
X26564008Y35896239D01*
X26539579Y35941353D01*
X26491867Y35960210D01*
X26466102Y35956389D01*
X25466102Y35623056D01*
X25464410Y35621714D01*
X25462252Y35621655D01*
X25444490Y35605906D01*
X25425916Y35591165D01*
X25425483Y35589052D01*
X25423867Y35587618D01*
X25420386Y35564148D01*
X25415630Y35540904D01*
X25271962Y35540904D01*
X25271962Y36231596D01*
X25415958Y36231596D01*
X25424867Y36181072D01*
X25464167Y36148095D01*
X25489819Y36143572D01*
X26489819Y36143572D01*
X26508127Y36150236D01*
X26527319Y36153620D01*
X26531669Y36158805D01*
X26538028Y36161119D01*
X26547770Y36177993D01*
X26560296Y36192920D01*
X26562013Y36202663D01*
X26563680Y36205548D01*
X26563101Y36208831D01*
X26564819Y36218572D01*
X26564819Y36694762D01*
X26547272Y36742971D01*
X26502843Y36768623D01*
X26452319Y36759714D01*
X26419342Y36720414D01*
X26414819Y36694762D01*
X26414819Y36293572D01*
X25489819Y36293572D01*
X25441610Y36276025D01*
X25415958Y36231596D01*
X25271962Y36231596D01*
X25271962Y36911480D01*
X26707676Y36911480D01*
X26707676Y31762620D01*
G37*
X24537200Y32670953D02*
X24584819Y32813810D01*
X24584819Y32813810D02*
X24584819Y33051905D01*
X24584819Y33051905D02*
X24537200Y33147143D01*
X24537200Y33147143D02*
X24489580Y33194762D01*
X24489580Y33194762D02*
X24394342Y33242381D01*
X24394342Y33242381D02*
X24299104Y33242381D01*
X24299104Y33242381D02*
X24203866Y33194762D01*
X24203866Y33194762D02*
X24156247Y33147143D01*
X24156247Y33147143D02*
X24108628Y33051905D01*
X24108628Y33051905D02*
X24061009Y32861429D01*
X24061009Y32861429D02*
X24013390Y32766191D01*
X24013390Y32766191D02*
X23965771Y32718572D01*
X23965771Y32718572D02*
X23870533Y32670953D01*
X23870533Y32670953D02*
X23775295Y32670953D01*
X23775295Y32670953D02*
X23680057Y32718572D01*
X23680057Y32718572D02*
X23632438Y32766191D01*
X23632438Y32766191D02*
X23584819Y32861429D01*
X23584819Y32861429D02*
X23584819Y33099524D01*
X23584819Y33099524D02*
X23632438Y33242381D01*
X23584819Y33861429D02*
X23584819Y34051905D01*
X23584819Y34051905D02*
X23632438Y34147143D01*
X23632438Y34147143D02*
X23727676Y34242381D01*
X23727676Y34242381D02*
X23918152Y34290000D01*
X23918152Y34290000D02*
X24251485Y34290000D01*
X24251485Y34290000D02*
X24441961Y34242381D01*
X24441961Y34242381D02*
X24537200Y34147143D01*
X24537200Y34147143D02*
X24584819Y34051905D01*
X24584819Y34051905D02*
X24584819Y33861429D01*
X24584819Y33861429D02*
X24537200Y33766191D01*
X24537200Y33766191D02*
X24441961Y33670953D01*
X24441961Y33670953D02*
X24251485Y33623334D01*
X24251485Y33623334D02*
X23918152Y33623334D01*
X23918152Y33623334D02*
X23727676Y33670953D01*
X23727676Y33670953D02*
X23632438Y33766191D01*
X23632438Y33766191D02*
X23584819Y33861429D01*
X24061009Y35051905D02*
X24061009Y34718572D01*
X24584819Y34718572D02*
X23584819Y34718572D01*
X23584819Y34718572D02*
X23584819Y35194762D01*
X23584819Y35432858D02*
X23584819Y36004286D01*
X24584819Y35718572D02*
X23584819Y35718572D01*
X52524819Y14549524D02*
X52524819Y13978096D01*
X52524819Y14263810D02*
X51524819Y14263810D01*
X51524819Y14263810D02*
X51667676Y14168572D01*
X51667676Y14168572D02*
X51762914Y14073334D01*
X51762914Y14073334D02*
X51810533Y13978096D01*
X51524819Y15168572D02*
X51524819Y15263810D01*
X51524819Y15263810D02*
X51572438Y15359048D01*
X51572438Y15359048D02*
X51620057Y15406667D01*
X51620057Y15406667D02*
X51715295Y15454286D01*
X51715295Y15454286D02*
X51905771Y15501905D01*
X51905771Y15501905D02*
X52143866Y15501905D01*
X52143866Y15501905D02*
X52334342Y15454286D01*
X52334342Y15454286D02*
X52429580Y15406667D01*
X52429580Y15406667D02*
X52477200Y15359048D01*
X52477200Y15359048D02*
X52524819Y15263810D01*
X52524819Y15263810D02*
X52524819Y15168572D01*
X52524819Y15168572D02*
X52477200Y15073334D01*
X52477200Y15073334D02*
X52429580Y15025715D01*
X52429580Y15025715D02*
X52334342Y14978096D01*
X52334342Y14978096D02*
X52143866Y14930477D01*
X52143866Y14930477D02*
X51905771Y14930477D01*
X51905771Y14930477D02*
X51715295Y14978096D01*
X51715295Y14978096D02*
X51620057Y15025715D01*
X51620057Y15025715D02*
X51572438Y15073334D01*
X51572438Y15073334D02*
X51524819Y15168572D01*
X52524819Y15930477D02*
X51524819Y15930477D01*
X52524819Y16501905D02*
X51953390Y16073334D01*
X51524819Y16501905D02*
X52096247Y15930477D01*
X46859819Y17481780D02*
X45859819Y17481780D01*
X45859819Y17481780D02*
X45859819Y17862732D01*
X45859819Y17862732D02*
X45907438Y17957970D01*
X45907438Y17957970D02*
X45955057Y18005589D01*
X45955057Y18005589D02*
X46050295Y18053208D01*
X46050295Y18053208D02*
X46193152Y18053208D01*
X46193152Y18053208D02*
X46288390Y18005589D01*
X46288390Y18005589D02*
X46336009Y17957970D01*
X46336009Y17957970D02*
X46383628Y17862732D01*
X46383628Y17862732D02*
X46383628Y17481780D01*
X45859819Y18672256D02*
X45859819Y18862732D01*
X45859819Y18862732D02*
X45907438Y18957970D01*
X45907438Y18957970D02*
X46002676Y19053208D01*
X46002676Y19053208D02*
X46193152Y19100827D01*
X46193152Y19100827D02*
X46526485Y19100827D01*
X46526485Y19100827D02*
X46716961Y19053208D01*
X46716961Y19053208D02*
X46812200Y18957970D01*
X46812200Y18957970D02*
X46859819Y18862732D01*
X46859819Y18862732D02*
X46859819Y18672256D01*
X46859819Y18672256D02*
X46812200Y18577018D01*
X46812200Y18577018D02*
X46716961Y18481780D01*
X46716961Y18481780D02*
X46526485Y18434161D01*
X46526485Y18434161D02*
X46193152Y18434161D01*
X46193152Y18434161D02*
X46002676Y18481780D01*
X46002676Y18481780D02*
X45907438Y18577018D01*
X45907438Y18577018D02*
X45859819Y18672256D01*
X45859819Y19386542D02*
X45859819Y19957970D01*
X46859819Y19672256D02*
X45859819Y19672256D01*
X46859819Y20815113D02*
X46859819Y20243685D01*
X46859819Y20529399D02*
X45859819Y20529399D01*
X45859819Y20529399D02*
X46002676Y20434161D01*
X46002676Y20434161D02*
X46097914Y20338923D01*
X46097914Y20338923D02*
X46145533Y20243685D01*
X40509819Y20497970D02*
X40509819Y20021780D01*
X40509819Y20021780D02*
X39509819Y20021780D01*
X39605057Y20783685D02*
X39557438Y20831304D01*
X39557438Y20831304D02*
X39509819Y20926542D01*
X39509819Y20926542D02*
X39509819Y21164637D01*
X39509819Y21164637D02*
X39557438Y21259875D01*
X39557438Y21259875D02*
X39605057Y21307494D01*
X39605057Y21307494D02*
X39700295Y21355113D01*
X39700295Y21355113D02*
X39795533Y21355113D01*
X39795533Y21355113D02*
X39938390Y21307494D01*
X39938390Y21307494D02*
X40509819Y20736066D01*
X40509819Y20736066D02*
X40509819Y21355113D01*
X50362295Y39611429D02*
X50362295Y40106667D01*
X50362295Y40106667D02*
X50667057Y39840001D01*
X50667057Y39840001D02*
X50667057Y39954286D01*
X50667057Y39954286D02*
X50705152Y40030477D01*
X50705152Y40030477D02*
X50743247Y40068572D01*
X50743247Y40068572D02*
X50819438Y40106667D01*
X50819438Y40106667D02*
X51009914Y40106667D01*
X51009914Y40106667D02*
X51086104Y40068572D01*
X51086104Y40068572D02*
X51124200Y40030477D01*
X51124200Y40030477D02*
X51162295Y39954286D01*
X51162295Y39954286D02*
X51162295Y39725715D01*
X51162295Y39725715D02*
X51124200Y39649524D01*
X51124200Y39649524D02*
X51086104Y39611429D01*
X50362295Y40373334D02*
X50362295Y40868572D01*
X50362295Y40868572D02*
X50667057Y40601906D01*
X50667057Y40601906D02*
X50667057Y40716191D01*
X50667057Y40716191D02*
X50705152Y40792382D01*
X50705152Y40792382D02*
X50743247Y40830477D01*
X50743247Y40830477D02*
X50819438Y40868572D01*
X50819438Y40868572D02*
X51009914Y40868572D01*
X51009914Y40868572D02*
X51086104Y40830477D01*
X51086104Y40830477D02*
X51124200Y40792382D01*
X51124200Y40792382D02*
X51162295Y40716191D01*
X51162295Y40716191D02*
X51162295Y40487620D01*
X51162295Y40487620D02*
X51124200Y40411429D01*
X51124200Y40411429D02*
X51086104Y40373334D01*
X50362295Y41363811D02*
X50362295Y41440001D01*
X50362295Y41440001D02*
X50400390Y41516192D01*
X50400390Y41516192D02*
X50438485Y41554287D01*
X50438485Y41554287D02*
X50514676Y41592382D01*
X50514676Y41592382D02*
X50667057Y41630477D01*
X50667057Y41630477D02*
X50857533Y41630477D01*
X50857533Y41630477D02*
X51009914Y41592382D01*
X51009914Y41592382D02*
X51086104Y41554287D01*
X51086104Y41554287D02*
X51124200Y41516192D01*
X51124200Y41516192D02*
X51162295Y41440001D01*
X51162295Y41440001D02*
X51162295Y41363811D01*
X51162295Y41363811D02*
X51124200Y41287620D01*
X51124200Y41287620D02*
X51086104Y41249525D01*
X51086104Y41249525D02*
X51009914Y41211430D01*
X51009914Y41211430D02*
X50857533Y41173334D01*
X50857533Y41173334D02*
X50667057Y41173334D01*
X50667057Y41173334D02*
X50514676Y41211430D01*
X50514676Y41211430D02*
X50438485Y41249525D01*
X50438485Y41249525D02*
X50400390Y41287620D01*
X50400390Y41287620D02*
X50362295Y41363811D01*
X33159819Y26228923D02*
X33159819Y26800351D01*
X34159819Y26514637D02*
X33159819Y26514637D01*
X33159819Y27038447D02*
X34159819Y27705113D01*
X33159819Y27705113D02*
X34159819Y27038447D01*
X34159819Y33293208D02*
X33683628Y32959875D01*
X34159819Y32721780D02*
X33159819Y32721780D01*
X33159819Y32721780D02*
X33159819Y33102732D01*
X33159819Y33102732D02*
X33207438Y33197970D01*
X33207438Y33197970D02*
X33255057Y33245589D01*
X33255057Y33245589D02*
X33350295Y33293208D01*
X33350295Y33293208D02*
X33493152Y33293208D01*
X33493152Y33293208D02*
X33588390Y33245589D01*
X33588390Y33245589D02*
X33636009Y33197970D01*
X33636009Y33197970D02*
X33683628Y33102732D01*
X33683628Y33102732D02*
X33683628Y32721780D01*
X33159819Y33626542D02*
X34159819Y34293208D01*
X33159819Y34293208D02*
X34159819Y33626542D01*
X38462295Y40087619D02*
X38462295Y39630476D01*
X38462295Y39859048D02*
X37662295Y39859048D01*
X37662295Y39859048D02*
X37776580Y39782857D01*
X37776580Y39782857D02*
X37852771Y39706667D01*
X37852771Y39706667D02*
X37890866Y39630476D01*
X37662295Y40582858D02*
X37662295Y40659048D01*
X37662295Y40659048D02*
X37700390Y40735239D01*
X37700390Y40735239D02*
X37738485Y40773334D01*
X37738485Y40773334D02*
X37814676Y40811429D01*
X37814676Y40811429D02*
X37967057Y40849524D01*
X37967057Y40849524D02*
X38157533Y40849524D01*
X38157533Y40849524D02*
X38309914Y40811429D01*
X38309914Y40811429D02*
X38386104Y40773334D01*
X38386104Y40773334D02*
X38424200Y40735239D01*
X38424200Y40735239D02*
X38462295Y40659048D01*
X38462295Y40659048D02*
X38462295Y40582858D01*
X38462295Y40582858D02*
X38424200Y40506667D01*
X38424200Y40506667D02*
X38386104Y40468572D01*
X38386104Y40468572D02*
X38309914Y40430477D01*
X38309914Y40430477D02*
X38157533Y40392381D01*
X38157533Y40392381D02*
X37967057Y40392381D01*
X37967057Y40392381D02*
X37814676Y40430477D01*
X37814676Y40430477D02*
X37738485Y40468572D01*
X37738485Y40468572D02*
X37700390Y40506667D01*
X37700390Y40506667D02*
X37662295Y40582858D01*
X38462295Y41192382D02*
X37662295Y41192382D01*
X38462295Y41649525D02*
X38005152Y41306667D01*
X37662295Y41649525D02*
X38119438Y41192382D01*
X52524819Y27249524D02*
X52524819Y26678096D01*
X52524819Y26963810D02*
X51524819Y26963810D01*
X51524819Y26963810D02*
X51667676Y26868572D01*
X51667676Y26868572D02*
X51762914Y26773334D01*
X51762914Y26773334D02*
X51810533Y26678096D01*
X51524819Y27868572D02*
X51524819Y27963810D01*
X51524819Y27963810D02*
X51572438Y28059048D01*
X51572438Y28059048D02*
X51620057Y28106667D01*
X51620057Y28106667D02*
X51715295Y28154286D01*
X51715295Y28154286D02*
X51905771Y28201905D01*
X51905771Y28201905D02*
X52143866Y28201905D01*
X52143866Y28201905D02*
X52334342Y28154286D01*
X52334342Y28154286D02*
X52429580Y28106667D01*
X52429580Y28106667D02*
X52477200Y28059048D01*
X52477200Y28059048D02*
X52524819Y27963810D01*
X52524819Y27963810D02*
X52524819Y27868572D01*
X52524819Y27868572D02*
X52477200Y27773334D01*
X52477200Y27773334D02*
X52429580Y27725715D01*
X52429580Y27725715D02*
X52334342Y27678096D01*
X52334342Y27678096D02*
X52143866Y27630477D01*
X52143866Y27630477D02*
X51905771Y27630477D01*
X51905771Y27630477D02*
X51715295Y27678096D01*
X51715295Y27678096D02*
X51620057Y27725715D01*
X51620057Y27725715D02*
X51572438Y27773334D01*
X51572438Y27773334D02*
X51524819Y27868572D01*
X52524819Y28630477D02*
X51524819Y28630477D01*
X52524819Y29201905D02*
X51953390Y28773334D01*
X51524819Y29201905D02*
X52096247Y28630477D01*
X46859819Y30181780D02*
X45859819Y30181780D01*
X45859819Y30181780D02*
X45859819Y30562732D01*
X45859819Y30562732D02*
X45907438Y30657970D01*
X45907438Y30657970D02*
X45955057Y30705589D01*
X45955057Y30705589D02*
X46050295Y30753208D01*
X46050295Y30753208D02*
X46193152Y30753208D01*
X46193152Y30753208D02*
X46288390Y30705589D01*
X46288390Y30705589D02*
X46336009Y30657970D01*
X46336009Y30657970D02*
X46383628Y30562732D01*
X46383628Y30562732D02*
X46383628Y30181780D01*
X45859819Y31372256D02*
X45859819Y31562732D01*
X45859819Y31562732D02*
X45907438Y31657970D01*
X45907438Y31657970D02*
X46002676Y31753208D01*
X46002676Y31753208D02*
X46193152Y31800827D01*
X46193152Y31800827D02*
X46526485Y31800827D01*
X46526485Y31800827D02*
X46716961Y31753208D01*
X46716961Y31753208D02*
X46812200Y31657970D01*
X46812200Y31657970D02*
X46859819Y31562732D01*
X46859819Y31562732D02*
X46859819Y31372256D01*
X46859819Y31372256D02*
X46812200Y31277018D01*
X46812200Y31277018D02*
X46716961Y31181780D01*
X46716961Y31181780D02*
X46526485Y31134161D01*
X46526485Y31134161D02*
X46193152Y31134161D01*
X46193152Y31134161D02*
X46002676Y31181780D01*
X46002676Y31181780D02*
X45907438Y31277018D01*
X45907438Y31277018D02*
X45859819Y31372256D01*
X45859819Y32086542D02*
X45859819Y32657970D01*
X46859819Y32372256D02*
X45859819Y32372256D01*
X45955057Y32943685D02*
X45907438Y32991304D01*
X45907438Y32991304D02*
X45859819Y33086542D01*
X45859819Y33086542D02*
X45859819Y33324637D01*
X45859819Y33324637D02*
X45907438Y33419875D01*
X45907438Y33419875D02*
X45955057Y33467494D01*
X45955057Y33467494D02*
X46050295Y33515113D01*
X46050295Y33515113D02*
X46145533Y33515113D01*
X46145533Y33515113D02*
X46288390Y33467494D01*
X46288390Y33467494D02*
X46859819Y32896066D01*
X46859819Y32896066D02*
X46859819Y33515113D01*
X40509819Y33197970D02*
X40509819Y32721780D01*
X40509819Y32721780D02*
X39509819Y32721780D01*
X39843152Y33959875D02*
X40509819Y33959875D01*
X39462200Y33721780D02*
X40176485Y33483685D01*
X40176485Y33483685D02*
X40176485Y34102732D01*
X45282295Y39611429D02*
X45282295Y40106667D01*
X45282295Y40106667D02*
X45587057Y39840001D01*
X45587057Y39840001D02*
X45587057Y39954286D01*
X45587057Y39954286D02*
X45625152Y40030477D01*
X45625152Y40030477D02*
X45663247Y40068572D01*
X45663247Y40068572D02*
X45739438Y40106667D01*
X45739438Y40106667D02*
X45929914Y40106667D01*
X45929914Y40106667D02*
X46006104Y40068572D01*
X46006104Y40068572D02*
X46044200Y40030477D01*
X46044200Y40030477D02*
X46082295Y39954286D01*
X46082295Y39954286D02*
X46082295Y39725715D01*
X46082295Y39725715D02*
X46044200Y39649524D01*
X46044200Y39649524D02*
X46006104Y39611429D01*
X45282295Y40373334D02*
X45282295Y40868572D01*
X45282295Y40868572D02*
X45587057Y40601906D01*
X45587057Y40601906D02*
X45587057Y40716191D01*
X45587057Y40716191D02*
X45625152Y40792382D01*
X45625152Y40792382D02*
X45663247Y40830477D01*
X45663247Y40830477D02*
X45739438Y40868572D01*
X45739438Y40868572D02*
X45929914Y40868572D01*
X45929914Y40868572D02*
X46006104Y40830477D01*
X46006104Y40830477D02*
X46044200Y40792382D01*
X46044200Y40792382D02*
X46082295Y40716191D01*
X46082295Y40716191D02*
X46082295Y40487620D01*
X46082295Y40487620D02*
X46044200Y40411429D01*
X46044200Y40411429D02*
X46006104Y40373334D01*
X45282295Y41363811D02*
X45282295Y41440001D01*
X45282295Y41440001D02*
X45320390Y41516192D01*
X45320390Y41516192D02*
X45358485Y41554287D01*
X45358485Y41554287D02*
X45434676Y41592382D01*
X45434676Y41592382D02*
X45587057Y41630477D01*
X45587057Y41630477D02*
X45777533Y41630477D01*
X45777533Y41630477D02*
X45929914Y41592382D01*
X45929914Y41592382D02*
X46006104Y41554287D01*
X46006104Y41554287D02*
X46044200Y41516192D01*
X46044200Y41516192D02*
X46082295Y41440001D01*
X46082295Y41440001D02*
X46082295Y41363811D01*
X46082295Y41363811D02*
X46044200Y41287620D01*
X46044200Y41287620D02*
X46006104Y41249525D01*
X46006104Y41249525D02*
X45929914Y41211430D01*
X45929914Y41211430D02*
X45777533Y41173334D01*
X45777533Y41173334D02*
X45587057Y41173334D01*
X45587057Y41173334D02*
X45434676Y41211430D01*
X45434676Y41211430D02*
X45358485Y41249525D01*
X45358485Y41249525D02*
X45320390Y41287620D01*
X45320390Y41287620D02*
X45282295Y41363811D01*
X42742295Y39611429D02*
X42742295Y40106667D01*
X42742295Y40106667D02*
X43047057Y39840001D01*
X43047057Y39840001D02*
X43047057Y39954286D01*
X43047057Y39954286D02*
X43085152Y40030477D01*
X43085152Y40030477D02*
X43123247Y40068572D01*
X43123247Y40068572D02*
X43199438Y40106667D01*
X43199438Y40106667D02*
X43389914Y40106667D01*
X43389914Y40106667D02*
X43466104Y40068572D01*
X43466104Y40068572D02*
X43504200Y40030477D01*
X43504200Y40030477D02*
X43542295Y39954286D01*
X43542295Y39954286D02*
X43542295Y39725715D01*
X43542295Y39725715D02*
X43504200Y39649524D01*
X43504200Y39649524D02*
X43466104Y39611429D01*
X42742295Y40373334D02*
X42742295Y40868572D01*
X42742295Y40868572D02*
X43047057Y40601906D01*
X43047057Y40601906D02*
X43047057Y40716191D01*
X43047057Y40716191D02*
X43085152Y40792382D01*
X43085152Y40792382D02*
X43123247Y40830477D01*
X43123247Y40830477D02*
X43199438Y40868572D01*
X43199438Y40868572D02*
X43389914Y40868572D01*
X43389914Y40868572D02*
X43466104Y40830477D01*
X43466104Y40830477D02*
X43504200Y40792382D01*
X43504200Y40792382D02*
X43542295Y40716191D01*
X43542295Y40716191D02*
X43542295Y40487620D01*
X43542295Y40487620D02*
X43504200Y40411429D01*
X43504200Y40411429D02*
X43466104Y40373334D01*
X42742295Y41363811D02*
X42742295Y41440001D01*
X42742295Y41440001D02*
X42780390Y41516192D01*
X42780390Y41516192D02*
X42818485Y41554287D01*
X42818485Y41554287D02*
X42894676Y41592382D01*
X42894676Y41592382D02*
X43047057Y41630477D01*
X43047057Y41630477D02*
X43237533Y41630477D01*
X43237533Y41630477D02*
X43389914Y41592382D01*
X43389914Y41592382D02*
X43466104Y41554287D01*
X43466104Y41554287D02*
X43504200Y41516192D01*
X43504200Y41516192D02*
X43542295Y41440001D01*
X43542295Y41440001D02*
X43542295Y41363811D01*
X43542295Y41363811D02*
X43504200Y41287620D01*
X43504200Y41287620D02*
X43466104Y41249525D01*
X43466104Y41249525D02*
X43389914Y41211430D01*
X43389914Y41211430D02*
X43237533Y41173334D01*
X43237533Y41173334D02*
X43047057Y41173334D01*
X43047057Y41173334D02*
X42894676Y41211430D01*
X42894676Y41211430D02*
X42818485Y41249525D01*
X42818485Y41249525D02*
X42780390Y41287620D01*
X42780390Y41287620D02*
X42742295Y41363811D01*
X12469819Y47847619D02*
X11993628Y47514286D01*
X12469819Y47276191D02*
X11469819Y47276191D01*
X11469819Y47276191D02*
X11469819Y47657143D01*
X11469819Y47657143D02*
X11517438Y47752381D01*
X11517438Y47752381D02*
X11565057Y47800000D01*
X11565057Y47800000D02*
X11660295Y47847619D01*
X11660295Y47847619D02*
X11803152Y47847619D01*
X11803152Y47847619D02*
X11898390Y47800000D01*
X11898390Y47800000D02*
X11946009Y47752381D01*
X11946009Y47752381D02*
X11993628Y47657143D01*
X11993628Y47657143D02*
X11993628Y47276191D01*
X11946009Y48276191D02*
X11946009Y48609524D01*
X12469819Y48752381D02*
X12469819Y48276191D01*
X12469819Y48276191D02*
X11469819Y48276191D01*
X11469819Y48276191D02*
X11469819Y48752381D01*
X12422200Y49133334D02*
X12469819Y49276191D01*
X12469819Y49276191D02*
X12469819Y49514286D01*
X12469819Y49514286D02*
X12422200Y49609524D01*
X12422200Y49609524D02*
X12374580Y49657143D01*
X12374580Y49657143D02*
X12279342Y49704762D01*
X12279342Y49704762D02*
X12184104Y49704762D01*
X12184104Y49704762D02*
X12088866Y49657143D01*
X12088866Y49657143D02*
X12041247Y49609524D01*
X12041247Y49609524D02*
X11993628Y49514286D01*
X11993628Y49514286D02*
X11946009Y49323810D01*
X11946009Y49323810D02*
X11898390Y49228572D01*
X11898390Y49228572D02*
X11850771Y49180953D01*
X11850771Y49180953D02*
X11755533Y49133334D01*
X11755533Y49133334D02*
X11660295Y49133334D01*
X11660295Y49133334D02*
X11565057Y49180953D01*
X11565057Y49180953D02*
X11517438Y49228572D01*
X11517438Y49228572D02*
X11469819Y49323810D01*
X11469819Y49323810D02*
X11469819Y49561905D01*
X11469819Y49561905D02*
X11517438Y49704762D01*
X11946009Y50133334D02*
X11946009Y50466667D01*
X12469819Y50609524D02*
X12469819Y50133334D01*
X12469819Y50133334D02*
X11469819Y50133334D01*
X11469819Y50133334D02*
X11469819Y50609524D01*
X11469819Y50895239D02*
X11469819Y51466667D01*
X12469819Y51180953D02*
X11469819Y51180953D01*
X23314819Y15820000D02*
X22838628Y15486667D01*
X23314819Y15248572D02*
X22314819Y15248572D01*
X22314819Y15248572D02*
X22314819Y15629524D01*
X22314819Y15629524D02*
X22362438Y15724762D01*
X22362438Y15724762D02*
X22410057Y15772381D01*
X22410057Y15772381D02*
X22505295Y15820000D01*
X22505295Y15820000D02*
X22648152Y15820000D01*
X22648152Y15820000D02*
X22743390Y15772381D01*
X22743390Y15772381D02*
X22791009Y15724762D01*
X22791009Y15724762D02*
X22838628Y15629524D01*
X22838628Y15629524D02*
X22838628Y15248572D01*
X23267200Y16200953D02*
X23314819Y16343810D01*
X23314819Y16343810D02*
X23314819Y16581905D01*
X23314819Y16581905D02*
X23267200Y16677143D01*
X23267200Y16677143D02*
X23219580Y16724762D01*
X23219580Y16724762D02*
X23124342Y16772381D01*
X23124342Y16772381D02*
X23029104Y16772381D01*
X23029104Y16772381D02*
X22933866Y16724762D01*
X22933866Y16724762D02*
X22886247Y16677143D01*
X22886247Y16677143D02*
X22838628Y16581905D01*
X22838628Y16581905D02*
X22791009Y16391429D01*
X22791009Y16391429D02*
X22743390Y16296191D01*
X22743390Y16296191D02*
X22695771Y16248572D01*
X22695771Y16248572D02*
X22600533Y16200953D01*
X22600533Y16200953D02*
X22505295Y16200953D01*
X22505295Y16200953D02*
X22410057Y16248572D01*
X22410057Y16248572D02*
X22362438Y16296191D01*
X22362438Y16296191D02*
X22314819Y16391429D01*
X22314819Y16391429D02*
X22314819Y16629524D01*
X22314819Y16629524D02*
X22362438Y16772381D01*
X22933866Y17200953D02*
X22933866Y17962857D01*
X22410057Y18391429D02*
X22362438Y18439048D01*
X22362438Y18439048D02*
X22314819Y18534286D01*
X22314819Y18534286D02*
X22314819Y18772381D01*
X22314819Y18772381D02*
X22362438Y18867619D01*
X22362438Y18867619D02*
X22410057Y18915238D01*
X22410057Y18915238D02*
X22505295Y18962857D01*
X22505295Y18962857D02*
X22600533Y18962857D01*
X22600533Y18962857D02*
X22743390Y18915238D01*
X22743390Y18915238D02*
X23314819Y18343810D01*
X23314819Y18343810D02*
X23314819Y18962857D01*
X22314819Y19296191D02*
X22314819Y19915238D01*
X22314819Y19915238D02*
X22695771Y19581905D01*
X22695771Y19581905D02*
X22695771Y19724762D01*
X22695771Y19724762D02*
X22743390Y19820000D01*
X22743390Y19820000D02*
X22791009Y19867619D01*
X22791009Y19867619D02*
X22886247Y19915238D01*
X22886247Y19915238D02*
X23124342Y19915238D01*
X23124342Y19915238D02*
X23219580Y19867619D01*
X23219580Y19867619D02*
X23267200Y19820000D01*
X23267200Y19820000D02*
X23314819Y19724762D01*
X23314819Y19724762D02*
X23314819Y19439048D01*
X23314819Y19439048D02*
X23267200Y19343810D01*
X23267200Y19343810D02*
X23219580Y19296191D01*
X22410057Y20296191D02*
X22362438Y20343810D01*
X22362438Y20343810D02*
X22314819Y20439048D01*
X22314819Y20439048D02*
X22314819Y20677143D01*
X22314819Y20677143D02*
X22362438Y20772381D01*
X22362438Y20772381D02*
X22410057Y20820000D01*
X22410057Y20820000D02*
X22505295Y20867619D01*
X22505295Y20867619D02*
X22600533Y20867619D01*
X22600533Y20867619D02*
X22743390Y20820000D01*
X22743390Y20820000D02*
X23314819Y20248572D01*
X23314819Y20248572D02*
X23314819Y20867619D01*
X22314819Y21962858D02*
X23314819Y22629524D01*
X22314819Y22629524D02*
X23314819Y21962858D01*
X23219580Y23581905D02*
X23267200Y23534286D01*
X23267200Y23534286D02*
X23314819Y23391429D01*
X23314819Y23391429D02*
X23314819Y23296191D01*
X23314819Y23296191D02*
X23267200Y23153334D01*
X23267200Y23153334D02*
X23171961Y23058096D01*
X23171961Y23058096D02*
X23076723Y23010477D01*
X23076723Y23010477D02*
X22886247Y22962858D01*
X22886247Y22962858D02*
X22743390Y22962858D01*
X22743390Y22962858D02*
X22552914Y23010477D01*
X22552914Y23010477D02*
X22457676Y23058096D01*
X22457676Y23058096D02*
X22362438Y23153334D01*
X22362438Y23153334D02*
X22314819Y23296191D01*
X22314819Y23296191D02*
X22314819Y23391429D01*
X22314819Y23391429D02*
X22362438Y23534286D01*
X22362438Y23534286D02*
X22410057Y23581905D01*
X22314819Y23867620D02*
X23314819Y24200953D01*
X23314819Y24200953D02*
X22314819Y24534286D01*
X23314819Y25439048D02*
X22838628Y25105715D01*
X23314819Y24867620D02*
X22314819Y24867620D01*
X22314819Y24867620D02*
X22314819Y25248572D01*
X22314819Y25248572D02*
X22362438Y25343810D01*
X22362438Y25343810D02*
X22410057Y25391429D01*
X22410057Y25391429D02*
X22505295Y25439048D01*
X22505295Y25439048D02*
X22648152Y25439048D01*
X22648152Y25439048D02*
X22743390Y25391429D01*
X22743390Y25391429D02*
X22791009Y25343810D01*
X22791009Y25343810D02*
X22838628Y25248572D01*
X22838628Y25248572D02*
X22838628Y24867620D01*
X40202295Y39611429D02*
X40202295Y40106667D01*
X40202295Y40106667D02*
X40507057Y39840001D01*
X40507057Y39840001D02*
X40507057Y39954286D01*
X40507057Y39954286D02*
X40545152Y40030477D01*
X40545152Y40030477D02*
X40583247Y40068572D01*
X40583247Y40068572D02*
X40659438Y40106667D01*
X40659438Y40106667D02*
X40849914Y40106667D01*
X40849914Y40106667D02*
X40926104Y40068572D01*
X40926104Y40068572D02*
X40964200Y40030477D01*
X40964200Y40030477D02*
X41002295Y39954286D01*
X41002295Y39954286D02*
X41002295Y39725715D01*
X41002295Y39725715D02*
X40964200Y39649524D01*
X40964200Y39649524D02*
X40926104Y39611429D01*
X40202295Y40373334D02*
X40202295Y40868572D01*
X40202295Y40868572D02*
X40507057Y40601906D01*
X40507057Y40601906D02*
X40507057Y40716191D01*
X40507057Y40716191D02*
X40545152Y40792382D01*
X40545152Y40792382D02*
X40583247Y40830477D01*
X40583247Y40830477D02*
X40659438Y40868572D01*
X40659438Y40868572D02*
X40849914Y40868572D01*
X40849914Y40868572D02*
X40926104Y40830477D01*
X40926104Y40830477D02*
X40964200Y40792382D01*
X40964200Y40792382D02*
X41002295Y40716191D01*
X41002295Y40716191D02*
X41002295Y40487620D01*
X41002295Y40487620D02*
X40964200Y40411429D01*
X40964200Y40411429D02*
X40926104Y40373334D01*
X40202295Y41363811D02*
X40202295Y41440001D01*
X40202295Y41440001D02*
X40240390Y41516192D01*
X40240390Y41516192D02*
X40278485Y41554287D01*
X40278485Y41554287D02*
X40354676Y41592382D01*
X40354676Y41592382D02*
X40507057Y41630477D01*
X40507057Y41630477D02*
X40697533Y41630477D01*
X40697533Y41630477D02*
X40849914Y41592382D01*
X40849914Y41592382D02*
X40926104Y41554287D01*
X40926104Y41554287D02*
X40964200Y41516192D01*
X40964200Y41516192D02*
X41002295Y41440001D01*
X41002295Y41440001D02*
X41002295Y41363811D01*
X41002295Y41363811D02*
X40964200Y41287620D01*
X40964200Y41287620D02*
X40926104Y41249525D01*
X40926104Y41249525D02*
X40849914Y41211430D01*
X40849914Y41211430D02*
X40697533Y41173334D01*
X40697533Y41173334D02*
X40507057Y41173334D01*
X40507057Y41173334D02*
X40354676Y41211430D01*
X40354676Y41211430D02*
X40278485Y41249525D01*
X40278485Y41249525D02*
X40240390Y41287620D01*
X40240390Y41287620D02*
X40202295Y41363811D01*
X40509819Y14147970D02*
X40509819Y13671780D01*
X40509819Y13671780D02*
X39509819Y13671780D01*
X40509819Y15005113D02*
X40509819Y14433685D01*
X40509819Y14719399D02*
X39509819Y14719399D01*
X39509819Y14719399D02*
X39652676Y14624161D01*
X39652676Y14624161D02*
X39747914Y14528923D01*
X39747914Y14528923D02*
X39795533Y14433685D01*
X47822295Y39611429D02*
X47822295Y40106667D01*
X47822295Y40106667D02*
X48127057Y39840001D01*
X48127057Y39840001D02*
X48127057Y39954286D01*
X48127057Y39954286D02*
X48165152Y40030477D01*
X48165152Y40030477D02*
X48203247Y40068572D01*
X48203247Y40068572D02*
X48279438Y40106667D01*
X48279438Y40106667D02*
X48469914Y40106667D01*
X48469914Y40106667D02*
X48546104Y40068572D01*
X48546104Y40068572D02*
X48584200Y40030477D01*
X48584200Y40030477D02*
X48622295Y39954286D01*
X48622295Y39954286D02*
X48622295Y39725715D01*
X48622295Y39725715D02*
X48584200Y39649524D01*
X48584200Y39649524D02*
X48546104Y39611429D01*
X47822295Y40373334D02*
X47822295Y40868572D01*
X47822295Y40868572D02*
X48127057Y40601906D01*
X48127057Y40601906D02*
X48127057Y40716191D01*
X48127057Y40716191D02*
X48165152Y40792382D01*
X48165152Y40792382D02*
X48203247Y40830477D01*
X48203247Y40830477D02*
X48279438Y40868572D01*
X48279438Y40868572D02*
X48469914Y40868572D01*
X48469914Y40868572D02*
X48546104Y40830477D01*
X48546104Y40830477D02*
X48584200Y40792382D01*
X48584200Y40792382D02*
X48622295Y40716191D01*
X48622295Y40716191D02*
X48622295Y40487620D01*
X48622295Y40487620D02*
X48584200Y40411429D01*
X48584200Y40411429D02*
X48546104Y40373334D01*
X47822295Y41363811D02*
X47822295Y41440001D01*
X47822295Y41440001D02*
X47860390Y41516192D01*
X47860390Y41516192D02*
X47898485Y41554287D01*
X47898485Y41554287D02*
X47974676Y41592382D01*
X47974676Y41592382D02*
X48127057Y41630477D01*
X48127057Y41630477D02*
X48317533Y41630477D01*
X48317533Y41630477D02*
X48469914Y41592382D01*
X48469914Y41592382D02*
X48546104Y41554287D01*
X48546104Y41554287D02*
X48584200Y41516192D01*
X48584200Y41516192D02*
X48622295Y41440001D01*
X48622295Y41440001D02*
X48622295Y41363811D01*
X48622295Y41363811D02*
X48584200Y41287620D01*
X48584200Y41287620D02*
X48546104Y41249525D01*
X48546104Y41249525D02*
X48469914Y41211430D01*
X48469914Y41211430D02*
X48317533Y41173334D01*
X48317533Y41173334D02*
X48127057Y41173334D01*
X48127057Y41173334D02*
X47974676Y41211430D01*
X47974676Y41211430D02*
X47898485Y41249525D01*
X47898485Y41249525D02*
X47860390Y41287620D01*
X47860390Y41287620D02*
X47822295Y41363811D01*
D11*
%TO.C,J3*%
X26356000Y1210000D02*
X47304000Y1210000D01*
X26356000Y1210000D02*
X26356000Y3870000D01*
X47304000Y1210000D02*
X47304000Y3870000D01*
X26356000Y3870000D02*
X47304000Y3870000D01*
%TO.C,J4*%
X49216000Y1210000D02*
X65084000Y1210000D01*
X49216000Y1210000D02*
X49216000Y3870000D01*
X65084000Y1210000D02*
X65084000Y3870000D01*
X49216000Y3870000D02*
X65084000Y3870000D01*
%TO.C,J2*%
X43240000Y52130000D02*
X17212000Y52130000D01*
X43240000Y52130000D02*
X43240000Y49470000D01*
X17212000Y52130000D02*
X17212000Y49470000D01*
X43240000Y49470000D02*
X17212000Y49470000D01*
%TO.C,J1*%
X65084000Y52130000D02*
X44136000Y52130000D01*
X65084000Y52130000D02*
X65084000Y49470000D01*
X44136000Y52130000D02*
X44136000Y49470000D01*
X65084000Y49470000D02*
X44136000Y49470000D01*
%TO.C,C2*%
X20245000Y9254801D02*
X20245000Y8854801D01*
X20445000Y9054801D02*
X20045000Y9054801D01*
X21130000Y6985000D02*
X19890000Y6985000D01*
X18210000Y6985000D02*
X16970000Y6985000D01*
X21130000Y6945000D02*
X19890000Y6945000D01*
X18210000Y6945000D02*
X16970000Y6945000D01*
X21129000Y6905000D02*
X19890000Y6905000D01*
X18210000Y6905000D02*
X16971000Y6905000D01*
X21127000Y6865000D02*
X19890000Y6865000D01*
X18210000Y6865000D02*
X16973000Y6865000D01*
X21124000Y6825000D02*
X19890000Y6825000D01*
X18210000Y6825000D02*
X16976000Y6825000D01*
X21121000Y6785000D02*
X19890000Y6785000D01*
X18210000Y6785000D02*
X16979000Y6785000D01*
X21117000Y6745000D02*
X19890000Y6745000D01*
X18210000Y6745000D02*
X16983000Y6745000D01*
X21112000Y6705000D02*
X19890000Y6705000D01*
X18210000Y6705000D02*
X16988000Y6705000D01*
X21106000Y6665000D02*
X19890000Y6665000D01*
X18210000Y6665000D02*
X16994000Y6665000D01*
X21100000Y6625000D02*
X19890000Y6625000D01*
X18210000Y6625000D02*
X17000000Y6625000D01*
X21092000Y6585000D02*
X19890000Y6585000D01*
X18210000Y6585000D02*
X17008000Y6585000D01*
X21084000Y6545000D02*
X19890000Y6545000D01*
X18210000Y6545000D02*
X17016000Y6545000D01*
X21075000Y6505000D02*
X19890000Y6505000D01*
X18210000Y6505000D02*
X17025000Y6505000D01*
X21066000Y6465000D02*
X19890000Y6465000D01*
X18210000Y6465000D02*
X17034000Y6465000D01*
X21055000Y6425000D02*
X19890000Y6425000D01*
X18210000Y6425000D02*
X17045000Y6425000D01*
X21044000Y6385000D02*
X19890000Y6385000D01*
X18210000Y6385000D02*
X17056000Y6385000D01*
X21032000Y6345000D02*
X19890000Y6345000D01*
X18210000Y6345000D02*
X17068000Y6345000D01*
X21018000Y6305000D02*
X19890000Y6305000D01*
X18210000Y6305000D02*
X17082000Y6305000D01*
X21004000Y6264000D02*
X19890000Y6264000D01*
X18210000Y6264000D02*
X17096000Y6264000D01*
X20990000Y6224000D02*
X19890000Y6224000D01*
X18210000Y6224000D02*
X17110000Y6224000D01*
X20974000Y6184000D02*
X19890000Y6184000D01*
X18210000Y6184000D02*
X17126000Y6184000D01*
X20957000Y6144000D02*
X19890000Y6144000D01*
X18210000Y6144000D02*
X17143000Y6144000D01*
X20939000Y6104000D02*
X19890000Y6104000D01*
X18210000Y6104000D02*
X17161000Y6104000D01*
X20920000Y6064000D02*
X19890000Y6064000D01*
X18210000Y6064000D02*
X17180000Y6064000D01*
X20901000Y6024000D02*
X19890000Y6024000D01*
X18210000Y6024000D02*
X17199000Y6024000D01*
X20880000Y5984000D02*
X19890000Y5984000D01*
X18210000Y5984000D02*
X17220000Y5984000D01*
X20858000Y5944000D02*
X19890000Y5944000D01*
X18210000Y5944000D02*
X17242000Y5944000D01*
X20835000Y5904000D02*
X19890000Y5904000D01*
X18210000Y5904000D02*
X17265000Y5904000D01*
X20810000Y5864000D02*
X19890000Y5864000D01*
X18210000Y5864000D02*
X17290000Y5864000D01*
X20785000Y5824000D02*
X19890000Y5824000D01*
X18210000Y5824000D02*
X17315000Y5824000D01*
X20758000Y5784000D02*
X19890000Y5784000D01*
X18210000Y5784000D02*
X17342000Y5784000D01*
X20730000Y5744000D02*
X19890000Y5744000D01*
X18210000Y5744000D02*
X17370000Y5744000D01*
X20700000Y5704000D02*
X19890000Y5704000D01*
X18210000Y5704000D02*
X17400000Y5704000D01*
X20669000Y5664000D02*
X19890000Y5664000D01*
X18210000Y5664000D02*
X17431000Y5664000D01*
X20637000Y5624000D02*
X19890000Y5624000D01*
X18210000Y5624000D02*
X17463000Y5624000D01*
X20602000Y5584000D02*
X19890000Y5584000D01*
X18210000Y5584000D02*
X17498000Y5584000D01*
X20566000Y5544000D02*
X19890000Y5544000D01*
X18210000Y5544000D02*
X17534000Y5544000D01*
X20528000Y5504000D02*
X19890000Y5504000D01*
X18210000Y5504000D02*
X17572000Y5504000D01*
X20488000Y5464000D02*
X19890000Y5464000D01*
X18210000Y5464000D02*
X17612000Y5464000D01*
X20446000Y5424000D02*
X19890000Y5424000D01*
X18210000Y5424000D02*
X17654000Y5424000D01*
X20401000Y5384000D02*
X17699000Y5384000D01*
X20354000Y5344000D02*
X17746000Y5344000D01*
X20304000Y5304000D02*
X17796000Y5304000D01*
X20250000Y5264000D02*
X17850000Y5264000D01*
X20192000Y5224000D02*
X17908000Y5224000D01*
X20130000Y5184000D02*
X17970000Y5184000D01*
X20063000Y5144000D02*
X18037000Y5144000D01*
X19990000Y5104000D02*
X18110000Y5104000D01*
X19909000Y5064000D02*
X18191000Y5064000D01*
X19818000Y5024000D02*
X18282000Y5024000D01*
X19714000Y4984000D02*
X18386000Y4984000D01*
X19587000Y4944000D02*
X18513000Y4944000D01*
X19420000Y4904000D02*
X18680000Y4904000D01*
X21170000Y6985000D02*
G75*
G03*
X21170000Y6985000I-2120000J0D01*
G01*
%TO.C,C4*%
X29285000Y10430199D02*
X29285000Y10830199D01*
X29085000Y10630199D02*
X29485000Y10630199D01*
X28400000Y12700000D02*
X29640000Y12700000D01*
X31320000Y12700000D02*
X32560000Y12700000D01*
X28400000Y12740000D02*
X29640000Y12740000D01*
X31320000Y12740000D02*
X32560000Y12740000D01*
X28401000Y12780000D02*
X29640000Y12780000D01*
X31320000Y12780000D02*
X32559000Y12780000D01*
X28403000Y12820000D02*
X29640000Y12820000D01*
X31320000Y12820000D02*
X32557000Y12820000D01*
X28406000Y12860000D02*
X29640000Y12860000D01*
X31320000Y12860000D02*
X32554000Y12860000D01*
X28409000Y12900000D02*
X29640000Y12900000D01*
X31320000Y12900000D02*
X32551000Y12900000D01*
X28413000Y12940000D02*
X29640000Y12940000D01*
X31320000Y12940000D02*
X32547000Y12940000D01*
X28418000Y12980000D02*
X29640000Y12980000D01*
X31320000Y12980000D02*
X32542000Y12980000D01*
X28424000Y13020000D02*
X29640000Y13020000D01*
X31320000Y13020000D02*
X32536000Y13020000D01*
X28430000Y13060000D02*
X29640000Y13060000D01*
X31320000Y13060000D02*
X32530000Y13060000D01*
X28438000Y13100000D02*
X29640000Y13100000D01*
X31320000Y13100000D02*
X32522000Y13100000D01*
X28446000Y13140000D02*
X29640000Y13140000D01*
X31320000Y13140000D02*
X32514000Y13140000D01*
X28455000Y13180000D02*
X29640000Y13180000D01*
X31320000Y13180000D02*
X32505000Y13180000D01*
X28464000Y13220000D02*
X29640000Y13220000D01*
X31320000Y13220000D02*
X32496000Y13220000D01*
X28475000Y13260000D02*
X29640000Y13260000D01*
X31320000Y13260000D02*
X32485000Y13260000D01*
X28486000Y13300000D02*
X29640000Y13300000D01*
X31320000Y13300000D02*
X32474000Y13300000D01*
X28498000Y13340000D02*
X29640000Y13340000D01*
X31320000Y13340000D02*
X32462000Y13340000D01*
X28512000Y13380000D02*
X29640000Y13380000D01*
X31320000Y13380000D02*
X32448000Y13380000D01*
X28526000Y13421000D02*
X29640000Y13421000D01*
X31320000Y13421000D02*
X32434000Y13421000D01*
X28540000Y13461000D02*
X29640000Y13461000D01*
X31320000Y13461000D02*
X32420000Y13461000D01*
X28556000Y13501000D02*
X29640000Y13501000D01*
X31320000Y13501000D02*
X32404000Y13501000D01*
X28573000Y13541000D02*
X29640000Y13541000D01*
X31320000Y13541000D02*
X32387000Y13541000D01*
X28591000Y13581000D02*
X29640000Y13581000D01*
X31320000Y13581000D02*
X32369000Y13581000D01*
X28610000Y13621000D02*
X29640000Y13621000D01*
X31320000Y13621000D02*
X32350000Y13621000D01*
X28629000Y13661000D02*
X29640000Y13661000D01*
X31320000Y13661000D02*
X32331000Y13661000D01*
X28650000Y13701000D02*
X29640000Y13701000D01*
X31320000Y13701000D02*
X32310000Y13701000D01*
X28672000Y13741000D02*
X29640000Y13741000D01*
X31320000Y13741000D02*
X32288000Y13741000D01*
X28695000Y13781000D02*
X29640000Y13781000D01*
X31320000Y13781000D02*
X32265000Y13781000D01*
X28720000Y13821000D02*
X29640000Y13821000D01*
X31320000Y13821000D02*
X32240000Y13821000D01*
X28745000Y13861000D02*
X29640000Y13861000D01*
X31320000Y13861000D02*
X32215000Y13861000D01*
X28772000Y13901000D02*
X29640000Y13901000D01*
X31320000Y13901000D02*
X32188000Y13901000D01*
X28800000Y13941000D02*
X29640000Y13941000D01*
X31320000Y13941000D02*
X32160000Y13941000D01*
X28830000Y13981000D02*
X29640000Y13981000D01*
X31320000Y13981000D02*
X32130000Y13981000D01*
X28861000Y14021000D02*
X29640000Y14021000D01*
X31320000Y14021000D02*
X32099000Y14021000D01*
X28893000Y14061000D02*
X29640000Y14061000D01*
X31320000Y14061000D02*
X32067000Y14061000D01*
X28928000Y14101000D02*
X29640000Y14101000D01*
X31320000Y14101000D02*
X32032000Y14101000D01*
X28964000Y14141000D02*
X29640000Y14141000D01*
X31320000Y14141000D02*
X31996000Y14141000D01*
X29002000Y14181000D02*
X29640000Y14181000D01*
X31320000Y14181000D02*
X31958000Y14181000D01*
X29042000Y14221000D02*
X29640000Y14221000D01*
X31320000Y14221000D02*
X31918000Y14221000D01*
X29084000Y14261000D02*
X29640000Y14261000D01*
X31320000Y14261000D02*
X31876000Y14261000D01*
X29129000Y14301000D02*
X31831000Y14301000D01*
X29176000Y14341000D02*
X31784000Y14341000D01*
X29226000Y14381000D02*
X31734000Y14381000D01*
X29280000Y14421000D02*
X31680000Y14421000D01*
X29338000Y14461000D02*
X31622000Y14461000D01*
X29400000Y14501000D02*
X31560000Y14501000D01*
X29467000Y14541000D02*
X31493000Y14541000D01*
X29540000Y14581000D02*
X31420000Y14581000D01*
X29621000Y14621000D02*
X31339000Y14621000D01*
X29712000Y14661000D02*
X31248000Y14661000D01*
X29816000Y14701000D02*
X31144000Y14701000D01*
X29943000Y14741000D02*
X31017000Y14741000D01*
X30110000Y14781000D02*
X30850000Y14781000D01*
X32600000Y12700000D02*
G75*
G03*
X32600000Y12700000I-2120000J0D01*
G01*
%TO.C,SW1*%
X63385000Y11740000D02*
X64885000Y11740000D01*
X67385000Y12990000D02*
X67385000Y17490000D01*
X60885000Y17490000D02*
X60885000Y12990000D01*
X64885000Y18740000D02*
X63385000Y18740000D01*
%TO.C,SW2*%
X63385000Y24440000D02*
X64885000Y24440000D01*
X67385000Y25690000D02*
X67385000Y30190000D01*
X60885000Y30190000D02*
X60885000Y25690000D01*
X64885000Y31440000D02*
X63385000Y31440000D01*
%TO.C,D5*%
X34635000Y13301000D02*
X34635000Y13145000D01*
X34635000Y10985000D02*
X34635000Y10829000D01*
X37867335Y13143608D02*
G75*
G03*
X34635000Y13300516I-1672335J-1078609D01*
G01*
X34635000Y10829484D02*
G75*
G03*
X37867335Y10986392I1560000J1235517D01*
G01*
%TO.C,D6*%
X34635000Y19651000D02*
X34635000Y19495000D01*
X34635000Y17335000D02*
X34635000Y17179000D01*
X37867335Y19493608D02*
G75*
G03*
X34635000Y19650516I-1672335J-1078609D01*
G01*
X34635000Y17179484D02*
G75*
G03*
X37867335Y17336392I1560000J1235517D01*
G01*
%TO.C,R2*%
X55880000Y43510000D02*
X55880000Y42560000D01*
X56800000Y42560000D02*
X54960000Y42560000D01*
X54960000Y42560000D02*
X54960000Y38720000D01*
X56800000Y38720000D02*
X56800000Y42560000D01*
X54960000Y38720000D02*
X56800000Y38720000D01*
X55880000Y37770000D02*
X55880000Y38720000D01*
%TO.C,U1*%
X16570000Y4960000D02*
X16570000Y15360000D01*
X16570000Y15360000D02*
X6290000Y15360000D01*
X14080000Y5020000D02*
X14080000Y15300000D01*
X14080000Y15300000D02*
X8780000Y15300000D01*
X12430000Y5020000D02*
X14080000Y5020000D01*
X8780000Y5020000D02*
X10430000Y5020000D01*
X8780000Y15300000D02*
X8780000Y5020000D01*
X6290000Y4960000D02*
X16570000Y4960000D01*
X6290000Y15360000D02*
X6290000Y4960000D01*
X12430000Y5020000D02*
G75*
G03*
X10430000Y5020000I-1000000J0D01*
G01*
%TO.C,D10*%
X33020000Y37870000D02*
X33020000Y38520000D01*
X31900000Y38520000D02*
X34140000Y38520000D01*
X34140000Y38520000D02*
X34140000Y42760000D01*
X31900000Y39120000D02*
X34140000Y39120000D01*
X31900000Y39240000D02*
X34140000Y39240000D01*
X31900000Y39360000D02*
X34140000Y39360000D01*
X31900000Y42760000D02*
X31900000Y38520000D01*
X34140000Y42760000D02*
X31900000Y42760000D01*
X33020000Y43410000D02*
X33020000Y42760000D01*
%TO.C,J5*%
X7260000Y28235000D02*
X0Y28235000D01*
X7260000Y28235000D02*
X7260000Y26775000D01*
X7260000Y24675000D02*
X7260000Y23275000D01*
X7260000Y21175000D02*
X7260000Y19775000D01*
X7260000Y16215000D02*
X7260000Y17675000D01*
X0Y16215000D02*
X7260000Y16215000D01*
%TO.C,R3*%
X53340000Y43510000D02*
X53340000Y42560000D01*
X54260000Y42560000D02*
X52420000Y42560000D01*
X52420000Y42560000D02*
X52420000Y38720000D01*
X54260000Y38720000D02*
X54260000Y42560000D01*
X52420000Y38720000D02*
X54260000Y38720000D01*
X53340000Y37770000D02*
X53340000Y38720000D01*
%TO.C,R1*%
X58420000Y43510000D02*
X58420000Y42560000D01*
X59340000Y42560000D02*
X57500000Y42560000D01*
X57500000Y42560000D02*
X57500000Y38720000D01*
X59340000Y38720000D02*
X59340000Y42560000D01*
X57500000Y38720000D02*
X59340000Y38720000D01*
X58420000Y37770000D02*
X58420000Y38720000D01*
%TO.C,D3*%
X40985000Y26001000D02*
X40985000Y25845000D01*
X40985000Y23685000D02*
X40985000Y23529000D01*
X44217335Y25843608D02*
G75*
G03*
X40985000Y26000516I-1672335J-1078609D01*
G01*
X40985000Y23529484D02*
G75*
G03*
X44217335Y23686392I1560000J1235517D01*
G01*
%TO.C,C6*%
X29285000Y20590199D02*
X29285000Y20990199D01*
X29085000Y20790199D02*
X29485000Y20790199D01*
X28400000Y22860000D02*
X29640000Y22860000D01*
X31320000Y22860000D02*
X32560000Y22860000D01*
X28400000Y22900000D02*
X29640000Y22900000D01*
X31320000Y22900000D02*
X32560000Y22900000D01*
X28401000Y22940000D02*
X29640000Y22940000D01*
X31320000Y22940000D02*
X32559000Y22940000D01*
X28403000Y22980000D02*
X29640000Y22980000D01*
X31320000Y22980000D02*
X32557000Y22980000D01*
X28406000Y23020000D02*
X29640000Y23020000D01*
X31320000Y23020000D02*
X32554000Y23020000D01*
X28409000Y23060000D02*
X29640000Y23060000D01*
X31320000Y23060000D02*
X32551000Y23060000D01*
X28413000Y23100000D02*
X29640000Y23100000D01*
X31320000Y23100000D02*
X32547000Y23100000D01*
X28418000Y23140000D02*
X29640000Y23140000D01*
X31320000Y23140000D02*
X32542000Y23140000D01*
X28424000Y23180000D02*
X29640000Y23180000D01*
X31320000Y23180000D02*
X32536000Y23180000D01*
X28430000Y23220000D02*
X29640000Y23220000D01*
X31320000Y23220000D02*
X32530000Y23220000D01*
X28438000Y23260000D02*
X29640000Y23260000D01*
X31320000Y23260000D02*
X32522000Y23260000D01*
X28446000Y23300000D02*
X29640000Y23300000D01*
X31320000Y23300000D02*
X32514000Y23300000D01*
X28455000Y23340000D02*
X29640000Y23340000D01*
X31320000Y23340000D02*
X32505000Y23340000D01*
X28464000Y23380000D02*
X29640000Y23380000D01*
X31320000Y23380000D02*
X32496000Y23380000D01*
X28475000Y23420000D02*
X29640000Y23420000D01*
X31320000Y23420000D02*
X32485000Y23420000D01*
X28486000Y23460000D02*
X29640000Y23460000D01*
X31320000Y23460000D02*
X32474000Y23460000D01*
X28498000Y23500000D02*
X29640000Y23500000D01*
X31320000Y23500000D02*
X32462000Y23500000D01*
X28512000Y23540000D02*
X29640000Y23540000D01*
X31320000Y23540000D02*
X32448000Y23540000D01*
X28526000Y23581000D02*
X29640000Y23581000D01*
X31320000Y23581000D02*
X32434000Y23581000D01*
X28540000Y23621000D02*
X29640000Y23621000D01*
X31320000Y23621000D02*
X32420000Y23621000D01*
X28556000Y23661000D02*
X29640000Y23661000D01*
X31320000Y23661000D02*
X32404000Y23661000D01*
X28573000Y23701000D02*
X29640000Y23701000D01*
X31320000Y23701000D02*
X32387000Y23701000D01*
X28591000Y23741000D02*
X29640000Y23741000D01*
X31320000Y23741000D02*
X32369000Y23741000D01*
X28610000Y23781000D02*
X29640000Y23781000D01*
X31320000Y23781000D02*
X32350000Y23781000D01*
X28629000Y23821000D02*
X29640000Y23821000D01*
X31320000Y23821000D02*
X32331000Y23821000D01*
X28650000Y23861000D02*
X29640000Y23861000D01*
X31320000Y23861000D02*
X32310000Y23861000D01*
X28672000Y23901000D02*
X29640000Y23901000D01*
X31320000Y23901000D02*
X32288000Y23901000D01*
X28695000Y23941000D02*
X29640000Y23941000D01*
X31320000Y23941000D02*
X32265000Y23941000D01*
X28720000Y23981000D02*
X29640000Y23981000D01*
X31320000Y23981000D02*
X32240000Y23981000D01*
X28745000Y24021000D02*
X29640000Y24021000D01*
X31320000Y24021000D02*
X32215000Y24021000D01*
X28772000Y24061000D02*
X29640000Y24061000D01*
X31320000Y24061000D02*
X32188000Y24061000D01*
X28800000Y24101000D02*
X29640000Y24101000D01*
X31320000Y24101000D02*
X32160000Y24101000D01*
X28830000Y24141000D02*
X29640000Y24141000D01*
X31320000Y24141000D02*
X32130000Y24141000D01*
X28861000Y24181000D02*
X29640000Y24181000D01*
X31320000Y24181000D02*
X32099000Y24181000D01*
X28893000Y24221000D02*
X29640000Y24221000D01*
X31320000Y24221000D02*
X32067000Y24221000D01*
X28928000Y24261000D02*
X29640000Y24261000D01*
X31320000Y24261000D02*
X32032000Y24261000D01*
X28964000Y24301000D02*
X29640000Y24301000D01*
X31320000Y24301000D02*
X31996000Y24301000D01*
X29002000Y24341000D02*
X29640000Y24341000D01*
X31320000Y24341000D02*
X31958000Y24341000D01*
X29042000Y24381000D02*
X29640000Y24381000D01*
X31320000Y24381000D02*
X31918000Y24381000D01*
X29084000Y24421000D02*
X29640000Y24421000D01*
X31320000Y24421000D02*
X31876000Y24421000D01*
X29129000Y24461000D02*
X31831000Y24461000D01*
X29176000Y24501000D02*
X31784000Y24501000D01*
X29226000Y24541000D02*
X31734000Y24541000D01*
X29280000Y24581000D02*
X31680000Y24581000D01*
X29338000Y24621000D02*
X31622000Y24621000D01*
X29400000Y24661000D02*
X31560000Y24661000D01*
X29467000Y24701000D02*
X31493000Y24701000D01*
X29540000Y24741000D02*
X31420000Y24741000D01*
X29621000Y24781000D02*
X31339000Y24781000D01*
X29712000Y24821000D02*
X31248000Y24821000D01*
X29816000Y24861000D02*
X31144000Y24861000D01*
X29943000Y24901000D02*
X31017000Y24901000D01*
X30110000Y24941000D02*
X30850000Y24941000D01*
X32600000Y22860000D02*
G75*
G03*
X32600000Y22860000I-2120000J0D01*
G01*
%TO.C,SW4*%
X30395000Y37180000D02*
X21675000Y37180000D01*
X30395000Y39140000D02*
X30395000Y37180000D01*
X30395000Y44100000D02*
X30395000Y42140000D01*
X21675000Y37180000D02*
X21675000Y39140000D01*
X21675000Y42140000D02*
X21675000Y44100000D01*
X21675000Y44100000D02*
X30395000Y44100000D01*
%TO.C,D9*%
X35560000Y37870000D02*
X35560000Y38520000D01*
X34440000Y38520000D02*
X36680000Y38520000D01*
X36680000Y38520000D02*
X36680000Y42760000D01*
X34440000Y39120000D02*
X36680000Y39120000D01*
X34440000Y39240000D02*
X36680000Y39240000D01*
X34440000Y39360000D02*
X36680000Y39360000D01*
X34440000Y42760000D02*
X34440000Y38520000D01*
X36680000Y42760000D02*
X34440000Y42760000D01*
X35560000Y43410000D02*
X35560000Y42760000D01*
%TO.C,RV1*%
X47065840Y13790010D02*
G75*
G03*
X55974300Y11790290I5004158J1449988D01*
G01*
X57172349Y14186380D02*
G75*
G03*
X57172349Y16293620I-5102354J1053620D01*
G01*
X55974299Y18689709D02*
G75*
G03*
X47065841Y16689990I-3904302J-3449705D01*
G01*
%TO.C,D11*%
X18415000Y41840000D02*
X18415000Y40820000D01*
X19885000Y40820000D02*
X16945000Y40820000D01*
X16945000Y40820000D02*
X16945000Y35380000D01*
X19885000Y40040000D02*
X16945000Y40040000D01*
X19885000Y39920000D02*
X16945000Y39920000D01*
X19885000Y39800000D02*
X16945000Y39800000D01*
X19885000Y35380000D02*
X19885000Y40820000D01*
X16945000Y35380000D02*
X19885000Y35380000D01*
X18415000Y34360000D02*
X18415000Y35380000D01*
%TO.C,D2*%
X40985000Y19651000D02*
X40985000Y19495000D01*
X40985000Y17335000D02*
X40985000Y17179000D01*
X44217335Y19493608D02*
G75*
G03*
X40985000Y19650516I-1672335J-1078609D01*
G01*
X40985000Y17179484D02*
G75*
G03*
X44217335Y17336392I1560000J1235517D01*
G01*
%TO.C,J6*%
X16260000Y44760000D02*
X16260000Y31440000D01*
X7180000Y44760000D02*
X16260000Y44760000D01*
X0Y44760000D02*
X4980000Y44760000D01*
D12*
X-1680000Y31500000D02*
X-1800000Y31500000D01*
X-1790000Y31500000D02*
X-1800000Y31500000D01*
D11*
X16260000Y31440000D02*
X7180000Y31440000D01*
X0Y31440000D02*
X4980000Y31440000D01*
%TO.C,R4*%
X50800000Y43510000D02*
X50800000Y42560000D01*
X51720000Y42560000D02*
X49880000Y42560000D01*
X49880000Y42560000D02*
X49880000Y38720000D01*
X51720000Y38720000D02*
X51720000Y42560000D01*
X49880000Y38720000D02*
X51720000Y38720000D01*
X50800000Y37770000D02*
X50800000Y38720000D01*
%TO.C,D7*%
X34635000Y26001000D02*
X34635000Y25845000D01*
X34635000Y23685000D02*
X34635000Y23529000D01*
X37867335Y25843608D02*
G75*
G03*
X34635000Y26000516I-1672335J-1078609D01*
G01*
X34635000Y23529484D02*
G75*
G03*
X37867335Y23686392I1560000J1235517D01*
G01*
%TO.C,D8*%
X34635000Y32351000D02*
X34635000Y32195000D01*
X34635000Y30035000D02*
X34635000Y29879000D01*
X37867335Y32193608D02*
G75*
G03*
X34635000Y32350516I-1672335J-1078609D01*
G01*
X34635000Y29879484D02*
G75*
G03*
X37867335Y30036392I1560000J1235517D01*
G01*
%TO.C,R9*%
X38100000Y37770000D02*
X38100000Y38720000D01*
X37180000Y38720000D02*
X39020000Y38720000D01*
X39020000Y38720000D02*
X39020000Y42560000D01*
X37180000Y42560000D02*
X37180000Y38720000D01*
X39020000Y42560000D02*
X37180000Y42560000D01*
X38100000Y43510000D02*
X38100000Y42560000D01*
%TO.C,RV2*%
X47065840Y26490010D02*
G75*
G03*
X55974300Y24490290I5004158J1449988D01*
G01*
X57172349Y26886380D02*
G75*
G03*
X57172349Y28993620I-5102354J1053620D01*
G01*
X55974299Y31389709D02*
G75*
G03*
X47065841Y29389990I-3904302J-3449705D01*
G01*
%TO.C,D4*%
X40985000Y32351000D02*
X40985000Y32195000D01*
X40985000Y30035000D02*
X40985000Y29879000D01*
X44217335Y32193608D02*
G75*
G03*
X40985000Y32350516I-1672335J-1078609D01*
G01*
X40985000Y29879484D02*
G75*
G03*
X44217335Y30036392I1560000J1235517D01*
G01*
%TO.C,C5*%
X29285000Y25670199D02*
X29285000Y26070199D01*
X29085000Y25870199D02*
X29485000Y25870199D01*
X28400000Y27940000D02*
X29640000Y27940000D01*
X31320000Y27940000D02*
X32560000Y27940000D01*
X28400000Y27980000D02*
X29640000Y27980000D01*
X31320000Y27980000D02*
X32560000Y27980000D01*
X28401000Y28020000D02*
X29640000Y28020000D01*
X31320000Y28020000D02*
X32559000Y28020000D01*
X28403000Y28060000D02*
X29640000Y28060000D01*
X31320000Y28060000D02*
X32557000Y28060000D01*
X28406000Y28100000D02*
X29640000Y28100000D01*
X31320000Y28100000D02*
X32554000Y28100000D01*
X28409000Y28140000D02*
X29640000Y28140000D01*
X31320000Y28140000D02*
X32551000Y28140000D01*
X28413000Y28180000D02*
X29640000Y28180000D01*
X31320000Y28180000D02*
X32547000Y28180000D01*
X28418000Y28220000D02*
X29640000Y28220000D01*
X31320000Y28220000D02*
X32542000Y28220000D01*
X28424000Y28260000D02*
X29640000Y28260000D01*
X31320000Y28260000D02*
X32536000Y28260000D01*
X28430000Y28300000D02*
X29640000Y28300000D01*
X31320000Y28300000D02*
X32530000Y28300000D01*
X28438000Y28340000D02*
X29640000Y28340000D01*
X31320000Y28340000D02*
X32522000Y28340000D01*
X28446000Y28380000D02*
X29640000Y28380000D01*
X31320000Y28380000D02*
X32514000Y28380000D01*
X28455000Y28420000D02*
X29640000Y28420000D01*
X31320000Y28420000D02*
X32505000Y28420000D01*
X28464000Y28460000D02*
X29640000Y28460000D01*
X31320000Y28460000D02*
X32496000Y28460000D01*
X28475000Y28500000D02*
X29640000Y28500000D01*
X31320000Y28500000D02*
X32485000Y28500000D01*
X28486000Y28540000D02*
X29640000Y28540000D01*
X31320000Y28540000D02*
X32474000Y28540000D01*
X28498000Y28580000D02*
X29640000Y28580000D01*
X31320000Y28580000D02*
X32462000Y28580000D01*
X28512000Y28620000D02*
X29640000Y28620000D01*
X31320000Y28620000D02*
X32448000Y28620000D01*
X28526000Y28661000D02*
X29640000Y28661000D01*
X31320000Y28661000D02*
X32434000Y28661000D01*
X28540000Y28701000D02*
X29640000Y28701000D01*
X31320000Y28701000D02*
X32420000Y28701000D01*
X28556000Y28741000D02*
X29640000Y28741000D01*
X31320000Y28741000D02*
X32404000Y28741000D01*
X28573000Y28781000D02*
X29640000Y28781000D01*
X31320000Y28781000D02*
X32387000Y28781000D01*
X28591000Y28821000D02*
X29640000Y28821000D01*
X31320000Y28821000D02*
X32369000Y28821000D01*
X28610000Y28861000D02*
X29640000Y28861000D01*
X31320000Y28861000D02*
X32350000Y28861000D01*
X28629000Y28901000D02*
X29640000Y28901000D01*
X31320000Y28901000D02*
X32331000Y28901000D01*
X28650000Y28941000D02*
X29640000Y28941000D01*
X31320000Y28941000D02*
X32310000Y28941000D01*
X28672000Y28981000D02*
X29640000Y28981000D01*
X31320000Y28981000D02*
X32288000Y28981000D01*
X28695000Y29021000D02*
X29640000Y29021000D01*
X31320000Y29021000D02*
X32265000Y29021000D01*
X28720000Y29061000D02*
X29640000Y29061000D01*
X31320000Y29061000D02*
X32240000Y29061000D01*
X28745000Y29101000D02*
X29640000Y29101000D01*
X31320000Y29101000D02*
X32215000Y29101000D01*
X28772000Y29141000D02*
X29640000Y29141000D01*
X31320000Y29141000D02*
X32188000Y29141000D01*
X28800000Y29181000D02*
X29640000Y29181000D01*
X31320000Y29181000D02*
X32160000Y29181000D01*
X28830000Y29221000D02*
X29640000Y29221000D01*
X31320000Y29221000D02*
X32130000Y29221000D01*
X28861000Y29261000D02*
X29640000Y29261000D01*
X31320000Y29261000D02*
X32099000Y29261000D01*
X28893000Y29301000D02*
X29640000Y29301000D01*
X31320000Y29301000D02*
X32067000Y29301000D01*
X28928000Y29341000D02*
X29640000Y29341000D01*
X31320000Y29341000D02*
X32032000Y29341000D01*
X28964000Y29381000D02*
X29640000Y29381000D01*
X31320000Y29381000D02*
X31996000Y29381000D01*
X29002000Y29421000D02*
X29640000Y29421000D01*
X31320000Y29421000D02*
X31958000Y29421000D01*
X29042000Y29461000D02*
X29640000Y29461000D01*
X31320000Y29461000D02*
X31918000Y29461000D01*
X29084000Y29501000D02*
X29640000Y29501000D01*
X31320000Y29501000D02*
X31876000Y29501000D01*
X29129000Y29541000D02*
X31831000Y29541000D01*
X29176000Y29581000D02*
X31784000Y29581000D01*
X29226000Y29621000D02*
X31734000Y29621000D01*
X29280000Y29661000D02*
X31680000Y29661000D01*
X29338000Y29701000D02*
X31622000Y29701000D01*
X29400000Y29741000D02*
X31560000Y29741000D01*
X29467000Y29781000D02*
X31493000Y29781000D01*
X29540000Y29821000D02*
X31420000Y29821000D01*
X29621000Y29861000D02*
X31339000Y29861000D01*
X29712000Y29901000D02*
X31248000Y29901000D01*
X29816000Y29941000D02*
X31144000Y29941000D01*
X29943000Y29981000D02*
X31017000Y29981000D01*
X30110000Y30021000D02*
X30850000Y30021000D01*
X32600000Y27940000D02*
G75*
G03*
X32600000Y27940000I-2120000J0D01*
G01*
%TO.C,R6*%
X45720000Y43510000D02*
X45720000Y42560000D01*
X46640000Y42560000D02*
X44800000Y42560000D01*
X44800000Y42560000D02*
X44800000Y38720000D01*
X46640000Y38720000D02*
X46640000Y42560000D01*
X44800000Y38720000D02*
X46640000Y38720000D01*
X45720000Y37770000D02*
X45720000Y38720000D01*
%TO.C,R7*%
X43180000Y37770000D02*
X43180000Y38720000D01*
X42260000Y38720000D02*
X44100000Y38720000D01*
X44100000Y38720000D02*
X44100000Y42560000D01*
X42260000Y42560000D02*
X42260000Y38720000D01*
X44100000Y42560000D02*
X42260000Y42560000D01*
X43180000Y43510000D02*
X43180000Y42560000D01*
%TO.C,C3*%
X29285000Y15510199D02*
X29285000Y15910199D01*
X29085000Y15710199D02*
X29485000Y15710199D01*
X28400000Y17780000D02*
X29640000Y17780000D01*
X31320000Y17780000D02*
X32560000Y17780000D01*
X28400000Y17820000D02*
X29640000Y17820000D01*
X31320000Y17820000D02*
X32560000Y17820000D01*
X28401000Y17860000D02*
X29640000Y17860000D01*
X31320000Y17860000D02*
X32559000Y17860000D01*
X28403000Y17900000D02*
X29640000Y17900000D01*
X31320000Y17900000D02*
X32557000Y17900000D01*
X28406000Y17940000D02*
X29640000Y17940000D01*
X31320000Y17940000D02*
X32554000Y17940000D01*
X28409000Y17980000D02*
X29640000Y17980000D01*
X31320000Y17980000D02*
X32551000Y17980000D01*
X28413000Y18020000D02*
X29640000Y18020000D01*
X31320000Y18020000D02*
X32547000Y18020000D01*
X28418000Y18060000D02*
X29640000Y18060000D01*
X31320000Y18060000D02*
X32542000Y18060000D01*
X28424000Y18100000D02*
X29640000Y18100000D01*
X31320000Y18100000D02*
X32536000Y18100000D01*
X28430000Y18140000D02*
X29640000Y18140000D01*
X31320000Y18140000D02*
X32530000Y18140000D01*
X28438000Y18180000D02*
X29640000Y18180000D01*
X31320000Y18180000D02*
X32522000Y18180000D01*
X28446000Y18220000D02*
X29640000Y18220000D01*
X31320000Y18220000D02*
X32514000Y18220000D01*
X28455000Y18260000D02*
X29640000Y18260000D01*
X31320000Y18260000D02*
X32505000Y18260000D01*
X28464000Y18300000D02*
X29640000Y18300000D01*
X31320000Y18300000D02*
X32496000Y18300000D01*
X28475000Y18340000D02*
X29640000Y18340000D01*
X31320000Y18340000D02*
X32485000Y18340000D01*
X28486000Y18380000D02*
X29640000Y18380000D01*
X31320000Y18380000D02*
X32474000Y18380000D01*
X28498000Y18420000D02*
X29640000Y18420000D01*
X31320000Y18420000D02*
X32462000Y18420000D01*
X28512000Y18460000D02*
X29640000Y18460000D01*
X31320000Y18460000D02*
X32448000Y18460000D01*
X28526000Y18501000D02*
X29640000Y18501000D01*
X31320000Y18501000D02*
X32434000Y18501000D01*
X28540000Y18541000D02*
X29640000Y18541000D01*
X31320000Y18541000D02*
X32420000Y18541000D01*
X28556000Y18581000D02*
X29640000Y18581000D01*
X31320000Y18581000D02*
X32404000Y18581000D01*
X28573000Y18621000D02*
X29640000Y18621000D01*
X31320000Y18621000D02*
X32387000Y18621000D01*
X28591000Y18661000D02*
X29640000Y18661000D01*
X31320000Y18661000D02*
X32369000Y18661000D01*
X28610000Y18701000D02*
X29640000Y18701000D01*
X31320000Y18701000D02*
X32350000Y18701000D01*
X28629000Y18741000D02*
X29640000Y18741000D01*
X31320000Y18741000D02*
X32331000Y18741000D01*
X28650000Y18781000D02*
X29640000Y18781000D01*
X31320000Y18781000D02*
X32310000Y18781000D01*
X28672000Y18821000D02*
X29640000Y18821000D01*
X31320000Y18821000D02*
X32288000Y18821000D01*
X28695000Y18861000D02*
X29640000Y18861000D01*
X31320000Y18861000D02*
X32265000Y18861000D01*
X28720000Y18901000D02*
X29640000Y18901000D01*
X31320000Y18901000D02*
X32240000Y18901000D01*
X28745000Y18941000D02*
X29640000Y18941000D01*
X31320000Y18941000D02*
X32215000Y18941000D01*
X28772000Y18981000D02*
X29640000Y18981000D01*
X31320000Y18981000D02*
X32188000Y18981000D01*
X28800000Y19021000D02*
X29640000Y19021000D01*
X31320000Y19021000D02*
X32160000Y19021000D01*
X28830000Y19061000D02*
X29640000Y19061000D01*
X31320000Y19061000D02*
X32130000Y19061000D01*
X28861000Y19101000D02*
X29640000Y19101000D01*
X31320000Y19101000D02*
X32099000Y19101000D01*
X28893000Y19141000D02*
X29640000Y19141000D01*
X31320000Y19141000D02*
X32067000Y19141000D01*
X28928000Y19181000D02*
X29640000Y19181000D01*
X31320000Y19181000D02*
X32032000Y19181000D01*
X28964000Y19221000D02*
X29640000Y19221000D01*
X31320000Y19221000D02*
X31996000Y19221000D01*
X29002000Y19261000D02*
X29640000Y19261000D01*
X31320000Y19261000D02*
X31958000Y19261000D01*
X29042000Y19301000D02*
X29640000Y19301000D01*
X31320000Y19301000D02*
X31918000Y19301000D01*
X29084000Y19341000D02*
X29640000Y19341000D01*
X31320000Y19341000D02*
X31876000Y19341000D01*
X29129000Y19381000D02*
X31831000Y19381000D01*
X29176000Y19421000D02*
X31784000Y19421000D01*
X29226000Y19461000D02*
X31734000Y19461000D01*
X29280000Y19501000D02*
X31680000Y19501000D01*
X29338000Y19541000D02*
X31622000Y19541000D01*
X29400000Y19581000D02*
X31560000Y19581000D01*
X29467000Y19621000D02*
X31493000Y19621000D01*
X29540000Y19661000D02*
X31420000Y19661000D01*
X29621000Y19701000D02*
X31339000Y19701000D01*
X29712000Y19741000D02*
X31248000Y19741000D01*
X29816000Y19781000D02*
X31144000Y19781000D01*
X29943000Y19821000D02*
X31017000Y19821000D01*
X30110000Y19861000D02*
X30850000Y19861000D01*
X32600000Y17780000D02*
G75*
G03*
X32600000Y17780000I-2120000J0D01*
G01*
%TO.C,SW3*%
X9800000Y48550000D02*
X9800000Y50050000D01*
X8550000Y52550000D02*
X4050000Y52550000D01*
X4050000Y46050000D02*
X8550000Y46050000D01*
X2800000Y50050000D02*
X2800000Y48550000D01*
%TO.C,U2*%
X28000000Y10040000D02*
X28000000Y30600000D01*
X28000000Y30600000D02*
X17720000Y30600000D01*
X25510000Y10100000D02*
X25510000Y30540000D01*
X25510000Y30540000D02*
X20210000Y30540000D01*
X23860000Y10100000D02*
X25510000Y10100000D01*
X20210000Y10100000D02*
X21860000Y10100000D01*
X20210000Y30540000D02*
X20210000Y10100000D01*
X17720000Y10040000D02*
X28000000Y10040000D01*
X17720000Y30600000D02*
X17720000Y10040000D01*
X23860000Y10100000D02*
G75*
G03*
X21860000Y10100000I-1000000J0D01*
G01*
%TO.C,R8*%
X40640000Y37770000D02*
X40640000Y38720000D01*
X39720000Y38720000D02*
X41560000Y38720000D01*
X41560000Y38720000D02*
X41560000Y42560000D01*
X39720000Y42560000D02*
X39720000Y38720000D01*
X41560000Y42560000D02*
X39720000Y42560000D01*
X40640000Y43510000D02*
X40640000Y42560000D01*
%TO.C,D1*%
X40985000Y13301000D02*
X40985000Y13145000D01*
X40985000Y10985000D02*
X40985000Y10829000D01*
X44217335Y13143608D02*
G75*
G03*
X40985000Y13300516I-1672335J-1078609D01*
G01*
X40985000Y10829484D02*
G75*
G03*
X44217335Y10986392I1560000J1235517D01*
G01*
%TO.C,R5*%
X48260000Y37770000D02*
X48260000Y38720000D01*
X47340000Y38720000D02*
X49180000Y38720000D01*
X49180000Y38720000D02*
X49180000Y42560000D01*
X47340000Y42560000D02*
X47340000Y38720000D01*
X49180000Y42560000D02*
X47340000Y42560000D01*
X48260000Y43510000D02*
X48260000Y42560000D01*
%TO.C,C1*%
X2615000Y4715199D02*
X2615000Y5115199D01*
X2415000Y4915199D02*
X2815000Y4915199D01*
X1730000Y6985000D02*
X2970000Y6985000D01*
X4650000Y6985000D02*
X5890000Y6985000D01*
X1730000Y7025000D02*
X2970000Y7025000D01*
X4650000Y7025000D02*
X5890000Y7025000D01*
X1731000Y7065000D02*
X2970000Y7065000D01*
X4650000Y7065000D02*
X5889000Y7065000D01*
X1733000Y7105000D02*
X2970000Y7105000D01*
X4650000Y7105000D02*
X5887000Y7105000D01*
X1736000Y7145000D02*
X2970000Y7145000D01*
X4650000Y7145000D02*
X5884000Y7145000D01*
X1739000Y7185000D02*
X2970000Y7185000D01*
X4650000Y7185000D02*
X5881000Y7185000D01*
X1743000Y7225000D02*
X2970000Y7225000D01*
X4650000Y7225000D02*
X5877000Y7225000D01*
X1748000Y7265000D02*
X2970000Y7265000D01*
X4650000Y7265000D02*
X5872000Y7265000D01*
X1754000Y7305000D02*
X2970000Y7305000D01*
X4650000Y7305000D02*
X5866000Y7305000D01*
X1760000Y7345000D02*
X2970000Y7345000D01*
X4650000Y7345000D02*
X5860000Y7345000D01*
X1768000Y7385000D02*
X2970000Y7385000D01*
X4650000Y7385000D02*
X5852000Y7385000D01*
X1776000Y7425000D02*
X2970000Y7425000D01*
X4650000Y7425000D02*
X5844000Y7425000D01*
X1785000Y7465000D02*
X2970000Y7465000D01*
X4650000Y7465000D02*
X5835000Y7465000D01*
X1794000Y7505000D02*
X2970000Y7505000D01*
X4650000Y7505000D02*
X5826000Y7505000D01*
X1805000Y7545000D02*
X2970000Y7545000D01*
X4650000Y7545000D02*
X5815000Y7545000D01*
X1816000Y7585000D02*
X2970000Y7585000D01*
X4650000Y7585000D02*
X5804000Y7585000D01*
X1828000Y7625000D02*
X2970000Y7625000D01*
X4650000Y7625000D02*
X5792000Y7625000D01*
X1842000Y7665000D02*
X2970000Y7665000D01*
X4650000Y7665000D02*
X5778000Y7665000D01*
X1856000Y7706000D02*
X2970000Y7706000D01*
X4650000Y7706000D02*
X5764000Y7706000D01*
X1870000Y7746000D02*
X2970000Y7746000D01*
X4650000Y7746000D02*
X5750000Y7746000D01*
X1886000Y7786000D02*
X2970000Y7786000D01*
X4650000Y7786000D02*
X5734000Y7786000D01*
X1903000Y7826000D02*
X2970000Y7826000D01*
X4650000Y7826000D02*
X5717000Y7826000D01*
X1921000Y7866000D02*
X2970000Y7866000D01*
X4650000Y7866000D02*
X5699000Y7866000D01*
X1940000Y7906000D02*
X2970000Y7906000D01*
X4650000Y7906000D02*
X5680000Y7906000D01*
X1959000Y7946000D02*
X2970000Y7946000D01*
X4650000Y7946000D02*
X5661000Y7946000D01*
X1980000Y7986000D02*
X2970000Y7986000D01*
X4650000Y7986000D02*
X5640000Y7986000D01*
X2002000Y8026000D02*
X2970000Y8026000D01*
X4650000Y8026000D02*
X5618000Y8026000D01*
X2025000Y8066000D02*
X2970000Y8066000D01*
X4650000Y8066000D02*
X5595000Y8066000D01*
X2050000Y8106000D02*
X2970000Y8106000D01*
X4650000Y8106000D02*
X5570000Y8106000D01*
X2075000Y8146000D02*
X2970000Y8146000D01*
X4650000Y8146000D02*
X5545000Y8146000D01*
X2102000Y8186000D02*
X2970000Y8186000D01*
X4650000Y8186000D02*
X5518000Y8186000D01*
X2130000Y8226000D02*
X2970000Y8226000D01*
X4650000Y8226000D02*
X5490000Y8226000D01*
X2160000Y8266000D02*
X2970000Y8266000D01*
X4650000Y8266000D02*
X5460000Y8266000D01*
X2191000Y8306000D02*
X2970000Y8306000D01*
X4650000Y8306000D02*
X5429000Y8306000D01*
X2223000Y8346000D02*
X2970000Y8346000D01*
X4650000Y8346000D02*
X5397000Y8346000D01*
X2258000Y8386000D02*
X2970000Y8386000D01*
X4650000Y8386000D02*
X5362000Y8386000D01*
X2294000Y8426000D02*
X2970000Y8426000D01*
X4650000Y8426000D02*
X5326000Y8426000D01*
X2332000Y8466000D02*
X2970000Y8466000D01*
X4650000Y8466000D02*
X5288000Y8466000D01*
X2372000Y8506000D02*
X2970000Y8506000D01*
X4650000Y8506000D02*
X5248000Y8506000D01*
X2414000Y8546000D02*
X2970000Y8546000D01*
X4650000Y8546000D02*
X5206000Y8546000D01*
X2459000Y8586000D02*
X5161000Y8586000D01*
X2506000Y8626000D02*
X5114000Y8626000D01*
X2556000Y8666000D02*
X5064000Y8666000D01*
X2610000Y8706000D02*
X5010000Y8706000D01*
X2668000Y8746000D02*
X4952000Y8746000D01*
X2730000Y8786000D02*
X4890000Y8786000D01*
X2797000Y8826000D02*
X4823000Y8826000D01*
X2870000Y8866000D02*
X4750000Y8866000D01*
X2951000Y8906000D02*
X4669000Y8906000D01*
X3042000Y8946000D02*
X4578000Y8946000D01*
X3146000Y8986000D02*
X4474000Y8986000D01*
X3273000Y9026000D02*
X4347000Y9026000D01*
X3440000Y9066000D02*
X4180000Y9066000D01*
X5930000Y6985000D02*
G75*
G03*
X5930000Y6985000I-2120000J0D01*
G01*
%TD*%
G36*
X26988500Y37147914D02*
G01*
X26988500Y31432086D01*
X26987914Y31431500D01*
X25082086Y31431500D01*
X25081500Y31432086D01*
X25081500Y36900480D01*
X25282962Y36900480D01*
X25282962Y31773620D01*
X26696676Y31773620D01*
X26696676Y36900480D01*
X25282962Y36900480D01*
X25081500Y36900480D01*
X25081500Y37147914D01*
X25082086Y37148500D01*
X26987914Y37148500D01*
X26988500Y37147914D01*
G37*
G36*
X13336000Y24130414D02*
G01*
X13336000Y17144586D01*
X13335414Y17144000D01*
X11429586Y17144000D01*
X11429000Y17144586D01*
X11429000Y23753409D01*
X11625951Y23753409D01*
X11625951Y17568993D01*
X13048959Y17568993D01*
X13048959Y23753409D01*
X11625951Y23753409D01*
X11429000Y23753409D01*
X11429000Y24130414D01*
X11429586Y24131000D01*
X13335414Y24131000D01*
X13336000Y24130414D01*
G37*
G36*
X44451000Y6350414D02*
G01*
X44451000Y-414D01*
X44450414Y-1000D01*
X39369586Y-1000D01*
X39369000Y-414D01*
X39369000Y5782038D01*
X40369810Y5782038D01*
X40369810Y4368324D01*
X43450190Y4368324D01*
X43450190Y5782038D01*
X40369810Y5782038D01*
X39369000Y5782038D01*
X39369000Y6350414D01*
X39369586Y6351000D01*
X44450414Y6351000D01*
X44451000Y6350414D01*
G37*
G36*
X10501000Y20475414D02*
G01*
X10501000Y16974586D01*
X10500414Y16974000D01*
X-414Y16974000D01*
X-1000Y16974586D01*
X-1000Y20265191D01*
X8332962Y20265191D01*
X8332962Y17184811D01*
X9746676Y17184811D01*
X9746676Y20265191D01*
X8332962Y20265191D01*
X-1000Y20265191D01*
X-1000Y20475414D01*
X-414Y20476000D01*
X10500414Y20476000D01*
X10501000Y20475414D01*
G37*
G36*
X27687000Y53340414D02*
G01*
X27687000Y45084586D01*
X27686414Y45084000D01*
X25145586Y45084000D01*
X25145000Y45084586D01*
X25145000Y48812697D01*
X25663962Y48812697D01*
X25663962Y45732317D01*
X27077676Y45732317D01*
X27077676Y48812697D01*
X25663962Y48812697D01*
X25145000Y48812697D01*
X25145000Y53340414D01*
X25145586Y53341000D01*
X27686414Y53341000D01*
X27687000Y53340414D01*
G37*
%LPC*%
D13*
%TO.C,J3*%
X27940000Y2540000D03*
X30480000Y2540000D03*
X33020000Y2540000D03*
X35560000Y2540000D03*
X38100000Y2540000D03*
X40640000Y2540000D03*
X43180000Y2540000D03*
X45720000Y2540000D03*
%TD*%
%TO.C,J4*%
X50800000Y2540000D03*
X53340000Y2540000D03*
X55880000Y2540000D03*
X58420000Y2540000D03*
X60960000Y2540000D03*
X63500000Y2540000D03*
%TD*%
%TO.C,J2*%
X41656000Y50800000D03*
X39116000Y50800000D03*
X36576000Y50800000D03*
X34036000Y50800000D03*
X31496000Y50800000D03*
X28956000Y50800000D03*
X26416000Y50800000D03*
X23876000Y50800000D03*
X21336000Y50800000D03*
X18796000Y50800000D03*
%TD*%
%TO.C,J1*%
X63500000Y50800000D03*
X60960000Y50800000D03*
X58420000Y50800000D03*
X55880000Y50800000D03*
X53340000Y50800000D03*
X50800000Y50800000D03*
X48260000Y50800000D03*
X45720000Y50800000D03*
%TD*%
D14*
%TO.C,C2*%
X19050000Y7735000D03*
D15*
X19050000Y6235000D03*
%TD*%
D16*
%TO.C,C4*%
X30480000Y11950000D03*
D15*
X30480000Y13450000D03*
%TD*%
D17*
%TO.C,SW1*%
X61885000Y11990000D03*
X61885000Y18490000D03*
X66385000Y11990000D03*
X66385000Y18490000D03*
%TD*%
%TO.C,SW2*%
X61885000Y24690000D03*
X61885000Y31190000D03*
X66385000Y24690000D03*
X66385000Y31190000D03*
%TD*%
D18*
%TO.C,D5*%
X34925000Y12065000D03*
D19*
X37465000Y12065000D03*
%TD*%
D18*
%TO.C,D6*%
X34925000Y18415000D03*
D19*
X37465000Y18415000D03*
%TD*%
D20*
%TO.C,R2*%
X55880000Y44450000D03*
D21*
X55880000Y36830000D03*
%TD*%
D22*
%TO.C,U1*%
X15240000Y6350000D03*
D23*
X15240000Y8890000D03*
X15240000Y11430000D03*
X15240000Y13970000D03*
X7620000Y13970000D03*
X7620000Y11430000D03*
X7620000Y8890000D03*
X7620000Y6350000D03*
%TD*%
D24*
%TO.C,D10*%
X33020000Y36830000D03*
D23*
X33020000Y44450000D03*
%TD*%
D25*
%TO.C,J5*%
X6000000Y25725000D03*
X6000000Y22225000D03*
X6000000Y18725000D03*
%TD*%
D20*
%TO.C,R3*%
X53340000Y44450000D03*
D21*
X53340000Y36830000D03*
%TD*%
D20*
%TO.C,R1*%
X58420000Y44450000D03*
D21*
X58420000Y36830000D03*
%TD*%
D18*
%TO.C,D3*%
X41275000Y24765000D03*
D19*
X43815000Y24765000D03*
%TD*%
D16*
%TO.C,C6*%
X30480000Y22110000D03*
D15*
X30480000Y23610000D03*
%TD*%
D26*
%TO.C,SW4*%
X28035000Y39390000D03*
X26035000Y39390000D03*
X24035000Y39390000D03*
X28035000Y41890000D03*
X26035000Y41890000D03*
X24035000Y41890000D03*
D27*
X30135000Y40640000D03*
X21935000Y40640000D03*
%TD*%
D28*
%TO.C,MH1*%
X15240000Y50800000D03*
%TD*%
D24*
%TO.C,D9*%
X35560000Y36830000D03*
D23*
X35560000Y44450000D03*
%TD*%
D29*
%TO.C,RV1*%
X57070000Y17740000D03*
X47070000Y15240000D03*
X57070000Y12740000D03*
%TD*%
D30*
%TO.C,D11*%
X18415000Y43180000D03*
D31*
X18415000Y33020000D03*
%TD*%
D18*
%TO.C,D2*%
X41275000Y18415000D03*
D19*
X43815000Y18415000D03*
%TD*%
D32*
%TO.C,J6*%
X6080000Y43180000D03*
X6080000Y33020000D03*
D33*
X14970000Y41270000D03*
X12430000Y40000000D03*
X14970000Y38730000D03*
X12430000Y37460000D03*
X14970000Y36190000D03*
X12430000Y34920000D03*
%TD*%
D20*
%TO.C,R4*%
X50800000Y44450000D03*
D21*
X50800000Y36830000D03*
%TD*%
D18*
%TO.C,D7*%
X34925000Y24765000D03*
D19*
X37465000Y24765000D03*
%TD*%
D18*
%TO.C,D8*%
X34925000Y31115000D03*
D19*
X37465000Y31115000D03*
%TD*%
D20*
%TO.C,R9*%
X38100000Y36830000D03*
D21*
X38100000Y44450000D03*
%TD*%
D29*
%TO.C,RV2*%
X57070000Y30440000D03*
X47070000Y27940000D03*
X57070000Y25440000D03*
%TD*%
D18*
%TO.C,D4*%
X41275000Y31115000D03*
D19*
X43815000Y31115000D03*
%TD*%
D16*
%TO.C,C5*%
X30480000Y27190000D03*
D15*
X30480000Y28690000D03*
%TD*%
D20*
%TO.C,R6*%
X45720000Y44450000D03*
D21*
X45720000Y36830000D03*
%TD*%
D20*
%TO.C,R7*%
X43180000Y36830000D03*
D21*
X43180000Y44450000D03*
%TD*%
D16*
%TO.C,C3*%
X30480000Y17030000D03*
D15*
X30480000Y18530000D03*
%TD*%
D17*
%TO.C,SW3*%
X9550000Y47050000D03*
X3050000Y47050000D03*
X9550000Y51550000D03*
X3050000Y51550000D03*
%TD*%
D22*
%TO.C,U2*%
X26670000Y11430000D03*
D23*
X26670000Y13970000D03*
X26670000Y16510000D03*
X26670000Y19050000D03*
X26670000Y21590000D03*
X26670000Y24130000D03*
X26670000Y26670000D03*
X26670000Y29210000D03*
X19050000Y29210000D03*
X19050000Y26670000D03*
X19050000Y24130000D03*
X19050000Y21590000D03*
X19050000Y19050000D03*
X19050000Y16510000D03*
X19050000Y13970000D03*
X19050000Y11430000D03*
%TD*%
D20*
%TO.C,R8*%
X40640000Y36830000D03*
D21*
X40640000Y44450000D03*
%TD*%
D18*
%TO.C,D1*%
X41275000Y12065000D03*
D19*
X43815000Y12065000D03*
%TD*%
D28*
%TO.C,MH2*%
X13970000Y2540000D03*
%TD*%
D20*
%TO.C,R5*%
X48260000Y36830000D03*
D21*
X48260000Y44450000D03*
%TD*%
D28*
%TO.C,MH3*%
X66040000Y35560000D03*
%TD*%
D16*
%TO.C,C1*%
X3810000Y6235000D03*
D15*
X3810000Y7735000D03*
%TD*%
D28*
%TO.C,MH4*%
X66040000Y7620000D03*
%TD*%
%LPD*%
M02*
