%TF.GenerationSoftware,KiCad,Pcbnew,7.0.1*%
%TF.CreationDate,2024-11-29T14:27:23-05:00*%
%TF.ProjectId,ModbusRTU-Test-Shield,4d6f6462-7573-4525-9455-2d546573742d,1.0.0*%
%TF.SameCoordinates,PX6486dd0PY8062360*%
%TF.FileFunction,Legend,Top*%
%TF.FilePolarity,Positive*%
%FSLAX46Y46*%
G04 Gerber Fmt 4.6, Leading zero omitted, Abs format (unit mm)*
G04 Created by KiCad (PCBNEW 7.0.1) date 2024-11-29 14:27:23*
%MOMM*%
%LPD*%
G01*
G04 APERTURE LIST*
G04 Aperture macros list*
%AMRoundRect*
0 Rectangle with rounded corners*
0 $1 Rounding radius*
0 $2 $3 $4 $5 $6 $7 $8 $9 X,Y pos of 4 corners*
0 Add a 4 corners polygon primitive as box body*
4,1,4,$2,$3,$4,$5,$6,$7,$8,$9,$2,$3,0*
0 Add four circle primitives for the rounded corners*
1,1,$1+$1,$2,$3*
1,1,$1+$1,$4,$5*
1,1,$1+$1,$6,$7*
1,1,$1+$1,$8,$9*
0 Add four rect primitives between the rounded corners*
20,1,$1+$1,$2,$3,$4,$5,0*
20,1,$1+$1,$4,$5,$6,$7,0*
20,1,$1+$1,$6,$7,$8,$9,0*
20,1,$1+$1,$8,$9,$2,$3,0*%
G04 Aperture macros list end*
%ADD10C,0.150000*%
%ADD11C,0.120000*%
%ADD12C,0.100000*%
%ADD13C,1.700000*%
%ADD14RoundRect,0.300000X-0.300000X0.300000X-0.300000X-0.300000X0.300000X-0.300000X0.300000X0.300000X0*%
%ADD15C,1.200000*%
%ADD16RoundRect,0.300000X0.300000X-0.300000X0.300000X0.300000X-0.300000X0.300000X-0.300000X-0.300000X0*%
%ADD17C,2.000000*%
%ADD18RoundRect,0.450000X-0.450000X-0.450000X0.450000X-0.450000X0.450000X0.450000X-0.450000X0.450000X0*%
%ADD19C,1.800000*%
%ADD20C,1.400000*%
%ADD21O,1.400000X1.400000*%
%ADD22RoundRect,0.400000X0.400000X0.400000X-0.400000X0.400000X-0.400000X-0.400000X0.400000X-0.400000X0*%
%ADD23O,1.600000X1.600000*%
%ADD24RoundRect,0.400000X0.400000X-0.400000X0.400000X0.400000X-0.400000X0.400000X-0.400000X-0.400000X0*%
%ADD25O,3.600000X1.800000*%
%ADD26O,1.400000X1.900000*%
%ADD27C,2.500000*%
%ADD28C,3.200000*%
%ADD29C,2.340000*%
%ADD30RoundRect,0.550000X-0.550000X0.550000X-0.550000X-0.550000X0.550000X-0.550000X0.550000X0.550000X0*%
%ADD31O,2.200000X2.200000*%
%ADD32C,3.250000*%
%ADD33C,1.520000*%
G04 APERTURE END LIST*
D10*
X10795000Y27622500D02*
X15240000Y27622500D01*
X15240000Y16827500D01*
X10795000Y16827500D01*
X10795000Y27622500D01*
X10795000Y24130000D02*
X13017500Y24130000D01*
X13017500Y16827500D02*
X13017500Y27622500D01*
X12368869Y25281012D02*
X11892678Y24947679D01*
X12368869Y24709584D02*
X11368869Y24709584D01*
X11368869Y24709584D02*
X11368869Y25090536D01*
X11368869Y25090536D02*
X11416488Y25185774D01*
X11416488Y25185774D02*
X11464107Y25233393D01*
X11464107Y25233393D02*
X11559345Y25281012D01*
X11559345Y25281012D02*
X11702202Y25281012D01*
X11702202Y25281012D02*
X11797440Y25233393D01*
X11797440Y25233393D02*
X11845059Y25185774D01*
X11845059Y25185774D02*
X11892678Y25090536D01*
X11892678Y25090536D02*
X11892678Y24709584D01*
X11368869Y25566727D02*
X11368869Y26138155D01*
X12368869Y25852441D02*
X11368869Y25852441D01*
X11368869Y26471489D02*
X12178392Y26471489D01*
X12178392Y26471489D02*
X12273630Y26519108D01*
X12273630Y26519108D02*
X12321250Y26566727D01*
X12321250Y26566727D02*
X12368869Y26661965D01*
X12368869Y26661965D02*
X12368869Y26852441D01*
X12368869Y26852441D02*
X12321250Y26947679D01*
X12321250Y26947679D02*
X12273630Y26995298D01*
X12273630Y26995298D02*
X12178392Y27042917D01*
X12178392Y27042917D02*
X11368869Y27042917D01*
X13591369Y17653572D02*
X13591369Y18225000D01*
X14591369Y17939286D02*
X13591369Y17939286D01*
X14067559Y18558334D02*
X14067559Y18891667D01*
X14591369Y19034524D02*
X14591369Y18558334D01*
X14591369Y18558334D02*
X13591369Y18558334D01*
X13591369Y18558334D02*
X13591369Y19034524D01*
X14543750Y19415477D02*
X14591369Y19558334D01*
X14591369Y19558334D02*
X14591369Y19796429D01*
X14591369Y19796429D02*
X14543750Y19891667D01*
X14543750Y19891667D02*
X14496130Y19939286D01*
X14496130Y19939286D02*
X14400892Y19986905D01*
X14400892Y19986905D02*
X14305654Y19986905D01*
X14305654Y19986905D02*
X14210416Y19939286D01*
X14210416Y19939286D02*
X14162797Y19891667D01*
X14162797Y19891667D02*
X14115178Y19796429D01*
X14115178Y19796429D02*
X14067559Y19605953D01*
X14067559Y19605953D02*
X14019940Y19510715D01*
X14019940Y19510715D02*
X13972321Y19463096D01*
X13972321Y19463096D02*
X13877083Y19415477D01*
X13877083Y19415477D02*
X13781845Y19415477D01*
X13781845Y19415477D02*
X13686607Y19463096D01*
X13686607Y19463096D02*
X13638988Y19510715D01*
X13638988Y19510715D02*
X13591369Y19605953D01*
X13591369Y19605953D02*
X13591369Y19844048D01*
X13591369Y19844048D02*
X13638988Y19986905D01*
X13591369Y20272620D02*
X13591369Y20844048D01*
X14591369Y20558334D02*
X13591369Y20558334D01*
X14543750Y21891668D02*
X14591369Y22034525D01*
X14591369Y22034525D02*
X14591369Y22272620D01*
X14591369Y22272620D02*
X14543750Y22367858D01*
X14543750Y22367858D02*
X14496130Y22415477D01*
X14496130Y22415477D02*
X14400892Y22463096D01*
X14400892Y22463096D02*
X14305654Y22463096D01*
X14305654Y22463096D02*
X14210416Y22415477D01*
X14210416Y22415477D02*
X14162797Y22367858D01*
X14162797Y22367858D02*
X14115178Y22272620D01*
X14115178Y22272620D02*
X14067559Y22082144D01*
X14067559Y22082144D02*
X14019940Y21986906D01*
X14019940Y21986906D02*
X13972321Y21939287D01*
X13972321Y21939287D02*
X13877083Y21891668D01*
X13877083Y21891668D02*
X13781845Y21891668D01*
X13781845Y21891668D02*
X13686607Y21939287D01*
X13686607Y21939287D02*
X13638988Y21986906D01*
X13638988Y21986906D02*
X13591369Y22082144D01*
X13591369Y22082144D02*
X13591369Y22320239D01*
X13591369Y22320239D02*
X13638988Y22463096D01*
X14591369Y22891668D02*
X13591369Y22891668D01*
X14067559Y22891668D02*
X14067559Y23463096D01*
X14591369Y23463096D02*
X13591369Y23463096D01*
X14591369Y23939287D02*
X13591369Y23939287D01*
X14067559Y24415477D02*
X14067559Y24748810D01*
X14591369Y24891667D02*
X14591369Y24415477D01*
X14591369Y24415477D02*
X13591369Y24415477D01*
X13591369Y24415477D02*
X13591369Y24891667D01*
X14591369Y25796429D02*
X14591369Y25320239D01*
X14591369Y25320239D02*
X13591369Y25320239D01*
X14591369Y26129763D02*
X13591369Y26129763D01*
X13591369Y26129763D02*
X13591369Y26367858D01*
X13591369Y26367858D02*
X13638988Y26510715D01*
X13638988Y26510715D02*
X13734226Y26605953D01*
X13734226Y26605953D02*
X13829464Y26653572D01*
X13829464Y26653572D02*
X14019940Y26701191D01*
X14019940Y26701191D02*
X14162797Y26701191D01*
X14162797Y26701191D02*
X14353273Y26653572D01*
X14353273Y26653572D02*
X14448511Y26605953D01*
X14448511Y26605953D02*
X14543750Y26510715D01*
X14543750Y26510715D02*
X14591369Y26367858D01*
X14591369Y26367858D02*
X14591369Y26129763D01*
X16972619Y19129763D02*
X16496428Y18796430D01*
X16972619Y18558335D02*
X15972619Y18558335D01*
X15972619Y18558335D02*
X15972619Y18939287D01*
X15972619Y18939287D02*
X16020238Y19034525D01*
X16020238Y19034525D02*
X16067857Y19082144D01*
X16067857Y19082144D02*
X16163095Y19129763D01*
X16163095Y19129763D02*
X16305952Y19129763D01*
X16305952Y19129763D02*
X16401190Y19082144D01*
X16401190Y19082144D02*
X16448809Y19034525D01*
X16448809Y19034525D02*
X16496428Y18939287D01*
X16496428Y18939287D02*
X16496428Y18558335D01*
X16448809Y19558335D02*
X16448809Y19891668D01*
X16972619Y20034525D02*
X16972619Y19558335D01*
X16972619Y19558335D02*
X15972619Y19558335D01*
X15972619Y19558335D02*
X15972619Y20034525D01*
X15972619Y20320240D02*
X16972619Y20653573D01*
X16972619Y20653573D02*
X15972619Y20986906D01*
X16877380Y21320240D02*
X16925000Y21367859D01*
X16925000Y21367859D02*
X16972619Y21320240D01*
X16972619Y21320240D02*
X16925000Y21272621D01*
X16925000Y21272621D02*
X16877380Y21320240D01*
X16877380Y21320240D02*
X16972619Y21320240D01*
X16353571Y21320240D02*
X16401190Y21367859D01*
X16401190Y21367859D02*
X16448809Y21320240D01*
X16448809Y21320240D02*
X16401190Y21272621D01*
X16401190Y21272621D02*
X16353571Y21320240D01*
X16353571Y21320240D02*
X16448809Y21320240D01*
X16972619Y23082144D02*
X16972619Y22510716D01*
X16972619Y22796430D02*
X15972619Y22796430D01*
X15972619Y22796430D02*
X16115476Y22701192D01*
X16115476Y22701192D02*
X16210714Y22605954D01*
X16210714Y22605954D02*
X16258333Y22510716D01*
X16877380Y23510716D02*
X16925000Y23558335D01*
X16925000Y23558335D02*
X16972619Y23510716D01*
X16972619Y23510716D02*
X16925000Y23463097D01*
X16925000Y23463097D02*
X16877380Y23510716D01*
X16877380Y23510716D02*
X16972619Y23510716D01*
X15972619Y24177382D02*
X15972619Y24272620D01*
X15972619Y24272620D02*
X16020238Y24367858D01*
X16020238Y24367858D02*
X16067857Y24415477D01*
X16067857Y24415477D02*
X16163095Y24463096D01*
X16163095Y24463096D02*
X16353571Y24510715D01*
X16353571Y24510715D02*
X16591666Y24510715D01*
X16591666Y24510715D02*
X16782142Y24463096D01*
X16782142Y24463096D02*
X16877380Y24415477D01*
X16877380Y24415477D02*
X16925000Y24367858D01*
X16925000Y24367858D02*
X16972619Y24272620D01*
X16972619Y24272620D02*
X16972619Y24177382D01*
X16972619Y24177382D02*
X16925000Y24082144D01*
X16925000Y24082144D02*
X16877380Y24034525D01*
X16877380Y24034525D02*
X16782142Y23986906D01*
X16782142Y23986906D02*
X16591666Y23939287D01*
X16591666Y23939287D02*
X16353571Y23939287D01*
X16353571Y23939287D02*
X16163095Y23986906D01*
X16163095Y23986906D02*
X16067857Y24034525D01*
X16067857Y24034525D02*
X16020238Y24082144D01*
X16020238Y24082144D02*
X15972619Y24177382D01*
X16877380Y24939287D02*
X16925000Y24986906D01*
X16925000Y24986906D02*
X16972619Y24939287D01*
X16972619Y24939287D02*
X16925000Y24891668D01*
X16925000Y24891668D02*
X16877380Y24939287D01*
X16877380Y24939287D02*
X16972619Y24939287D01*
X15972619Y25605953D02*
X15972619Y25701191D01*
X15972619Y25701191D02*
X16020238Y25796429D01*
X16020238Y25796429D02*
X16067857Y25844048D01*
X16067857Y25844048D02*
X16163095Y25891667D01*
X16163095Y25891667D02*
X16353571Y25939286D01*
X16353571Y25939286D02*
X16591666Y25939286D01*
X16591666Y25939286D02*
X16782142Y25891667D01*
X16782142Y25891667D02*
X16877380Y25844048D01*
X16877380Y25844048D02*
X16925000Y25796429D01*
X16925000Y25796429D02*
X16972619Y25701191D01*
X16972619Y25701191D02*
X16972619Y25605953D01*
X16972619Y25605953D02*
X16925000Y25510715D01*
X16925000Y25510715D02*
X16877380Y25463096D01*
X16877380Y25463096D02*
X16782142Y25415477D01*
X16782142Y25415477D02*
X16591666Y25367858D01*
X16591666Y25367858D02*
X16353571Y25367858D01*
X16353571Y25367858D02*
X16163095Y25415477D01*
X16163095Y25415477D02*
X16067857Y25463096D01*
X16067857Y25463096D02*
X16020238Y25510715D01*
X16020238Y25510715D02*
X15972619Y25605953D01*
G36*
X12187668Y19268171D02*
G01*
X12259610Y19196229D01*
X12293869Y19127713D01*
X12293869Y18972647D01*
X12259610Y18904129D01*
X12187668Y18832188D01*
X12026301Y18791846D01*
X11711436Y18791846D01*
X11550069Y18832188D01*
X11478126Y18904131D01*
X11443869Y18972646D01*
X11443869Y19127711D01*
X11478128Y19196229D01*
X11550069Y19268171D01*
X11711436Y19308512D01*
X12026300Y19308512D01*
X12187668Y19268171D01*
G37*
G36*
X12104595Y20265129D02*
G01*
X12181585Y20226634D01*
X12255697Y20152522D01*
X12293869Y20038008D01*
X12293869Y19887084D01*
X11443869Y19887084D01*
X11443869Y20038009D01*
X11482040Y20152523D01*
X11556152Y20226635D01*
X11633138Y20265129D01*
X11806674Y20308512D01*
X11931062Y20308512D01*
X12104595Y20265129D01*
G37*
G36*
X12229204Y21274253D02*
G01*
X12259610Y21243849D01*
X12293869Y21175332D01*
X12293869Y20887084D01*
X11920059Y20887084D01*
X11920059Y21133247D01*
X11958230Y21247761D01*
X11984723Y21274254D01*
X12053239Y21308512D01*
X12160686Y21308512D01*
X12229204Y21274253D01*
G37*
G36*
X11705395Y21226634D02*
G01*
X11735800Y21196229D01*
X11769416Y21128997D01*
X11769313Y21126120D01*
X11770059Y21124861D01*
X11770059Y20887084D01*
X11443869Y20887084D01*
X11443869Y21127711D01*
X11478128Y21196229D01*
X11508533Y21226635D01*
X11577049Y21260893D01*
X11636877Y21260893D01*
X11705395Y21226634D01*
G37*
G36*
X12961607Y16928155D02*
G01*
X10850893Y16928155D01*
X10850893Y17620965D01*
X11290706Y17620965D01*
X11292265Y17615813D01*
X11291499Y17610484D01*
X11298548Y17595048D01*
X11303462Y17578809D01*
X11307558Y17575319D01*
X11309795Y17570420D01*
X11324072Y17561245D01*
X11336984Y17550241D01*
X11342317Y17549519D01*
X11346847Y17546608D01*
X11363813Y17546608D01*
X11380629Y17544331D01*
X11385508Y17546608D01*
X12379651Y17546608D01*
X12411129Y17555851D01*
X12439971Y17589137D01*
X12446239Y17632732D01*
X12427943Y17672796D01*
X12390891Y17696608D01*
X11706936Y17696608D01*
X12114321Y17886722D01*
X12133854Y17895448D01*
X12140352Y17905379D01*
X12149257Y17913224D01*
X12152161Y17923427D01*
X12157970Y17932303D01*
X12158067Y17944172D01*
X12161317Y17955584D01*
X12158245Y17965735D01*
X12158333Y17976345D01*
X12151996Y17986385D01*
X12148561Y17997740D01*
X12140490Y18004618D01*
X12134827Y18013592D01*
X12124069Y18018613D01*
X12115039Y18026308D01*
X12104528Y18027732D01*
X11706936Y18213274D01*
X12379651Y18213274D01*
X12411129Y18222517D01*
X12439971Y18255803D01*
X12446239Y18299398D01*
X12427943Y18339462D01*
X12390891Y18363274D01*
X11374539Y18363274D01*
X11358381Y18365733D01*
X11342888Y18358812D01*
X11326609Y18354031D01*
X11323084Y18349963D01*
X11318169Y18347767D01*
X11308877Y18333568D01*
X11297767Y18320745D01*
X11297000Y18315418D01*
X11294053Y18310912D01*
X11293913Y18293941D01*
X11291499Y18277150D01*
X11293734Y18272256D01*
X11293690Y18266870D01*
X11302747Y18252519D01*
X11309795Y18237086D01*
X11314323Y18234176D01*
X11317197Y18229623D01*
X11332572Y18222448D01*
X11346847Y18213274D01*
X11352231Y18213274D01*
X11905801Y17954942D01*
X11342292Y17691971D01*
X11326609Y17687365D01*
X11315498Y17674543D01*
X11302766Y17663325D01*
X11301291Y17658147D01*
X11297767Y17654079D01*
X11295352Y17637286D01*
X11290706Y17620965D01*
X10850893Y17620965D01*
X10850893Y19137026D01*
X11291155Y19137026D01*
X11293869Y19130482D01*
X11293869Y18958981D01*
X11291938Y18941097D01*
X11298794Y18927384D01*
X11303112Y18912681D01*
X11308465Y18908043D01*
X11345200Y18834574D01*
X11347883Y18822242D01*
X11362510Y18807615D01*
X11376572Y18792497D01*
X11377990Y18792135D01*
X11457872Y18712253D01*
X11472171Y18697045D01*
X11484217Y18694034D01*
X11495111Y18688085D01*
X11505140Y18688803D01*
X11672038Y18647079D01*
X11680180Y18641846D01*
X11692968Y18641846D01*
X11694472Y18641470D01*
X11703718Y18641846D01*
X12023192Y18641846D01*
X12032361Y18638744D01*
X12044769Y18641846D01*
X12046317Y18641846D01*
X12055186Y18644451D01*
X12243092Y18691427D01*
X12263472Y18695860D01*
X12272252Y18704641D01*
X12282957Y18710921D01*
X12287501Y18719890D01*
X12367633Y18800021D01*
X12378484Y18806465D01*
X12387734Y18824967D01*
X12397630Y18843088D01*
X12397525Y18844549D01*
X12434147Y18917793D01*
X12443869Y18932919D01*
X12443869Y18948249D01*
X12446583Y18963332D01*
X12443869Y18969876D01*
X12443869Y19141386D01*
X12445799Y19159261D01*
X12438944Y19172971D01*
X12434626Y19187677D01*
X12429271Y19192317D01*
X12392537Y19265786D01*
X12389855Y19278116D01*
X12375237Y19292734D01*
X12361166Y19307861D01*
X12359746Y19308224D01*
X12279854Y19388116D01*
X12265565Y19403313D01*
X12253519Y19406325D01*
X12242625Y19412273D01*
X12232595Y19411556D01*
X12065698Y19453280D01*
X12057557Y19458512D01*
X12044769Y19458512D01*
X12043265Y19458888D01*
X12034019Y19458512D01*
X11714545Y19458512D01*
X11705376Y19461614D01*
X11692968Y19458512D01*
X11691420Y19458512D01*
X11682550Y19455908D01*
X11494647Y19408932D01*
X11474265Y19404498D01*
X11465485Y19395719D01*
X11454779Y19389437D01*
X11450233Y19380467D01*
X11370103Y19300337D01*
X11359254Y19293893D01*
X11350003Y19275393D01*
X11340108Y19257270D01*
X11340212Y19255810D01*
X11303592Y19182569D01*
X11293869Y19167439D01*
X11293869Y19152109D01*
X11291155Y19137026D01*
X10850893Y19137026D01*
X10850893Y19800960D01*
X11291499Y19800960D01*
X11298418Y19785808D01*
X11303112Y19769824D01*
X11307424Y19766088D01*
X11309795Y19760896D01*
X11323811Y19751889D01*
X11336398Y19740982D01*
X11342044Y19740171D01*
X11346847Y19737084D01*
X11363509Y19737084D01*
X11379993Y19734714D01*
X11385183Y19737084D01*
X12363509Y19737084D01*
X12379993Y19734714D01*
X12395145Y19741634D01*
X12411129Y19746327D01*
X12414865Y19750640D01*
X12420057Y19753010D01*
X12429064Y19767027D01*
X12439971Y19779613D01*
X12440782Y19785260D01*
X12443869Y19790062D01*
X12443869Y19806724D01*
X12446239Y19823208D01*
X12443869Y19828398D01*
X12443869Y20040777D01*
X12446984Y20053005D01*
X12440444Y20072625D01*
X12434626Y20092439D01*
X12433519Y20093398D01*
X12393677Y20212927D01*
X12389855Y20230497D01*
X12379016Y20241336D01*
X12370269Y20253922D01*
X12363721Y20256631D01*
X12285692Y20334659D01*
X12279249Y20345508D01*
X12260744Y20354761D01*
X12242625Y20364654D01*
X12241165Y20364550D01*
X12176261Y20397002D01*
X12170327Y20403313D01*
X12156949Y20406658D01*
X12154670Y20407797D01*
X12146537Y20409261D01*
X11970460Y20453280D01*
X11962319Y20458512D01*
X11949531Y20458512D01*
X11948027Y20458888D01*
X11938781Y20458512D01*
X11809783Y20458512D01*
X11800614Y20461614D01*
X11788206Y20458512D01*
X11786658Y20458512D01*
X11777788Y20455908D01*
X11601731Y20411894D01*
X11593120Y20412823D01*
X11580789Y20406658D01*
X11578314Y20406039D01*
X11571175Y20401852D01*
X11486595Y20359562D01*
X11474265Y20356879D01*
X11459645Y20342260D01*
X11444520Y20328190D01*
X11444157Y20326772D01*
X11366308Y20248923D01*
X11352301Y20237645D01*
X11347453Y20223104D01*
X11340108Y20209651D01*
X11340613Y20202584D01*
X11300691Y20082817D01*
X11293869Y20072201D01*
X11293869Y20051521D01*
X11293123Y20030882D01*
X11293869Y20029623D01*
X11293869Y19817444D01*
X11291499Y19800960D01*
X10850893Y19800960D01*
X10850893Y21137026D01*
X11291155Y21137026D01*
X11293869Y21130482D01*
X11293869Y20817444D01*
X11291499Y20800960D01*
X11298418Y20785808D01*
X11303112Y20769824D01*
X11307424Y20766088D01*
X11309795Y20760896D01*
X11323811Y20751889D01*
X11336398Y20740982D01*
X11342044Y20740171D01*
X11346847Y20737084D01*
X11363509Y20737084D01*
X11379993Y20734714D01*
X11385183Y20737084D01*
X11839699Y20737084D01*
X11856183Y20734714D01*
X11861373Y20737084D01*
X12363509Y20737084D01*
X12379993Y20734714D01*
X12395145Y20741634D01*
X12411129Y20746327D01*
X12414865Y20750640D01*
X12420057Y20753010D01*
X12429064Y20767027D01*
X12439971Y20779613D01*
X12440782Y20785260D01*
X12443869Y20790062D01*
X12443869Y20806724D01*
X12446239Y20823208D01*
X12443869Y20828398D01*
X12443869Y21189005D01*
X12445799Y21206880D01*
X12438944Y21220590D01*
X12434626Y21235296D01*
X12429271Y21239936D01*
X12392536Y21313406D01*
X12389854Y21325736D01*
X12375238Y21340352D01*
X12361166Y21355480D01*
X12359746Y21355843D01*
X12333311Y21382278D01*
X12326868Y21393127D01*
X12308369Y21402377D01*
X12290244Y21412273D01*
X12288784Y21412169D01*
X12215543Y21448789D01*
X12200414Y21458512D01*
X12185084Y21458512D01*
X12170001Y21461226D01*
X12163457Y21458512D01*
X12039566Y21458512D01*
X12021691Y21460442D01*
X12007981Y21453588D01*
X11993275Y21449269D01*
X11988635Y21443915D01*
X11915166Y21407181D01*
X11902836Y21404498D01*
X11888216Y21389879D01*
X11873091Y21375809D01*
X11872728Y21374391D01*
X11842498Y21344161D01*
X11828491Y21332883D01*
X11824187Y21319974D01*
X11809502Y21334659D01*
X11803059Y21345508D01*
X11784558Y21354759D01*
X11766436Y21364654D01*
X11764975Y21364550D01*
X11691734Y21401170D01*
X11676605Y21410893D01*
X11661275Y21410893D01*
X11646192Y21413607D01*
X11639648Y21410893D01*
X11563376Y21410893D01*
X11545501Y21412823D01*
X11531791Y21405969D01*
X11517085Y21401650D01*
X11512445Y21396296D01*
X11438976Y21359562D01*
X11426646Y21356879D01*
X11412026Y21342260D01*
X11396901Y21328190D01*
X11396538Y21326772D01*
X11370103Y21300337D01*
X11359254Y21293893D01*
X11350003Y21275393D01*
X11340108Y21257270D01*
X11340212Y21255810D01*
X11303592Y21182569D01*
X11293869Y21167439D01*
X11293869Y21152109D01*
X11291155Y21137026D01*
X10850893Y21137026D01*
X10850893Y21800960D01*
X11291499Y21800960D01*
X11309795Y21760896D01*
X11346847Y21737084D01*
X12174352Y21737084D01*
X12192236Y21735153D01*
X12205949Y21742010D01*
X12220652Y21746327D01*
X12225290Y21751681D01*
X12298759Y21788416D01*
X12311090Y21791098D01*
X12325710Y21805718D01*
X12340836Y21819787D01*
X12341198Y21821206D01*
X12367633Y21847640D01*
X12378484Y21854084D01*
X12387739Y21872596D01*
X12397629Y21890706D01*
X12397524Y21892166D01*
X12434147Y21965412D01*
X12443869Y21980538D01*
X12443869Y21995868D01*
X12446583Y22010951D01*
X12443869Y22017495D01*
X12443869Y22189005D01*
X12445799Y22206880D01*
X12438944Y22220590D01*
X12434626Y22235296D01*
X12429271Y22239936D01*
X12392536Y22313406D01*
X12389854Y22325736D01*
X12375238Y22340352D01*
X12361166Y22355480D01*
X12359746Y22355843D01*
X12333311Y22382278D01*
X12326868Y22393127D01*
X12308369Y22402377D01*
X12290244Y22412273D01*
X12288784Y22412169D01*
X12215543Y22448789D01*
X12200414Y22458512D01*
X12185084Y22458512D01*
X12170001Y22461226D01*
X12163457Y22458512D01*
X11358087Y22458512D01*
X11326609Y22449269D01*
X11297767Y22415983D01*
X11291499Y22372388D01*
X11309795Y22332324D01*
X11346847Y22308512D01*
X12160686Y22308512D01*
X12229204Y22274253D01*
X12259610Y22243849D01*
X12293869Y22175332D01*
X12293869Y22020266D01*
X12259610Y21951749D01*
X12229201Y21921341D01*
X12160687Y21887084D01*
X11358087Y21887084D01*
X11326609Y21877841D01*
X11297767Y21844555D01*
X11291499Y21800960D01*
X10850893Y21800960D01*
X10850893Y22988716D01*
X11291938Y22988716D01*
X11298794Y22975003D01*
X11303112Y22960300D01*
X11308465Y22955662D01*
X11345200Y22882193D01*
X11347883Y22869861D01*
X11362510Y22855234D01*
X11376572Y22840116D01*
X11377990Y22839754D01*
X11404425Y22813319D01*
X11410869Y22802469D01*
X11429378Y22793215D01*
X11447492Y22783324D01*
X11448950Y22783429D01*
X11522196Y22746806D01*
X11537323Y22737084D01*
X11552653Y22737084D01*
X11567736Y22734370D01*
X11574280Y22737084D01*
X11650543Y22737084D01*
X11668427Y22735153D01*
X11682140Y22742010D01*
X11696843Y22746327D01*
X11701481Y22751681D01*
X11774950Y22788416D01*
X11787282Y22791098D01*
X11801909Y22805726D01*
X11817027Y22819787D01*
X11817389Y22821206D01*
X11843824Y22847641D01*
X11854674Y22854084D01*
X11863928Y22872594D01*
X11873819Y22890707D01*
X11873714Y22892166D01*
X11906167Y22957071D01*
X11912479Y22963005D01*
X11915823Y22976383D01*
X11916963Y22978662D01*
X11918426Y22986795D01*
X11963442Y23166859D01*
X12001937Y23243848D01*
X12032342Y23274254D01*
X12100858Y23308512D01*
X12160686Y23308512D01*
X12229204Y23274253D01*
X12259610Y23243849D01*
X12293869Y23175332D01*
X12293869Y22967111D01*
X12246689Y22825572D01*
X12245504Y22792787D01*
X12267961Y22754899D01*
X12307337Y22735167D01*
X12351130Y22739854D01*
X12385437Y22767475D01*
X12437047Y22922305D01*
X12443869Y22932919D01*
X12443869Y22953598D01*
X12444615Y22974238D01*
X12443869Y22975497D01*
X12443869Y23189005D01*
X12445799Y23206880D01*
X12438944Y23220590D01*
X12434626Y23235296D01*
X12429271Y23239936D01*
X12392536Y23313406D01*
X12389854Y23325736D01*
X12375238Y23340352D01*
X12361166Y23355480D01*
X12359746Y23355843D01*
X12333311Y23382278D01*
X12326868Y23393127D01*
X12308369Y23402377D01*
X12290244Y23412273D01*
X12288784Y23412169D01*
X12215543Y23448789D01*
X12200414Y23458512D01*
X12185084Y23458512D01*
X12170001Y23461226D01*
X12163457Y23458512D01*
X12087185Y23458512D01*
X12069310Y23460442D01*
X12055600Y23453588D01*
X12040894Y23449269D01*
X12036254Y23443915D01*
X11962785Y23407181D01*
X11950455Y23404498D01*
X11935835Y23389879D01*
X11920710Y23375809D01*
X11920347Y23374391D01*
X11893912Y23347956D01*
X11883063Y23341512D01*
X11873812Y23323012D01*
X11863917Y23304889D01*
X11864021Y23303429D01*
X11831569Y23238525D01*
X11825258Y23232590D01*
X11821913Y23219213D01*
X11820774Y23216933D01*
X11819310Y23208801D01*
X11774294Y23028738D01*
X11735800Y22951749D01*
X11705393Y22921342D01*
X11636878Y22887084D01*
X11577051Y22887084D01*
X11508533Y22921343D01*
X11478126Y22951750D01*
X11443869Y23020265D01*
X11443869Y23228485D01*
X11491049Y23370023D01*
X11492234Y23402809D01*
X11469777Y23440697D01*
X11430401Y23460429D01*
X11386607Y23455741D01*
X11352301Y23428121D01*
X11300691Y23273293D01*
X11293869Y23262677D01*
X11293869Y23241997D01*
X11293123Y23221358D01*
X11293869Y23220099D01*
X11293869Y23006600D01*
X11291938Y22988716D01*
X10850893Y22988716D01*
X10850893Y24029345D01*
X12961607Y24029345D01*
X12961607Y16928155D01*
G37*
%TO.C,J3*%
X45182619Y4540239D02*
X46182619Y4873572D01*
X46182619Y4873572D02*
X45182619Y5206905D01*
X46182619Y5540239D02*
X45182619Y5540239D01*
X46182619Y6016429D02*
X45182619Y6016429D01*
X45182619Y6016429D02*
X46182619Y6587857D01*
X46182619Y6587857D02*
X45182619Y6587857D01*
X35022619Y4587858D02*
X35022619Y5206905D01*
X35022619Y5206905D02*
X35403571Y4873572D01*
X35403571Y4873572D02*
X35403571Y5016429D01*
X35403571Y5016429D02*
X35451190Y5111667D01*
X35451190Y5111667D02*
X35498809Y5159286D01*
X35498809Y5159286D02*
X35594047Y5206905D01*
X35594047Y5206905D02*
X35832142Y5206905D01*
X35832142Y5206905D02*
X35927380Y5159286D01*
X35927380Y5159286D02*
X35975000Y5111667D01*
X35975000Y5111667D02*
X36022619Y5016429D01*
X36022619Y5016429D02*
X36022619Y4730715D01*
X36022619Y4730715D02*
X35975000Y4635477D01*
X35975000Y4635477D02*
X35927380Y4587858D01*
X35927380Y5635477D02*
X35975000Y5683096D01*
X35975000Y5683096D02*
X36022619Y5635477D01*
X36022619Y5635477D02*
X35975000Y5587858D01*
X35975000Y5587858D02*
X35927380Y5635477D01*
X35927380Y5635477D02*
X36022619Y5635477D01*
X35022619Y6016429D02*
X35022619Y6635476D01*
X35022619Y6635476D02*
X35403571Y6302143D01*
X35403571Y6302143D02*
X35403571Y6445000D01*
X35403571Y6445000D02*
X35451190Y6540238D01*
X35451190Y6540238D02*
X35498809Y6587857D01*
X35498809Y6587857D02*
X35594047Y6635476D01*
X35594047Y6635476D02*
X35832142Y6635476D01*
X35832142Y6635476D02*
X35927380Y6587857D01*
X35927380Y6587857D02*
X35975000Y6540238D01*
X35975000Y6540238D02*
X36022619Y6445000D01*
X36022619Y6445000D02*
X36022619Y6159286D01*
X36022619Y6159286D02*
X35975000Y6064048D01*
X35975000Y6064048D02*
X35927380Y6016429D01*
X35022619Y6921191D02*
X36022619Y7254524D01*
X36022619Y7254524D02*
X35022619Y7587857D01*
X33482619Y5254524D02*
X33006428Y4921191D01*
X33482619Y4683096D02*
X32482619Y4683096D01*
X32482619Y4683096D02*
X32482619Y5064048D01*
X32482619Y5064048D02*
X32530238Y5159286D01*
X32530238Y5159286D02*
X32577857Y5206905D01*
X32577857Y5206905D02*
X32673095Y5254524D01*
X32673095Y5254524D02*
X32815952Y5254524D01*
X32815952Y5254524D02*
X32911190Y5206905D01*
X32911190Y5206905D02*
X32958809Y5159286D01*
X32958809Y5159286D02*
X33006428Y5064048D01*
X33006428Y5064048D02*
X33006428Y4683096D01*
X32958809Y5683096D02*
X32958809Y6016429D01*
X33482619Y6159286D02*
X33482619Y5683096D01*
X33482619Y5683096D02*
X32482619Y5683096D01*
X32482619Y5683096D02*
X32482619Y6159286D01*
X33435000Y6540239D02*
X33482619Y6683096D01*
X33482619Y6683096D02*
X33482619Y6921191D01*
X33482619Y6921191D02*
X33435000Y7016429D01*
X33435000Y7016429D02*
X33387380Y7064048D01*
X33387380Y7064048D02*
X33292142Y7111667D01*
X33292142Y7111667D02*
X33196904Y7111667D01*
X33196904Y7111667D02*
X33101666Y7064048D01*
X33101666Y7064048D02*
X33054047Y7016429D01*
X33054047Y7016429D02*
X33006428Y6921191D01*
X33006428Y6921191D02*
X32958809Y6730715D01*
X32958809Y6730715D02*
X32911190Y6635477D01*
X32911190Y6635477D02*
X32863571Y6587858D01*
X32863571Y6587858D02*
X32768333Y6540239D01*
X32768333Y6540239D02*
X32673095Y6540239D01*
X32673095Y6540239D02*
X32577857Y6587858D01*
X32577857Y6587858D02*
X32530238Y6635477D01*
X32530238Y6635477D02*
X32482619Y6730715D01*
X32482619Y6730715D02*
X32482619Y6968810D01*
X32482619Y6968810D02*
X32530238Y7111667D01*
X32958809Y7540239D02*
X32958809Y7873572D01*
X33482619Y8016429D02*
X33482619Y7540239D01*
X33482619Y7540239D02*
X32482619Y7540239D01*
X32482619Y7540239D02*
X32482619Y8016429D01*
X32482619Y8302144D02*
X32482619Y8873572D01*
X33482619Y8587858D02*
X32482619Y8587858D01*
X27878809Y5016429D02*
X27926428Y5159286D01*
X27926428Y5159286D02*
X27974047Y5206905D01*
X27974047Y5206905D02*
X28069285Y5254524D01*
X28069285Y5254524D02*
X28212142Y5254524D01*
X28212142Y5254524D02*
X28307380Y5206905D01*
X28307380Y5206905D02*
X28355000Y5159286D01*
X28355000Y5159286D02*
X28402619Y5064048D01*
X28402619Y5064048D02*
X28402619Y4683096D01*
X28402619Y4683096D02*
X27402619Y4683096D01*
X27402619Y4683096D02*
X27402619Y5016429D01*
X27402619Y5016429D02*
X27450238Y5111667D01*
X27450238Y5111667D02*
X27497857Y5159286D01*
X27497857Y5159286D02*
X27593095Y5206905D01*
X27593095Y5206905D02*
X27688333Y5206905D01*
X27688333Y5206905D02*
X27783571Y5159286D01*
X27783571Y5159286D02*
X27831190Y5111667D01*
X27831190Y5111667D02*
X27878809Y5016429D01*
X27878809Y5016429D02*
X27878809Y4683096D01*
X27402619Y5873572D02*
X27402619Y6064048D01*
X27402619Y6064048D02*
X27450238Y6159286D01*
X27450238Y6159286D02*
X27545476Y6254524D01*
X27545476Y6254524D02*
X27735952Y6302143D01*
X27735952Y6302143D02*
X28069285Y6302143D01*
X28069285Y6302143D02*
X28259761Y6254524D01*
X28259761Y6254524D02*
X28355000Y6159286D01*
X28355000Y6159286D02*
X28402619Y6064048D01*
X28402619Y6064048D02*
X28402619Y5873572D01*
X28402619Y5873572D02*
X28355000Y5778334D01*
X28355000Y5778334D02*
X28259761Y5683096D01*
X28259761Y5683096D02*
X28069285Y5635477D01*
X28069285Y5635477D02*
X27735952Y5635477D01*
X27735952Y5635477D02*
X27545476Y5683096D01*
X27545476Y5683096D02*
X27450238Y5778334D01*
X27450238Y5778334D02*
X27402619Y5873572D01*
X27402619Y6921191D02*
X27402619Y7111667D01*
X27402619Y7111667D02*
X27450238Y7206905D01*
X27450238Y7206905D02*
X27545476Y7302143D01*
X27545476Y7302143D02*
X27735952Y7349762D01*
X27735952Y7349762D02*
X28069285Y7349762D01*
X28069285Y7349762D02*
X28259761Y7302143D01*
X28259761Y7302143D02*
X28355000Y7206905D01*
X28355000Y7206905D02*
X28402619Y7111667D01*
X28402619Y7111667D02*
X28402619Y6921191D01*
X28402619Y6921191D02*
X28355000Y6825953D01*
X28355000Y6825953D02*
X28259761Y6730715D01*
X28259761Y6730715D02*
X28069285Y6683096D01*
X28069285Y6683096D02*
X27735952Y6683096D01*
X27735952Y6683096D02*
X27545476Y6730715D01*
X27545476Y6730715D02*
X27450238Y6825953D01*
X27450238Y6825953D02*
X27402619Y6921191D01*
X27402619Y7635477D02*
X27402619Y8206905D01*
X28402619Y7921191D02*
X27402619Y7921191D01*
X30942619Y4683096D02*
X29942619Y4683096D01*
X29942619Y5349762D02*
X29942619Y5540238D01*
X29942619Y5540238D02*
X29990238Y5635476D01*
X29990238Y5635476D02*
X30085476Y5730714D01*
X30085476Y5730714D02*
X30275952Y5778333D01*
X30275952Y5778333D02*
X30609285Y5778333D01*
X30609285Y5778333D02*
X30799761Y5730714D01*
X30799761Y5730714D02*
X30895000Y5635476D01*
X30895000Y5635476D02*
X30942619Y5540238D01*
X30942619Y5540238D02*
X30942619Y5349762D01*
X30942619Y5349762D02*
X30895000Y5254524D01*
X30895000Y5254524D02*
X30799761Y5159286D01*
X30799761Y5159286D02*
X30609285Y5111667D01*
X30609285Y5111667D02*
X30275952Y5111667D01*
X30275952Y5111667D02*
X30085476Y5159286D01*
X30085476Y5159286D02*
X29990238Y5254524D01*
X29990238Y5254524D02*
X29942619Y5349762D01*
X30942619Y6778333D02*
X30466428Y6445000D01*
X30942619Y6206905D02*
X29942619Y6206905D01*
X29942619Y6206905D02*
X29942619Y6587857D01*
X29942619Y6587857D02*
X29990238Y6683095D01*
X29990238Y6683095D02*
X30037857Y6730714D01*
X30037857Y6730714D02*
X30133095Y6778333D01*
X30133095Y6778333D02*
X30275952Y6778333D01*
X30275952Y6778333D02*
X30371190Y6730714D01*
X30371190Y6730714D02*
X30418809Y6683095D01*
X30418809Y6683095D02*
X30466428Y6587857D01*
X30466428Y6587857D02*
X30466428Y6206905D01*
X30418809Y7206905D02*
X30418809Y7540238D01*
X30942619Y7683095D02*
X30942619Y7206905D01*
X30942619Y7206905D02*
X29942619Y7206905D01*
X29942619Y7206905D02*
X29942619Y7683095D01*
X30418809Y8445000D02*
X30418809Y8111667D01*
X30942619Y8111667D02*
X29942619Y8111667D01*
X29942619Y8111667D02*
X29942619Y8587857D01*
X37562619Y5159286D02*
X37562619Y4683096D01*
X37562619Y4683096D02*
X38038809Y4635477D01*
X38038809Y4635477D02*
X37991190Y4683096D01*
X37991190Y4683096D02*
X37943571Y4778334D01*
X37943571Y4778334D02*
X37943571Y5016429D01*
X37943571Y5016429D02*
X37991190Y5111667D01*
X37991190Y5111667D02*
X38038809Y5159286D01*
X38038809Y5159286D02*
X38134047Y5206905D01*
X38134047Y5206905D02*
X38372142Y5206905D01*
X38372142Y5206905D02*
X38467380Y5159286D01*
X38467380Y5159286D02*
X38515000Y5111667D01*
X38515000Y5111667D02*
X38562619Y5016429D01*
X38562619Y5016429D02*
X38562619Y4778334D01*
X38562619Y4778334D02*
X38515000Y4683096D01*
X38515000Y4683096D02*
X38467380Y4635477D01*
X37562619Y5492620D02*
X38562619Y5825953D01*
X38562619Y5825953D02*
X37562619Y6159286D01*
G36*
X43012343Y5454210D02*
G01*
X43086455Y5380098D01*
X43124949Y5303112D01*
X43168333Y5129576D01*
X43168333Y5005187D01*
X43124949Y4831655D01*
X43086455Y4754666D01*
X43012343Y4680553D01*
X42897828Y4642381D01*
X42746905Y4642381D01*
X42746905Y5492381D01*
X42897830Y5492381D01*
X43012343Y5454210D01*
G37*
G36*
X43889167Y4077143D02*
G01*
X39930834Y4077143D01*
X39930834Y4999127D01*
X40498565Y4999127D01*
X40501667Y4986719D01*
X40501667Y4985171D01*
X40504271Y4976302D01*
X40548285Y4800247D01*
X40547355Y4791633D01*
X40553521Y4779300D01*
X40554140Y4776827D01*
X40558322Y4769700D01*
X40600617Y4685110D01*
X40603300Y4672778D01*
X40617929Y4658149D01*
X40631989Y4643033D01*
X40633407Y4642671D01*
X40711255Y4564822D01*
X40722534Y4550813D01*
X40737075Y4545966D01*
X40750528Y4538620D01*
X40757596Y4539126D01*
X40877363Y4499203D01*
X40887978Y4492381D01*
X40908657Y4492381D01*
X40929297Y4491635D01*
X40930556Y4492381D01*
X40995836Y4492381D01*
X41008063Y4489266D01*
X41027675Y4495804D01*
X41047498Y4501624D01*
X41048456Y4502731D01*
X41167980Y4542572D01*
X41185557Y4546395D01*
X41196398Y4557238D01*
X41208980Y4565981D01*
X41211687Y4572527D01*
X41239178Y4600020D01*
X41246902Y4603546D01*
X41254450Y4615292D01*
X41256371Y4617212D01*
X41260250Y4624317D01*
X41270714Y4640598D01*
X41270714Y4643479D01*
X41272094Y4646006D01*
X41270714Y4665295D01*
X41270714Y4990593D01*
X41273084Y5007077D01*
X41266164Y5022230D01*
X41261471Y5038213D01*
X41257158Y5041950D01*
X41254788Y5047141D01*
X41240771Y5056149D01*
X41228185Y5067055D01*
X41222538Y5067867D01*
X41217736Y5070953D01*
X41201074Y5070953D01*
X41184590Y5073323D01*
X41179400Y5070953D01*
X40994456Y5070953D01*
X40962978Y5061710D01*
X40934136Y5028424D01*
X40927868Y4984829D01*
X40946164Y4944765D01*
X40983216Y4920953D01*
X41120714Y4920953D01*
X41120714Y4693685D01*
X41107581Y4680553D01*
X40993066Y4642381D01*
X40922170Y4642381D01*
X40807655Y4680553D01*
X40733543Y4754667D01*
X40695050Y4831653D01*
X40651667Y5005187D01*
X40651667Y5129575D01*
X40695050Y5303109D01*
X40733545Y5380098D01*
X40807656Y5454210D01*
X40922171Y5492381D01*
X41035151Y5492381D01*
X41124197Y5447858D01*
X41156486Y5442048D01*
X41197169Y5458921D01*
X41222271Y5495111D01*
X41223824Y5539127D01*
X41217787Y5549291D01*
X41548242Y5549291D01*
X41549286Y5547464D01*
X41549286Y4556599D01*
X41558529Y4525121D01*
X41591815Y4496279D01*
X41635410Y4490011D01*
X41675474Y4508307D01*
X41699286Y4545359D01*
X41699286Y5284964D01*
X42126232Y4537807D01*
X42129957Y4525121D01*
X42145120Y4511982D01*
X42159588Y4498064D01*
X42161653Y4497657D01*
X42163243Y4496279D01*
X42183103Y4493424D01*
X42202798Y4489537D01*
X42204755Y4490311D01*
X42206838Y4490011D01*
X42225093Y4498348D01*
X42243759Y4505724D01*
X42244987Y4507433D01*
X42246902Y4508307D01*
X42257752Y4525192D01*
X42269467Y4541487D01*
X42269576Y4543590D01*
X42270714Y4545359D01*
X42270714Y4556257D01*
X42594535Y4556257D01*
X42601454Y4541105D01*
X42606148Y4525121D01*
X42610460Y4521385D01*
X42612831Y4516193D01*
X42626847Y4507186D01*
X42639434Y4496279D01*
X42645080Y4495468D01*
X42649883Y4492381D01*
X42666545Y4492381D01*
X42683029Y4490011D01*
X42688219Y4492381D01*
X42900598Y4492381D01*
X42912825Y4489266D01*
X42932437Y4495804D01*
X42952260Y4501624D01*
X42953218Y4502731D01*
X43072744Y4542573D01*
X43090318Y4546395D01*
X43101158Y4557236D01*
X43113742Y4565981D01*
X43116449Y4572528D01*
X43194479Y4650558D01*
X43205329Y4657001D01*
X43214579Y4675502D01*
X43224475Y4693625D01*
X43224370Y4695085D01*
X43256822Y4759988D01*
X43263134Y4765922D01*
X43266478Y4779300D01*
X43267618Y4781579D01*
X43269081Y4789712D01*
X43313100Y4965790D01*
X43318333Y4973931D01*
X43318333Y4986719D01*
X43318709Y4988223D01*
X43318333Y4997469D01*
X43318333Y5126467D01*
X43321435Y5135636D01*
X43318333Y5148044D01*
X43318333Y5149592D01*
X43315728Y5158462D01*
X43271714Y5334519D01*
X43272644Y5343130D01*
X43266478Y5355461D01*
X43265860Y5357936D01*
X43261672Y5365075D01*
X43219382Y5449655D01*
X43216700Y5461985D01*
X43202080Y5476605D01*
X43188011Y5491730D01*
X43186592Y5492093D01*
X43108743Y5569942D01*
X43097466Y5583949D01*
X43082924Y5588797D01*
X43069472Y5596142D01*
X43062404Y5595637D01*
X42942637Y5635559D01*
X42932022Y5642381D01*
X42911342Y5642381D01*
X42890703Y5643127D01*
X42889444Y5642381D01*
X42677265Y5642381D01*
X42660781Y5644751D01*
X42645628Y5637832D01*
X42629645Y5633138D01*
X42625908Y5628826D01*
X42620717Y5626455D01*
X42611709Y5612439D01*
X42600803Y5599852D01*
X42599991Y5594206D01*
X42596905Y5589403D01*
X42596905Y5572741D01*
X42594535Y5556257D01*
X42596905Y5551067D01*
X42596905Y4572741D01*
X42594535Y4556257D01*
X42270714Y4556257D01*
X42270714Y4565428D01*
X42271758Y4585471D01*
X42270714Y4587298D01*
X42270714Y5578163D01*
X42261471Y5609641D01*
X42228185Y5638483D01*
X42184590Y5644751D01*
X42144526Y5626455D01*
X42120714Y5589403D01*
X42120714Y4849798D01*
X41693767Y5596956D01*
X41690043Y5609641D01*
X41674879Y5622781D01*
X41660412Y5636698D01*
X41658346Y5637106D01*
X41656757Y5638483D01*
X41636896Y5641339D01*
X41617202Y5645225D01*
X41615244Y5644452D01*
X41613162Y5644751D01*
X41594906Y5636415D01*
X41576241Y5629038D01*
X41575012Y5627330D01*
X41573098Y5626455D01*
X41562247Y5609571D01*
X41550533Y5593275D01*
X41550423Y5591173D01*
X41549286Y5589403D01*
X41549286Y5569334D01*
X41548242Y5549291D01*
X41217787Y5549291D01*
X41201333Y5576996D01*
X41090008Y5632658D01*
X41074879Y5642381D01*
X41059549Y5642381D01*
X41044466Y5645095D01*
X41037922Y5642381D01*
X40919402Y5642381D01*
X40907174Y5645496D01*
X40887554Y5638957D01*
X40867740Y5633138D01*
X40866781Y5632032D01*
X40747252Y5592190D01*
X40729682Y5588367D01*
X40718843Y5577529D01*
X40706257Y5568781D01*
X40703548Y5562234D01*
X40625520Y5484206D01*
X40614671Y5477762D01*
X40605420Y5459262D01*
X40595525Y5441139D01*
X40595629Y5439679D01*
X40563177Y5374775D01*
X40556866Y5368840D01*
X40553521Y5355463D01*
X40552382Y5353183D01*
X40550918Y5345051D01*
X40506899Y5168974D01*
X40501667Y5160832D01*
X40501667Y5148044D01*
X40501291Y5146540D01*
X40501667Y5137294D01*
X40501667Y5008296D01*
X40498565Y4999127D01*
X39930834Y4999127D01*
X39930834Y6187857D01*
X43889167Y6187857D01*
X43889167Y4077143D01*
G37*
%TO.C,J4*%
X53516904Y4635477D02*
X53516904Y5111667D01*
X53802619Y4540239D02*
X52802619Y4873572D01*
X52802619Y4873572D02*
X53802619Y5206905D01*
X53802619Y6064048D02*
X53802619Y5492620D01*
X53802619Y5778334D02*
X52802619Y5778334D01*
X52802619Y5778334D02*
X52945476Y5683096D01*
X52945476Y5683096D02*
X53040714Y5587858D01*
X53040714Y5587858D02*
X53088333Y5492620D01*
X63676904Y4635477D02*
X63676904Y5111667D01*
X63962619Y4540239D02*
X62962619Y4873572D01*
X62962619Y4873572D02*
X63962619Y5206905D01*
X62962619Y6016429D02*
X62962619Y5540239D01*
X62962619Y5540239D02*
X63438809Y5492620D01*
X63438809Y5492620D02*
X63391190Y5540239D01*
X63391190Y5540239D02*
X63343571Y5635477D01*
X63343571Y5635477D02*
X63343571Y5873572D01*
X63343571Y5873572D02*
X63391190Y5968810D01*
X63391190Y5968810D02*
X63438809Y6016429D01*
X63438809Y6016429D02*
X63534047Y6064048D01*
X63534047Y6064048D02*
X63772142Y6064048D01*
X63772142Y6064048D02*
X63867380Y6016429D01*
X63867380Y6016429D02*
X63915000Y5968810D01*
X63915000Y5968810D02*
X63962619Y5873572D01*
X63962619Y5873572D02*
X63962619Y5635477D01*
X63962619Y5635477D02*
X63915000Y5540239D01*
X63915000Y5540239D02*
X63867380Y5492620D01*
X58596904Y4635477D02*
X58596904Y5111667D01*
X58882619Y4540239D02*
X57882619Y4873572D01*
X57882619Y4873572D02*
X58882619Y5206905D01*
X57882619Y5445001D02*
X57882619Y6064048D01*
X57882619Y6064048D02*
X58263571Y5730715D01*
X58263571Y5730715D02*
X58263571Y5873572D01*
X58263571Y5873572D02*
X58311190Y5968810D01*
X58311190Y5968810D02*
X58358809Y6016429D01*
X58358809Y6016429D02*
X58454047Y6064048D01*
X58454047Y6064048D02*
X58692142Y6064048D01*
X58692142Y6064048D02*
X58787380Y6016429D01*
X58787380Y6016429D02*
X58835000Y5968810D01*
X58835000Y5968810D02*
X58882619Y5873572D01*
X58882619Y5873572D02*
X58882619Y5587858D01*
X58882619Y5587858D02*
X58835000Y5492620D01*
X58835000Y5492620D02*
X58787380Y5445001D01*
X56056904Y4635477D02*
X56056904Y5111667D01*
X56342619Y4540239D02*
X55342619Y4873572D01*
X55342619Y4873572D02*
X56342619Y5206905D01*
X55437857Y5492620D02*
X55390238Y5540239D01*
X55390238Y5540239D02*
X55342619Y5635477D01*
X55342619Y5635477D02*
X55342619Y5873572D01*
X55342619Y5873572D02*
X55390238Y5968810D01*
X55390238Y5968810D02*
X55437857Y6016429D01*
X55437857Y6016429D02*
X55533095Y6064048D01*
X55533095Y6064048D02*
X55628333Y6064048D01*
X55628333Y6064048D02*
X55771190Y6016429D01*
X55771190Y6016429D02*
X56342619Y5445001D01*
X56342619Y5445001D02*
X56342619Y6064048D01*
X61136904Y4635477D02*
X61136904Y5111667D01*
X61422619Y4540239D02*
X60422619Y4873572D01*
X60422619Y4873572D02*
X61422619Y5206905D01*
X60755952Y5968810D02*
X61422619Y5968810D01*
X60375000Y5730715D02*
X61089285Y5492620D01*
X61089285Y5492620D02*
X61089285Y6111667D01*
X50976904Y4635477D02*
X50976904Y5111667D01*
X51262619Y4540239D02*
X50262619Y4873572D01*
X50262619Y4873572D02*
X51262619Y5206905D01*
X50262619Y5730715D02*
X50262619Y5825953D01*
X50262619Y5825953D02*
X50310238Y5921191D01*
X50310238Y5921191D02*
X50357857Y5968810D01*
X50357857Y5968810D02*
X50453095Y6016429D01*
X50453095Y6016429D02*
X50643571Y6064048D01*
X50643571Y6064048D02*
X50881666Y6064048D01*
X50881666Y6064048D02*
X51072142Y6016429D01*
X51072142Y6016429D02*
X51167380Y5968810D01*
X51167380Y5968810D02*
X51215000Y5921191D01*
X51215000Y5921191D02*
X51262619Y5825953D01*
X51262619Y5825953D02*
X51262619Y5730715D01*
X51262619Y5730715D02*
X51215000Y5635477D01*
X51215000Y5635477D02*
X51167380Y5587858D01*
X51167380Y5587858D02*
X51072142Y5540239D01*
X51072142Y5540239D02*
X50881666Y5492620D01*
X50881666Y5492620D02*
X50643571Y5492620D01*
X50643571Y5492620D02*
X50453095Y5540239D01*
X50453095Y5540239D02*
X50357857Y5587858D01*
X50357857Y5587858D02*
X50310238Y5635477D01*
X50310238Y5635477D02*
X50262619Y5730715D01*
%TO.C,J2*%
X21751000Y46275953D02*
X21798619Y46418810D01*
X21798619Y46418810D02*
X21798619Y46656905D01*
X21798619Y46656905D02*
X21751000Y46752143D01*
X21751000Y46752143D02*
X21703380Y46799762D01*
X21703380Y46799762D02*
X21608142Y46847381D01*
X21608142Y46847381D02*
X21512904Y46847381D01*
X21512904Y46847381D02*
X21417666Y46799762D01*
X21417666Y46799762D02*
X21370047Y46752143D01*
X21370047Y46752143D02*
X21322428Y46656905D01*
X21322428Y46656905D02*
X21274809Y46466429D01*
X21274809Y46466429D02*
X21227190Y46371191D01*
X21227190Y46371191D02*
X21179571Y46323572D01*
X21179571Y46323572D02*
X21084333Y46275953D01*
X21084333Y46275953D02*
X20989095Y46275953D01*
X20989095Y46275953D02*
X20893857Y46323572D01*
X20893857Y46323572D02*
X20846238Y46371191D01*
X20846238Y46371191D02*
X20798619Y46466429D01*
X20798619Y46466429D02*
X20798619Y46704524D01*
X20798619Y46704524D02*
X20846238Y46847381D01*
X21798619Y47275953D02*
X20798619Y47275953D01*
X20798619Y47275953D02*
X20798619Y47514048D01*
X20798619Y47514048D02*
X20846238Y47656905D01*
X20846238Y47656905D02*
X20941476Y47752143D01*
X20941476Y47752143D02*
X21036714Y47799762D01*
X21036714Y47799762D02*
X21227190Y47847381D01*
X21227190Y47847381D02*
X21370047Y47847381D01*
X21370047Y47847381D02*
X21560523Y47799762D01*
X21560523Y47799762D02*
X21655761Y47752143D01*
X21655761Y47752143D02*
X21751000Y47656905D01*
X21751000Y47656905D02*
X21798619Y47514048D01*
X21798619Y47514048D02*
X21798619Y47275953D01*
X21512904Y48228334D02*
X21512904Y48704524D01*
X21798619Y48133096D02*
X20798619Y48466429D01*
X20798619Y48466429D02*
X21798619Y48799762D01*
G36*
X26614345Y48586141D02*
G01*
X26691335Y48547646D01*
X26765447Y48473534D01*
X26803619Y48359020D01*
X26803619Y48208096D01*
X25953619Y48208096D01*
X25953619Y48359021D01*
X25991790Y48473535D01*
X26065902Y48547647D01*
X26142888Y48586141D01*
X26316424Y48629524D01*
X26440812Y48629524D01*
X26614345Y48586141D01*
G37*
G36*
X27471357Y45304524D02*
G01*
X25360643Y45304524D01*
X25360643Y46368366D01*
X25800504Y46368366D01*
X25807041Y46348754D01*
X25812862Y46328931D01*
X25813968Y46327973D01*
X25853810Y46208447D01*
X25857633Y46190873D01*
X25868473Y46180033D01*
X25877219Y46167449D01*
X25883764Y46164742D01*
X25961794Y46086712D01*
X25968238Y46075862D01*
X25986739Y46066612D01*
X26004861Y46056716D01*
X26006321Y46056821D01*
X26071224Y46024369D01*
X26077159Y46018057D01*
X26090536Y46014713D01*
X26092816Y46013573D01*
X26100948Y46012110D01*
X26277026Y45968091D01*
X26285168Y45962858D01*
X26297956Y45962858D01*
X26299460Y45962482D01*
X26308706Y45962858D01*
X26437704Y45962858D01*
X26446873Y45959756D01*
X26459281Y45962858D01*
X26460829Y45962858D01*
X26469698Y45965463D01*
X26645753Y46009477D01*
X26654367Y46008546D01*
X26666700Y46014713D01*
X26669173Y46015331D01*
X26676300Y46019514D01*
X26760890Y46061809D01*
X26773222Y46064491D01*
X26787851Y46079121D01*
X26802967Y46093180D01*
X26803329Y46094599D01*
X26881178Y46172447D01*
X26895187Y46183725D01*
X26900034Y46198267D01*
X26907380Y46211719D01*
X26906874Y46218788D01*
X26946797Y46338555D01*
X26953619Y46349169D01*
X26953619Y46369848D01*
X26954365Y46390488D01*
X26953619Y46391747D01*
X26953619Y46457027D01*
X26956734Y46469255D01*
X26950194Y46488875D01*
X26944376Y46508689D01*
X26943269Y46509648D01*
X26903426Y46629180D01*
X26899604Y46646748D01*
X26888766Y46657586D01*
X26880019Y46670172D01*
X26873470Y46672881D01*
X26845980Y46700371D01*
X26842454Y46708093D01*
X26830711Y46715640D01*
X26828788Y46717563D01*
X26821676Y46721447D01*
X26805402Y46731905D01*
X26802521Y46731905D01*
X26799994Y46733285D01*
X26780705Y46731905D01*
X26455407Y46731905D01*
X26438923Y46734275D01*
X26423770Y46727356D01*
X26407787Y46722662D01*
X26404050Y46718350D01*
X26398859Y46715979D01*
X26389851Y46701963D01*
X26378945Y46689376D01*
X26378133Y46683730D01*
X26375047Y46678927D01*
X26375047Y46662265D01*
X26372677Y46645781D01*
X26375047Y46640591D01*
X26375047Y46455647D01*
X26384290Y46424169D01*
X26417576Y46395327D01*
X26461171Y46389059D01*
X26501235Y46407355D01*
X26525047Y46444407D01*
X26525047Y46581905D01*
X26752315Y46581905D01*
X26765447Y46568773D01*
X26803619Y46454258D01*
X26803619Y46383361D01*
X26765447Y46268847D01*
X26691333Y46194735D01*
X26614347Y46156242D01*
X26440813Y46112858D01*
X26316424Y46112858D01*
X26142891Y46156242D01*
X26065902Y46194736D01*
X25991790Y46268848D01*
X25953619Y46383363D01*
X25953619Y46496342D01*
X25998142Y46585388D01*
X26003952Y46617677D01*
X25987079Y46658360D01*
X25950889Y46683462D01*
X25906873Y46685015D01*
X25869004Y46662524D01*
X25813342Y46551200D01*
X25803619Y46536070D01*
X25803619Y46520740D01*
X25800905Y46505657D01*
X25803619Y46499113D01*
X25803619Y46380593D01*
X25800504Y46368366D01*
X25360643Y46368366D01*
X25360643Y47078393D01*
X25800775Y47078393D01*
X25801548Y47076436D01*
X25801249Y47074353D01*
X25809585Y47056098D01*
X25816962Y47037432D01*
X25818670Y47036204D01*
X25819545Y47034289D01*
X25836429Y47023439D01*
X25852725Y47011724D01*
X25854827Y47011615D01*
X25856597Y47010477D01*
X25876666Y47010477D01*
X25896709Y47009433D01*
X25898536Y47010477D01*
X26889401Y47010477D01*
X26920879Y47019720D01*
X26949721Y47053006D01*
X26955989Y47096601D01*
X26937693Y47136665D01*
X26900641Y47160477D01*
X26161036Y47160477D01*
X26908193Y47587424D01*
X26920879Y47591148D01*
X26934018Y47606312D01*
X26947936Y47620779D01*
X26948343Y47622845D01*
X26949721Y47624434D01*
X26952576Y47644295D01*
X26956463Y47663989D01*
X26955689Y47665947D01*
X26955989Y47668029D01*
X26947652Y47686285D01*
X26940276Y47704950D01*
X26938567Y47706179D01*
X26937693Y47708093D01*
X26920808Y47718944D01*
X26904513Y47730658D01*
X26902410Y47730768D01*
X26900641Y47731905D01*
X26880572Y47731905D01*
X26860529Y47732949D01*
X26858702Y47731905D01*
X25867837Y47731905D01*
X25836359Y47722662D01*
X25807517Y47689376D01*
X25801249Y47645781D01*
X25819545Y47605717D01*
X25856597Y47581905D01*
X26596202Y47581905D01*
X25849044Y47154959D01*
X25836359Y47151234D01*
X25823219Y47136071D01*
X25809302Y47121603D01*
X25808894Y47119538D01*
X25807517Y47117948D01*
X25804661Y47098088D01*
X25800775Y47078393D01*
X25360643Y47078393D01*
X25360643Y48121972D01*
X25801249Y48121972D01*
X25808168Y48106820D01*
X25812862Y48090836D01*
X25817174Y48087100D01*
X25819545Y48081908D01*
X25833561Y48072901D01*
X25846148Y48061994D01*
X25851794Y48061183D01*
X25856597Y48058096D01*
X25873259Y48058096D01*
X25889743Y48055726D01*
X25894933Y48058096D01*
X26873259Y48058096D01*
X26889743Y48055726D01*
X26904895Y48062646D01*
X26920879Y48067339D01*
X26924615Y48071652D01*
X26929807Y48074022D01*
X26938814Y48088039D01*
X26949721Y48100625D01*
X26950532Y48106272D01*
X26953619Y48111074D01*
X26953619Y48127736D01*
X26955989Y48144220D01*
X26953619Y48149410D01*
X26953619Y48361789D01*
X26956734Y48374017D01*
X26950194Y48393637D01*
X26944376Y48413451D01*
X26943269Y48414410D01*
X26903427Y48533939D01*
X26899605Y48551509D01*
X26888766Y48562348D01*
X26880019Y48574934D01*
X26873471Y48577643D01*
X26795442Y48655671D01*
X26788999Y48666520D01*
X26770494Y48675773D01*
X26752375Y48685666D01*
X26750915Y48685562D01*
X26686011Y48718014D01*
X26680077Y48724325D01*
X26666699Y48727670D01*
X26664420Y48728809D01*
X26656287Y48730273D01*
X26480210Y48774292D01*
X26472069Y48779524D01*
X26459281Y48779524D01*
X26457777Y48779900D01*
X26448531Y48779524D01*
X26319533Y48779524D01*
X26310364Y48782626D01*
X26297956Y48779524D01*
X26296408Y48779524D01*
X26287538Y48776920D01*
X26111481Y48732906D01*
X26102870Y48733835D01*
X26090539Y48727670D01*
X26088064Y48727051D01*
X26080925Y48722864D01*
X25996345Y48680574D01*
X25984015Y48677891D01*
X25969395Y48663272D01*
X25954270Y48649202D01*
X25953907Y48647784D01*
X25876058Y48569935D01*
X25862051Y48558657D01*
X25857203Y48544116D01*
X25849858Y48530663D01*
X25850363Y48523596D01*
X25810441Y48403829D01*
X25803619Y48393213D01*
X25803619Y48372533D01*
X25802873Y48351894D01*
X25803619Y48350635D01*
X25803619Y48138456D01*
X25801249Y48121972D01*
X25360643Y48121972D01*
X25360643Y49262857D01*
X27471357Y49262857D01*
X27471357Y45304524D01*
G37*
X34498619Y47752143D02*
X34498619Y47180715D01*
X34498619Y47466429D02*
X33498619Y47466429D01*
X33498619Y47466429D02*
X33641476Y47371191D01*
X33641476Y47371191D02*
X33736714Y47275953D01*
X33736714Y47275953D02*
X33784333Y47180715D01*
X34498619Y48704524D02*
X34498619Y48133096D01*
X34498619Y48418810D02*
X33498619Y48418810D01*
X33498619Y48418810D02*
X33641476Y48323572D01*
X33641476Y48323572D02*
X33736714Y48228334D01*
X33736714Y48228334D02*
X33784333Y48133096D01*
X39578619Y48228334D02*
X39578619Y48418810D01*
X39578619Y48418810D02*
X39531000Y48514048D01*
X39531000Y48514048D02*
X39483380Y48561667D01*
X39483380Y48561667D02*
X39340523Y48656905D01*
X39340523Y48656905D02*
X39150047Y48704524D01*
X39150047Y48704524D02*
X38769095Y48704524D01*
X38769095Y48704524D02*
X38673857Y48656905D01*
X38673857Y48656905D02*
X38626238Y48609286D01*
X38626238Y48609286D02*
X38578619Y48514048D01*
X38578619Y48514048D02*
X38578619Y48323572D01*
X38578619Y48323572D02*
X38626238Y48228334D01*
X38626238Y48228334D02*
X38673857Y48180715D01*
X38673857Y48180715D02*
X38769095Y48133096D01*
X38769095Y48133096D02*
X39007190Y48133096D01*
X39007190Y48133096D02*
X39102428Y48180715D01*
X39102428Y48180715D02*
X39150047Y48228334D01*
X39150047Y48228334D02*
X39197666Y48323572D01*
X39197666Y48323572D02*
X39197666Y48514048D01*
X39197666Y48514048D02*
X39150047Y48609286D01*
X39150047Y48609286D02*
X39102428Y48656905D01*
X39102428Y48656905D02*
X39007190Y48704524D01*
X37038619Y47752143D02*
X37038619Y47180715D01*
X37038619Y47466429D02*
X36038619Y47466429D01*
X36038619Y47466429D02*
X36181476Y47371191D01*
X36181476Y47371191D02*
X36276714Y47275953D01*
X36276714Y47275953D02*
X36324333Y47180715D01*
X36038619Y48371191D02*
X36038619Y48466429D01*
X36038619Y48466429D02*
X36086238Y48561667D01*
X36086238Y48561667D02*
X36133857Y48609286D01*
X36133857Y48609286D02*
X36229095Y48656905D01*
X36229095Y48656905D02*
X36419571Y48704524D01*
X36419571Y48704524D02*
X36657666Y48704524D01*
X36657666Y48704524D02*
X36848142Y48656905D01*
X36848142Y48656905D02*
X36943380Y48609286D01*
X36943380Y48609286D02*
X36991000Y48561667D01*
X36991000Y48561667D02*
X37038619Y48466429D01*
X37038619Y48466429D02*
X37038619Y48371191D01*
X37038619Y48371191D02*
X36991000Y48275953D01*
X36991000Y48275953D02*
X36943380Y48228334D01*
X36943380Y48228334D02*
X36848142Y48180715D01*
X36848142Y48180715D02*
X36657666Y48133096D01*
X36657666Y48133096D02*
X36419571Y48133096D01*
X36419571Y48133096D02*
X36229095Y48180715D01*
X36229095Y48180715D02*
X36133857Y48228334D01*
X36133857Y48228334D02*
X36086238Y48275953D01*
X36086238Y48275953D02*
X36038619Y48371191D01*
X19211000Y46323572D02*
X19258619Y46466429D01*
X19258619Y46466429D02*
X19258619Y46704524D01*
X19258619Y46704524D02*
X19211000Y46799762D01*
X19211000Y46799762D02*
X19163380Y46847381D01*
X19163380Y46847381D02*
X19068142Y46895000D01*
X19068142Y46895000D02*
X18972904Y46895000D01*
X18972904Y46895000D02*
X18877666Y46847381D01*
X18877666Y46847381D02*
X18830047Y46799762D01*
X18830047Y46799762D02*
X18782428Y46704524D01*
X18782428Y46704524D02*
X18734809Y46514048D01*
X18734809Y46514048D02*
X18687190Y46418810D01*
X18687190Y46418810D02*
X18639571Y46371191D01*
X18639571Y46371191D02*
X18544333Y46323572D01*
X18544333Y46323572D02*
X18449095Y46323572D01*
X18449095Y46323572D02*
X18353857Y46371191D01*
X18353857Y46371191D02*
X18306238Y46418810D01*
X18306238Y46418810D02*
X18258619Y46514048D01*
X18258619Y46514048D02*
X18258619Y46752143D01*
X18258619Y46752143D02*
X18306238Y46895000D01*
X19163380Y47895000D02*
X19211000Y47847381D01*
X19211000Y47847381D02*
X19258619Y47704524D01*
X19258619Y47704524D02*
X19258619Y47609286D01*
X19258619Y47609286D02*
X19211000Y47466429D01*
X19211000Y47466429D02*
X19115761Y47371191D01*
X19115761Y47371191D02*
X19020523Y47323572D01*
X19020523Y47323572D02*
X18830047Y47275953D01*
X18830047Y47275953D02*
X18687190Y47275953D01*
X18687190Y47275953D02*
X18496714Y47323572D01*
X18496714Y47323572D02*
X18401476Y47371191D01*
X18401476Y47371191D02*
X18306238Y47466429D01*
X18306238Y47466429D02*
X18258619Y47609286D01*
X18258619Y47609286D02*
X18258619Y47704524D01*
X18258619Y47704524D02*
X18306238Y47847381D01*
X18306238Y47847381D02*
X18353857Y47895000D01*
X19258619Y48799762D02*
X19258619Y48323572D01*
X19258619Y48323572D02*
X18258619Y48323572D01*
X24052904Y45466429D02*
X24052904Y45942619D01*
X24338619Y45371191D02*
X23338619Y45704524D01*
X23338619Y45704524D02*
X24338619Y46037857D01*
X24338619Y46942619D02*
X23862428Y46609286D01*
X24338619Y46371191D02*
X23338619Y46371191D01*
X23338619Y46371191D02*
X23338619Y46752143D01*
X23338619Y46752143D02*
X23386238Y46847381D01*
X23386238Y46847381D02*
X23433857Y46895000D01*
X23433857Y46895000D02*
X23529095Y46942619D01*
X23529095Y46942619D02*
X23671952Y46942619D01*
X23671952Y46942619D02*
X23767190Y46895000D01*
X23767190Y46895000D02*
X23814809Y46847381D01*
X23814809Y46847381D02*
X23862428Y46752143D01*
X23862428Y46752143D02*
X23862428Y46371191D01*
X23814809Y47371191D02*
X23814809Y47704524D01*
X24338619Y47847381D02*
X24338619Y47371191D01*
X24338619Y47371191D02*
X23338619Y47371191D01*
X23338619Y47371191D02*
X23338619Y47847381D01*
X23814809Y48609286D02*
X23814809Y48275953D01*
X24338619Y48275953D02*
X23338619Y48275953D01*
X23338619Y48275953D02*
X23338619Y48752143D01*
X41547190Y48323572D02*
X41499571Y48228334D01*
X41499571Y48228334D02*
X41451952Y48180715D01*
X41451952Y48180715D02*
X41356714Y48133096D01*
X41356714Y48133096D02*
X41309095Y48133096D01*
X41309095Y48133096D02*
X41213857Y48180715D01*
X41213857Y48180715D02*
X41166238Y48228334D01*
X41166238Y48228334D02*
X41118619Y48323572D01*
X41118619Y48323572D02*
X41118619Y48514048D01*
X41118619Y48514048D02*
X41166238Y48609286D01*
X41166238Y48609286D02*
X41213857Y48656905D01*
X41213857Y48656905D02*
X41309095Y48704524D01*
X41309095Y48704524D02*
X41356714Y48704524D01*
X41356714Y48704524D02*
X41451952Y48656905D01*
X41451952Y48656905D02*
X41499571Y48609286D01*
X41499571Y48609286D02*
X41547190Y48514048D01*
X41547190Y48514048D02*
X41547190Y48323572D01*
X41547190Y48323572D02*
X41594809Y48228334D01*
X41594809Y48228334D02*
X41642428Y48180715D01*
X41642428Y48180715D02*
X41737666Y48133096D01*
X41737666Y48133096D02*
X41928142Y48133096D01*
X41928142Y48133096D02*
X42023380Y48180715D01*
X42023380Y48180715D02*
X42071000Y48228334D01*
X42071000Y48228334D02*
X42118619Y48323572D01*
X42118619Y48323572D02*
X42118619Y48514048D01*
X42118619Y48514048D02*
X42071000Y48609286D01*
X42071000Y48609286D02*
X42023380Y48656905D01*
X42023380Y48656905D02*
X41928142Y48704524D01*
X41928142Y48704524D02*
X41737666Y48704524D01*
X41737666Y48704524D02*
X41642428Y48656905D01*
X41642428Y48656905D02*
X41594809Y48609286D01*
X41594809Y48609286D02*
X41547190Y48514048D01*
X29418619Y47752143D02*
X29418619Y47180715D01*
X29418619Y47466429D02*
X28418619Y47466429D01*
X28418619Y47466429D02*
X28561476Y47371191D01*
X28561476Y47371191D02*
X28656714Y47275953D01*
X28656714Y47275953D02*
X28704333Y47180715D01*
X28418619Y48085477D02*
X28418619Y48704524D01*
X28418619Y48704524D02*
X28799571Y48371191D01*
X28799571Y48371191D02*
X28799571Y48514048D01*
X28799571Y48514048D02*
X28847190Y48609286D01*
X28847190Y48609286D02*
X28894809Y48656905D01*
X28894809Y48656905D02*
X28990047Y48704524D01*
X28990047Y48704524D02*
X29228142Y48704524D01*
X29228142Y48704524D02*
X29323380Y48656905D01*
X29323380Y48656905D02*
X29371000Y48609286D01*
X29371000Y48609286D02*
X29418619Y48514048D01*
X29418619Y48514048D02*
X29418619Y48228334D01*
X29418619Y48228334D02*
X29371000Y48133096D01*
X29371000Y48133096D02*
X29323380Y48085477D01*
X31958619Y47752143D02*
X31958619Y47180715D01*
X31958619Y47466429D02*
X30958619Y47466429D01*
X30958619Y47466429D02*
X31101476Y47371191D01*
X31101476Y47371191D02*
X31196714Y47275953D01*
X31196714Y47275953D02*
X31244333Y47180715D01*
X31053857Y48133096D02*
X31006238Y48180715D01*
X31006238Y48180715D02*
X30958619Y48275953D01*
X30958619Y48275953D02*
X30958619Y48514048D01*
X30958619Y48514048D02*
X31006238Y48609286D01*
X31006238Y48609286D02*
X31053857Y48656905D01*
X31053857Y48656905D02*
X31149095Y48704524D01*
X31149095Y48704524D02*
X31244333Y48704524D01*
X31244333Y48704524D02*
X31387190Y48656905D01*
X31387190Y48656905D02*
X31958619Y48085477D01*
X31958619Y48085477D02*
X31958619Y48704524D01*
%TO.C,J1*%
X57977857Y48133096D02*
X57930238Y48180715D01*
X57930238Y48180715D02*
X57882619Y48275953D01*
X57882619Y48275953D02*
X57882619Y48514048D01*
X57882619Y48514048D02*
X57930238Y48609286D01*
X57930238Y48609286D02*
X57977857Y48656905D01*
X57977857Y48656905D02*
X58073095Y48704524D01*
X58073095Y48704524D02*
X58168333Y48704524D01*
X58168333Y48704524D02*
X58311190Y48656905D01*
X58311190Y48656905D02*
X58882619Y48085477D01*
X58882619Y48085477D02*
X58882619Y48704524D01*
X55342619Y48085477D02*
X55342619Y48704524D01*
X55342619Y48704524D02*
X55723571Y48371191D01*
X55723571Y48371191D02*
X55723571Y48514048D01*
X55723571Y48514048D02*
X55771190Y48609286D01*
X55771190Y48609286D02*
X55818809Y48656905D01*
X55818809Y48656905D02*
X55914047Y48704524D01*
X55914047Y48704524D02*
X56152142Y48704524D01*
X56152142Y48704524D02*
X56247380Y48656905D01*
X56247380Y48656905D02*
X56295000Y48609286D01*
X56295000Y48609286D02*
X56342619Y48514048D01*
X56342619Y48514048D02*
X56342619Y48228334D01*
X56342619Y48228334D02*
X56295000Y48133096D01*
X56295000Y48133096D02*
X56247380Y48085477D01*
X50262619Y48656905D02*
X50262619Y48180715D01*
X50262619Y48180715D02*
X50738809Y48133096D01*
X50738809Y48133096D02*
X50691190Y48180715D01*
X50691190Y48180715D02*
X50643571Y48275953D01*
X50643571Y48275953D02*
X50643571Y48514048D01*
X50643571Y48514048D02*
X50691190Y48609286D01*
X50691190Y48609286D02*
X50738809Y48656905D01*
X50738809Y48656905D02*
X50834047Y48704524D01*
X50834047Y48704524D02*
X51072142Y48704524D01*
X51072142Y48704524D02*
X51167380Y48656905D01*
X51167380Y48656905D02*
X51215000Y48609286D01*
X51215000Y48609286D02*
X51262619Y48514048D01*
X51262619Y48514048D02*
X51262619Y48275953D01*
X51262619Y48275953D02*
X51215000Y48180715D01*
X51215000Y48180715D02*
X51167380Y48133096D01*
X47722619Y48609286D02*
X47722619Y48418810D01*
X47722619Y48418810D02*
X47770238Y48323572D01*
X47770238Y48323572D02*
X47817857Y48275953D01*
X47817857Y48275953D02*
X47960714Y48180715D01*
X47960714Y48180715D02*
X48151190Y48133096D01*
X48151190Y48133096D02*
X48532142Y48133096D01*
X48532142Y48133096D02*
X48627380Y48180715D01*
X48627380Y48180715D02*
X48675000Y48228334D01*
X48675000Y48228334D02*
X48722619Y48323572D01*
X48722619Y48323572D02*
X48722619Y48514048D01*
X48722619Y48514048D02*
X48675000Y48609286D01*
X48675000Y48609286D02*
X48627380Y48656905D01*
X48627380Y48656905D02*
X48532142Y48704524D01*
X48532142Y48704524D02*
X48294047Y48704524D01*
X48294047Y48704524D02*
X48198809Y48656905D01*
X48198809Y48656905D02*
X48151190Y48609286D01*
X48151190Y48609286D02*
X48103571Y48514048D01*
X48103571Y48514048D02*
X48103571Y48323572D01*
X48103571Y48323572D02*
X48151190Y48228334D01*
X48151190Y48228334D02*
X48198809Y48180715D01*
X48198809Y48180715D02*
X48294047Y48133096D01*
X53135952Y48609286D02*
X53802619Y48609286D01*
X52755000Y48371191D02*
X53469285Y48133096D01*
X53469285Y48133096D02*
X53469285Y48752143D01*
X63962619Y45561667D02*
X63486428Y45228334D01*
X63962619Y44990239D02*
X62962619Y44990239D01*
X62962619Y44990239D02*
X62962619Y45371191D01*
X62962619Y45371191D02*
X63010238Y45466429D01*
X63010238Y45466429D02*
X63057857Y45514048D01*
X63057857Y45514048D02*
X63153095Y45561667D01*
X63153095Y45561667D02*
X63295952Y45561667D01*
X63295952Y45561667D02*
X63391190Y45514048D01*
X63391190Y45514048D02*
X63438809Y45466429D01*
X63438809Y45466429D02*
X63486428Y45371191D01*
X63486428Y45371191D02*
X63486428Y44990239D01*
X62962619Y45895001D02*
X63962619Y46561667D01*
X62962619Y46561667D02*
X63962619Y45895001D01*
X63581666Y47704524D02*
X63581666Y46942620D01*
X63772142Y47133096D02*
X63581666Y46942620D01*
X63581666Y46942620D02*
X63391190Y47133096D01*
X62962619Y48371191D02*
X62962619Y48466429D01*
X62962619Y48466429D02*
X63010238Y48561667D01*
X63010238Y48561667D02*
X63057857Y48609286D01*
X63057857Y48609286D02*
X63153095Y48656905D01*
X63153095Y48656905D02*
X63343571Y48704524D01*
X63343571Y48704524D02*
X63581666Y48704524D01*
X63581666Y48704524D02*
X63772142Y48656905D01*
X63772142Y48656905D02*
X63867380Y48609286D01*
X63867380Y48609286D02*
X63915000Y48561667D01*
X63915000Y48561667D02*
X63962619Y48466429D01*
X63962619Y48466429D02*
X63962619Y48371191D01*
X63962619Y48371191D02*
X63915000Y48275953D01*
X63915000Y48275953D02*
X63867380Y48228334D01*
X63867380Y48228334D02*
X63772142Y48180715D01*
X63772142Y48180715D02*
X63581666Y48133096D01*
X63581666Y48133096D02*
X63343571Y48133096D01*
X63343571Y48133096D02*
X63153095Y48180715D01*
X63153095Y48180715D02*
X63057857Y48228334D01*
X63057857Y48228334D02*
X63010238Y48275953D01*
X63010238Y48275953D02*
X62962619Y48371191D01*
X60422619Y45085477D02*
X60422619Y45656905D01*
X61422619Y45371191D02*
X60422619Y45371191D01*
X60422619Y45895001D02*
X61422619Y46561667D01*
X60422619Y46561667D02*
X61422619Y45895001D01*
X61041666Y46942620D02*
X61041666Y47704524D01*
X61232142Y47514048D02*
X61041666Y47704524D01*
X61041666Y47704524D02*
X60851190Y47514048D01*
X61422619Y48704524D02*
X61422619Y48133096D01*
X61422619Y48418810D02*
X60422619Y48418810D01*
X60422619Y48418810D02*
X60565476Y48323572D01*
X60565476Y48323572D02*
X60660714Y48228334D01*
X60660714Y48228334D02*
X60708333Y48133096D01*
X45182619Y48085477D02*
X45182619Y48752143D01*
X45182619Y48752143D02*
X46182619Y48323572D01*
%TO.C,SW1*%
X59678809Y13930477D02*
X59726428Y14073334D01*
X59726428Y14073334D02*
X59774047Y14120953D01*
X59774047Y14120953D02*
X59869285Y14168572D01*
X59869285Y14168572D02*
X60012142Y14168572D01*
X60012142Y14168572D02*
X60107380Y14120953D01*
X60107380Y14120953D02*
X60155000Y14073334D01*
X60155000Y14073334D02*
X60202619Y13978096D01*
X60202619Y13978096D02*
X60202619Y13597144D01*
X60202619Y13597144D02*
X59202619Y13597144D01*
X59202619Y13597144D02*
X59202619Y13930477D01*
X59202619Y13930477D02*
X59250238Y14025715D01*
X59250238Y14025715D02*
X59297857Y14073334D01*
X59297857Y14073334D02*
X59393095Y14120953D01*
X59393095Y14120953D02*
X59488333Y14120953D01*
X59488333Y14120953D02*
X59583571Y14073334D01*
X59583571Y14073334D02*
X59631190Y14025715D01*
X59631190Y14025715D02*
X59678809Y13930477D01*
X59678809Y13930477D02*
X59678809Y13597144D01*
X59202619Y14454287D02*
X59202619Y15025715D01*
X60202619Y14740001D02*
X59202619Y14740001D01*
X60202619Y15359049D02*
X59202619Y15359049D01*
X59202619Y15359049D02*
X60202619Y15930477D01*
X60202619Y15930477D02*
X59202619Y15930477D01*
X60202619Y16930477D02*
X60202619Y16359049D01*
X60202619Y16644763D02*
X59202619Y16644763D01*
X59202619Y16644763D02*
X59345476Y16549525D01*
X59345476Y16549525D02*
X59440714Y16454287D01*
X59440714Y16454287D02*
X59488333Y16359049D01*
%TO.C,SW2*%
X59678809Y26630477D02*
X59726428Y26773334D01*
X59726428Y26773334D02*
X59774047Y26820953D01*
X59774047Y26820953D02*
X59869285Y26868572D01*
X59869285Y26868572D02*
X60012142Y26868572D01*
X60012142Y26868572D02*
X60107380Y26820953D01*
X60107380Y26820953D02*
X60155000Y26773334D01*
X60155000Y26773334D02*
X60202619Y26678096D01*
X60202619Y26678096D02*
X60202619Y26297144D01*
X60202619Y26297144D02*
X59202619Y26297144D01*
X59202619Y26297144D02*
X59202619Y26630477D01*
X59202619Y26630477D02*
X59250238Y26725715D01*
X59250238Y26725715D02*
X59297857Y26773334D01*
X59297857Y26773334D02*
X59393095Y26820953D01*
X59393095Y26820953D02*
X59488333Y26820953D01*
X59488333Y26820953D02*
X59583571Y26773334D01*
X59583571Y26773334D02*
X59631190Y26725715D01*
X59631190Y26725715D02*
X59678809Y26630477D01*
X59678809Y26630477D02*
X59678809Y26297144D01*
X59202619Y27154287D02*
X59202619Y27725715D01*
X60202619Y27440001D02*
X59202619Y27440001D01*
X60202619Y28059049D02*
X59202619Y28059049D01*
X59202619Y28059049D02*
X60202619Y28630477D01*
X60202619Y28630477D02*
X59202619Y28630477D01*
X59297857Y29059049D02*
X59250238Y29106668D01*
X59250238Y29106668D02*
X59202619Y29201906D01*
X59202619Y29201906D02*
X59202619Y29440001D01*
X59202619Y29440001D02*
X59250238Y29535239D01*
X59250238Y29535239D02*
X59297857Y29582858D01*
X59297857Y29582858D02*
X59393095Y29630477D01*
X59393095Y29630477D02*
X59488333Y29630477D01*
X59488333Y29630477D02*
X59631190Y29582858D01*
X59631190Y29582858D02*
X60202619Y29011430D01*
X60202619Y29011430D02*
X60202619Y29630477D01*
%TO.C,D5*%
X46502619Y13763572D02*
X46502619Y13954048D01*
X46502619Y13954048D02*
X46550238Y14049286D01*
X46550238Y14049286D02*
X46645476Y14144524D01*
X46645476Y14144524D02*
X46835952Y14192143D01*
X46835952Y14192143D02*
X47169285Y14192143D01*
X47169285Y14192143D02*
X47359761Y14144524D01*
X47359761Y14144524D02*
X47455000Y14049286D01*
X47455000Y14049286D02*
X47502619Y13954048D01*
X47502619Y13954048D02*
X47502619Y13763572D01*
X47502619Y13763572D02*
X47455000Y13668334D01*
X47455000Y13668334D02*
X47359761Y13573096D01*
X47359761Y13573096D02*
X47169285Y13525477D01*
X47169285Y13525477D02*
X46835952Y13525477D01*
X46835952Y13525477D02*
X46645476Y13573096D01*
X46645476Y13573096D02*
X46550238Y13668334D01*
X46550238Y13668334D02*
X46502619Y13763572D01*
X47502619Y14620715D02*
X46502619Y14620715D01*
X46502619Y14620715D02*
X47502619Y15192143D01*
X47502619Y15192143D02*
X46502619Y15192143D01*
%TO.C,D6*%
X47502619Y19923096D02*
X46502619Y19923096D01*
X46502619Y19923096D02*
X46502619Y20161191D01*
X46502619Y20161191D02*
X46550238Y20304048D01*
X46550238Y20304048D02*
X46645476Y20399286D01*
X46645476Y20399286D02*
X46740714Y20446905D01*
X46740714Y20446905D02*
X46931190Y20494524D01*
X46931190Y20494524D02*
X47074047Y20494524D01*
X47074047Y20494524D02*
X47264523Y20446905D01*
X47264523Y20446905D02*
X47359761Y20399286D01*
X47359761Y20399286D02*
X47455000Y20304048D01*
X47455000Y20304048D02*
X47502619Y20161191D01*
X47502619Y20161191D02*
X47502619Y19923096D01*
X46978809Y20923096D02*
X46978809Y21256429D01*
X47502619Y21399286D02*
X47502619Y20923096D01*
X47502619Y20923096D02*
X46502619Y20923096D01*
X46502619Y20923096D02*
X46502619Y21399286D01*
%TO.C,R2*%
X56250095Y40468572D02*
X56250095Y40011429D01*
X56250095Y40240001D02*
X55450095Y40240001D01*
X55450095Y40240001D02*
X55564380Y40163810D01*
X55564380Y40163810D02*
X55640571Y40087620D01*
X55640571Y40087620D02*
X55678666Y40011429D01*
X56250095Y40811430D02*
X55450095Y40811430D01*
X56250095Y41268573D02*
X55792952Y40925715D01*
X55450095Y41268573D02*
X55907238Y40811430D01*
%TO.C,U1*%
X11845119Y8398096D02*
X12845119Y9064762D01*
X11845119Y9064762D02*
X12845119Y8398096D01*
X12749880Y10017143D02*
X12797500Y9969524D01*
X12797500Y9969524D02*
X12845119Y9826667D01*
X12845119Y9826667D02*
X12845119Y9731429D01*
X12845119Y9731429D02*
X12797500Y9588572D01*
X12797500Y9588572D02*
X12702261Y9493334D01*
X12702261Y9493334D02*
X12607023Y9445715D01*
X12607023Y9445715D02*
X12416547Y9398096D01*
X12416547Y9398096D02*
X12273690Y9398096D01*
X12273690Y9398096D02*
X12083214Y9445715D01*
X12083214Y9445715D02*
X11987976Y9493334D01*
X11987976Y9493334D02*
X11892738Y9588572D01*
X11892738Y9588572D02*
X11845119Y9731429D01*
X11845119Y9731429D02*
X11845119Y9826667D01*
X11845119Y9826667D02*
X11892738Y9969524D01*
X11892738Y9969524D02*
X11940357Y10017143D01*
X11845119Y10302858D02*
X12845119Y10636191D01*
X12845119Y10636191D02*
X11845119Y10969524D01*
X12845119Y11874286D02*
X12368928Y11540953D01*
X12845119Y11302858D02*
X11845119Y11302858D01*
X11845119Y11302858D02*
X11845119Y11683810D01*
X11845119Y11683810D02*
X11892738Y11779048D01*
X11892738Y11779048D02*
X11940357Y11826667D01*
X11940357Y11826667D02*
X12035595Y11874286D01*
X12035595Y11874286D02*
X12178452Y11874286D01*
X12178452Y11874286D02*
X12273690Y11826667D01*
X12273690Y11826667D02*
X12321309Y11779048D01*
X12321309Y11779048D02*
X12368928Y11683810D01*
X12368928Y11683810D02*
X12368928Y11302858D01*
X10940119Y7945715D02*
X10463928Y7612382D01*
X10940119Y7374287D02*
X9940119Y7374287D01*
X9940119Y7374287D02*
X9940119Y7755239D01*
X9940119Y7755239D02*
X9987738Y7850477D01*
X9987738Y7850477D02*
X10035357Y7898096D01*
X10035357Y7898096D02*
X10130595Y7945715D01*
X10130595Y7945715D02*
X10273452Y7945715D01*
X10273452Y7945715D02*
X10368690Y7898096D01*
X10368690Y7898096D02*
X10416309Y7850477D01*
X10416309Y7850477D02*
X10463928Y7755239D01*
X10463928Y7755239D02*
X10463928Y7374287D01*
X10892500Y8326668D02*
X10940119Y8469525D01*
X10940119Y8469525D02*
X10940119Y8707620D01*
X10940119Y8707620D02*
X10892500Y8802858D01*
X10892500Y8802858D02*
X10844880Y8850477D01*
X10844880Y8850477D02*
X10749642Y8898096D01*
X10749642Y8898096D02*
X10654404Y8898096D01*
X10654404Y8898096D02*
X10559166Y8850477D01*
X10559166Y8850477D02*
X10511547Y8802858D01*
X10511547Y8802858D02*
X10463928Y8707620D01*
X10463928Y8707620D02*
X10416309Y8517144D01*
X10416309Y8517144D02*
X10368690Y8421906D01*
X10368690Y8421906D02*
X10321071Y8374287D01*
X10321071Y8374287D02*
X10225833Y8326668D01*
X10225833Y8326668D02*
X10130595Y8326668D01*
X10130595Y8326668D02*
X10035357Y8374287D01*
X10035357Y8374287D02*
X9987738Y8421906D01*
X9987738Y8421906D02*
X9940119Y8517144D01*
X9940119Y8517144D02*
X9940119Y8755239D01*
X9940119Y8755239D02*
X9987738Y8898096D01*
X10559166Y9326668D02*
X10559166Y10088572D01*
X10273452Y10993334D02*
X10940119Y10993334D01*
X9892500Y10755239D02*
X10606785Y10517144D01*
X10606785Y10517144D02*
X10606785Y11136191D01*
X10368690Y11660001D02*
X10321071Y11564763D01*
X10321071Y11564763D02*
X10273452Y11517144D01*
X10273452Y11517144D02*
X10178214Y11469525D01*
X10178214Y11469525D02*
X10130595Y11469525D01*
X10130595Y11469525D02*
X10035357Y11517144D01*
X10035357Y11517144D02*
X9987738Y11564763D01*
X9987738Y11564763D02*
X9940119Y11660001D01*
X9940119Y11660001D02*
X9940119Y11850477D01*
X9940119Y11850477D02*
X9987738Y11945715D01*
X9987738Y11945715D02*
X10035357Y11993334D01*
X10035357Y11993334D02*
X10130595Y12040953D01*
X10130595Y12040953D02*
X10178214Y12040953D01*
X10178214Y12040953D02*
X10273452Y11993334D01*
X10273452Y11993334D02*
X10321071Y11945715D01*
X10321071Y11945715D02*
X10368690Y11850477D01*
X10368690Y11850477D02*
X10368690Y11660001D01*
X10368690Y11660001D02*
X10416309Y11564763D01*
X10416309Y11564763D02*
X10463928Y11517144D01*
X10463928Y11517144D02*
X10559166Y11469525D01*
X10559166Y11469525D02*
X10749642Y11469525D01*
X10749642Y11469525D02*
X10844880Y11517144D01*
X10844880Y11517144D02*
X10892500Y11564763D01*
X10892500Y11564763D02*
X10940119Y11660001D01*
X10940119Y11660001D02*
X10940119Y11850477D01*
X10940119Y11850477D02*
X10892500Y11945715D01*
X10892500Y11945715D02*
X10844880Y11993334D01*
X10844880Y11993334D02*
X10749642Y12040953D01*
X10749642Y12040953D02*
X10559166Y12040953D01*
X10559166Y12040953D02*
X10463928Y11993334D01*
X10463928Y11993334D02*
X10416309Y11945715D01*
X10416309Y11945715D02*
X10368690Y11850477D01*
X9940119Y12945715D02*
X9940119Y12469525D01*
X9940119Y12469525D02*
X10416309Y12421906D01*
X10416309Y12421906D02*
X10368690Y12469525D01*
X10368690Y12469525D02*
X10321071Y12564763D01*
X10321071Y12564763D02*
X10321071Y12802858D01*
X10321071Y12802858D02*
X10368690Y12898096D01*
X10368690Y12898096D02*
X10416309Y12945715D01*
X10416309Y12945715D02*
X10511547Y12993334D01*
X10511547Y12993334D02*
X10749642Y12993334D01*
X10749642Y12993334D02*
X10844880Y12945715D01*
X10844880Y12945715D02*
X10892500Y12898096D01*
X10892500Y12898096D02*
X10940119Y12802858D01*
X10940119Y12802858D02*
X10940119Y12564763D01*
X10940119Y12564763D02*
X10892500Y12469525D01*
X10892500Y12469525D02*
X10844880Y12421906D01*
%TO.C,J5*%
X9547619Y21344049D02*
X8547619Y21344049D01*
X8547619Y21344049D02*
X8547619Y21582144D01*
X8547619Y21582144D02*
X8595238Y21725001D01*
X8595238Y21725001D02*
X8690476Y21820239D01*
X8690476Y21820239D02*
X8785714Y21867858D01*
X8785714Y21867858D02*
X8976190Y21915477D01*
X8976190Y21915477D02*
X9119047Y21915477D01*
X9119047Y21915477D02*
X9309523Y21867858D01*
X9309523Y21867858D02*
X9404761Y21820239D01*
X9404761Y21820239D02*
X9500000Y21725001D01*
X9500000Y21725001D02*
X9547619Y21582144D01*
X9547619Y21582144D02*
X9547619Y21344049D01*
X9166666Y22344049D02*
X9166666Y23105953D01*
G36*
X9283345Y19939951D02*
G01*
X9360335Y19901456D01*
X9434447Y19827344D01*
X9472619Y19712830D01*
X9472619Y19561906D01*
X8622619Y19561906D01*
X8622619Y19712831D01*
X8660790Y19827345D01*
X8734902Y19901457D01*
X8811888Y19939951D01*
X8985424Y19983334D01*
X9109812Y19983334D01*
X9283345Y19939951D01*
G37*
G36*
X10242857Y16745834D02*
G01*
X8132143Y16745834D01*
X8132143Y17722176D01*
X8469504Y17722176D01*
X8476041Y17702564D01*
X8481862Y17682741D01*
X8482968Y17681783D01*
X8522810Y17562257D01*
X8526633Y17544683D01*
X8537473Y17533843D01*
X8546219Y17521259D01*
X8552764Y17518552D01*
X8630794Y17440522D01*
X8637238Y17429672D01*
X8655739Y17420422D01*
X8673861Y17410526D01*
X8675321Y17410631D01*
X8740224Y17378179D01*
X8746159Y17371867D01*
X8759536Y17368523D01*
X8761816Y17367383D01*
X8769948Y17365920D01*
X8946026Y17321901D01*
X8954168Y17316668D01*
X8966956Y17316668D01*
X8968460Y17316292D01*
X8977706Y17316668D01*
X9106704Y17316668D01*
X9115873Y17313566D01*
X9128281Y17316668D01*
X9129829Y17316668D01*
X9138698Y17319273D01*
X9314753Y17363287D01*
X9323367Y17362356D01*
X9335700Y17368523D01*
X9338173Y17369141D01*
X9345300Y17373324D01*
X9429890Y17415619D01*
X9442222Y17418301D01*
X9456851Y17432931D01*
X9471967Y17446990D01*
X9472329Y17448409D01*
X9550178Y17526257D01*
X9564187Y17537535D01*
X9569034Y17552077D01*
X9576380Y17565529D01*
X9575874Y17572598D01*
X9615797Y17692365D01*
X9622619Y17702979D01*
X9622619Y17723658D01*
X9623365Y17744298D01*
X9622619Y17745557D01*
X9622619Y17810837D01*
X9625734Y17823065D01*
X9619194Y17842685D01*
X9613376Y17862499D01*
X9612269Y17863458D01*
X9572426Y17982990D01*
X9568604Y18000558D01*
X9557766Y18011396D01*
X9549019Y18023982D01*
X9542470Y18026691D01*
X9514980Y18054181D01*
X9511454Y18061903D01*
X9499711Y18069450D01*
X9497788Y18071373D01*
X9490676Y18075257D01*
X9474402Y18085715D01*
X9471521Y18085715D01*
X9468994Y18087095D01*
X9449705Y18085715D01*
X9124407Y18085715D01*
X9107923Y18088085D01*
X9092770Y18081166D01*
X9076787Y18076472D01*
X9073050Y18072160D01*
X9067859Y18069789D01*
X9058851Y18055773D01*
X9047945Y18043186D01*
X9047133Y18037540D01*
X9044047Y18032737D01*
X9044047Y18016075D01*
X9041677Y17999591D01*
X9044047Y17994401D01*
X9044047Y17809457D01*
X9053290Y17777979D01*
X9086576Y17749137D01*
X9130171Y17742869D01*
X9170235Y17761165D01*
X9194047Y17798217D01*
X9194047Y17935715D01*
X9421315Y17935715D01*
X9434447Y17922583D01*
X9472619Y17808068D01*
X9472619Y17737171D01*
X9434447Y17622657D01*
X9360333Y17548545D01*
X9283347Y17510052D01*
X9109813Y17466668D01*
X8985424Y17466668D01*
X8811891Y17510052D01*
X8734902Y17548546D01*
X8660790Y17622658D01*
X8622619Y17737173D01*
X8622619Y17850152D01*
X8667142Y17939198D01*
X8672952Y17971487D01*
X8656079Y18012170D01*
X8619889Y18037272D01*
X8575873Y18038825D01*
X8538004Y18016334D01*
X8482342Y17905010D01*
X8472619Y17889880D01*
X8472619Y17874550D01*
X8469905Y17859467D01*
X8472619Y17852923D01*
X8472619Y17734403D01*
X8469504Y17722176D01*
X8132143Y17722176D01*
X8132143Y18432203D01*
X8469775Y18432203D01*
X8470548Y18430246D01*
X8470249Y18428163D01*
X8478585Y18409908D01*
X8485962Y18391242D01*
X8487670Y18390014D01*
X8488545Y18388099D01*
X8505429Y18377249D01*
X8521725Y18365534D01*
X8523827Y18365425D01*
X8525597Y18364287D01*
X8545666Y18364287D01*
X8565709Y18363243D01*
X8567536Y18364287D01*
X9558401Y18364287D01*
X9589879Y18373530D01*
X9618721Y18406816D01*
X9624989Y18450411D01*
X9606693Y18490475D01*
X9569641Y18514287D01*
X8830036Y18514287D01*
X9577193Y18941234D01*
X9589879Y18944958D01*
X9603018Y18960122D01*
X9616936Y18974589D01*
X9617343Y18976655D01*
X9618721Y18978244D01*
X9621576Y18998105D01*
X9625463Y19017799D01*
X9624689Y19019757D01*
X9624989Y19021839D01*
X9616652Y19040095D01*
X9609276Y19058760D01*
X9607567Y19059989D01*
X9606693Y19061903D01*
X9589808Y19072754D01*
X9573513Y19084468D01*
X9571410Y19084578D01*
X9569641Y19085715D01*
X9549572Y19085715D01*
X9529529Y19086759D01*
X9527702Y19085715D01*
X8536837Y19085715D01*
X8505359Y19076472D01*
X8476517Y19043186D01*
X8470249Y18999591D01*
X8488545Y18959527D01*
X8525597Y18935715D01*
X9265202Y18935715D01*
X8518044Y18508769D01*
X8505359Y18505044D01*
X8492219Y18489881D01*
X8478302Y18475413D01*
X8477894Y18473348D01*
X8476517Y18471758D01*
X8473661Y18451898D01*
X8469775Y18432203D01*
X8132143Y18432203D01*
X8132143Y19475782D01*
X8470249Y19475782D01*
X8477168Y19460630D01*
X8481862Y19444646D01*
X8486174Y19440910D01*
X8488545Y19435718D01*
X8502561Y19426711D01*
X8515148Y19415804D01*
X8520794Y19414993D01*
X8525597Y19411906D01*
X8542259Y19411906D01*
X8558743Y19409536D01*
X8563933Y19411906D01*
X9542259Y19411906D01*
X9558743Y19409536D01*
X9573895Y19416456D01*
X9589879Y19421149D01*
X9593615Y19425462D01*
X9598807Y19427832D01*
X9607814Y19441849D01*
X9618721Y19454435D01*
X9619532Y19460082D01*
X9622619Y19464884D01*
X9622619Y19481546D01*
X9624989Y19498030D01*
X9622619Y19503220D01*
X9622619Y19715599D01*
X9625734Y19727827D01*
X9619194Y19747447D01*
X9613376Y19767261D01*
X9612269Y19768220D01*
X9572427Y19887749D01*
X9568605Y19905319D01*
X9557766Y19916158D01*
X9549019Y19928744D01*
X9542471Y19931453D01*
X9464442Y20009481D01*
X9457999Y20020330D01*
X9439494Y20029583D01*
X9421375Y20039476D01*
X9419915Y20039372D01*
X9355011Y20071824D01*
X9349077Y20078135D01*
X9335699Y20081480D01*
X9333420Y20082619D01*
X9325287Y20084083D01*
X9149210Y20128102D01*
X9141069Y20133334D01*
X9128281Y20133334D01*
X9126777Y20133710D01*
X9117531Y20133334D01*
X8988533Y20133334D01*
X8979364Y20136436D01*
X8966956Y20133334D01*
X8965408Y20133334D01*
X8956538Y20130730D01*
X8780481Y20086716D01*
X8771870Y20087645D01*
X8759539Y20081480D01*
X8757064Y20080861D01*
X8749925Y20076674D01*
X8665345Y20034384D01*
X8653015Y20031701D01*
X8638395Y20017082D01*
X8623270Y20003012D01*
X8622907Y20001594D01*
X8545058Y19923745D01*
X8531051Y19912467D01*
X8526203Y19897926D01*
X8518858Y19884473D01*
X8519363Y19877406D01*
X8479441Y19757639D01*
X8472619Y19747023D01*
X8472619Y19726343D01*
X8471873Y19705704D01*
X8472619Y19704445D01*
X8472619Y19492266D01*
X8470249Y19475782D01*
X8132143Y19475782D01*
X8132143Y20704167D01*
X10242857Y20704167D01*
X10242857Y16745834D01*
G37*
X9547619Y24844049D02*
X8547619Y24844049D01*
X8547619Y24844049D02*
X8547619Y25082144D01*
X8547619Y25082144D02*
X8595238Y25225001D01*
X8595238Y25225001D02*
X8690476Y25320239D01*
X8690476Y25320239D02*
X8785714Y25367858D01*
X8785714Y25367858D02*
X8976190Y25415477D01*
X8976190Y25415477D02*
X9119047Y25415477D01*
X9119047Y25415477D02*
X9309523Y25367858D01*
X9309523Y25367858D02*
X9404761Y25320239D01*
X9404761Y25320239D02*
X9500000Y25225001D01*
X9500000Y25225001D02*
X9547619Y25082144D01*
X9547619Y25082144D02*
X9547619Y24844049D01*
X9166666Y25844049D02*
X9166666Y26605953D01*
X9547619Y26225001D02*
X8785714Y26225001D01*
%TO.C,R3*%
X53710095Y40468572D02*
X53710095Y40011429D01*
X53710095Y40240001D02*
X52910095Y40240001D01*
X52910095Y40240001D02*
X53024380Y40163810D01*
X53024380Y40163810D02*
X53100571Y40087620D01*
X53100571Y40087620D02*
X53138666Y40011429D01*
X53710095Y40811430D02*
X52910095Y40811430D01*
X53710095Y41268573D02*
X53252952Y40925715D01*
X52910095Y41268573D02*
X53367238Y40811430D01*
%TO.C,R1*%
X58790095Y40468572D02*
X58790095Y40011429D01*
X58790095Y40240001D02*
X57990095Y40240001D01*
X57990095Y40240001D02*
X58104380Y40163810D01*
X58104380Y40163810D02*
X58180571Y40087620D01*
X58180571Y40087620D02*
X58218666Y40011429D01*
X58790095Y40811430D02*
X57990095Y40811430D01*
X58790095Y41268573D02*
X58332952Y40925715D01*
X57990095Y41268573D02*
X58447238Y40811430D01*
%TO.C,D3*%
X53852619Y26749286D02*
X53852619Y26273096D01*
X53852619Y26273096D02*
X52852619Y26273096D01*
X52852619Y26987382D02*
X52852619Y27606429D01*
X52852619Y27606429D02*
X53233571Y27273096D01*
X53233571Y27273096D02*
X53233571Y27415953D01*
X53233571Y27415953D02*
X53281190Y27511191D01*
X53281190Y27511191D02*
X53328809Y27558810D01*
X53328809Y27558810D02*
X53424047Y27606429D01*
X53424047Y27606429D02*
X53662142Y27606429D01*
X53662142Y27606429D02*
X53757380Y27558810D01*
X53757380Y27558810D02*
X53805000Y27511191D01*
X53805000Y27511191D02*
X53852619Y27415953D01*
X53852619Y27415953D02*
X53852619Y27130239D01*
X53852619Y27130239D02*
X53805000Y27035001D01*
X53805000Y27035001D02*
X53757380Y26987382D01*
%TO.C,SW4*%
X22701667Y35462500D02*
X22844524Y35414881D01*
X22844524Y35414881D02*
X23082619Y35414881D01*
X23082619Y35414881D02*
X23177857Y35462500D01*
X23177857Y35462500D02*
X23225476Y35510120D01*
X23225476Y35510120D02*
X23273095Y35605358D01*
X23273095Y35605358D02*
X23273095Y35700596D01*
X23273095Y35700596D02*
X23225476Y35795834D01*
X23225476Y35795834D02*
X23177857Y35843453D01*
X23177857Y35843453D02*
X23082619Y35891072D01*
X23082619Y35891072D02*
X22892143Y35938691D01*
X22892143Y35938691D02*
X22796905Y35986310D01*
X22796905Y35986310D02*
X22749286Y36033929D01*
X22749286Y36033929D02*
X22701667Y36129167D01*
X22701667Y36129167D02*
X22701667Y36224405D01*
X22701667Y36224405D02*
X22749286Y36319643D01*
X22749286Y36319643D02*
X22796905Y36367262D01*
X22796905Y36367262D02*
X22892143Y36414881D01*
X22892143Y36414881D02*
X23130238Y36414881D01*
X23130238Y36414881D02*
X23273095Y36367262D01*
X23606429Y36414881D02*
X23844524Y35414881D01*
X23844524Y35414881D02*
X24035000Y36129167D01*
X24035000Y36129167D02*
X24225476Y35414881D01*
X24225476Y35414881D02*
X24463572Y36414881D01*
X25606429Y35795834D02*
X26368334Y35795834D01*
X26177857Y35605358D02*
X26368334Y35795834D01*
X26368334Y35795834D02*
X26177857Y35986310D01*
X25796905Y35986310D02*
X25606429Y35795834D01*
X25606429Y35795834D02*
X25796905Y35605358D01*
X27606429Y35414881D02*
X27606429Y36414881D01*
X27606429Y35938691D02*
X28177857Y35938691D01*
X28177857Y35414881D02*
X28177857Y36414881D01*
X28558810Y36414881D02*
X28796905Y35414881D01*
X28796905Y35414881D02*
X28987381Y36129167D01*
X28987381Y36129167D02*
X29177857Y35414881D01*
X29177857Y35414881D02*
X29415953Y36414881D01*
X24439762Y34509881D02*
X24439762Y33700358D01*
X24439762Y33700358D02*
X24487381Y33605120D01*
X24487381Y33605120D02*
X24535000Y33557500D01*
X24535000Y33557500D02*
X24630238Y33509881D01*
X24630238Y33509881D02*
X24820714Y33509881D01*
X24820714Y33509881D02*
X24915952Y33557500D01*
X24915952Y33557500D02*
X24963571Y33605120D01*
X24963571Y33605120D02*
X25011190Y33700358D01*
X25011190Y33700358D02*
X25011190Y34509881D01*
X25439762Y33795596D02*
X25915952Y33795596D01*
X25344524Y33509881D02*
X25677857Y34509881D01*
X25677857Y34509881D02*
X26011190Y33509881D01*
X26915952Y33509881D02*
X26582619Y33986072D01*
X26344524Y33509881D02*
X26344524Y34509881D01*
X26344524Y34509881D02*
X26725476Y34509881D01*
X26725476Y34509881D02*
X26820714Y34462262D01*
X26820714Y34462262D02*
X26868333Y34414643D01*
X26868333Y34414643D02*
X26915952Y34319405D01*
X26915952Y34319405D02*
X26915952Y34176548D01*
X26915952Y34176548D02*
X26868333Y34081310D01*
X26868333Y34081310D02*
X26820714Y34033691D01*
X26820714Y34033691D02*
X26725476Y33986072D01*
X26725476Y33986072D02*
X26344524Y33986072D01*
X27201667Y34509881D02*
X27773095Y34509881D01*
X27487381Y33509881D02*
X27487381Y34509881D01*
%TO.C,RV1*%
X39832619Y13279524D02*
X39832619Y12708096D01*
X39832619Y12993810D02*
X38832619Y12993810D01*
X38832619Y12993810D02*
X38975476Y12898572D01*
X38975476Y12898572D02*
X39070714Y12803334D01*
X39070714Y12803334D02*
X39118333Y12708096D01*
X38832619Y13898572D02*
X38832619Y13993810D01*
X38832619Y13993810D02*
X38880238Y14089048D01*
X38880238Y14089048D02*
X38927857Y14136667D01*
X38927857Y14136667D02*
X39023095Y14184286D01*
X39023095Y14184286D02*
X39213571Y14231905D01*
X39213571Y14231905D02*
X39451666Y14231905D01*
X39451666Y14231905D02*
X39642142Y14184286D01*
X39642142Y14184286D02*
X39737380Y14136667D01*
X39737380Y14136667D02*
X39785000Y14089048D01*
X39785000Y14089048D02*
X39832619Y13993810D01*
X39832619Y13993810D02*
X39832619Y13898572D01*
X39832619Y13898572D02*
X39785000Y13803334D01*
X39785000Y13803334D02*
X39737380Y13755715D01*
X39737380Y13755715D02*
X39642142Y13708096D01*
X39642142Y13708096D02*
X39451666Y13660477D01*
X39451666Y13660477D02*
X39213571Y13660477D01*
X39213571Y13660477D02*
X39023095Y13708096D01*
X39023095Y13708096D02*
X38927857Y13755715D01*
X38927857Y13755715D02*
X38880238Y13803334D01*
X38880238Y13803334D02*
X38832619Y13898572D01*
X39832619Y14660477D02*
X38832619Y14660477D01*
X39832619Y15231905D02*
X39261190Y14803334D01*
X38832619Y15231905D02*
X39404047Y14660477D01*
X34311788Y16704862D02*
X33604681Y17411969D01*
X33604681Y17411969D02*
X33874055Y17681343D01*
X33874055Y17681343D02*
X33975070Y17715014D01*
X33975070Y17715014D02*
X34042414Y17715014D01*
X34042414Y17715014D02*
X34143429Y17681343D01*
X34143429Y17681343D02*
X34244444Y17580327D01*
X34244444Y17580327D02*
X34278116Y17479312D01*
X34278116Y17479312D02*
X34278116Y17411969D01*
X34278116Y17411969D02*
X34244444Y17310953D01*
X34244444Y17310953D02*
X33975070Y17041579D01*
X34446475Y18253762D02*
X34581162Y18388449D01*
X34581162Y18388449D02*
X34682177Y18422121D01*
X34682177Y18422121D02*
X34816864Y18422121D01*
X34816864Y18422121D02*
X34985223Y18321106D01*
X34985223Y18321106D02*
X35220925Y18085404D01*
X35220925Y18085404D02*
X35321940Y17917045D01*
X35321940Y17917045D02*
X35321940Y17782358D01*
X35321940Y17782358D02*
X35288269Y17681343D01*
X35288269Y17681343D02*
X35153582Y17546656D01*
X35153582Y17546656D02*
X35052566Y17512984D01*
X35052566Y17512984D02*
X34917879Y17512984D01*
X34917879Y17512984D02*
X34749521Y17613999D01*
X34749521Y17613999D02*
X34513818Y17849701D01*
X34513818Y17849701D02*
X34412803Y18018060D01*
X34412803Y18018060D02*
X34412803Y18152747D01*
X34412803Y18152747D02*
X34446475Y18253762D01*
X34951551Y18758839D02*
X35355612Y19162900D01*
X35860688Y18253762D02*
X35153582Y18960869D01*
X36668811Y19061884D02*
X36264750Y18657823D01*
X36466780Y18859854D02*
X35759673Y19566961D01*
X35759673Y19566961D02*
X35793345Y19398602D01*
X35793345Y19398602D02*
X35793345Y19263915D01*
X35793345Y19263915D02*
X35759673Y19162900D01*
%TO.C,D2*%
X53852619Y20399286D02*
X53852619Y19923096D01*
X53852619Y19923096D02*
X52852619Y19923096D01*
X52947857Y20685001D02*
X52900238Y20732620D01*
X52900238Y20732620D02*
X52852619Y20827858D01*
X52852619Y20827858D02*
X52852619Y21065953D01*
X52852619Y21065953D02*
X52900238Y21161191D01*
X52900238Y21161191D02*
X52947857Y21208810D01*
X52947857Y21208810D02*
X53043095Y21256429D01*
X53043095Y21256429D02*
X53138333Y21256429D01*
X53138333Y21256429D02*
X53281190Y21208810D01*
X53281190Y21208810D02*
X53852619Y20637382D01*
X53852619Y20637382D02*
X53852619Y21256429D01*
%TO.C,R4*%
X51170095Y40468572D02*
X51170095Y40011429D01*
X51170095Y40240001D02*
X50370095Y40240001D01*
X50370095Y40240001D02*
X50484380Y40163810D01*
X50484380Y40163810D02*
X50560571Y40087620D01*
X50560571Y40087620D02*
X50598666Y40011429D01*
X51170095Y40811430D02*
X50370095Y40811430D01*
X51170095Y41268573D02*
X50712952Y40925715D01*
X50370095Y41268573D02*
X50827238Y40811430D01*
%TO.C,D7*%
X46502619Y26130239D02*
X46502619Y26701667D01*
X47502619Y26415953D02*
X46502619Y26415953D01*
X46502619Y26939763D02*
X47502619Y27606429D01*
X46502619Y27606429D02*
X47502619Y26939763D01*
%TO.C,D8*%
X47502619Y33194524D02*
X47026428Y32861191D01*
X47502619Y32623096D02*
X46502619Y32623096D01*
X46502619Y32623096D02*
X46502619Y33004048D01*
X46502619Y33004048D02*
X46550238Y33099286D01*
X46550238Y33099286D02*
X46597857Y33146905D01*
X46597857Y33146905D02*
X46693095Y33194524D01*
X46693095Y33194524D02*
X46835952Y33194524D01*
X46835952Y33194524D02*
X46931190Y33146905D01*
X46931190Y33146905D02*
X46978809Y33099286D01*
X46978809Y33099286D02*
X47026428Y33004048D01*
X47026428Y33004048D02*
X47026428Y32623096D01*
X46502619Y33527858D02*
X47502619Y34194524D01*
X46502619Y34194524D02*
X47502619Y33527858D01*
%TO.C,R9*%
X38470095Y40087619D02*
X38470095Y39630476D01*
X38470095Y39859048D02*
X37670095Y39859048D01*
X37670095Y39859048D02*
X37784380Y39782857D01*
X37784380Y39782857D02*
X37860571Y39706667D01*
X37860571Y39706667D02*
X37898666Y39630476D01*
X37670095Y40582858D02*
X37670095Y40659048D01*
X37670095Y40659048D02*
X37708190Y40735239D01*
X37708190Y40735239D02*
X37746285Y40773334D01*
X37746285Y40773334D02*
X37822476Y40811429D01*
X37822476Y40811429D02*
X37974857Y40849524D01*
X37974857Y40849524D02*
X38165333Y40849524D01*
X38165333Y40849524D02*
X38317714Y40811429D01*
X38317714Y40811429D02*
X38393904Y40773334D01*
X38393904Y40773334D02*
X38432000Y40735239D01*
X38432000Y40735239D02*
X38470095Y40659048D01*
X38470095Y40659048D02*
X38470095Y40582858D01*
X38470095Y40582858D02*
X38432000Y40506667D01*
X38432000Y40506667D02*
X38393904Y40468572D01*
X38393904Y40468572D02*
X38317714Y40430477D01*
X38317714Y40430477D02*
X38165333Y40392381D01*
X38165333Y40392381D02*
X37974857Y40392381D01*
X37974857Y40392381D02*
X37822476Y40430477D01*
X37822476Y40430477D02*
X37746285Y40468572D01*
X37746285Y40468572D02*
X37708190Y40506667D01*
X37708190Y40506667D02*
X37670095Y40582858D01*
X38470095Y41192382D02*
X37670095Y41192382D01*
X38470095Y41649525D02*
X38012952Y41306667D01*
X37670095Y41649525D02*
X38127238Y41192382D01*
%TO.C,RV2*%
X39832619Y28519524D02*
X39832619Y27948096D01*
X39832619Y28233810D02*
X38832619Y28233810D01*
X38832619Y28233810D02*
X38975476Y28138572D01*
X38975476Y28138572D02*
X39070714Y28043334D01*
X39070714Y28043334D02*
X39118333Y27948096D01*
X38832619Y29138572D02*
X38832619Y29233810D01*
X38832619Y29233810D02*
X38880238Y29329048D01*
X38880238Y29329048D02*
X38927857Y29376667D01*
X38927857Y29376667D02*
X39023095Y29424286D01*
X39023095Y29424286D02*
X39213571Y29471905D01*
X39213571Y29471905D02*
X39451666Y29471905D01*
X39451666Y29471905D02*
X39642142Y29424286D01*
X39642142Y29424286D02*
X39737380Y29376667D01*
X39737380Y29376667D02*
X39785000Y29329048D01*
X39785000Y29329048D02*
X39832619Y29233810D01*
X39832619Y29233810D02*
X39832619Y29138572D01*
X39832619Y29138572D02*
X39785000Y29043334D01*
X39785000Y29043334D02*
X39737380Y28995715D01*
X39737380Y28995715D02*
X39642142Y28948096D01*
X39642142Y28948096D02*
X39451666Y28900477D01*
X39451666Y28900477D02*
X39213571Y28900477D01*
X39213571Y28900477D02*
X39023095Y28948096D01*
X39023095Y28948096D02*
X38927857Y28995715D01*
X38927857Y28995715D02*
X38880238Y29043334D01*
X38880238Y29043334D02*
X38832619Y29138572D01*
X39832619Y29900477D02*
X38832619Y29900477D01*
X39832619Y30471905D02*
X39261190Y30043334D01*
X38832619Y30471905D02*
X39404047Y29900477D01*
X34311788Y31944862D02*
X33604681Y32651969D01*
X33604681Y32651969D02*
X33874055Y32921343D01*
X33874055Y32921343D02*
X33975070Y32955014D01*
X33975070Y32955014D02*
X34042414Y32955014D01*
X34042414Y32955014D02*
X34143429Y32921343D01*
X34143429Y32921343D02*
X34244444Y32820327D01*
X34244444Y32820327D02*
X34278116Y32719312D01*
X34278116Y32719312D02*
X34278116Y32651969D01*
X34278116Y32651969D02*
X34244444Y32550953D01*
X34244444Y32550953D02*
X33975070Y32281579D01*
X34446475Y33493762D02*
X34581162Y33628449D01*
X34581162Y33628449D02*
X34682177Y33662121D01*
X34682177Y33662121D02*
X34816864Y33662121D01*
X34816864Y33662121D02*
X34985223Y33561106D01*
X34985223Y33561106D02*
X35220925Y33325404D01*
X35220925Y33325404D02*
X35321940Y33157045D01*
X35321940Y33157045D02*
X35321940Y33022358D01*
X35321940Y33022358D02*
X35288269Y32921343D01*
X35288269Y32921343D02*
X35153582Y32786656D01*
X35153582Y32786656D02*
X35052566Y32752984D01*
X35052566Y32752984D02*
X34917879Y32752984D01*
X34917879Y32752984D02*
X34749521Y32853999D01*
X34749521Y32853999D02*
X34513818Y33089701D01*
X34513818Y33089701D02*
X34412803Y33258060D01*
X34412803Y33258060D02*
X34412803Y33392747D01*
X34412803Y33392747D02*
X34446475Y33493762D01*
X34951551Y33998839D02*
X35355612Y34402900D01*
X35860688Y33493762D02*
X35153582Y34200869D01*
X35624986Y34537587D02*
X35624986Y34604930D01*
X35624986Y34604930D02*
X35658658Y34705946D01*
X35658658Y34705946D02*
X35827017Y34874304D01*
X35827017Y34874304D02*
X35928032Y34907976D01*
X35928032Y34907976D02*
X35995376Y34907976D01*
X35995376Y34907976D02*
X36096391Y34874304D01*
X36096391Y34874304D02*
X36163734Y34806961D01*
X36163734Y34806961D02*
X36231078Y34672274D01*
X36231078Y34672274D02*
X36231078Y33864152D01*
X36231078Y33864152D02*
X36668811Y34301884D01*
%TO.C,D4*%
X53852619Y33099286D02*
X53852619Y32623096D01*
X53852619Y32623096D02*
X52852619Y32623096D01*
X53185952Y33861191D02*
X53852619Y33861191D01*
X52805000Y33623096D02*
X53519285Y33385001D01*
X53519285Y33385001D02*
X53519285Y34004048D01*
%TO.C,R6*%
X46090095Y40468572D02*
X46090095Y40011429D01*
X46090095Y40240001D02*
X45290095Y40240001D01*
X45290095Y40240001D02*
X45404380Y40163810D01*
X45404380Y40163810D02*
X45480571Y40087620D01*
X45480571Y40087620D02*
X45518666Y40011429D01*
X46090095Y40811430D02*
X45290095Y40811430D01*
X46090095Y41268573D02*
X45632952Y40925715D01*
X45290095Y41268573D02*
X45747238Y40811430D01*
%TO.C,R7*%
X43550095Y40468572D02*
X43550095Y40011429D01*
X43550095Y40240001D02*
X42750095Y40240001D01*
X42750095Y40240001D02*
X42864380Y40163810D01*
X42864380Y40163810D02*
X42940571Y40087620D01*
X42940571Y40087620D02*
X42978666Y40011429D01*
X43550095Y40811430D02*
X42750095Y40811430D01*
X43550095Y41268573D02*
X43092952Y40925715D01*
X42750095Y41268573D02*
X43207238Y40811430D01*
%TO.C,SW3*%
X12477619Y47847619D02*
X12001428Y47514286D01*
X12477619Y47276191D02*
X11477619Y47276191D01*
X11477619Y47276191D02*
X11477619Y47657143D01*
X11477619Y47657143D02*
X11525238Y47752381D01*
X11525238Y47752381D02*
X11572857Y47800000D01*
X11572857Y47800000D02*
X11668095Y47847619D01*
X11668095Y47847619D02*
X11810952Y47847619D01*
X11810952Y47847619D02*
X11906190Y47800000D01*
X11906190Y47800000D02*
X11953809Y47752381D01*
X11953809Y47752381D02*
X12001428Y47657143D01*
X12001428Y47657143D02*
X12001428Y47276191D01*
X11953809Y48276191D02*
X11953809Y48609524D01*
X12477619Y48752381D02*
X12477619Y48276191D01*
X12477619Y48276191D02*
X11477619Y48276191D01*
X11477619Y48276191D02*
X11477619Y48752381D01*
X12430000Y49133334D02*
X12477619Y49276191D01*
X12477619Y49276191D02*
X12477619Y49514286D01*
X12477619Y49514286D02*
X12430000Y49609524D01*
X12430000Y49609524D02*
X12382380Y49657143D01*
X12382380Y49657143D02*
X12287142Y49704762D01*
X12287142Y49704762D02*
X12191904Y49704762D01*
X12191904Y49704762D02*
X12096666Y49657143D01*
X12096666Y49657143D02*
X12049047Y49609524D01*
X12049047Y49609524D02*
X12001428Y49514286D01*
X12001428Y49514286D02*
X11953809Y49323810D01*
X11953809Y49323810D02*
X11906190Y49228572D01*
X11906190Y49228572D02*
X11858571Y49180953D01*
X11858571Y49180953D02*
X11763333Y49133334D01*
X11763333Y49133334D02*
X11668095Y49133334D01*
X11668095Y49133334D02*
X11572857Y49180953D01*
X11572857Y49180953D02*
X11525238Y49228572D01*
X11525238Y49228572D02*
X11477619Y49323810D01*
X11477619Y49323810D02*
X11477619Y49561905D01*
X11477619Y49561905D02*
X11525238Y49704762D01*
X11953809Y50133334D02*
X11953809Y50466667D01*
X12477619Y50609524D02*
X12477619Y50133334D01*
X12477619Y50133334D02*
X11477619Y50133334D01*
X11477619Y50133334D02*
X11477619Y50609524D01*
X11477619Y50895239D02*
X11477619Y51466667D01*
X12477619Y51180953D02*
X11477619Y51180953D01*
%TO.C,U2*%
X23322619Y15820000D02*
X22846428Y15486667D01*
X23322619Y15248572D02*
X22322619Y15248572D01*
X22322619Y15248572D02*
X22322619Y15629524D01*
X22322619Y15629524D02*
X22370238Y15724762D01*
X22370238Y15724762D02*
X22417857Y15772381D01*
X22417857Y15772381D02*
X22513095Y15820000D01*
X22513095Y15820000D02*
X22655952Y15820000D01*
X22655952Y15820000D02*
X22751190Y15772381D01*
X22751190Y15772381D02*
X22798809Y15724762D01*
X22798809Y15724762D02*
X22846428Y15629524D01*
X22846428Y15629524D02*
X22846428Y15248572D01*
X23275000Y16200953D02*
X23322619Y16343810D01*
X23322619Y16343810D02*
X23322619Y16581905D01*
X23322619Y16581905D02*
X23275000Y16677143D01*
X23275000Y16677143D02*
X23227380Y16724762D01*
X23227380Y16724762D02*
X23132142Y16772381D01*
X23132142Y16772381D02*
X23036904Y16772381D01*
X23036904Y16772381D02*
X22941666Y16724762D01*
X22941666Y16724762D02*
X22894047Y16677143D01*
X22894047Y16677143D02*
X22846428Y16581905D01*
X22846428Y16581905D02*
X22798809Y16391429D01*
X22798809Y16391429D02*
X22751190Y16296191D01*
X22751190Y16296191D02*
X22703571Y16248572D01*
X22703571Y16248572D02*
X22608333Y16200953D01*
X22608333Y16200953D02*
X22513095Y16200953D01*
X22513095Y16200953D02*
X22417857Y16248572D01*
X22417857Y16248572D02*
X22370238Y16296191D01*
X22370238Y16296191D02*
X22322619Y16391429D01*
X22322619Y16391429D02*
X22322619Y16629524D01*
X22322619Y16629524D02*
X22370238Y16772381D01*
X22941666Y17200953D02*
X22941666Y17962857D01*
X22417857Y18391429D02*
X22370238Y18439048D01*
X22370238Y18439048D02*
X22322619Y18534286D01*
X22322619Y18534286D02*
X22322619Y18772381D01*
X22322619Y18772381D02*
X22370238Y18867619D01*
X22370238Y18867619D02*
X22417857Y18915238D01*
X22417857Y18915238D02*
X22513095Y18962857D01*
X22513095Y18962857D02*
X22608333Y18962857D01*
X22608333Y18962857D02*
X22751190Y18915238D01*
X22751190Y18915238D02*
X23322619Y18343810D01*
X23322619Y18343810D02*
X23322619Y18962857D01*
X22322619Y19296191D02*
X22322619Y19915238D01*
X22322619Y19915238D02*
X22703571Y19581905D01*
X22703571Y19581905D02*
X22703571Y19724762D01*
X22703571Y19724762D02*
X22751190Y19820000D01*
X22751190Y19820000D02*
X22798809Y19867619D01*
X22798809Y19867619D02*
X22894047Y19915238D01*
X22894047Y19915238D02*
X23132142Y19915238D01*
X23132142Y19915238D02*
X23227380Y19867619D01*
X23227380Y19867619D02*
X23275000Y19820000D01*
X23275000Y19820000D02*
X23322619Y19724762D01*
X23322619Y19724762D02*
X23322619Y19439048D01*
X23322619Y19439048D02*
X23275000Y19343810D01*
X23275000Y19343810D02*
X23227380Y19296191D01*
X22417857Y20296191D02*
X22370238Y20343810D01*
X22370238Y20343810D02*
X22322619Y20439048D01*
X22322619Y20439048D02*
X22322619Y20677143D01*
X22322619Y20677143D02*
X22370238Y20772381D01*
X22370238Y20772381D02*
X22417857Y20820000D01*
X22417857Y20820000D02*
X22513095Y20867619D01*
X22513095Y20867619D02*
X22608333Y20867619D01*
X22608333Y20867619D02*
X22751190Y20820000D01*
X22751190Y20820000D02*
X23322619Y20248572D01*
X23322619Y20248572D02*
X23322619Y20867619D01*
X22322619Y21962858D02*
X23322619Y22629524D01*
X22322619Y22629524D02*
X23322619Y21962858D01*
X23227380Y23581905D02*
X23275000Y23534286D01*
X23275000Y23534286D02*
X23322619Y23391429D01*
X23322619Y23391429D02*
X23322619Y23296191D01*
X23322619Y23296191D02*
X23275000Y23153334D01*
X23275000Y23153334D02*
X23179761Y23058096D01*
X23179761Y23058096D02*
X23084523Y23010477D01*
X23084523Y23010477D02*
X22894047Y22962858D01*
X22894047Y22962858D02*
X22751190Y22962858D01*
X22751190Y22962858D02*
X22560714Y23010477D01*
X22560714Y23010477D02*
X22465476Y23058096D01*
X22465476Y23058096D02*
X22370238Y23153334D01*
X22370238Y23153334D02*
X22322619Y23296191D01*
X22322619Y23296191D02*
X22322619Y23391429D01*
X22322619Y23391429D02*
X22370238Y23534286D01*
X22370238Y23534286D02*
X22417857Y23581905D01*
X22322619Y23867620D02*
X23322619Y24200953D01*
X23322619Y24200953D02*
X22322619Y24534286D01*
X23322619Y25439048D02*
X22846428Y25105715D01*
X23322619Y24867620D02*
X22322619Y24867620D01*
X22322619Y24867620D02*
X22322619Y25248572D01*
X22322619Y25248572D02*
X22370238Y25343810D01*
X22370238Y25343810D02*
X22417857Y25391429D01*
X22417857Y25391429D02*
X22513095Y25439048D01*
X22513095Y25439048D02*
X22655952Y25439048D01*
X22655952Y25439048D02*
X22751190Y25391429D01*
X22751190Y25391429D02*
X22798809Y25343810D01*
X22798809Y25343810D02*
X22846428Y25248572D01*
X22846428Y25248572D02*
X22846428Y24867620D01*
%TO.C,R8*%
X41010095Y40468572D02*
X41010095Y40011429D01*
X41010095Y40240001D02*
X40210095Y40240001D01*
X40210095Y40240001D02*
X40324380Y40163810D01*
X40324380Y40163810D02*
X40400571Y40087620D01*
X40400571Y40087620D02*
X40438666Y40011429D01*
X41010095Y40811430D02*
X40210095Y40811430D01*
X41010095Y41268573D02*
X40552952Y40925715D01*
X40210095Y41268573D02*
X40667238Y40811430D01*
%TO.C,D1*%
X53852619Y14049286D02*
X53852619Y13573096D01*
X53852619Y13573096D02*
X52852619Y13573096D01*
X53852619Y14906429D02*
X53852619Y14335001D01*
X53852619Y14620715D02*
X52852619Y14620715D01*
X52852619Y14620715D02*
X52995476Y14525477D01*
X52995476Y14525477D02*
X53090714Y14430239D01*
X53090714Y14430239D02*
X53138333Y14335001D01*
%TO.C,R5*%
X48630095Y40468572D02*
X48630095Y40011429D01*
X48630095Y40240001D02*
X47830095Y40240001D01*
X47830095Y40240001D02*
X47944380Y40163810D01*
X47944380Y40163810D02*
X48020571Y40087620D01*
X48020571Y40087620D02*
X48058666Y40011429D01*
X48630095Y40811430D02*
X47830095Y40811430D01*
X48630095Y41268573D02*
X48172952Y40925715D01*
X47830095Y41268573D02*
X48287238Y40811430D01*
D11*
%TO.C,J3*%
X26356000Y1210000D02*
X47304000Y1210000D01*
X26356000Y1210000D02*
X26356000Y3870000D01*
X47304000Y1210000D02*
X47304000Y3870000D01*
X26356000Y3870000D02*
X47304000Y3870000D01*
%TO.C,J4*%
X49216000Y1210000D02*
X65084000Y1210000D01*
X49216000Y1210000D02*
X49216000Y3870000D01*
X65084000Y1210000D02*
X65084000Y3870000D01*
X49216000Y3870000D02*
X65084000Y3870000D01*
%TO.C,J2*%
X43240000Y52130000D02*
X17212000Y52130000D01*
X43240000Y52130000D02*
X43240000Y49470000D01*
X17212000Y52130000D02*
X17212000Y49470000D01*
X43240000Y49470000D02*
X17212000Y49470000D01*
%TO.C,J1*%
X65084000Y52130000D02*
X44136000Y52130000D01*
X65084000Y52130000D02*
X65084000Y49470000D01*
X44136000Y52130000D02*
X44136000Y49470000D01*
X65084000Y49470000D02*
X44136000Y49470000D01*
%TO.C,C2*%
X20245000Y9254801D02*
X20245000Y8854801D01*
X20445000Y9054801D02*
X20045000Y9054801D01*
X21130000Y6985000D02*
X19890000Y6985000D01*
X18210000Y6985000D02*
X16970000Y6985000D01*
X21130000Y6945000D02*
X19890000Y6945000D01*
X18210000Y6945000D02*
X16970000Y6945000D01*
X21129000Y6905000D02*
X19890000Y6905000D01*
X18210000Y6905000D02*
X16971000Y6905000D01*
X21127000Y6865000D02*
X19890000Y6865000D01*
X18210000Y6865000D02*
X16973000Y6865000D01*
X21124000Y6825000D02*
X19890000Y6825000D01*
X18210000Y6825000D02*
X16976000Y6825000D01*
X21121000Y6785000D02*
X19890000Y6785000D01*
X18210000Y6785000D02*
X16979000Y6785000D01*
X21117000Y6745000D02*
X19890000Y6745000D01*
X18210000Y6745000D02*
X16983000Y6745000D01*
X21112000Y6705000D02*
X19890000Y6705000D01*
X18210000Y6705000D02*
X16988000Y6705000D01*
X21106000Y6665000D02*
X19890000Y6665000D01*
X18210000Y6665000D02*
X16994000Y6665000D01*
X21100000Y6625000D02*
X19890000Y6625000D01*
X18210000Y6625000D02*
X17000000Y6625000D01*
X21092000Y6585000D02*
X19890000Y6585000D01*
X18210000Y6585000D02*
X17008000Y6585000D01*
X21084000Y6545000D02*
X19890000Y6545000D01*
X18210000Y6545000D02*
X17016000Y6545000D01*
X21075000Y6505000D02*
X19890000Y6505000D01*
X18210000Y6505000D02*
X17025000Y6505000D01*
X21066000Y6465000D02*
X19890000Y6465000D01*
X18210000Y6465000D02*
X17034000Y6465000D01*
X21055000Y6425000D02*
X19890000Y6425000D01*
X18210000Y6425000D02*
X17045000Y6425000D01*
X21044000Y6385000D02*
X19890000Y6385000D01*
X18210000Y6385000D02*
X17056000Y6385000D01*
X21032000Y6345000D02*
X19890000Y6345000D01*
X18210000Y6345000D02*
X17068000Y6345000D01*
X21018000Y6305000D02*
X19890000Y6305000D01*
X18210000Y6305000D02*
X17082000Y6305000D01*
X21004000Y6264000D02*
X19890000Y6264000D01*
X18210000Y6264000D02*
X17096000Y6264000D01*
X20990000Y6224000D02*
X19890000Y6224000D01*
X18210000Y6224000D02*
X17110000Y6224000D01*
X20974000Y6184000D02*
X19890000Y6184000D01*
X18210000Y6184000D02*
X17126000Y6184000D01*
X20957000Y6144000D02*
X19890000Y6144000D01*
X18210000Y6144000D02*
X17143000Y6144000D01*
X20939000Y6104000D02*
X19890000Y6104000D01*
X18210000Y6104000D02*
X17161000Y6104000D01*
X20920000Y6064000D02*
X19890000Y6064000D01*
X18210000Y6064000D02*
X17180000Y6064000D01*
X20901000Y6024000D02*
X19890000Y6024000D01*
X18210000Y6024000D02*
X17199000Y6024000D01*
X20880000Y5984000D02*
X19890000Y5984000D01*
X18210000Y5984000D02*
X17220000Y5984000D01*
X20858000Y5944000D02*
X19890000Y5944000D01*
X18210000Y5944000D02*
X17242000Y5944000D01*
X20835000Y5904000D02*
X19890000Y5904000D01*
X18210000Y5904000D02*
X17265000Y5904000D01*
X20810000Y5864000D02*
X19890000Y5864000D01*
X18210000Y5864000D02*
X17290000Y5864000D01*
X20785000Y5824000D02*
X19890000Y5824000D01*
X18210000Y5824000D02*
X17315000Y5824000D01*
X20758000Y5784000D02*
X19890000Y5784000D01*
X18210000Y5784000D02*
X17342000Y5784000D01*
X20730000Y5744000D02*
X19890000Y5744000D01*
X18210000Y5744000D02*
X17370000Y5744000D01*
X20700000Y5704000D02*
X19890000Y5704000D01*
X18210000Y5704000D02*
X17400000Y5704000D01*
X20669000Y5664000D02*
X19890000Y5664000D01*
X18210000Y5664000D02*
X17431000Y5664000D01*
X20637000Y5624000D02*
X19890000Y5624000D01*
X18210000Y5624000D02*
X17463000Y5624000D01*
X20602000Y5584000D02*
X19890000Y5584000D01*
X18210000Y5584000D02*
X17498000Y5584000D01*
X20566000Y5544000D02*
X19890000Y5544000D01*
X18210000Y5544000D02*
X17534000Y5544000D01*
X20528000Y5504000D02*
X19890000Y5504000D01*
X18210000Y5504000D02*
X17572000Y5504000D01*
X20488000Y5464000D02*
X19890000Y5464000D01*
X18210000Y5464000D02*
X17612000Y5464000D01*
X20446000Y5424000D02*
X19890000Y5424000D01*
X18210000Y5424000D02*
X17654000Y5424000D01*
X20401000Y5384000D02*
X17699000Y5384000D01*
X20354000Y5344000D02*
X17746000Y5344000D01*
X20304000Y5304000D02*
X17796000Y5304000D01*
X20250000Y5264000D02*
X17850000Y5264000D01*
X20192000Y5224000D02*
X17908000Y5224000D01*
X20130000Y5184000D02*
X17970000Y5184000D01*
X20063000Y5144000D02*
X18037000Y5144000D01*
X19990000Y5104000D02*
X18110000Y5104000D01*
X19909000Y5064000D02*
X18191000Y5064000D01*
X19818000Y5024000D02*
X18282000Y5024000D01*
X19714000Y4984000D02*
X18386000Y4984000D01*
X19587000Y4944000D02*
X18513000Y4944000D01*
X19420000Y4904000D02*
X18680000Y4904000D01*
X21170000Y6985000D02*
G75*
G03*
X21170000Y6985000I-2120000J0D01*
G01*
%TO.C,C4*%
X29285000Y10430199D02*
X29285000Y10830199D01*
X29085000Y10630199D02*
X29485000Y10630199D01*
X28400000Y12700000D02*
X29640000Y12700000D01*
X31320000Y12700000D02*
X32560000Y12700000D01*
X28400000Y12740000D02*
X29640000Y12740000D01*
X31320000Y12740000D02*
X32560000Y12740000D01*
X28401000Y12780000D02*
X29640000Y12780000D01*
X31320000Y12780000D02*
X32559000Y12780000D01*
X28403000Y12820000D02*
X29640000Y12820000D01*
X31320000Y12820000D02*
X32557000Y12820000D01*
X28406000Y12860000D02*
X29640000Y12860000D01*
X31320000Y12860000D02*
X32554000Y12860000D01*
X28409000Y12900000D02*
X29640000Y12900000D01*
X31320000Y12900000D02*
X32551000Y12900000D01*
X28413000Y12940000D02*
X29640000Y12940000D01*
X31320000Y12940000D02*
X32547000Y12940000D01*
X28418000Y12980000D02*
X29640000Y12980000D01*
X31320000Y12980000D02*
X32542000Y12980000D01*
X28424000Y13020000D02*
X29640000Y13020000D01*
X31320000Y13020000D02*
X32536000Y13020000D01*
X28430000Y13060000D02*
X29640000Y13060000D01*
X31320000Y13060000D02*
X32530000Y13060000D01*
X28438000Y13100000D02*
X29640000Y13100000D01*
X31320000Y13100000D02*
X32522000Y13100000D01*
X28446000Y13140000D02*
X29640000Y13140000D01*
X31320000Y13140000D02*
X32514000Y13140000D01*
X28455000Y13180000D02*
X29640000Y13180000D01*
X31320000Y13180000D02*
X32505000Y13180000D01*
X28464000Y13220000D02*
X29640000Y13220000D01*
X31320000Y13220000D02*
X32496000Y13220000D01*
X28475000Y13260000D02*
X29640000Y13260000D01*
X31320000Y13260000D02*
X32485000Y13260000D01*
X28486000Y13300000D02*
X29640000Y13300000D01*
X31320000Y13300000D02*
X32474000Y13300000D01*
X28498000Y13340000D02*
X29640000Y13340000D01*
X31320000Y13340000D02*
X32462000Y13340000D01*
X28512000Y13380000D02*
X29640000Y13380000D01*
X31320000Y13380000D02*
X32448000Y13380000D01*
X28526000Y13421000D02*
X29640000Y13421000D01*
X31320000Y13421000D02*
X32434000Y13421000D01*
X28540000Y13461000D02*
X29640000Y13461000D01*
X31320000Y13461000D02*
X32420000Y13461000D01*
X28556000Y13501000D02*
X29640000Y13501000D01*
X31320000Y13501000D02*
X32404000Y13501000D01*
X28573000Y13541000D02*
X29640000Y13541000D01*
X31320000Y13541000D02*
X32387000Y13541000D01*
X28591000Y13581000D02*
X29640000Y13581000D01*
X31320000Y13581000D02*
X32369000Y13581000D01*
X28610000Y13621000D02*
X29640000Y13621000D01*
X31320000Y13621000D02*
X32350000Y13621000D01*
X28629000Y13661000D02*
X29640000Y13661000D01*
X31320000Y13661000D02*
X32331000Y13661000D01*
X28650000Y13701000D02*
X29640000Y13701000D01*
X31320000Y13701000D02*
X32310000Y13701000D01*
X28672000Y13741000D02*
X29640000Y13741000D01*
X31320000Y13741000D02*
X32288000Y13741000D01*
X28695000Y13781000D02*
X29640000Y13781000D01*
X31320000Y13781000D02*
X32265000Y13781000D01*
X28720000Y13821000D02*
X29640000Y13821000D01*
X31320000Y13821000D02*
X32240000Y13821000D01*
X28745000Y13861000D02*
X29640000Y13861000D01*
X31320000Y13861000D02*
X32215000Y13861000D01*
X28772000Y13901000D02*
X29640000Y13901000D01*
X31320000Y13901000D02*
X32188000Y13901000D01*
X28800000Y13941000D02*
X29640000Y13941000D01*
X31320000Y13941000D02*
X32160000Y13941000D01*
X28830000Y13981000D02*
X29640000Y13981000D01*
X31320000Y13981000D02*
X32130000Y13981000D01*
X28861000Y14021000D02*
X29640000Y14021000D01*
X31320000Y14021000D02*
X32099000Y14021000D01*
X28893000Y14061000D02*
X29640000Y14061000D01*
X31320000Y14061000D02*
X32067000Y14061000D01*
X28928000Y14101000D02*
X29640000Y14101000D01*
X31320000Y14101000D02*
X32032000Y14101000D01*
X28964000Y14141000D02*
X29640000Y14141000D01*
X31320000Y14141000D02*
X31996000Y14141000D01*
X29002000Y14181000D02*
X29640000Y14181000D01*
X31320000Y14181000D02*
X31958000Y14181000D01*
X29042000Y14221000D02*
X29640000Y14221000D01*
X31320000Y14221000D02*
X31918000Y14221000D01*
X29084000Y14261000D02*
X29640000Y14261000D01*
X31320000Y14261000D02*
X31876000Y14261000D01*
X29129000Y14301000D02*
X31831000Y14301000D01*
X29176000Y14341000D02*
X31784000Y14341000D01*
X29226000Y14381000D02*
X31734000Y14381000D01*
X29280000Y14421000D02*
X31680000Y14421000D01*
X29338000Y14461000D02*
X31622000Y14461000D01*
X29400000Y14501000D02*
X31560000Y14501000D01*
X29467000Y14541000D02*
X31493000Y14541000D01*
X29540000Y14581000D02*
X31420000Y14581000D01*
X29621000Y14621000D02*
X31339000Y14621000D01*
X29712000Y14661000D02*
X31248000Y14661000D01*
X29816000Y14701000D02*
X31144000Y14701000D01*
X29943000Y14741000D02*
X31017000Y14741000D01*
X30110000Y14781000D02*
X30850000Y14781000D01*
X32600000Y12700000D02*
G75*
G03*
X32600000Y12700000I-2120000J0D01*
G01*
%TO.C,SW1*%
X63385000Y11740000D02*
X64885000Y11740000D01*
X67385000Y12990000D02*
X67385000Y17490000D01*
X60885000Y17490000D02*
X60885000Y12990000D01*
X64885000Y18740000D02*
X63385000Y18740000D01*
%TO.C,SW2*%
X63385000Y24440000D02*
X64885000Y24440000D01*
X67385000Y25690000D02*
X67385000Y30190000D01*
X60885000Y30190000D02*
X60885000Y25690000D01*
X64885000Y31440000D02*
X63385000Y31440000D01*
%TO.C,D5*%
X47970000Y13301000D02*
X47970000Y13145000D01*
X47970000Y10985000D02*
X47970000Y10829000D01*
X51202335Y13143608D02*
G75*
G03*
X47970000Y13300516I-1672335J-1078609D01*
G01*
X47970000Y10829484D02*
G75*
G03*
X51202335Y10986392I1560000J1235517D01*
G01*
%TO.C,D6*%
X47970000Y19651000D02*
X47970000Y19495000D01*
X47970000Y17335000D02*
X47970000Y17179000D01*
X51202335Y19493608D02*
G75*
G03*
X47970000Y19650516I-1672335J-1078609D01*
G01*
X47970000Y17179484D02*
G75*
G03*
X51202335Y17336392I1560000J1235517D01*
G01*
%TO.C,R2*%
X55880000Y43510000D02*
X55880000Y42560000D01*
X56800000Y42560000D02*
X54960000Y42560000D01*
X54960000Y42560000D02*
X54960000Y38720000D01*
X56800000Y38720000D02*
X56800000Y42560000D01*
X54960000Y38720000D02*
X56800000Y38720000D01*
X55880000Y37770000D02*
X55880000Y38720000D01*
%TO.C,U1*%
X16570000Y4960000D02*
X16570000Y15360000D01*
X16570000Y15360000D02*
X6290000Y15360000D01*
X14080000Y5020000D02*
X14080000Y15300000D01*
X14080000Y15300000D02*
X8780000Y15300000D01*
X12430000Y5020000D02*
X14080000Y5020000D01*
X8780000Y5020000D02*
X10430000Y5020000D01*
X8780000Y15300000D02*
X8780000Y5020000D01*
X6290000Y4960000D02*
X16570000Y4960000D01*
X6290000Y15360000D02*
X6290000Y4960000D01*
X12430000Y5020000D02*
G75*
G03*
X10430000Y5020000I-1000000J0D01*
G01*
%TO.C,D10*%
X33020000Y37870000D02*
X33020000Y38520000D01*
X31900000Y38520000D02*
X34140000Y38520000D01*
X34140000Y38520000D02*
X34140000Y42760000D01*
X31900000Y39120000D02*
X34140000Y39120000D01*
X31900000Y39240000D02*
X34140000Y39240000D01*
X31900000Y39360000D02*
X34140000Y39360000D01*
X31900000Y42760000D02*
X31900000Y38520000D01*
X34140000Y42760000D02*
X31900000Y42760000D01*
X33020000Y43410000D02*
X33020000Y42760000D01*
%TO.C,J5*%
X7260000Y28235000D02*
X0Y28235000D01*
X7260000Y28235000D02*
X7260000Y26775000D01*
X7260000Y24675000D02*
X7260000Y23275000D01*
X7260000Y21175000D02*
X7260000Y19775000D01*
X7260000Y16215000D02*
X7260000Y17675000D01*
X0Y16215000D02*
X7260000Y16215000D01*
%TO.C,R3*%
X53340000Y43510000D02*
X53340000Y42560000D01*
X54260000Y42560000D02*
X52420000Y42560000D01*
X52420000Y42560000D02*
X52420000Y38720000D01*
X54260000Y38720000D02*
X54260000Y42560000D01*
X52420000Y38720000D02*
X54260000Y38720000D01*
X53340000Y37770000D02*
X53340000Y38720000D01*
%TO.C,R1*%
X58420000Y43510000D02*
X58420000Y42560000D01*
X59340000Y42560000D02*
X57500000Y42560000D01*
X57500000Y42560000D02*
X57500000Y38720000D01*
X59340000Y38720000D02*
X59340000Y42560000D01*
X57500000Y38720000D02*
X59340000Y38720000D01*
X58420000Y37770000D02*
X58420000Y38720000D01*
%TO.C,D3*%
X54320000Y26001000D02*
X54320000Y25845000D01*
X54320000Y23685000D02*
X54320000Y23529000D01*
X57552335Y25843608D02*
G75*
G03*
X54320000Y26000516I-1672335J-1078609D01*
G01*
X54320000Y23529484D02*
G75*
G03*
X57552335Y23686392I1560000J1235517D01*
G01*
%TO.C,C6*%
X29285000Y20590199D02*
X29285000Y20990199D01*
X29085000Y20790199D02*
X29485000Y20790199D01*
X28400000Y22860000D02*
X29640000Y22860000D01*
X31320000Y22860000D02*
X32560000Y22860000D01*
X28400000Y22900000D02*
X29640000Y22900000D01*
X31320000Y22900000D02*
X32560000Y22900000D01*
X28401000Y22940000D02*
X29640000Y22940000D01*
X31320000Y22940000D02*
X32559000Y22940000D01*
X28403000Y22980000D02*
X29640000Y22980000D01*
X31320000Y22980000D02*
X32557000Y22980000D01*
X28406000Y23020000D02*
X29640000Y23020000D01*
X31320000Y23020000D02*
X32554000Y23020000D01*
X28409000Y23060000D02*
X29640000Y23060000D01*
X31320000Y23060000D02*
X32551000Y23060000D01*
X28413000Y23100000D02*
X29640000Y23100000D01*
X31320000Y23100000D02*
X32547000Y23100000D01*
X28418000Y23140000D02*
X29640000Y23140000D01*
X31320000Y23140000D02*
X32542000Y23140000D01*
X28424000Y23180000D02*
X29640000Y23180000D01*
X31320000Y23180000D02*
X32536000Y23180000D01*
X28430000Y23220000D02*
X29640000Y23220000D01*
X31320000Y23220000D02*
X32530000Y23220000D01*
X28438000Y23260000D02*
X29640000Y23260000D01*
X31320000Y23260000D02*
X32522000Y23260000D01*
X28446000Y23300000D02*
X29640000Y23300000D01*
X31320000Y23300000D02*
X32514000Y23300000D01*
X28455000Y23340000D02*
X29640000Y23340000D01*
X31320000Y23340000D02*
X32505000Y23340000D01*
X28464000Y23380000D02*
X29640000Y23380000D01*
X31320000Y23380000D02*
X32496000Y23380000D01*
X28475000Y23420000D02*
X29640000Y23420000D01*
X31320000Y23420000D02*
X32485000Y23420000D01*
X28486000Y23460000D02*
X29640000Y23460000D01*
X31320000Y23460000D02*
X32474000Y23460000D01*
X28498000Y23500000D02*
X29640000Y23500000D01*
X31320000Y23500000D02*
X32462000Y23500000D01*
X28512000Y23540000D02*
X29640000Y23540000D01*
X31320000Y23540000D02*
X32448000Y23540000D01*
X28526000Y23581000D02*
X29640000Y23581000D01*
X31320000Y23581000D02*
X32434000Y23581000D01*
X28540000Y23621000D02*
X29640000Y23621000D01*
X31320000Y23621000D02*
X32420000Y23621000D01*
X28556000Y23661000D02*
X29640000Y23661000D01*
X31320000Y23661000D02*
X32404000Y23661000D01*
X28573000Y23701000D02*
X29640000Y23701000D01*
X31320000Y23701000D02*
X32387000Y23701000D01*
X28591000Y23741000D02*
X29640000Y23741000D01*
X31320000Y23741000D02*
X32369000Y23741000D01*
X28610000Y23781000D02*
X29640000Y23781000D01*
X31320000Y23781000D02*
X32350000Y23781000D01*
X28629000Y23821000D02*
X29640000Y23821000D01*
X31320000Y23821000D02*
X32331000Y23821000D01*
X28650000Y23861000D02*
X29640000Y23861000D01*
X31320000Y23861000D02*
X32310000Y23861000D01*
X28672000Y23901000D02*
X29640000Y23901000D01*
X31320000Y23901000D02*
X32288000Y23901000D01*
X28695000Y23941000D02*
X29640000Y23941000D01*
X31320000Y23941000D02*
X32265000Y23941000D01*
X28720000Y23981000D02*
X29640000Y23981000D01*
X31320000Y23981000D02*
X32240000Y23981000D01*
X28745000Y24021000D02*
X29640000Y24021000D01*
X31320000Y24021000D02*
X32215000Y24021000D01*
X28772000Y24061000D02*
X29640000Y24061000D01*
X31320000Y24061000D02*
X32188000Y24061000D01*
X28800000Y24101000D02*
X29640000Y24101000D01*
X31320000Y24101000D02*
X32160000Y24101000D01*
X28830000Y24141000D02*
X29640000Y24141000D01*
X31320000Y24141000D02*
X32130000Y24141000D01*
X28861000Y24181000D02*
X29640000Y24181000D01*
X31320000Y24181000D02*
X32099000Y24181000D01*
X28893000Y24221000D02*
X29640000Y24221000D01*
X31320000Y24221000D02*
X32067000Y24221000D01*
X28928000Y24261000D02*
X29640000Y24261000D01*
X31320000Y24261000D02*
X32032000Y24261000D01*
X28964000Y24301000D02*
X29640000Y24301000D01*
X31320000Y24301000D02*
X31996000Y24301000D01*
X29002000Y24341000D02*
X29640000Y24341000D01*
X31320000Y24341000D02*
X31958000Y24341000D01*
X29042000Y24381000D02*
X29640000Y24381000D01*
X31320000Y24381000D02*
X31918000Y24381000D01*
X29084000Y24421000D02*
X29640000Y24421000D01*
X31320000Y24421000D02*
X31876000Y24421000D01*
X29129000Y24461000D02*
X31831000Y24461000D01*
X29176000Y24501000D02*
X31784000Y24501000D01*
X29226000Y24541000D02*
X31734000Y24541000D01*
X29280000Y24581000D02*
X31680000Y24581000D01*
X29338000Y24621000D02*
X31622000Y24621000D01*
X29400000Y24661000D02*
X31560000Y24661000D01*
X29467000Y24701000D02*
X31493000Y24701000D01*
X29540000Y24741000D02*
X31420000Y24741000D01*
X29621000Y24781000D02*
X31339000Y24781000D01*
X29712000Y24821000D02*
X31248000Y24821000D01*
X29816000Y24861000D02*
X31144000Y24861000D01*
X29943000Y24901000D02*
X31017000Y24901000D01*
X30110000Y24941000D02*
X30850000Y24941000D01*
X32600000Y22860000D02*
G75*
G03*
X32600000Y22860000I-2120000J0D01*
G01*
%TO.C,SW4*%
X30395000Y37180000D02*
X21675000Y37180000D01*
X30395000Y39140000D02*
X30395000Y37180000D01*
X30395000Y44100000D02*
X30395000Y42140000D01*
X21675000Y37180000D02*
X21675000Y39140000D01*
X21675000Y42140000D02*
X21675000Y44100000D01*
X21675000Y44100000D02*
X30395000Y44100000D01*
%TO.C,D9*%
X35560000Y37870000D02*
X35560000Y38520000D01*
X34440000Y38520000D02*
X36680000Y38520000D01*
X36680000Y38520000D02*
X36680000Y42760000D01*
X34440000Y39120000D02*
X36680000Y39120000D01*
X34440000Y39240000D02*
X36680000Y39240000D01*
X34440000Y39360000D02*
X36680000Y39360000D01*
X34440000Y42760000D02*
X34440000Y38520000D01*
X36680000Y42760000D02*
X34440000Y42760000D01*
X35560000Y43410000D02*
X35560000Y42760000D01*
%TO.C,RV1*%
X34365840Y12520010D02*
G75*
G03*
X43274300Y10520290I5004158J1449988D01*
G01*
X44472349Y12916380D02*
G75*
G03*
X44472349Y15023620I-5102354J1053620D01*
G01*
X43274299Y17419709D02*
G75*
G03*
X34365841Y15419990I-3904302J-3449705D01*
G01*
%TO.C,D11*%
X18415000Y41840000D02*
X18415000Y40820000D01*
X19885000Y40820000D02*
X16945000Y40820000D01*
X16945000Y40820000D02*
X16945000Y35380000D01*
X19885000Y40040000D02*
X16945000Y40040000D01*
X19885000Y39920000D02*
X16945000Y39920000D01*
X19885000Y39800000D02*
X16945000Y39800000D01*
X19885000Y35380000D02*
X19885000Y40820000D01*
X16945000Y35380000D02*
X19885000Y35380000D01*
X18415000Y34360000D02*
X18415000Y35380000D01*
%TO.C,D2*%
X54320000Y19651000D02*
X54320000Y19495000D01*
X54320000Y17335000D02*
X54320000Y17179000D01*
X57552335Y19493608D02*
G75*
G03*
X54320000Y19650516I-1672335J-1078609D01*
G01*
X54320000Y17179484D02*
G75*
G03*
X57552335Y17336392I1560000J1235517D01*
G01*
%TO.C,J6*%
X16260000Y44760000D02*
X16260000Y31440000D01*
X7180000Y44760000D02*
X16260000Y44760000D01*
X0Y44760000D02*
X4980000Y44760000D01*
D12*
X-1680000Y31500000D02*
X-1800000Y31500000D01*
X-1790000Y31500000D02*
X-1800000Y31500000D01*
D11*
X16260000Y31440000D02*
X7180000Y31440000D01*
X0Y31440000D02*
X4980000Y31440000D01*
%TO.C,R4*%
X50800000Y43510000D02*
X50800000Y42560000D01*
X51720000Y42560000D02*
X49880000Y42560000D01*
X49880000Y42560000D02*
X49880000Y38720000D01*
X51720000Y38720000D02*
X51720000Y42560000D01*
X49880000Y38720000D02*
X51720000Y38720000D01*
X50800000Y37770000D02*
X50800000Y38720000D01*
%TO.C,D7*%
X47970000Y26001000D02*
X47970000Y25845000D01*
X47970000Y23685000D02*
X47970000Y23529000D01*
X51202335Y25843608D02*
G75*
G03*
X47970000Y26000516I-1672335J-1078609D01*
G01*
X47970000Y23529484D02*
G75*
G03*
X51202335Y23686392I1560000J1235517D01*
G01*
%TO.C,D8*%
X47970000Y32351000D02*
X47970000Y32195000D01*
X47970000Y30035000D02*
X47970000Y29879000D01*
X51202335Y32193608D02*
G75*
G03*
X47970000Y32350516I-1672335J-1078609D01*
G01*
X47970000Y29879484D02*
G75*
G03*
X51202335Y30036392I1560000J1235517D01*
G01*
%TO.C,R9*%
X38100000Y37770000D02*
X38100000Y38720000D01*
X37180000Y38720000D02*
X39020000Y38720000D01*
X39020000Y38720000D02*
X39020000Y42560000D01*
X37180000Y42560000D02*
X37180000Y38720000D01*
X39020000Y42560000D02*
X37180000Y42560000D01*
X38100000Y43510000D02*
X38100000Y42560000D01*
%TO.C,RV2*%
X34365840Y27760010D02*
G75*
G03*
X43274300Y25760290I5004158J1449988D01*
G01*
X44472349Y28156380D02*
G75*
G03*
X44472349Y30263620I-5102354J1053620D01*
G01*
X43274299Y32659709D02*
G75*
G03*
X34365841Y30659990I-3904302J-3449705D01*
G01*
%TO.C,D4*%
X54320000Y32351000D02*
X54320000Y32195000D01*
X54320000Y30035000D02*
X54320000Y29879000D01*
X57552335Y32193608D02*
G75*
G03*
X54320000Y32350516I-1672335J-1078609D01*
G01*
X54320000Y29879484D02*
G75*
G03*
X57552335Y30036392I1560000J1235517D01*
G01*
%TO.C,C5*%
X29285000Y25670199D02*
X29285000Y26070199D01*
X29085000Y25870199D02*
X29485000Y25870199D01*
X28400000Y27940000D02*
X29640000Y27940000D01*
X31320000Y27940000D02*
X32560000Y27940000D01*
X28400000Y27980000D02*
X29640000Y27980000D01*
X31320000Y27980000D02*
X32560000Y27980000D01*
X28401000Y28020000D02*
X29640000Y28020000D01*
X31320000Y28020000D02*
X32559000Y28020000D01*
X28403000Y28060000D02*
X29640000Y28060000D01*
X31320000Y28060000D02*
X32557000Y28060000D01*
X28406000Y28100000D02*
X29640000Y28100000D01*
X31320000Y28100000D02*
X32554000Y28100000D01*
X28409000Y28140000D02*
X29640000Y28140000D01*
X31320000Y28140000D02*
X32551000Y28140000D01*
X28413000Y28180000D02*
X29640000Y28180000D01*
X31320000Y28180000D02*
X32547000Y28180000D01*
X28418000Y28220000D02*
X29640000Y28220000D01*
X31320000Y28220000D02*
X32542000Y28220000D01*
X28424000Y28260000D02*
X29640000Y28260000D01*
X31320000Y28260000D02*
X32536000Y28260000D01*
X28430000Y28300000D02*
X29640000Y28300000D01*
X31320000Y28300000D02*
X32530000Y28300000D01*
X28438000Y28340000D02*
X29640000Y28340000D01*
X31320000Y28340000D02*
X32522000Y28340000D01*
X28446000Y28380000D02*
X29640000Y28380000D01*
X31320000Y28380000D02*
X32514000Y28380000D01*
X28455000Y28420000D02*
X29640000Y28420000D01*
X31320000Y28420000D02*
X32505000Y28420000D01*
X28464000Y28460000D02*
X29640000Y28460000D01*
X31320000Y28460000D02*
X32496000Y28460000D01*
X28475000Y28500000D02*
X29640000Y28500000D01*
X31320000Y28500000D02*
X32485000Y28500000D01*
X28486000Y28540000D02*
X29640000Y28540000D01*
X31320000Y28540000D02*
X32474000Y28540000D01*
X28498000Y28580000D02*
X29640000Y28580000D01*
X31320000Y28580000D02*
X32462000Y28580000D01*
X28512000Y28620000D02*
X29640000Y28620000D01*
X31320000Y28620000D02*
X32448000Y28620000D01*
X28526000Y28661000D02*
X29640000Y28661000D01*
X31320000Y28661000D02*
X32434000Y28661000D01*
X28540000Y28701000D02*
X29640000Y28701000D01*
X31320000Y28701000D02*
X32420000Y28701000D01*
X28556000Y28741000D02*
X29640000Y28741000D01*
X31320000Y28741000D02*
X32404000Y28741000D01*
X28573000Y28781000D02*
X29640000Y28781000D01*
X31320000Y28781000D02*
X32387000Y28781000D01*
X28591000Y28821000D02*
X29640000Y28821000D01*
X31320000Y28821000D02*
X32369000Y28821000D01*
X28610000Y28861000D02*
X29640000Y28861000D01*
X31320000Y28861000D02*
X32350000Y28861000D01*
X28629000Y28901000D02*
X29640000Y28901000D01*
X31320000Y28901000D02*
X32331000Y28901000D01*
X28650000Y28941000D02*
X29640000Y28941000D01*
X31320000Y28941000D02*
X32310000Y28941000D01*
X28672000Y28981000D02*
X29640000Y28981000D01*
X31320000Y28981000D02*
X32288000Y28981000D01*
X28695000Y29021000D02*
X29640000Y29021000D01*
X31320000Y29021000D02*
X32265000Y29021000D01*
X28720000Y29061000D02*
X29640000Y29061000D01*
X31320000Y29061000D02*
X32240000Y29061000D01*
X28745000Y29101000D02*
X29640000Y29101000D01*
X31320000Y29101000D02*
X32215000Y29101000D01*
X28772000Y29141000D02*
X29640000Y29141000D01*
X31320000Y29141000D02*
X32188000Y29141000D01*
X28800000Y29181000D02*
X29640000Y29181000D01*
X31320000Y29181000D02*
X32160000Y29181000D01*
X28830000Y29221000D02*
X29640000Y29221000D01*
X31320000Y29221000D02*
X32130000Y29221000D01*
X28861000Y29261000D02*
X29640000Y29261000D01*
X31320000Y29261000D02*
X32099000Y29261000D01*
X28893000Y29301000D02*
X29640000Y29301000D01*
X31320000Y29301000D02*
X32067000Y29301000D01*
X28928000Y29341000D02*
X29640000Y29341000D01*
X31320000Y29341000D02*
X32032000Y29341000D01*
X28964000Y29381000D02*
X29640000Y29381000D01*
X31320000Y29381000D02*
X31996000Y29381000D01*
X29002000Y29421000D02*
X29640000Y29421000D01*
X31320000Y29421000D02*
X31958000Y29421000D01*
X29042000Y29461000D02*
X29640000Y29461000D01*
X31320000Y29461000D02*
X31918000Y29461000D01*
X29084000Y29501000D02*
X29640000Y29501000D01*
X31320000Y29501000D02*
X31876000Y29501000D01*
X29129000Y29541000D02*
X31831000Y29541000D01*
X29176000Y29581000D02*
X31784000Y29581000D01*
X29226000Y29621000D02*
X31734000Y29621000D01*
X29280000Y29661000D02*
X31680000Y29661000D01*
X29338000Y29701000D02*
X31622000Y29701000D01*
X29400000Y29741000D02*
X31560000Y29741000D01*
X29467000Y29781000D02*
X31493000Y29781000D01*
X29540000Y29821000D02*
X31420000Y29821000D01*
X29621000Y29861000D02*
X31339000Y29861000D01*
X29712000Y29901000D02*
X31248000Y29901000D01*
X29816000Y29941000D02*
X31144000Y29941000D01*
X29943000Y29981000D02*
X31017000Y29981000D01*
X30110000Y30021000D02*
X30850000Y30021000D01*
X32600000Y27940000D02*
G75*
G03*
X32600000Y27940000I-2120000J0D01*
G01*
%TO.C,R6*%
X45720000Y43510000D02*
X45720000Y42560000D01*
X46640000Y42560000D02*
X44800000Y42560000D01*
X44800000Y42560000D02*
X44800000Y38720000D01*
X46640000Y38720000D02*
X46640000Y42560000D01*
X44800000Y38720000D02*
X46640000Y38720000D01*
X45720000Y37770000D02*
X45720000Y38720000D01*
%TO.C,R7*%
X43180000Y37770000D02*
X43180000Y38720000D01*
X42260000Y38720000D02*
X44100000Y38720000D01*
X44100000Y38720000D02*
X44100000Y42560000D01*
X42260000Y42560000D02*
X42260000Y38720000D01*
X44100000Y42560000D02*
X42260000Y42560000D01*
X43180000Y43510000D02*
X43180000Y42560000D01*
%TO.C,C3*%
X29285000Y15510199D02*
X29285000Y15910199D01*
X29085000Y15710199D02*
X29485000Y15710199D01*
X28400000Y17780000D02*
X29640000Y17780000D01*
X31320000Y17780000D02*
X32560000Y17780000D01*
X28400000Y17820000D02*
X29640000Y17820000D01*
X31320000Y17820000D02*
X32560000Y17820000D01*
X28401000Y17860000D02*
X29640000Y17860000D01*
X31320000Y17860000D02*
X32559000Y17860000D01*
X28403000Y17900000D02*
X29640000Y17900000D01*
X31320000Y17900000D02*
X32557000Y17900000D01*
X28406000Y17940000D02*
X29640000Y17940000D01*
X31320000Y17940000D02*
X32554000Y17940000D01*
X28409000Y17980000D02*
X29640000Y17980000D01*
X31320000Y17980000D02*
X32551000Y17980000D01*
X28413000Y18020000D02*
X29640000Y18020000D01*
X31320000Y18020000D02*
X32547000Y18020000D01*
X28418000Y18060000D02*
X29640000Y18060000D01*
X31320000Y18060000D02*
X32542000Y18060000D01*
X28424000Y18100000D02*
X29640000Y18100000D01*
X31320000Y18100000D02*
X32536000Y18100000D01*
X28430000Y18140000D02*
X29640000Y18140000D01*
X31320000Y18140000D02*
X32530000Y18140000D01*
X28438000Y18180000D02*
X29640000Y18180000D01*
X31320000Y18180000D02*
X32522000Y18180000D01*
X28446000Y18220000D02*
X29640000Y18220000D01*
X31320000Y18220000D02*
X32514000Y18220000D01*
X28455000Y18260000D02*
X29640000Y18260000D01*
X31320000Y18260000D02*
X32505000Y18260000D01*
X28464000Y18300000D02*
X29640000Y18300000D01*
X31320000Y18300000D02*
X32496000Y18300000D01*
X28475000Y18340000D02*
X29640000Y18340000D01*
X31320000Y18340000D02*
X32485000Y18340000D01*
X28486000Y18380000D02*
X29640000Y18380000D01*
X31320000Y18380000D02*
X32474000Y18380000D01*
X28498000Y18420000D02*
X29640000Y18420000D01*
X31320000Y18420000D02*
X32462000Y18420000D01*
X28512000Y18460000D02*
X29640000Y18460000D01*
X31320000Y18460000D02*
X32448000Y18460000D01*
X28526000Y18501000D02*
X29640000Y18501000D01*
X31320000Y18501000D02*
X32434000Y18501000D01*
X28540000Y18541000D02*
X29640000Y18541000D01*
X31320000Y18541000D02*
X32420000Y18541000D01*
X28556000Y18581000D02*
X29640000Y18581000D01*
X31320000Y18581000D02*
X32404000Y18581000D01*
X28573000Y18621000D02*
X29640000Y18621000D01*
X31320000Y18621000D02*
X32387000Y18621000D01*
X28591000Y18661000D02*
X29640000Y18661000D01*
X31320000Y18661000D02*
X32369000Y18661000D01*
X28610000Y18701000D02*
X29640000Y18701000D01*
X31320000Y18701000D02*
X32350000Y18701000D01*
X28629000Y18741000D02*
X29640000Y18741000D01*
X31320000Y18741000D02*
X32331000Y18741000D01*
X28650000Y18781000D02*
X29640000Y18781000D01*
X31320000Y18781000D02*
X32310000Y18781000D01*
X28672000Y18821000D02*
X29640000Y18821000D01*
X31320000Y18821000D02*
X32288000Y18821000D01*
X28695000Y18861000D02*
X29640000Y18861000D01*
X31320000Y18861000D02*
X32265000Y18861000D01*
X28720000Y18901000D02*
X29640000Y18901000D01*
X31320000Y18901000D02*
X32240000Y18901000D01*
X28745000Y18941000D02*
X29640000Y18941000D01*
X31320000Y18941000D02*
X32215000Y18941000D01*
X28772000Y18981000D02*
X29640000Y18981000D01*
X31320000Y18981000D02*
X32188000Y18981000D01*
X28800000Y19021000D02*
X29640000Y19021000D01*
X31320000Y19021000D02*
X32160000Y19021000D01*
X28830000Y19061000D02*
X29640000Y19061000D01*
X31320000Y19061000D02*
X32130000Y19061000D01*
X28861000Y19101000D02*
X29640000Y19101000D01*
X31320000Y19101000D02*
X32099000Y19101000D01*
X28893000Y19141000D02*
X29640000Y19141000D01*
X31320000Y19141000D02*
X32067000Y19141000D01*
X28928000Y19181000D02*
X29640000Y19181000D01*
X31320000Y19181000D02*
X32032000Y19181000D01*
X28964000Y19221000D02*
X29640000Y19221000D01*
X31320000Y19221000D02*
X31996000Y19221000D01*
X29002000Y19261000D02*
X29640000Y19261000D01*
X31320000Y19261000D02*
X31958000Y19261000D01*
X29042000Y19301000D02*
X29640000Y19301000D01*
X31320000Y19301000D02*
X31918000Y19301000D01*
X29084000Y19341000D02*
X29640000Y19341000D01*
X31320000Y19341000D02*
X31876000Y19341000D01*
X29129000Y19381000D02*
X31831000Y19381000D01*
X29176000Y19421000D02*
X31784000Y19421000D01*
X29226000Y19461000D02*
X31734000Y19461000D01*
X29280000Y19501000D02*
X31680000Y19501000D01*
X29338000Y19541000D02*
X31622000Y19541000D01*
X29400000Y19581000D02*
X31560000Y19581000D01*
X29467000Y19621000D02*
X31493000Y19621000D01*
X29540000Y19661000D02*
X31420000Y19661000D01*
X29621000Y19701000D02*
X31339000Y19701000D01*
X29712000Y19741000D02*
X31248000Y19741000D01*
X29816000Y19781000D02*
X31144000Y19781000D01*
X29943000Y19821000D02*
X31017000Y19821000D01*
X30110000Y19861000D02*
X30850000Y19861000D01*
X32600000Y17780000D02*
G75*
G03*
X32600000Y17780000I-2120000J0D01*
G01*
%TO.C,SW3*%
X9800000Y48550000D02*
X9800000Y50050000D01*
X8550000Y52550000D02*
X4050000Y52550000D01*
X4050000Y46050000D02*
X8550000Y46050000D01*
X2800000Y50050000D02*
X2800000Y48550000D01*
%TO.C,U2*%
X28000000Y10040000D02*
X28000000Y30600000D01*
X28000000Y30600000D02*
X17720000Y30600000D01*
X25510000Y10100000D02*
X25510000Y30540000D01*
X25510000Y30540000D02*
X20210000Y30540000D01*
X23860000Y10100000D02*
X25510000Y10100000D01*
X20210000Y10100000D02*
X21860000Y10100000D01*
X20210000Y30540000D02*
X20210000Y10100000D01*
X17720000Y10040000D02*
X28000000Y10040000D01*
X17720000Y30600000D02*
X17720000Y10040000D01*
X23860000Y10100000D02*
G75*
G03*
X21860000Y10100000I-1000000J0D01*
G01*
%TO.C,R8*%
X40640000Y37770000D02*
X40640000Y38720000D01*
X39720000Y38720000D02*
X41560000Y38720000D01*
X41560000Y38720000D02*
X41560000Y42560000D01*
X39720000Y42560000D02*
X39720000Y38720000D01*
X41560000Y42560000D02*
X39720000Y42560000D01*
X40640000Y43510000D02*
X40640000Y42560000D01*
%TO.C,D1*%
X54320000Y13301000D02*
X54320000Y13145000D01*
X54320000Y10985000D02*
X54320000Y10829000D01*
X57552335Y13143608D02*
G75*
G03*
X54320000Y13300516I-1672335J-1078609D01*
G01*
X54320000Y10829484D02*
G75*
G03*
X57552335Y10986392I1560000J1235517D01*
G01*
%TO.C,R5*%
X48260000Y37770000D02*
X48260000Y38720000D01*
X47340000Y38720000D02*
X49180000Y38720000D01*
X49180000Y38720000D02*
X49180000Y42560000D01*
X47340000Y42560000D02*
X47340000Y38720000D01*
X49180000Y42560000D02*
X47340000Y42560000D01*
X48260000Y43510000D02*
X48260000Y42560000D01*
%TO.C,C1*%
X2615000Y4715199D02*
X2615000Y5115199D01*
X2415000Y4915199D02*
X2815000Y4915199D01*
X1730000Y6985000D02*
X2970000Y6985000D01*
X4650000Y6985000D02*
X5890000Y6985000D01*
X1730000Y7025000D02*
X2970000Y7025000D01*
X4650000Y7025000D02*
X5890000Y7025000D01*
X1731000Y7065000D02*
X2970000Y7065000D01*
X4650000Y7065000D02*
X5889000Y7065000D01*
X1733000Y7105000D02*
X2970000Y7105000D01*
X4650000Y7105000D02*
X5887000Y7105000D01*
X1736000Y7145000D02*
X2970000Y7145000D01*
X4650000Y7145000D02*
X5884000Y7145000D01*
X1739000Y7185000D02*
X2970000Y7185000D01*
X4650000Y7185000D02*
X5881000Y7185000D01*
X1743000Y7225000D02*
X2970000Y7225000D01*
X4650000Y7225000D02*
X5877000Y7225000D01*
X1748000Y7265000D02*
X2970000Y7265000D01*
X4650000Y7265000D02*
X5872000Y7265000D01*
X1754000Y7305000D02*
X2970000Y7305000D01*
X4650000Y7305000D02*
X5866000Y7305000D01*
X1760000Y7345000D02*
X2970000Y7345000D01*
X4650000Y7345000D02*
X5860000Y7345000D01*
X1768000Y7385000D02*
X2970000Y7385000D01*
X4650000Y7385000D02*
X5852000Y7385000D01*
X1776000Y7425000D02*
X2970000Y7425000D01*
X4650000Y7425000D02*
X5844000Y7425000D01*
X1785000Y7465000D02*
X2970000Y7465000D01*
X4650000Y7465000D02*
X5835000Y7465000D01*
X1794000Y7505000D02*
X2970000Y7505000D01*
X4650000Y7505000D02*
X5826000Y7505000D01*
X1805000Y7545000D02*
X2970000Y7545000D01*
X4650000Y7545000D02*
X5815000Y7545000D01*
X1816000Y7585000D02*
X2970000Y7585000D01*
X4650000Y7585000D02*
X5804000Y7585000D01*
X1828000Y7625000D02*
X2970000Y7625000D01*
X4650000Y7625000D02*
X5792000Y7625000D01*
X1842000Y7665000D02*
X2970000Y7665000D01*
X4650000Y7665000D02*
X5778000Y7665000D01*
X1856000Y7706000D02*
X2970000Y7706000D01*
X4650000Y7706000D02*
X5764000Y7706000D01*
X1870000Y7746000D02*
X2970000Y7746000D01*
X4650000Y7746000D02*
X5750000Y7746000D01*
X1886000Y7786000D02*
X2970000Y7786000D01*
X4650000Y7786000D02*
X5734000Y7786000D01*
X1903000Y7826000D02*
X2970000Y7826000D01*
X4650000Y7826000D02*
X5717000Y7826000D01*
X1921000Y7866000D02*
X2970000Y7866000D01*
X4650000Y7866000D02*
X5699000Y7866000D01*
X1940000Y7906000D02*
X2970000Y7906000D01*
X4650000Y7906000D02*
X5680000Y7906000D01*
X1959000Y7946000D02*
X2970000Y7946000D01*
X4650000Y7946000D02*
X5661000Y7946000D01*
X1980000Y7986000D02*
X2970000Y7986000D01*
X4650000Y7986000D02*
X5640000Y7986000D01*
X2002000Y8026000D02*
X2970000Y8026000D01*
X4650000Y8026000D02*
X5618000Y8026000D01*
X2025000Y8066000D02*
X2970000Y8066000D01*
X4650000Y8066000D02*
X5595000Y8066000D01*
X2050000Y8106000D02*
X2970000Y8106000D01*
X4650000Y8106000D02*
X5570000Y8106000D01*
X2075000Y8146000D02*
X2970000Y8146000D01*
X4650000Y8146000D02*
X5545000Y8146000D01*
X2102000Y8186000D02*
X2970000Y8186000D01*
X4650000Y8186000D02*
X5518000Y8186000D01*
X2130000Y8226000D02*
X2970000Y8226000D01*
X4650000Y8226000D02*
X5490000Y8226000D01*
X2160000Y8266000D02*
X2970000Y8266000D01*
X4650000Y8266000D02*
X5460000Y8266000D01*
X2191000Y8306000D02*
X2970000Y8306000D01*
X4650000Y8306000D02*
X5429000Y8306000D01*
X2223000Y8346000D02*
X2970000Y8346000D01*
X4650000Y8346000D02*
X5397000Y8346000D01*
X2258000Y8386000D02*
X2970000Y8386000D01*
X4650000Y8386000D02*
X5362000Y8386000D01*
X2294000Y8426000D02*
X2970000Y8426000D01*
X4650000Y8426000D02*
X5326000Y8426000D01*
X2332000Y8466000D02*
X2970000Y8466000D01*
X4650000Y8466000D02*
X5288000Y8466000D01*
X2372000Y8506000D02*
X2970000Y8506000D01*
X4650000Y8506000D02*
X5248000Y8506000D01*
X2414000Y8546000D02*
X2970000Y8546000D01*
X4650000Y8546000D02*
X5206000Y8546000D01*
X2459000Y8586000D02*
X5161000Y8586000D01*
X2506000Y8626000D02*
X5114000Y8626000D01*
X2556000Y8666000D02*
X5064000Y8666000D01*
X2610000Y8706000D02*
X5010000Y8706000D01*
X2668000Y8746000D02*
X4952000Y8746000D01*
X2730000Y8786000D02*
X4890000Y8786000D01*
X2797000Y8826000D02*
X4823000Y8826000D01*
X2870000Y8866000D02*
X4750000Y8866000D01*
X2951000Y8906000D02*
X4669000Y8906000D01*
X3042000Y8946000D02*
X4578000Y8946000D01*
X3146000Y8986000D02*
X4474000Y8986000D01*
X3273000Y9026000D02*
X4347000Y9026000D01*
X3440000Y9066000D02*
X4180000Y9066000D01*
X5930000Y6985000D02*
G75*
G03*
X5930000Y6985000I-2120000J0D01*
G01*
%TD*%
G36*
X13018500Y24130414D02*
G01*
X13018500Y16827086D01*
X13017914Y16826500D01*
X10794586Y16826500D01*
X10794000Y16827086D01*
X10794000Y23803345D01*
X11076893Y23803345D01*
X11076893Y17154155D01*
X12735607Y17154155D01*
X12735607Y23803345D01*
X11076893Y23803345D01*
X10794000Y23803345D01*
X10794000Y24130414D01*
X10794586Y24131000D01*
X13017914Y24131000D01*
X13018500Y24130414D01*
G37*
G36*
X44451000Y6350414D02*
G01*
X44451000Y-414D01*
X44450414Y-1000D01*
X39369586Y-1000D01*
X39369000Y-414D01*
X39369000Y5961857D01*
X40156834Y5961857D01*
X40156834Y4303143D01*
X43663167Y4303143D01*
X43663167Y5961857D01*
X40156834Y5961857D01*
X39369000Y5961857D01*
X39369000Y6350414D01*
X39369586Y6351000D01*
X44450414Y6351000D01*
X44451000Y6350414D01*
G37*
G36*
X10251000Y20725414D02*
G01*
X10251000Y16724586D01*
X10250414Y16724000D01*
X-414Y16724000D01*
X-1000Y16724586D01*
X-1000Y20478167D01*
X8358143Y20478167D01*
X8358143Y16971834D01*
X10016857Y16971834D01*
X10016857Y20478167D01*
X8358143Y20478167D01*
X-1000Y20478167D01*
X-1000Y20725414D01*
X-414Y20726000D01*
X10250414Y20726000D01*
X10251000Y20725414D01*
G37*
G36*
X27687000Y53340414D02*
G01*
X27687000Y45084586D01*
X27686414Y45084000D01*
X25145586Y45084000D01*
X25145000Y45084586D01*
X25145000Y49036857D01*
X25586643Y49036857D01*
X25586643Y45530524D01*
X27245357Y45530524D01*
X27245357Y49036857D01*
X25586643Y49036857D01*
X25145000Y49036857D01*
X25145000Y53340414D01*
X25145586Y53341000D01*
X27686414Y53341000D01*
X27687000Y53340414D01*
G37*
%LPC*%
D13*
%TO.C,J3*%
X27940000Y2540000D03*
X30480000Y2540000D03*
X33020000Y2540000D03*
X35560000Y2540000D03*
X38100000Y2540000D03*
X40640000Y2540000D03*
X43180000Y2540000D03*
X45720000Y2540000D03*
%TD*%
%TO.C,J4*%
X50800000Y2540000D03*
X53340000Y2540000D03*
X55880000Y2540000D03*
X58420000Y2540000D03*
X60960000Y2540000D03*
X63500000Y2540000D03*
%TD*%
%TO.C,J2*%
X41656000Y50800000D03*
X39116000Y50800000D03*
X36576000Y50800000D03*
X34036000Y50800000D03*
X31496000Y50800000D03*
X28956000Y50800000D03*
X26416000Y50800000D03*
X23876000Y50800000D03*
X21336000Y50800000D03*
X18796000Y50800000D03*
%TD*%
%TO.C,J1*%
X63500000Y50800000D03*
X60960000Y50800000D03*
X58420000Y50800000D03*
X55880000Y50800000D03*
X53340000Y50800000D03*
X50800000Y50800000D03*
X48260000Y50800000D03*
X45720000Y50800000D03*
%TD*%
D14*
%TO.C,C2*%
X19050000Y7735000D03*
D15*
X19050000Y6235000D03*
%TD*%
D16*
%TO.C,C4*%
X30480000Y11950000D03*
D15*
X30480000Y13450000D03*
%TD*%
D17*
%TO.C,SW1*%
X61885000Y11990000D03*
X61885000Y18490000D03*
X66385000Y11990000D03*
X66385000Y18490000D03*
%TD*%
%TO.C,SW2*%
X61885000Y24690000D03*
X61885000Y31190000D03*
X66385000Y24690000D03*
X66385000Y31190000D03*
%TD*%
D18*
%TO.C,D5*%
X48260000Y12065000D03*
D19*
X50800000Y12065000D03*
%TD*%
D18*
%TO.C,D6*%
X48260000Y18415000D03*
D19*
X50800000Y18415000D03*
%TD*%
D20*
%TO.C,R2*%
X55880000Y44450000D03*
D21*
X55880000Y36830000D03*
%TD*%
D22*
%TO.C,U1*%
X15240000Y6350000D03*
D23*
X15240000Y8890000D03*
X15240000Y11430000D03*
X15240000Y13970000D03*
X7620000Y13970000D03*
X7620000Y11430000D03*
X7620000Y8890000D03*
X7620000Y6350000D03*
%TD*%
D24*
%TO.C,D10*%
X33020000Y36830000D03*
D23*
X33020000Y44450000D03*
%TD*%
D25*
%TO.C,J5*%
X6000000Y25725000D03*
X6000000Y22225000D03*
X6000000Y18725000D03*
%TD*%
D20*
%TO.C,R3*%
X53340000Y44450000D03*
D21*
X53340000Y36830000D03*
%TD*%
D20*
%TO.C,R1*%
X58420000Y44450000D03*
D21*
X58420000Y36830000D03*
%TD*%
D18*
%TO.C,D3*%
X54610000Y24765000D03*
D19*
X57150000Y24765000D03*
%TD*%
D16*
%TO.C,C6*%
X30480000Y22110000D03*
D15*
X30480000Y23610000D03*
%TD*%
D26*
%TO.C,SW4*%
X28035000Y39390000D03*
X26035000Y39390000D03*
X24035000Y39390000D03*
X28035000Y41890000D03*
X26035000Y41890000D03*
X24035000Y41890000D03*
D27*
X30135000Y40640000D03*
X21935000Y40640000D03*
%TD*%
D28*
%TO.C,MH1*%
X15240000Y50800000D03*
%TD*%
D24*
%TO.C,D9*%
X35560000Y36830000D03*
D23*
X35560000Y44450000D03*
%TD*%
D29*
%TO.C,RV1*%
X44370000Y16470000D03*
X34370000Y13970000D03*
X44370000Y11470000D03*
%TD*%
D30*
%TO.C,D11*%
X18415000Y43180000D03*
D31*
X18415000Y33020000D03*
%TD*%
D18*
%TO.C,D2*%
X54610000Y18415000D03*
D19*
X57150000Y18415000D03*
%TD*%
D32*
%TO.C,J6*%
X6080000Y43180000D03*
X6080000Y33020000D03*
D33*
X14970000Y41270000D03*
X12430000Y40000000D03*
X14970000Y38730000D03*
X12430000Y37460000D03*
X14970000Y36190000D03*
X12430000Y34920000D03*
%TD*%
D20*
%TO.C,R4*%
X50800000Y44450000D03*
D21*
X50800000Y36830000D03*
%TD*%
D18*
%TO.C,D7*%
X48260000Y24765000D03*
D19*
X50800000Y24765000D03*
%TD*%
D18*
%TO.C,D8*%
X48260000Y31115000D03*
D19*
X50800000Y31115000D03*
%TD*%
D20*
%TO.C,R9*%
X38100000Y36830000D03*
D21*
X38100000Y44450000D03*
%TD*%
D29*
%TO.C,RV2*%
X44370000Y31710000D03*
X34370000Y29210000D03*
X44370000Y26710000D03*
%TD*%
D18*
%TO.C,D4*%
X54610000Y31115000D03*
D19*
X57150000Y31115000D03*
%TD*%
D16*
%TO.C,C5*%
X30480000Y27190000D03*
D15*
X30480000Y28690000D03*
%TD*%
D20*
%TO.C,R6*%
X45720000Y44450000D03*
D21*
X45720000Y36830000D03*
%TD*%
D20*
%TO.C,R7*%
X43180000Y36830000D03*
D21*
X43180000Y44450000D03*
%TD*%
D16*
%TO.C,C3*%
X30480000Y17030000D03*
D15*
X30480000Y18530000D03*
%TD*%
D17*
%TO.C,SW3*%
X9550000Y47050000D03*
X3050000Y47050000D03*
X9550000Y51550000D03*
X3050000Y51550000D03*
%TD*%
D22*
%TO.C,U2*%
X26670000Y11430000D03*
D23*
X26670000Y13970000D03*
X26670000Y16510000D03*
X26670000Y19050000D03*
X26670000Y21590000D03*
X26670000Y24130000D03*
X26670000Y26670000D03*
X26670000Y29210000D03*
X19050000Y29210000D03*
X19050000Y26670000D03*
X19050000Y24130000D03*
X19050000Y21590000D03*
X19050000Y19050000D03*
X19050000Y16510000D03*
X19050000Y13970000D03*
X19050000Y11430000D03*
%TD*%
D20*
%TO.C,R8*%
X40640000Y36830000D03*
D21*
X40640000Y44450000D03*
%TD*%
D18*
%TO.C,D1*%
X54610000Y12065000D03*
D19*
X57150000Y12065000D03*
%TD*%
D28*
%TO.C,MH2*%
X13970000Y2540000D03*
%TD*%
D20*
%TO.C,R5*%
X48260000Y36830000D03*
D21*
X48260000Y44450000D03*
%TD*%
D28*
%TO.C,MH3*%
X66040000Y35560000D03*
%TD*%
D16*
%TO.C,C1*%
X3810000Y6235000D03*
D15*
X3810000Y7735000D03*
%TD*%
D28*
%TO.C,MH4*%
X66040000Y7620000D03*
%TD*%
M02*
