M48
; DRILL file {KiCad 7.0.1} date Sat Jan  6 16:02:57 2024
; FORMAT={-:-/ absolute / metric / decimal}
; #@! TF.CreationDate,2024-01-06T16:02:57-05:00
; #@! TF.GenerationSoftware,Kicad,Pcbnew,7.0.1
; #@! TF.FileFunction,Plated,1,2,PTH
FMAT,2
METRIC
; #@! TA.AperFunction,Plated,PTH,ComponentDrill
T1C0.600
; #@! TA.AperFunction,Plated,PTH,ComponentDrill
T2C0.700
; #@! TA.AperFunction,Plated,PTH,ComponentDrill
T3C0.760
; #@! TA.AperFunction,Plated,PTH,ComponentDrill
T4C0.800
; #@! TA.AperFunction,Plated,PTH,ComponentDrill
T5C0.900
; #@! TA.AperFunction,Plated,PTH,ComponentDrill
T6C1.000
; #@! TA.AperFunction,Plated,PTH,ComponentDrill
T7C1.100
; #@! TA.AperFunction,Plated,PTH,ComponentDrill
T8C1.200
; #@! TA.AperFunction,Plated,PTH,ComponentDrill
T9C1.300
; #@! TA.AperFunction,Plated,PTH,ComponentDrill
T10C1.500
%
G90
G05
T1
X3.81Y7.735
X3.81Y6.235
X19.05Y7.735
X19.05Y6.235
X30.48Y28.69
X30.48Y27.19
X30.48Y23.61
X30.48Y22.11
X30.48Y18.53
X30.48Y17.03
X30.48Y13.45
X30.48Y11.95
T2
X38.1Y44.45
X38.1Y36.83
X40.64Y44.45
X40.64Y36.83
X43.18Y44.45
X43.18Y36.83
X45.72Y44.45
X45.72Y36.83
X48.26Y44.45
X48.26Y36.83
X50.8Y44.45
X50.8Y36.83
X53.34Y44.45
X53.34Y36.83
X55.88Y44.45
X55.88Y36.83
X58.42Y44.45
X58.42Y36.83
T3
X12.43Y40.0
X12.43Y37.46
X12.43Y34.92
X14.97Y41.27
X14.97Y38.73
X14.97Y36.19
T4
X7.62Y13.97
X7.62Y11.43
X7.62Y8.89
X7.62Y6.35
X15.24Y13.97
X15.24Y11.43
X15.24Y8.89
X15.24Y6.35
X19.05Y29.21
X19.05Y26.67
X19.05Y24.13
X19.05Y21.59
X19.05Y19.05
X19.05Y16.51
X19.05Y13.97
X19.05Y11.43
X24.035Y41.89
X24.035Y39.39
X26.035Y41.89
X26.035Y39.39
X26.67Y29.21
X26.67Y26.67
X26.67Y24.13
X26.67Y21.59
X26.67Y19.05
X26.67Y16.51
X26.67Y13.97
X26.67Y11.43
X28.035Y41.89
X28.035Y39.39
X33.02Y44.45
X33.02Y36.83
X35.56Y44.45
X35.56Y36.83
T5
X48.26Y31.115
X48.26Y24.765
X48.26Y18.415
X48.26Y12.065
X50.8Y31.115
X50.8Y24.765
X50.8Y18.415
X50.8Y12.065
X54.61Y31.115
X54.61Y24.765
X54.61Y18.415
X54.61Y12.065
X57.15Y31.115
X57.15Y24.765
X57.15Y18.415
X57.15Y12.065
T6
X18.796Y50.8
X21.336Y50.8
X23.876Y50.8
X26.416Y50.8
X27.94Y2.54
X28.956Y50.8
X30.48Y2.54
X31.496Y50.8
X33.02Y2.54
X34.036Y50.8
X35.56Y2.54
X36.576Y50.8
X38.1Y2.54
X39.116Y50.8
X40.64Y2.54
X41.656Y50.8
X43.18Y2.54
X45.72Y50.8
X45.72Y2.54
X48.26Y50.8
X50.8Y50.8
X50.8Y2.54
X53.34Y50.8
X53.34Y2.54
X55.88Y50.8
X55.88Y2.54
X58.42Y50.8
X58.42Y2.54
X60.96Y50.8
X60.96Y2.54
X63.5Y50.8
X63.5Y2.54
T7
X3.05Y51.55
X3.05Y47.05
X9.55Y51.55
X9.55Y47.05
X18.415Y43.18
X18.415Y33.02
X61.885Y31.19
X61.885Y24.69
X61.885Y18.49
X61.885Y11.99
X66.385Y31.19
X66.385Y24.69
X66.385Y18.49
X66.385Y11.99
T8
X6.0Y25.725
X6.0Y22.225
X6.0Y18.725
T9
X34.37Y29.21
X34.37Y13.97
X44.37Y31.71
X44.37Y26.71
X44.37Y16.47
X44.37Y11.47
T10
X21.935Y40.64
X30.135Y40.64
T0
M30
