<?xml version="1.0" encoding="UTF-8" standalone="no"?>
<!-- Created with Inkscape (http://www.inkscape.org/) -->

<svg
   width="0.40000001in"
   height="0.40000001in"
   viewBox="0 0 10.16 10.16"
   version="1.1"
   id="svg1"
   inkscape:version="1.2.2 (732a01da63, 2022-12-09)"
   sodipodi:docname="QR Code.svg"
   xmlns:inkscape="http://www.inkscape.org/namespaces/inkscape"
   xmlns:sodipodi="http://sodipodi.sourceforge.net/DTD/sodipodi-0.dtd"
   xmlns="http://www.w3.org/2000/svg"
   xmlns:svg="http://www.w3.org/2000/svg">
  <sodipodi:namedview
     id="namedview1"
     pagecolor="#ffffff"
     bordercolor="#000000"
     borderopacity="0.25"
     inkscape:showpageshadow="2"
     inkscape:pageopacity="0.0"
     inkscape:pagecheckerboard="0"
     inkscape:deskcolor="#d1d1d1"
     inkscape:document-units="mm"
     inkscape:zoom="22.948373"
     inkscape:cx="26.363525"
     inkscape:cy="29.021665"
     inkscape:window-width="1920"
     inkscape:window-height="1017"
     inkscape:window-x="-8"
     inkscape:window-y="-8"
     inkscape:window-maximized="1"
     inkscape:current-layer="layer1"
     showgrid="false" />
  <defs
     id="defs1" />
  <g
     inkscape:label="Layer 1"
     inkscape:groupmode="layer"
     id="layer1">
    <path
       id="rect4727"
       style="fill:#ff0000;stroke:none;stroke-width:0.0686503"
       d="M 0,0 V 10.16 H 10.16 V 0 Z M 1.09843,1.09843 H 3.0205234 V 3.0205234 H 1.09843 Z m 2.19686,0 h 0.2747664 v 0.2747665 h 0.548897 V 1.09843 H 5.2173833 V 1.3731965 H 4.9426169 V 1.6473269 H 5.4921498 V 1.9220934 H 4.9426169 V 2.19686 H 4.3937198 V 2.4716265 H 4.9426169 V 2.7457569 H 5.2173833 V 3.0205234 H 4.9426169 V 3.29529 H 5.2173833 V 3.5700564 H 5.4921498 V 2.7457569 H 5.7669163 V 3.29529 h 0.548897 V 3.0205234 H 6.0410467 V 2.7457569 H 6.3158133 V 3.0205234 H 6.5905798 V 2.4716265 H 6.8653463 V 3.0205234 H 6.5905798 V 3.29529 H 6.3158133 V 3.8441869 H 5.7669163 V 4.1189534 H 6.0410467 V 4.6684863 H 6.3158133 V 4.1189534 H 6.5905798 V 4.3937198 H 6.8653463 V 4.1189534 H 7.4142432 V 3.5700564 H 7.1394767 V 3.8441869 H 6.8653463 V 3.5700564 H 7.1394767 V 3.29529 h 0.2747665 v 0.2747664 h 0.548897 v 0.548897 H 8.2379067 V 3.5700564 H 8.7874398 V 3.29529 H 9.0615702 V 3.5700564 H 8.7874398 V 3.8441869 H 8.5126732 V 4.1189534 H 8.2379067 V 4.3937198 H 7.9631402 V 4.1189534 H 7.6890098 v 0.5495329 h 1.09843 V 4.1189534 H 9.0615702 V 5.4921498 H 8.7874398 V 4.9426169 H 8.5126732 V 5.4921498 H 8.2379067 V 5.7669163 H 8.7874398 V 6.0410467 H 9.0615702 V 6.3158133 H 8.7874398 V 6.0410467 H 8.2379067 V 6.3158133 H 8.5126732 V 6.5905798 H 8.7874398 V 6.8653463 H 8.2379067 V 7.4142432 H 7.9631402 v 0.2747666 h 0.2747665 v 0.2741304 h -1.09843 v 0.549533 H 7.4142432 V 8.2379067 h 0.548897 V 8.5126732 H 8.2379067 V 8.2379067 H 8.7874398 V 7.9631402 H 9.0615702 V 8.7874398 H 8.7874398 V 8.5126732 H 8.5126732 V 8.7874398 H 7.9631402 V 9.0615702 H 7.6890098 V 8.7874398 H 7.4142432 V 9.0615702 H 7.1394767 V 8.5126732 H 6.5905798 V 8.2379067 H 6.8653463 V 7.9631402 h -0.549533 v 0.8242996 h 0.549533 V 9.0615702 H 6.3158133 V 8.7874398 H 6.0410467 V 8.5126732 H 5.7669163 V 8.2379067 H 5.4921498 V 8.5126732 H 5.2173833 V 8.2379067 H 4.9426169 V 8.5126732 H 4.6684863 V 8.2379067 H 4.9426169 V 7.9631402 H 5.2173833 V 7.4142432 H 4.9426169 V 7.1394767 H 4.6684863 V 7.4142432 H 4.3937198 V 7.6890098 H 4.6684863 V 7.9631402 H 4.3937198 V 8.2379067 H 3.29529 V 7.6890098 H 3.5700564 V 7.9631402 H 4.3937198 V 7.6890098 H 3.8441869 V 7.1394767 H 3.29529 V 6.8653463 H 2.7457569 V 6.5905798 H 3.5700564 V 6.0410467 H 3.8441869 V 5.7669163 H 3.5700564 V 4.1189534 H 3.8441869 V 3.8441869 H 3.29529 V 4.1189534 H 2.4716265 V 4.3937198 H 2.19686 V 4.6684863 H 2.4716265 V 4.9426169 H 1.9220934 V 5.7669163 H 1.6473269 V 6.0410467 H 1.9220934 V 6.3158133 H 1.6473269 v 0.549533 H 1.09843 v -1.09843 H 1.3731965 V 5.4921498 H 1.09843 V 4.9426169 H 1.3731965 V 5.4921498 H 1.6473269 V 4.9426169 H 1.9220934 V 4.3937198 H 1.6473269 V 3.8441869 H 1.3731965 V 3.5700564 H 1.09843 V 3.29529 H 1.6473269 V 3.8441869 H 2.19686 V 4.1189534 H 2.4716265 V 3.5700564 H 1.9220934 V 3.29529 H 2.4716265 V 3.5700564 H 2.7457569 V 3.29529 H 3.0205234 V 3.5700564 H 2.7457569 V 3.8441869 H 3.29529 V 3.5700564 H 3.5700564 V 3.29529 H 3.29529 V 2.7457569 H 3.5700564 V 3.29529 H 3.8441869 V 2.4716265 H 3.5700564 V 2.19686 H 3.8441869 V 2.4716265 H 4.1189534 V 2.19686 H 4.3937198 V 1.6473269 H 4.6684863 V 1.3731965 H 4.1189534 V 1.9220934 H 3.8441869 V 1.6473269 H 3.5700564 V 1.3731965 H 3.29529 Z M 4.1189534,2.4716265 V 3.0205234 H 4.3937198 V 2.4716265 Z m 0.2747664,0.5488969 v 0.549533 H 4.6684863 V 3.8441869 H 4.3937198 V 4.1189534 H 4.6684863 V 4.6684863 H 4.1189534 V 4.3937198 H 3.8441869 v 1.09843 H 4.1189534 V 4.9426169 H 4.9426169 V 4.3937198 H 5.4921498 V 4.6684863 H 5.7669163 V 4.1189534 H 5.2173833 V 3.5700564 H 4.9426169 V 3.29529 H 4.6684863 V 3.0205234 Z m 0.2747665,0 H 4.9426169 V 2.7457569 H 4.6684863 Z M 5.4921498,4.6684863 H 5.2173833 V 4.9426169 H 5.4921498 Z M 4.1189534,5.4921498 V 5.7669163 H 4.3937198 V 5.4921498 Z m 0.2747664,0 H 4.6684863 V 6.3158133 H 4.9426169 V 5.7669163 H 5.2173833 V 5.4921498 h 0.549533 v 0.2747665 h -0.549533 v 0.2741304 h 0.549533 V 6.3158133 H 5.4921498 v 0.549533 H 5.2173833 V 7.1394767 H 6.0410467 V 6.8653463 H 5.7669163 V 6.5905798 H 6.0410467 V 6.8653463 H 6.3158133 V 7.1394767 H 6.5905798 V 6.5905798 H 6.3158133 V 6.0410467 H 6.0410467 V 5.7669163 H 6.3158133 V 4.9426169 H 5.7669163 V 5.2173833 H 4.3937198 Z m 2.19686,1.09843 H 7.1394767 V 6.3158133 h 0.2747665 v 0.2747665 h 0.548897 V 6.3158133 H 7.6890098 V 5.7669163 H 7.9631402 V 5.4921498 H 7.4142432 V 5.2173833 H 6.5905798 V 5.4921498 H 7.1394767 V 5.7669163 H 6.5905798 Z M 7.4142432,5.2173833 H 7.6890098 V 4.9426169 H 7.4142432 Z m 0.548897,0.2747665 H 8.2379067 V 4.9426169 H 7.9631402 Z m 0,0.2747665 V 6.0410467 H 8.2379067 V 5.7669163 Z M 6.3158133,7.1394767 H 6.0410467 V 7.4142432 H 6.3158133 Z M 4.9426169,6.3158133 V 6.5905798 H 5.2173833 V 6.3158133 Z m 0,0.2747665 H 4.6684863 V 6.8653463 H 4.9426169 Z M 4.6684863,6.8653463 H 4.3937198 v 0.2741304 h 0.2747665 z m -0.2747665,0 V 6.5905798 H 4.6684863 V 6.3158133 H 4.1189534 v 0.549533 z m -0.2747664,0 H 3.8441869 v 0.2741304 h 0.2747665 z m -0.2747665,0 V 6.5905798 H 3.5700564 V 6.8653463 Z M 4.1189534,6.3158133 V 6.0410467 H 3.8441869 V 6.3158133 Z M 4.3937198,3.8441869 V 3.5700564 H 3.8441869 V 3.8441869 Z M 5.7669163,8.2379067 H 6.0410467 V 7.9631402 H 6.3158133 V 7.6890098 H 5.4921498 V 7.9631402 H 5.7669163 Z M 7.6890098,8.7874398 H 7.9631402 V 8.5126732 H 7.6890098 Z M 6.8653463,4.3937198 V 4.6684863 H 6.5905798 V 4.9426169 H 7.1394767 V 4.3937198 Z M 5.7669163,1.09843 H 6.0410467 V 1.3731965 H 6.5905798 V 1.09843 H 6.8653463 V 1.6473269 H 6.3158133 V 2.19686 H 6.0410467 V 2.4716265 H 5.2173833 V 2.19686 h 0.549533 V 1.9220934 H 6.0410467 V 1.6473269 H 5.7669163 Z m 1.3725604,0 H 9.0615702 V 3.0205234 H 7.1394767 Z M 1.3731965,1.3731965 V 2.7457569 H 2.7457569 V 1.3731965 Z m 6.0410467,0 V 2.7457569 H 8.7874398 V 1.3731965 Z M 1.6473269,1.6473269 H 2.4716265 V 2.4716265 H 1.6473269 Z m 6.0416829,0 H 8.5126732 V 2.4716265 H 7.6890098 Z m -1.09843,0.2747665 H 6.8653463 V 2.19686 H 6.5905798 Z M 1.09843,4.3937198 H 1.3731965 V 4.6684863 H 1.09843 Z m 1.6473269,0 H 3.29529 v 1.09843 H 3.0205234 V 5.7669163 H 2.7457569 V 5.4921498 H 2.4716265 V 5.2173833 H 2.7457569 V 4.9426169 H 3.0205234 V 4.6684863 H 2.7457569 Z m 0,0.8236635 V 5.4921498 H 3.0205234 V 5.2173833 Z M 2.19686,5.7669163 H 2.4716265 V 6.0410467 H 3.29529 V 6.3158133 H 2.19686 Z M 1.9220934,6.5905798 H 2.4716265 V 6.8653463 H 1.9220934 Z M 6.8653463,6.8653463 V 7.6890098 H 7.6890098 V 6.8653463 Z M 1.09843,7.1394767 H 3.0205234 V 9.0615702 H 1.09843 Z m 6.0410467,0 H 7.4142432 V 7.4142432 H 7.1394767 Z M 1.3731965,7.4142432 V 8.7874398 H 2.7457569 V 7.4142432 Z M 1.6473269,7.6890098 H 2.4716265 V 8.5126732 H 1.6473269 Z M 3.29529,8.5126732 H 3.5700564 V 8.7874398 H 3.8441869 V 9.0615702 H 3.29529 Z M 4.1189534,8.7874398 H 4.9426169 V 9.0615702 H 4.1189534 Z m 1.0984299,0 h 0.549533 v 0.2741304 h -0.549533 z" />
  </g>
</svg>
