<?xml version="1.0" encoding="UTF-8" standalone="no"?>
<!-- Created with Inkscape (http://www.inkscape.org/) -->

<svg
   width="0.34999999in"
   height="0.34999999in"
   viewBox="0 0 8.89 8.8899999"
   version="1.1"
   id="svg1"
   inkscape:version="1.3.2 (091e20ef0f, 2023-11-25)"
   sodipodi:docname="QR Code.svg"
   xmlns:inkscape="http://www.inkscape.org/namespaces/inkscape"
   xmlns:sodipodi="http://sodipodi.sourceforge.net/DTD/sodipodi-0.dtd"
   xmlns="http://www.w3.org/2000/svg"
   xmlns:svg="http://www.w3.org/2000/svg">
  <sodipodi:namedview
     id="namedview1"
     pagecolor="#ffffff"
     bordercolor="#000000"
     borderopacity="0.25"
     inkscape:showpageshadow="2"
     inkscape:pageopacity="0.0"
     inkscape:pagecheckerboard="0"
     inkscape:deskcolor="#d1d1d1"
     inkscape:document-units="mm"
     inkscape:zoom="22.948373"
     inkscape:cx="26.341737"
     inkscape:cy="18.54162"
     inkscape:window-width="1920"
     inkscape:window-height="1011"
     inkscape:window-x="0"
     inkscape:window-y="32"
     inkscape:window-maximized="1"
     inkscape:current-layer="layer1" />
  <defs
     id="defs1" />
  <g
     inkscape:label="Layer 1"
     inkscape:groupmode="layer"
     id="layer1">
    <path
       id="rect4727"
       style="fill:#ff0000;stroke:none;stroke-width:0.060069"
       d="M 0,0 V 8.8899998 H 8.8899998 V 0 Z M 0.96112619,0.96112619 H 2.6429579 V 2.6429579 H 0.96112619 Z m 1.92225241,0 H 3.1237992 V 1.2015469 H 3.6040841 V 0.96112619 H 4.5652102 V 1.2015469 H 4.3247896 V 1.441411 H 4.8056309 V 1.6818317 H 4.3247896 V 1.9222524 H 3.8445047 V 2.1626731 H 4.3247896 V 2.4025372 H 4.5652102 V 2.6429579 H 4.3247896 V 2.8833786 H 4.5652102 V 3.1237992 H 4.8056309 V 2.4025372 H 5.0460516 V 2.8833786 H 5.5263364 V 2.6429579 H 5.2859157 V 2.4025372 H 5.5263364 V 2.6429579 H 5.7667571 V 2.1626731 H 6.0071778 V 2.6429579 H 5.7667571 V 2.8833786 H 5.5263364 V 3.3636634 H 5.0460516 V 3.6040841 H 5.2859157 V 4.0849254 H 5.5263364 V 3.6040841 H 5.7667571 V 3.8445047 H 6.0071778 V 3.6040841 H 6.4874626 V 3.1237992 H 6.2470419 V 3.3636634 H 6.0071778 V 3.1237992 H 6.2470419 V 2.8833786 H 6.4874626 V 3.1237992 H 6.9677474 V 3.6040841 H 7.2081681 V 3.1237992 H 7.6890095 V 2.8833786 H 7.9288736 V 3.1237992 H 7.6890095 V 3.3636634 H 7.4485888 V 3.6040841 H 7.2081681 V 3.8445047 H 6.9677474 V 3.6040841 H 6.7278833 V 4.0849254 H 7.6890095 V 3.6040841 H 7.9288736 V 4.8056309 H 7.6890095 V 4.3247896 H 7.4485888 V 4.8056309 H 7.2081681 V 5.0460516 H 7.6890095 V 5.2859157 H 7.9288736 V 5.5263364 H 7.6890095 V 5.2859157 H 7.2081681 V 5.5263364 H 7.4485888 V 5.7667571 H 7.6890095 V 6.0071778 H 7.2081681 V 6.4874626 H 6.9677474 V 6.7278833 H 7.2081681 V 6.9677474 H 6.2470419 V 7.4485888 H 6.4874626 V 7.2081681 H 6.9677474 V 7.4485888 H 7.2081681 V 7.2081681 H 7.6890095 V 6.9677474 H 7.9288736 V 7.6890095 H 7.6890095 V 7.4485888 H 7.4485888 V 7.6890095 H 6.9677474 V 7.9288736 H 6.7278833 V 7.6890095 H 6.4874626 V 7.9288736 H 6.2470419 V 7.4485888 H 5.7667571 V 7.2081681 H 6.0071778 V 6.9677474 H 5.5263364 V 7.6890095 H 6.0071778 V 7.9288736 H 5.5263364 V 7.6890095 H 5.2859157 V 7.4485888 H 5.0460516 V 7.2081681 H 4.8056309 V 7.4485888 H 4.5652102 V 7.2081681 H 4.3247896 V 7.4485888 H 4.0849254 V 7.2081681 H 4.3247896 V 6.9677474 H 4.5652102 V 6.4874626 H 4.3247896 V 6.2470419 H 4.0849254 V 6.4874626 H 3.8445047 V 6.7278833 H 4.0849254 V 6.9677474 H 3.8445047 V 7.2081681 H 2.8833786 V 6.7278833 H 3.1237992 V 6.9677474 H 3.8445047 V 6.7278833 H 3.3636634 V 6.2470419 H 2.8833786 V 6.0071778 H 2.4025372 V 5.7667571 h 0.721262 V 5.2859157 H 3.3636634 V 5.0460516 H 3.1237992 V 3.6040841 H 3.3636634 V 3.3636634 H 2.8833786 V 3.6040841 H 2.1626731 V 3.8445047 H 1.9222524 V 4.0849254 H 2.1626731 V 4.3247896 H 1.6818317 v 0.721262 H 1.441411 V 5.2859157 H 1.6818317 V 5.5263364 H 1.441411 V 6.0071778 H 0.96112619 V 5.0460516 H 1.2015469 V 4.8056309 H 0.96112619 V 4.3247896 H 1.2015469 V 4.8056309 H 1.441411 V 4.3247896 H 1.6818317 V 3.8445047 H 1.441411 V 3.3636634 H 1.2015469 V 3.1237992 H 0.96112619 V 2.8833786 H 1.441411 V 3.3636634 H 1.9222524 V 3.6040841 H 2.1626731 V 3.1237992 H 1.6818317 V 2.8833786 H 2.1626731 V 3.1237992 H 2.4025372 V 2.8833786 H 2.6429579 V 3.1237992 H 2.4025372 V 3.3636634 H 2.8833786 V 3.1237992 H 3.1237992 V 2.8833786 H 2.8833786 V 2.4025372 H 3.1237992 V 2.8833786 H 3.3636634 V 2.1626731 H 3.1237992 V 1.9222524 H 3.3636634 V 2.1626731 H 3.6040841 V 1.9222524 H 3.8445047 V 1.441411 H 4.0849254 V 1.2015469 H 3.6040841 V 1.6818317 H 3.3636634 V 1.441411 H 3.1237992 V 1.2015469 H 2.8833786 Z M 3.6040841,2.1626731 V 2.6429579 H 3.8445047 V 2.1626731 Z M 3.8445047,2.6429579 V 3.1237992 H 4.0849254 V 3.3636634 H 3.8445047 V 3.6040841 H 4.0849254 V 4.0849254 H 3.6040841 V 3.8445047 H 3.3636634 V 4.8056309 H 3.6040841 V 4.3247896 H 4.3247896 V 3.8445047 H 4.8056309 V 4.0849254 H 5.0460516 V 3.6040841 H 4.5652102 V 3.1237992 H 4.3247896 V 2.8833786 H 4.0849254 V 2.6429579 Z m 0.2404207,0 H 4.3247896 V 2.4025372 H 4.0849254 Z M 4.8056309,4.0849254 H 4.5652102 V 4.3247896 H 4.8056309 Z M 3.6040841,4.8056309 V 5.0460516 H 3.8445047 V 4.8056309 Z m 0.2404206,0 H 4.0849254 V 5.5263364 H 4.3247896 V 5.0460516 H 4.5652102 V 4.8056309 H 5.0460516 V 5.0460516 H 4.5652102 V 5.2859157 H 5.0460516 V 5.5263364 H 4.8056309 V 6.0071778 H 4.5652102 V 6.2470419 H 5.2859157 V 6.0071778 H 5.0460516 V 5.7667571 H 5.2859157 V 6.0071778 H 5.5263364 V 6.2470419 H 5.7667571 V 5.7667571 H 5.5263364 V 5.2859157 H 5.2859157 V 5.0460516 H 5.5263364 V 4.3247896 H 5.0460516 V 4.5652102 H 3.8445047 Z M 5.7667571,5.7667571 H 6.2470419 V 5.5263364 H 6.4874626 V 5.7667571 H 6.9677474 V 5.5263364 H 6.7278833 V 5.0460516 H 6.9677474 V 4.8056309 H 6.4874626 V 4.5652102 H 5.7667571 V 4.8056309 H 6.2470419 V 5.0460516 H 5.7667571 Z M 6.4874626,4.5652102 H 6.7278833 V 4.3247896 H 6.4874626 Z M 6.9677474,4.8056309 H 7.2081681 V 4.3247896 H 6.9677474 Z m 0,0.2404207 V 5.2859157 H 7.2081681 V 5.0460516 Z M 5.5263364,6.2470419 H 5.2859157 V 6.4874626 H 5.5263364 Z M 4.3247896,5.5263364 V 5.7667571 H 4.5652102 V 5.5263364 Z m 0,0.2404207 H 4.0849254 V 6.0071778 H 4.3247896 Z M 4.0849254,6.0071778 H 3.8445047 v 0.2398641 h 0.2404207 z m -0.2404207,0 V 5.7667571 H 4.0849254 V 5.5263364 H 3.6040841 v 0.4808414 z m -0.2404206,0 H 3.3636634 v 0.2398641 h 0.2404207 z m -0.2404207,0 V 5.7667571 H 3.1237992 V 6.0071778 Z M 3.6040841,5.5263364 V 5.2859157 H 3.3636634 V 5.5263364 Z M 3.8445047,3.3636634 V 3.1237992 H 3.3636634 V 3.3636634 Z M 5.0460516,7.2081681 H 5.2859157 V 6.9677474 H 5.5263364 V 6.7278833 H 4.8056309 V 6.9677474 H 5.0460516 Z M 6.7278833,7.6890095 H 6.9677474 V 7.4485888 H 6.7278833 Z M 6.0071778,3.8445047 V 4.0849254 H 5.7667571 V 4.3247896 H 6.2470419 V 3.8445047 Z M 5.0460516,0.96112619 H 5.2859157 V 1.2015469 H 5.7667571 V 0.96112619 H 6.0071778 V 1.441411 H 5.5263364 V 1.9222524 H 5.2859157 V 2.1626731 H 4.5652102 V 1.9222524 H 5.0460516 V 1.6818317 H 5.2859157 V 1.441411 H 5.0460516 Z m 1.2009903,0 H 7.9288736 V 2.6429579 H 6.2470419 Z M 1.2015469,1.2015469 V 2.4025372 H 2.4025372 V 1.2015469 Z m 5.2859157,0 V 2.4025372 H 7.6890095 V 1.2015469 Z M 1.441411,1.441411 H 2.1626731 V 2.1626731 H 1.441411 Z m 5.2864723,0 H 7.4485888 V 2.1626731 H 6.7278833 Z M 5.7667571,1.6818317 H 6.0071778 V 1.9222524 H 5.7667571 Z M 0.96112619,3.8445047 H 1.2015469 V 4.0849254 H 0.96112619 Z m 1.44141101,0 H 2.8833786 V 4.8056309 H 2.6429579 V 5.0460516 H 2.4025372 V 4.8056309 H 2.1626731 V 4.5652102 H 2.4025372 V 4.3247896 H 2.6429579 V 4.0849254 H 2.4025372 Z m 0,0.7207055 V 4.8056309 H 2.6429579 V 4.5652102 Z M 1.9222524,5.0460516 H 2.1626731 V 5.2859157 H 2.8833786 V 5.5263364 H 1.9222524 Z M 1.6818317,5.7667571 H 2.1626731 V 6.0071778 H 1.6818317 Z M 6.0071778,6.0071778 V 6.7278833 H 6.7278833 V 6.0071778 Z M 0.96112619,6.2470419 H 2.6429579 V 7.9288736 H 0.96112619 Z m 5.28591571,0 H 6.4874626 V 6.4874626 H 6.2470419 Z M 1.2015469,6.4874626 V 7.6890095 H 2.4025372 V 6.4874626 Z M 1.441411,6.7278833 H 2.1626731 V 7.4485888 H 1.441411 Z M 2.8833786,7.4485888 H 3.1237992 V 7.6890095 H 3.3636634 V 7.9288736 H 2.8833786 Z M 3.6040841,7.6890095 H 4.3247896 V 7.9288736 H 3.6040841 Z m 0.9611261,0 H 5.0460516 V 7.9288736 H 4.5652102 Z" />
  </g>
</svg>
